0, 0, Header, 1, 3, 384
1, 0, Start_track
1, 0, Time_signature, 4, 2, 24, 8
1, 0, Tempo, 500000
1, 687160, End_track
2, 0, Start_track
2, 0, Text_t, "Decompressed MIDI"
2, 0, Title_t, "Main Track"
2, 0, Note_on_c, 1, 45, 127
2, 240, Note_on_c, 1, 49, 127
2, 360, Note_off_c, 1, 49, 0
2, 360, Note_on_c, 1, 52, 127
2, 480, Note_off_c, 1, 45, 0
2, 480, Note_off_c, 1, 52, 0
2, 480, Note_on_c, 1, 57, 127
2, 600, Note_on_c, 1, 56, 127
2, 600, Note_off_c, 1, 57, 0
2, 720, Note_on_c, 1, 54, 127
2, 720, Note_off_c, 1, 56, 0
2, 800, Note_on_c, 1, 52, 127
2, 800, Note_off_c, 1, 54, 0
2, 920, Note_on_c, 1, 56, 127
2, 1040, Note_off_c, 1, 56, 0
2, 1040, Note_on_c, 1, 59, 127
2, 1160, Note_off_c, 1, 59, 0
2, 1160, Note_on_c, 1, 62, 127
2, 1240, Note_off_c, 1, 52, 0
2, 1240, Note_on_c, 1, 61, 127
2, 1240, Note_off_c, 1, 62, 0
2, 1360, Note_on_c, 1, 59, 127
2, 1360, Note_off_c, 1, 61, 0
2, 1480, Note_on_c, 1, 57, 127
2, 1480, Note_off_c, 1, 59, 0
2, 1640, Note_on_c, 1, 61, 127
2, 1720, Note_off_c, 1, 61, 0
2, 1720, Note_on_c, 1, 64, 127
2, 1840, Note_off_c, 1, 64, 0
2, 1840, Note_on_c, 1, 69, 127
2, 1960, Note_off_c, 1, 57, 0
2, 1960, Note_on_c, 1, 68, 127
2, 1960, Note_off_c, 1, 69, 0
2, 2080, Note_on_c, 1, 66, 127
2, 2080, Note_off_c, 1, 68, 0
2, 2200, Note_on_c, 1, 64, 127
2, 2200, Note_off_c, 1, 66, 0
2, 2320, Note_on_c, 1, 68, 127
2, 2440, Note_off_c, 1, 68, 0
2, 2440, Note_on_c, 1, 71, 127
2, 2560, Note_off_c, 1, 71, 0
2, 2560, Note_on_c, 1, 74, 127
2, 2640, Note_off_c, 1, 64, 0
2, 2680, Note_on_c, 1, 73, 127
2, 2680, Note_off_c, 1, 74, 0
2, 2800, Note_on_c, 1, 71, 127
2, 2800, Note_off_c, 1, 73, 0
2, 2920, Note_on_c, 1, 69, 127
2, 2920, Note_off_c, 1, 71, 0
2, 3280, Note_on_c, 1, 71, 127
2, 3320, Note_off_c, 1, 69, 0
2, 3360, Note_off_c, 1, 71, 0
2, 3360, Note_on_c, 1, 73, 127
2, 3480, Note_off_c, 1, 73, 0
2, 3480, Note_on_c, 1, 74, 127
2, 3600, Note_off_c, 1, 74, 0
2, 3600, Note_on_c, 1, 76, 127
2, 3680, Note_off_c, 1, 76, 0
2, 3680, Note_on_c, 1, 78, 127
2, 3800, Note_off_c, 1, 78, 0
2, 3800, Note_on_c, 1, 80, 127
2, 3880, Note_off_c, 1, 80, 0
2, 3880, Note_on_c, 1, 81, 127
2, 4000, Note_off_c, 1, 81, 0
2, 4000, Note_on_c, 1, 83, 127
2, 4120, Note_on_c, 1, 80, 127
2, 4120, Note_off_c, 1, 83, 0
2, 4200, Note_on_c, 1, 76, 127
2, 4200, Note_off_c, 1, 80, 0
2, 4320, Note_off_c, 1, 76, 0
2, 4320, Note_on_c, 1, 80, 127
2, 4440, Note_off_c, 1, 80, 0
2, 4440, Note_on_c, 1, 81, 127
2, 4960, Note_on_c, 1, 80, 127
2, 5080, Note_on_c, 1, 78, 127
2, 5080, Note_off_c, 1, 80, 0
2, 5240, Note_on_c, 1, 76, 127
2, 5240, Note_off_c, 1, 78, 0
2, 5360, Note_on_c, 1, 74, 127
2, 5480, Note_off_c, 1, 74, 0
2, 5520, Note_on_c, 1, 73, 127
2, 5640, Note_on_c, 1, 71, 127
2, 5760, Note_on_c, 1, 69, 127
2, 5760, Note_off_c, 1, 71, 0
2, 5920, Note_on_c, 1, 68, 127
2, 5920, Note_off_c, 1, 69, 0
2, 6040, Note_off_c, 1, 68, 0
2, 6040, Note_on_c, 1, 69, 127
2, 6280, Note_on_c, 1, 64, 127
2, 6600, Note_on_c, 1, 57, 127
2, 6920, Note_off_c, 1, 81, 0
2, 7120, Note_off_c, 1, 73, 0
2, 7120, Note_off_c, 1, 76, 0
2, 7880, Note_off_c, 1, 69, 0
2, 7960, Note_off_c, 1, 64, 0
2, 9320, Note_off_c, 1, 57, 0
2, 9320, Note_on_c, 1, 81, 127
2, 9520, Note_on_c, 1, 80, 127
2, 9520, Note_off_c, 1, 81, 0
2, 9720, Note_on_c, 1, 78, 127
2, 9720, Note_off_c, 1, 80, 0
2, 9920, Note_on_c, 1, 76, 127
2, 9920, Note_off_c, 1, 78, 0
2, 10120, Note_off_c, 1, 76, 0
2, 10120, Note_on_c, 1, 78, 127
2, 10320, Note_on_c, 1, 74, 127
2, 10320, Note_off_c, 1, 78, 0
2, 10480, Note_on_c, 1, 69, 127
2, 10480, Note_on_c, 1, 73, 127
2, 10480, Note_off_c, 1, 74, 0
2, 10560, Note_on_c, 1, 71, 127
2, 10560, Note_off_c, 1, 73, 0
2, 10640, Note_off_c, 1, 71, 0
2, 10640, Note_on_c, 1, 73, 127
2, 10680, Note_on_c, 1, 68, 127
2, 10680, Note_off_c, 1, 69, 0
2, 10880, Note_on_c, 1, 66, 127
2, 10880, Note_off_c, 1, 68, 0
2, 11080, Note_on_c, 1, 64, 127
2, 11080, Note_off_c, 1, 66, 0
2, 11280, Note_off_c, 1, 64, 0
2, 11280, Note_on_c, 1, 66, 127
2, 11480, Note_on_c, 1, 62, 127
2, 11480, Note_off_c, 1, 66, 0
2, 11480, Note_off_c, 1, 73, 0
2, 11480, Note_on_c, 1, 76, 127
2, 11520, Note_on_c, 1, 74, 127
2, 11520, Note_off_c, 1, 76, 0
2, 11560, Note_on_c, 1, 73, 127
2, 11560, Note_off_c, 1, 74, 0
2, 11600, Note_off_c, 1, 73, 0
2, 11600, Note_on_c, 1, 74, 127
2, 11640, Note_on_c, 1, 61, 127
2, 11640, Note_off_c, 1, 62, 0
2, 11640, Note_off_c, 1, 74, 0
2, 11640, Note_on_c, 1, 76, 127
2, 11840, Note_on_c, 1, 74, 127
2, 11840, Note_off_c, 1, 76, 0
2, 12040, Note_on_c, 1, 73, 127
2, 12040, Note_off_c, 1, 74, 0
2, 12240, Note_on_c, 1, 71, 127
2, 12240, Note_off_c, 1, 73, 0
2, 12360, Note_off_c, 1, 61, 0
2, 12440, Note_off_c, 1, 71, 0
2, 12440, Note_on_c, 1, 73, 127
2, 12640, Note_on_c, 1, 62, 127
2, 12640, Note_on_c, 1, 69, 127
2, 12640, Note_off_c, 1, 73, 0
2, 12840, Note_off_c, 1, 62, 0
2, 12840, Note_on_c, 1, 64, 127
2, 12840, Note_on_c, 1, 68, 127
2, 12840, Note_off_c, 1, 69, 0
2, 13000, Note_on_c, 1, 62, 127
2, 13200, Note_on_c, 1, 61, 127
2, 13200, Note_off_c, 1, 62, 0
2, 13400, Note_on_c, 1, 59, 127
2, 13400, Note_off_c, 1, 61, 0
2, 13600, Note_off_c, 1, 59, 0
2, 13600, Note_on_c, 1, 61, 127
2, 13800, Note_on_c, 1, 57, 127
2, 13800, Note_off_c, 1, 61, 0
2, 13800, Note_off_c, 1, 68, 0
2, 13800, Note_on_c, 1, 69, 127
2, 14000, Note_on_c, 1, 56, 127
2, 14000, Note_off_c, 1, 57, 0
2, 14000, Note_off_c, 1, 69, 0
2, 14000, Note_on_c, 1, 71, 127
2, 14160, Note_off_c, 1, 71, 0
2, 14200, Note_on_c, 1, 73, 127
2, 14360, Note_on_c, 1, 59, 127
2, 14360, Note_off_c, 1, 64, 0
2, 14360, Note_off_c, 1, 73, 0
2, 14360, Note_on_c, 1, 74, 127
2, 14560, Note_off_c, 1, 59, 0
2, 14560, Note_on_c, 1, 64, 127
2, 14560, Note_on_c, 1, 73, 127
2, 14560, Note_off_c, 1, 74, 0
2, 14760, Note_off_c, 1, 73, 0
2, 14760, Note_on_c, 1, 74, 127
2, 14960, Note_on_c, 1, 52, 127
2, 14960, Note_off_c, 1, 56, 0
2, 14960, Note_on_c, 1, 71, 127
2, 14960, Note_off_c, 1, 74, 0
2, 15160, Note_off_c, 1, 52, 0
2, 15160, Note_on_c, 1, 57, 127
2, 15160, Note_on_c, 1, 69, 127
2, 15280, Note_off_c, 1, 71, 0
2, 15280, Note_on_c, 1, 73, 127
2, 15360, Note_on_c, 1, 56, 127
2, 15360, Note_off_c, 1, 57, 0
2, 15360, Note_on_c, 1, 71, 127
2, 15360, Note_off_c, 1, 73, 0
2, 15400, Note_off_c, 1, 71, 0
2, 15400, Note_on_c, 1, 73, 127
2, 15520, Note_on_c, 1, 54, 127
2, 15520, Note_off_c, 1, 56, 0
2, 15520, Note_off_c, 1, 64, 0
2, 15720, Note_on_c, 1, 52, 127
2, 15720, Note_off_c, 1, 54, 0
2, 15920, Note_off_c, 1, 52, 0
2, 15920, Note_on_c, 1, 54, 127
2, 15960, Note_off_c, 1, 73, 0
2, 16120, Note_on_c, 1, 50, 127
2, 16120, Note_off_c, 1, 54, 0
2, 16120, Note_on_c, 1, 74, 127
2, 16320, Note_on_c, 1, 49, 127
2, 16320, Note_off_c, 1, 50, 0
2, 16320, Note_off_c, 1, 74, 0
2, 16320, Note_on_c, 1, 76, 127
2, 16520, Note_off_c, 1, 76, 0
2, 16520, Note_on_c, 1, 78, 127
2, 16680, Note_on_c, 1, 52, 127
2, 16680, Note_off_c, 1, 78, 0
2, 16680, Note_on_c, 1, 79, 127
2, 16880, Note_off_c, 1, 52, 0
2, 16880, Note_on_c, 1, 57, 127
2, 16880, Note_on_c, 1, 78, 127
2, 16880, Note_off_c, 1, 79, 0
2, 17080, Note_off_c, 1, 78, 0
2, 17080, Note_on_c, 1, 79, 127
2, 17280, Note_on_c, 1, 45, 127
2, 17280, Note_off_c, 1, 49, 0
2, 17280, Note_on_c, 1, 76, 127
2, 17280, Note_off_c, 1, 79, 0
2, 17480, Note_off_c, 1, 45, 0
2, 17480, Note_on_c, 1, 50, 127
2, 17480, Note_off_c, 1, 76, 0
2, 17480, Note_on_c, 1, 78, 127
2, 17520, Note_on_c, 1, 76, 127
2, 17520, Note_off_c, 1, 78, 0
2, 17600, Note_off_c, 1, 76, 0
2, 17600, Note_on_c, 1, 78, 127
2, 17880, Note_on_c, 1, 55, 127
2, 17880, Note_off_c, 1, 57, 0
2, 17880, Note_on_c, 1, 76, 127
2, 17880, Note_off_c, 1, 78, 0
2, 18040, Note_off_c, 1, 50, 0
2, 18040, Note_on_c, 1, 54, 127
2, 18040, Note_off_c, 1, 55, 0
2, 18040, Note_on_c, 1, 74, 127
2, 18040, Note_off_c, 1, 76, 0
2, 18240, Note_off_c, 1, 54, 0
2, 18240, Note_on_c, 1, 55, 127
2, 18440, Note_on_c, 1, 52, 127
2, 18440, Note_off_c, 1, 55, 0
2, 18440, Note_off_c, 1, 74, 0
2, 18440, Note_on_c, 1, 76, 127
2, 18640, Note_on_c, 1, 51, 127
2, 18640, Note_off_c, 1, 52, 0
2, 18640, Note_off_c, 1, 69, 0
2, 18640, Note_off_c, 1, 76, 0
2, 18640, Note_on_c, 1, 78, 127
2, 18840, Note_off_c, 1, 78, 0
2, 18840, Note_on_c, 1, 80, 127
2, 19040, Note_off_c, 1, 51, 0
2, 19040, Note_on_c, 1, 54, 127
2, 19040, Note_off_c, 1, 80, 0
2, 19040, Note_on_c, 1, 81, 127
2, 19240, Note_on_c, 1, 51, 127
2, 19240, Note_off_c, 1, 54, 0
2, 19240, Note_off_c, 1, 81, 0
2, 19240, Note_on_c, 1, 83, 127
2, 19400, Note_on_c, 1, 80, 127
2, 19400, Note_off_c, 1, 83, 0
2, 19600, Note_on_c, 1, 47, 127
2, 19600, Note_off_c, 1, 51, 0
2, 19600, Note_off_c, 1, 80, 0
2, 19600, Note_on_c, 1, 81, 127
2, 19800, Note_off_c, 1, 47, 0
2, 19800, Note_on_c, 1, 52, 127
2, 19800, Note_on_c, 1, 76, 127
2, 20000, Note_on_c, 1, 51, 127
2, 20000, Note_off_c, 1, 52, 0
2, 20200, Note_on_c, 1, 49, 127
2, 20200, Note_off_c, 1, 51, 0
2, 20400, Note_on_c, 1, 47, 127
2, 20400, Note_off_c, 1, 49, 0
2, 20400, Note_on_c, 1, 80, 127
2, 20400, Note_off_c, 1, 81, 0
2, 20560, Note_off_c, 1, 47, 0
2, 20600, Note_on_c, 1, 49, 127
2, 20680, Note_off_c, 1, 80, 0
2, 20680, Note_on_c, 1, 83, 127
2, 20760, Note_on_c, 1, 45, 127
2, 20760, Note_off_c, 1, 49, 0
2, 20760, Note_on_c, 1, 81, 127
2, 20760, Note_off_c, 1, 83, 0
2, 20800, Note_on_c, 1, 80, 127
2, 20800, Note_off_c, 1, 81, 0
2, 20880, Note_off_c, 1, 80, 0
2, 20880, Note_on_c, 1, 81, 127
2, 20960, Note_on_c, 1, 44, 127
2, 20960, Note_off_c, 1, 45, 0
2, 20960, Note_off_c, 1, 81, 0
2, 20960, Note_on_c, 1, 83, 127
2, 21160, Note_on_c, 1, 47, 127
2, 21160, Note_on_c, 1, 81, 127
2, 21160, Note_off_c, 1, 83, 0
2, 21360, Note_off_c, 1, 47, 0
2, 21360, Note_on_c, 1, 52, 127
2, 21360, Note_on_c, 1, 80, 127
2, 21360, Note_off_c, 1, 81, 0
2, 21560, Note_off_c, 1, 44, 0
2, 21560, Note_on_c, 1, 45, 127
2, 21560, Note_off_c, 1, 52, 0
2, 21560, Note_off_c, 1, 76, 0
2, 21560, Note_on_c, 1, 78, 127
2, 21560, Note_off_c, 1, 80, 0
2, 21760, Note_on_c, 1, 49, 127
2, 21760, Note_off_c, 1, 78, 0
2, 21760, Note_on_c, 1, 80, 127
2, 21920, Note_off_c, 1, 49, 0
2, 21920, Note_on_c, 1, 54, 127
2, 21920, Note_on_c, 1, 76, 127
2, 21920, Note_off_c, 1, 80, 0
2, 22120, Note_off_c, 1, 45, 0
2, 22120, Note_on_c, 1, 47, 127
2, 22120, Note_off_c, 1, 54, 0
2, 22120, Note_on_c, 1, 75, 127
2, 22120, Note_off_c, 1, 76, 0
2, 22320, Note_on_c, 1, 59, 127
2, 22320, Note_off_c, 1, 75, 0
2, 22320, Note_on_c, 1, 76, 127
2, 22520, Note_off_c, 1, 47, 0
2, 22520, Note_off_c, 1, 59, 0
2, 22520, Note_on_c, 1, 61, 127
2, 22520, Note_off_c, 1, 76, 0
2, 22520, Note_on_c, 1, 78, 127
2, 22720, Note_off_c, 1, 61, 0
2, 22720, Note_on_c, 1, 63, 127
2, 22720, Note_on_c, 1, 71, 127
2, 22920, Note_on_c, 1, 61, 127
2, 22920, Note_off_c, 1, 63, 0
2, 22920, Note_off_c, 1, 71, 0
2, 22920, Note_on_c, 1, 73, 127
2, 23120, Note_on_c, 1, 59, 127
2, 23120, Note_off_c, 1, 61, 0
2, 23120, Note_on_c, 1, 69, 127
2, 23120, Note_off_c, 1, 73, 0
2, 23280, Note_off_c, 1, 59, 0
2, 23280, Note_on_c, 1, 64, 127
2, 23280, Note_on_c, 1, 68, 127
2, 23280, Note_off_c, 1, 69, 0
2, 23480, Note_on_c, 1, 56, 127
2, 23480, Note_off_c, 1, 64, 0
2, 23480, Note_on_c, 1, 71, 127
2, 23480, Note_off_c, 1, 78, 0
2, 23680, Note_off_c, 1, 56, 0
2, 23680, Note_on_c, 1, 57, 127
2, 23680, Note_off_c, 1, 71, 0
2, 23680, Note_on_c, 1, 76, 127
2, 23880, Note_off_c, 1, 57, 0
2, 23880, Note_on_c, 1, 59, 127
2, 23880, Note_on_c, 1, 66, 127
2, 23880, Note_off_c, 1, 68, 0
2, 24080, Note_on_c, 1, 57, 127
2, 24080, Note_off_c, 1, 59, 0
2, 24280, Note_off_c, 1, 57, 0
2, 24280, Note_on_c, 1, 59, 127
2, 24280, Note_on_c, 1, 75, 127
2, 24280, Note_off_c, 1, 76, 0
2, 24440, Note_on_c, 1, 52, 127
2, 24440, Note_off_c, 1, 59, 0
2, 24440, Note_on_c, 1, 64, 127
2, 24440, Note_off_c, 1, 66, 0
2, 24440, Note_off_c, 1, 75, 0
2, 24440, Note_on_c, 1, 76, 127
2, 24600, Note_on_c, 1, 75, 127
2, 24600, Note_off_c, 1, 76, 0
2, 24800, Note_on_c, 1, 54, 127
2, 24800, Note_on_c, 1, 73, 127
2, 24800, Note_off_c, 1, 75, 0
2, 25000, Note_off_c, 1, 54, 0
2, 25000, Note_on_c, 1, 56, 127
2, 25000, Note_on_c, 1, 71, 127
2, 25000, Note_off_c, 1, 73, 0
2, 25200, Note_off_c, 1, 71, 0
2, 25200, Note_on_c, 1, 73, 127
2, 25400, Note_off_c, 1, 56, 0
2, 25400, Note_on_c, 1, 57, 127
2, 25400, Note_on_c, 1, 69, 127
2, 25400, Note_off_c, 1, 73, 0
2, 25600, Note_off_c, 1, 57, 0
2, 25600, Note_on_c, 1, 59, 127
2, 25600, Note_on_c, 1, 68, 127
2, 25600, Note_off_c, 1, 69, 0
2, 25760, Note_off_c, 1, 59, 0
2, 25760, Note_on_c, 1, 63, 127
2, 25800, Note_off_c, 1, 64, 0
2, 25960, Note_on_c, 1, 61, 127
2, 25960, Note_off_c, 1, 63, 0
2, 25960, Note_off_c, 1, 68, 0
2, 25960, Note_on_c, 1, 69, 127
2, 26160, Note_on_c, 1, 59, 127
2, 26160, Note_off_c, 1, 61, 0
2, 26280, Note_on_c, 1, 68, 127
2, 26280, Note_off_c, 1, 69, 0
2, 26320, Note_off_c, 1, 68, 0
2, 26320, Note_on_c, 1, 69, 127
2, 26360, Note_off_c, 1, 59, 0
2, 26360, Note_on_c, 1, 61, 127
2, 26360, Note_on_c, 1, 68, 127
2, 26360, Note_off_c, 1, 69, 0
2, 26400, Note_off_c, 1, 68, 0
2, 26400, Note_on_c, 1, 69, 127
2, 26440, Note_on_c, 1, 68, 127
2, 26440, Note_off_c, 1, 69, 0
2, 26560, Note_on_c, 1, 57, 127
2, 26560, Note_off_c, 1, 61, 0
2, 26560, Note_on_c, 1, 66, 127
2, 26560, Note_off_c, 1, 68, 0
2, 26760, Note_on_c, 1, 56, 127
2, 26760, Note_off_c, 1, 57, 0
2, 26760, Note_on_c, 1, 64, 127
2, 26760, Note_off_c, 1, 66, 0
2, 26920, Note_off_c, 1, 52, 0
2, 26960, Note_on_c, 1, 51, 127
2, 27120, Note_on_c, 1, 49, 127
2, 27120, Note_off_c, 1, 51, 0
2, 27120, Note_off_c, 1, 56, 0
2, 27120, Note_on_c, 1, 57, 127
2, 27320, Note_on_c, 1, 47, 127
2, 27320, Note_off_c, 1, 49, 0
2, 27320, Note_on_c, 1, 56, 127
2, 27320, Note_off_c, 1, 57, 0
2, 27520, Note_off_c, 1, 47, 0
2, 27520, Note_on_c, 1, 49, 127
2, 27720, Note_on_c, 1, 45, 127
2, 27720, Note_off_c, 1, 49, 0
2, 27720, Note_on_c, 1, 54, 127
2, 27720, Note_off_c, 1, 56, 0
2, 27920, Note_on_c, 1, 44, 127
2, 27920, Note_off_c, 1, 45, 0
2, 27920, Note_on_c, 1, 52, 127
2, 27920, Note_off_c, 1, 54, 0
2, 28120, Note_on_c, 1, 62, 127
2, 28120, Note_off_c, 1, 64, 0
2, 28280, Note_off_c, 1, 44, 0
2, 28280, Note_on_c, 1, 45, 127
2, 28280, Note_on_c, 1, 61, 127
2, 28280, Note_off_c, 1, 62, 0
2, 28480, Note_on_c, 1, 44, 127
2, 28480, Note_off_c, 1, 45, 0
2, 28480, Note_on_c, 1, 59, 127
2, 28480, Note_off_c, 1, 61, 0
2, 28680, Note_on_c, 1, 42, 127
2, 28680, Note_off_c, 1, 44, 0
2, 28680, Note_off_c, 1, 59, 0
2, 28680, Note_on_c, 1, 62, 127
2, 28880, Note_on_c, 1, 40, 127
2, 28880, Note_off_c, 1, 42, 0
2, 28880, Note_on_c, 1, 61, 127
2, 28880, Note_off_c, 1, 62, 0
2, 29080, Note_off_c, 1, 40, 0
2, 29080, Note_on_c, 1, 42, 127
2, 29080, Note_off_c, 1, 52, 0
2, 29080, Note_off_c, 1, 61, 0
2, 29080, Note_on_c, 1, 62, 127
2, 29280, Note_off_c, 1, 42, 0
2, 29280, Note_on_c, 1, 44, 127
2, 29280, Note_off_c, 1, 62, 0
2, 29280, Note_on_c, 1, 64, 127
2, 29480, Note_off_c, 1, 44, 0
2, 29480, Note_on_c, 1, 45, 127
2, 29480, Note_off_c, 1, 64, 0
2, 29480, Note_on_c, 1, 66, 127
2, 29640, Note_on_c, 1, 44, 127
2, 29640, Note_off_c, 1, 45, 0
2, 29640, Note_on_c, 1, 64, 127
2, 29640, Note_off_c, 1, 66, 0
2, 29840, Note_off_c, 1, 44, 0
2, 29840, Note_on_c, 1, 45, 127
2, 29840, Note_off_c, 1, 64, 0
2, 29840, Note_on_c, 1, 66, 127
2, 30040, Note_off_c, 1, 45, 0
2, 30040, Note_on_c, 1, 47, 127
2, 30040, Note_on_c, 1, 62, 127
2, 30040, Note_off_c, 1, 66, 0
2, 30240, Note_on_c, 1, 45, 127
2, 30240, Note_off_c, 1, 47, 0
2, 30240, Note_on_c, 1, 61, 127
2, 30240, Note_off_c, 1, 62, 0
2, 30240, Note_on_c, 1, 69, 127
2, 30440, Note_on_c, 1, 68, 127
2, 30440, Note_off_c, 1, 69, 0
2, 30640, Note_off_c, 1, 45, 0
2, 30640, Note_on_c, 1, 47, 127
2, 30640, Note_on_c, 1, 66, 127
2, 30640, Note_off_c, 1, 68, 0
2, 30800, Note_off_c, 1, 47, 0
2, 30800, Note_off_c, 1, 66, 0
2, 30840, Note_on_c, 1, 49, 127
2, 30840, Note_on_c, 1, 64, 127
2, 31000, Note_on_c, 1, 47, 127
2, 31000, Note_off_c, 1, 49, 0
2, 31000, Note_off_c, 1, 64, 0
2, 31000, Note_on_c, 1, 67, 127
2, 31200, Note_on_c, 1, 45, 127
2, 31200, Note_off_c, 1, 47, 0
2, 31200, Note_on_c, 1, 66, 127
2, 31200, Note_off_c, 1, 67, 0
2, 31400, Note_off_c, 1, 45, 0
2, 31400, Note_on_c, 1, 47, 127
2, 31400, Note_off_c, 1, 61, 0
2, 31400, Note_on_c, 1, 62, 127
2, 31400, Note_off_c, 1, 66, 0
2, 31400, Note_on_c, 1, 67, 127
2, 31600, Note_off_c, 1, 47, 0
2, 31600, Note_on_c, 1, 49, 127
2, 31600, Note_off_c, 1, 67, 0
2, 31600, Note_on_c, 1, 69, 127
2, 31800, Note_off_c, 1, 49, 0
2, 31800, Note_on_c, 1, 50, 127
2, 31800, Note_off_c, 1, 69, 0
2, 31800, Note_on_c, 1, 71, 127
2, 32000, Note_on_c, 1, 49, 127
2, 32000, Note_off_c, 1, 50, 0
2, 32000, Note_off_c, 1, 62, 0
2, 32000, Note_on_c, 1, 64, 127
2, 32000, Note_on_c, 1, 69, 127
2, 32000, Note_off_c, 1, 71, 0
2, 32160, Note_off_c, 1, 49, 0
2, 32160, Note_on_c, 1, 50, 127
2, 32160, Note_off_c, 1, 69, 0
2, 32160, Note_on_c, 1, 71, 127
2, 32360, Note_off_c, 1, 50, 0
2, 32360, Note_on_c, 1, 52, 127
2, 32360, Note_on_c, 1, 67, 127
2, 32360, Note_off_c, 1, 71, 0
2, 32560, Note_on_c, 1, 50, 127
2, 32560, Note_off_c, 1, 52, 0
2, 32560, Note_on_c, 1, 66, 127
2, 32560, Note_off_c, 1, 67, 0
2, 32760, Note_off_c, 1, 50, 0
2, 32760, Note_on_c, 1, 52, 127
2, 32760, Note_off_c, 1, 66, 0
2, 32760, Note_on_c, 1, 68, 127
2, 32960, Note_off_c, 1, 52, 0
2, 32960, Note_on_c, 1, 54, 127
2, 32960, Note_off_c, 1, 68, 0
2, 32960, Note_on_c, 1, 69, 127
2, 33160, Note_on_c, 1, 44, 127
2, 33160, Note_off_c, 1, 54, 0
2, 33160, Note_on_c, 1, 62, 127
2, 33160, Note_off_c, 1, 64, 0
2, 33160, Note_off_c, 1, 69, 0
2, 33160, Note_on_c, 1, 71, 127
2, 33360, Note_off_c, 1, 44, 0
2, 33360, Note_on_c, 1, 45, 127
2, 33520, Note_off_c, 1, 45, 0
2, 33520, Note_on_c, 1, 47, 127
2, 33720, Note_on_c, 1, 42, 127
2, 33720, Note_off_c, 1, 47, 0
2, 33720, Note_on_c, 1, 61, 127
2, 33720, Note_off_c, 1, 62, 0
2, 33800, Note_on_c, 1, 41, 127
2, 33800, Note_off_c, 1, 42, 0
2, 33880, Note_on_c, 1, 39, 127
2, 33880, Note_off_c, 1, 41, 0
2, 33920, Note_on_c, 1, 69, 127
2, 33920, Note_off_c, 1, 71, 0
2, 33960, Note_off_c, 1, 39, 0
2, 33960, Note_on_c, 1, 41, 127
2, 34000, Note_off_c, 1, 41, 0
2, 34000, Note_on_c, 1, 42, 127
2, 34080, Note_on_c, 1, 41, 127
2, 34080, Note_off_c, 1, 42, 0
2, 34120, Note_on_c, 1, 68, 127
2, 34120, Note_off_c, 1, 69, 0
2, 34160, Note_on_c, 1, 39, 127
2, 34160, Note_off_c, 1, 41, 0
2, 34240, Note_off_c, 1, 39, 0
2, 34240, Note_on_c, 1, 41, 127
2, 34320, Note_off_c, 1, 41, 0
2, 34320, Note_on_c, 1, 42, 127
2, 34320, Note_off_c, 1, 68, 0
2, 34320, Note_on_c, 1, 69, 127
2, 34520, Note_on_c, 1, 40, 127
2, 34520, Note_off_c, 1, 42, 0
2, 34520, Note_on_c, 1, 66, 127
2, 34520, Note_off_c, 1, 69, 0
2, 34680, Note_on_c, 1, 38, 127
2, 34680, Note_off_c, 1, 40, 0
2, 34680, Note_on_c, 1, 59, 127
2, 34680, Note_off_c, 1, 61, 0
2, 34680, Note_off_c, 1, 66, 0
2, 34680, Note_on_c, 1, 68, 127
2, 34880, Note_on_c, 1, 37, 127
2, 34880, Note_off_c, 1, 38, 0
2, 34880, Note_off_c, 1, 59, 0
2, 34880, Note_on_c, 1, 61, 127
2, 34880, Note_on_c, 1, 65, 127
2, 34880, Note_off_c, 1, 68, 0
2, 35080, Note_on_c, 1, 59, 127
2, 35080, Note_off_c, 1, 61, 0
2, 35280, Note_on_c, 1, 57, 127
2, 35280, Note_off_c, 1, 59, 0
2, 35480, Note_on_c, 1, 56, 127
2, 35480, Note_off_c, 1, 57, 0
2, 35680, Note_off_c, 1, 56, 0
2, 35680, Note_on_c, 1, 59, 127
2, 35880, Note_on_c, 1, 57, 127
2, 35880, Note_off_c, 1, 59, 0
2, 36040, Note_off_c, 1, 57, 0
2, 36040, Note_on_c, 1, 59, 127
2, 36240, Note_off_c, 1, 65, 0
2, 36240, Note_on_c, 1, 66, 127
2, 36440, Note_off_c, 1, 66, 0
2, 36440, Note_on_c, 1, 68, 127
2, 36640, Note_on_c, 1, 61, 127
2, 36640, Note_off_c, 1, 68, 0
2, 36840, Note_off_c, 1, 61, 0
2, 36840, Note_on_c, 1, 66, 127
2, 37040, Note_off_c, 1, 37, 0
2, 37040, Note_on_c, 1, 49, 127
2, 37040, Note_on_c, 1, 65, 127
2, 37040, Note_off_c, 1, 66, 0
2, 37200, Note_off_c, 1, 59, 0
2, 37240, Note_off_c, 1, 49, 0
2, 37240, Note_on_c, 1, 50, 127
2, 37240, Note_on_c, 1, 57, 127
2, 37240, Note_off_c, 1, 65, 0
2, 37240, Note_on_c, 1, 66, 127
2, 37400, Note_off_c, 1, 66, 0
2, 37400, Note_on_c, 1, 68, 127
2, 37600, Note_off_c, 1, 68, 0
2, 37600, Note_on_c, 1, 69, 127
2, 37800, Note_off_c, 1, 50, 0
2, 37800, Note_on_c, 1, 51, 127
2, 37800, Note_off_c, 1, 69, 0
2, 37800, Note_on_c, 1, 71, 127
2, 38000, Note_on_c, 1, 56, 127
2, 38000, Note_off_c, 1, 57, 0
2, 38200, Note_on_c, 1, 54, 127
2, 38200, Note_off_c, 1, 56, 0
2, 38400, Note_off_c, 1, 51, 0
2, 38400, Note_on_c, 1, 52, 127
2, 38400, Note_off_c, 1, 54, 0
2, 38400, Note_on_c, 1, 56, 127
2, 38560, Note_off_c, 1, 71, 0
2, 38560, Note_on_c, 1, 73, 127
2, 38760, Note_off_c, 1, 73, 0
2, 38760, Note_on_c, 1, 74, 127
2, 38960, Note_off_c, 1, 52, 0
2, 38960, Note_on_c, 1, 53, 127
2, 38960, Note_on_c, 1, 73, 127
2, 38960, Note_off_c, 1, 74, 0
2, 39160, Note_off_c, 1, 73, 0
2, 39160, Note_on_c, 1, 74, 127
2, 39360, Note_off_c, 1, 56, 0
2, 39360, Note_on_c, 1, 61, 127
2, 39360, Note_on_c, 1, 71, 127
2, 39360, Note_off_c, 1, 74, 0
2, 39560, Note_off_c, 1, 53, 0
2, 39560, Note_on_c, 1, 54, 127
2, 39560, Note_off_c, 1, 61, 0
2, 39560, Note_on_c, 1, 69, 127
2, 39560, Note_off_c, 1, 71, 0
2, 39760, Note_off_c, 1, 69, 0
2, 39760, Note_on_c, 1, 71, 127
2, 39920, Note_on_c, 1, 47, 127
2, 39920, Note_on_c, 1, 68, 127
2, 39920, Note_off_c, 1, 71, 0
2, 40120, Note_off_c, 1, 47, 0
2, 40120, Note_on_c, 1, 49, 127
2, 40120, Note_off_c, 1, 68, 0
2, 40120, Note_on_c, 1, 69, 127
2, 40200, Note_on_c, 1, 68, 127
2, 40240, Note_off_c, 1, 69, 0
2, 40280, Note_off_c, 1, 68, 0
2, 40280, Note_on_c, 1, 69, 127
2, 40320, Note_on_c, 1, 68, 127
2, 40320, Note_off_c, 1, 69, 0
2, 40400, Note_off_c, 1, 68, 0
2, 40400, Note_on_c, 1, 69, 127
2, 40440, Note_on_c, 1, 68, 127
2, 40440, Note_off_c, 1, 69, 0
2, 40520, Note_on_c, 1, 53, 127
2, 40520, Note_off_c, 1, 54, 0
2, 40520, Note_on_c, 1, 66, 127
2, 40520, Note_off_c, 1, 68, 0
2, 40720, Note_on_c, 1, 42, 127
2, 40720, Note_off_c, 1, 49, 0
2, 40720, Note_off_c, 1, 53, 0
2, 40720, Note_on_c, 1, 54, 127
2, 40720, Note_on_c, 1, 78, 127
2, 40920, Note_on_c, 1, 76, 127
2, 40920, Note_off_c, 1, 78, 0
2, 41080, Note_on_c, 1, 56, 127
2, 41080, Note_on_c, 1, 74, 127
2, 41080, Note_off_c, 1, 76, 0
2, 41280, Note_off_c, 1, 42, 0
2, 41280, Note_off_c, 1, 56, 0
2, 41280, Note_on_c, 1, 58, 127
2, 41280, Note_on_c, 1, 73, 127
2, 41280, Note_off_c, 1, 74, 0
2, 41480, Note_off_c, 1, 73, 0
2, 41480, Note_on_c, 1, 74, 127
2, 41680, Note_off_c, 1, 58, 0
2, 41680, Note_on_c, 1, 59, 127
2, 41680, Note_on_c, 1, 71, 127
2, 41680, Note_off_c, 1, 74, 0
2, 41880, Note_off_c, 1, 59, 0
2, 41880, Note_on_c, 1, 61, 127
2, 41880, Note_on_c, 1, 70, 127
2, 41880, Note_off_c, 1, 71, 0
2, 42080, Note_off_c, 1, 61, 0
2, 42080, Note_on_c, 1, 64, 127
2, 42080, Note_off_c, 1, 66, 0
2, 42280, Note_on_c, 1, 62, 127
2, 42280, Note_off_c, 1, 64, 0
2, 42280, Note_off_c, 1, 70, 0
2, 42280, Note_on_c, 1, 71, 127
2, 42440, Note_on_c, 1, 61, 127
2, 42440, Note_off_c, 1, 62, 0
2, 42560, Note_on_c, 1, 70, 127
2, 42560, Note_off_c, 1, 71, 0
2, 42600, Note_off_c, 1, 70, 0
2, 42600, Note_on_c, 1, 71, 127
2, 42640, Note_off_c, 1, 61, 0
2, 42640, Note_on_c, 1, 62, 127
2, 42680, Note_on_c, 1, 70, 127
2, 42680, Note_off_c, 1, 71, 0
2, 42720, Note_off_c, 1, 70, 0
2, 42720, Note_on_c, 1, 71, 127
2, 42800, Note_on_c, 1, 70, 127
2, 42800, Note_off_c, 1, 71, 0
2, 42840, Note_on_c, 1, 59, 127
2, 42840, Note_off_c, 1, 62, 0
2, 42840, Note_on_c, 1, 68, 127
2, 42840, Note_off_c, 1, 70, 0
2, 43040, Note_on_c, 1, 58, 127
2, 43040, Note_off_c, 1, 59, 0
2, 43040, Note_on_c, 1, 66, 127
2, 43040, Note_off_c, 1, 68, 0
2, 43240, Note_on_c, 1, 64, 127
2, 43440, Note_off_c, 1, 58, 0
2, 43440, Note_on_c, 1, 59, 127
2, 43440, Note_on_c, 1, 62, 127
2, 43440, Note_off_c, 1, 64, 0
2, 43600, Note_on_c, 1, 58, 127
2, 43600, Note_off_c, 1, 59, 0
2, 43600, Note_on_c, 1, 61, 127
2, 43600, Note_off_c, 1, 62, 0
2, 43800, Note_off_c, 1, 61, 0
2, 43800, Note_on_c, 1, 62, 127
2, 44000, Note_on_c, 1, 56, 127
2, 44000, Note_off_c, 1, 58, 0
2, 44000, Note_on_c, 1, 59, 127
2, 44000, Note_off_c, 1, 62, 0
2, 44200, Note_off_c, 1, 56, 0
2, 44200, Note_on_c, 1, 58, 127
2, 44200, Note_off_c, 1, 59, 0
2, 44400, Note_off_c, 1, 66, 0
2, 44400, Note_on_c, 1, 68, 127
2, 44600, Note_on_c, 1, 52, 127
2, 44600, Note_off_c, 1, 54, 0
2, 44600, Note_off_c, 1, 58, 0
2, 44600, Note_off_c, 1, 68, 0
2, 44600, Note_on_c, 1, 70, 127
2, 44800, Note_on_c, 1, 50, 127
2, 44800, Note_off_c, 1, 52, 0
2, 44800, Note_off_c, 1, 70, 0
2, 44800, Note_on_c, 1, 71, 127
2, 44960, Note_on_c, 1, 70, 127
2, 44960, Note_off_c, 1, 71, 0
2, 45160, Note_on_c, 1, 49, 127
2, 45160, Note_off_c, 1, 50, 0
2, 45160, Note_off_c, 1, 70, 0
2, 45160, Note_on_c, 1, 73, 127
2, 45360, Note_on_c, 1, 47, 127
2, 45360, Note_off_c, 1, 49, 0
2, 45360, Note_on_c, 1, 59, 127
2, 45360, Note_off_c, 1, 73, 0
2, 45360, Note_on_c, 1, 74, 127
2, 45560, Note_off_c, 1, 59, 0
2, 45560, Note_on_c, 1, 61, 127
2, 45760, Note_off_c, 1, 47, 0
2, 45760, Note_off_c, 1, 61, 0
2, 45760, Note_on_c, 1, 62, 127
2, 45960, Note_off_c, 1, 62, 0
2, 45960, Note_on_c, 1, 64, 127
2, 46120, Note_off_c, 1, 64, 0
2, 46160, Note_on_c, 1, 62, 127
2, 46320, Note_off_c, 1, 62, 0
2, 46320, Note_on_c, 1, 66, 127
2, 46520, Note_off_c, 1, 66, 0
2, 46520, Note_on_c, 1, 67, 127
2, 46720, Note_on_c, 1, 73, 127
2, 46720, Note_off_c, 1, 74, 0
2, 46920, Note_on_c, 1, 71, 127
2, 46920, Note_off_c, 1, 73, 0
2, 47120, Note_off_c, 1, 71, 0
2, 47120, Note_on_c, 1, 76, 127
2, 47320, Note_on_c, 1, 66, 127
2, 47320, Note_off_c, 1, 67, 0
2, 47480, Note_on_c, 1, 64, 127
2, 47480, Note_off_c, 1, 66, 0
2, 47680, Note_off_c, 1, 64, 0
2, 47680, Note_on_c, 1, 71, 127
2, 47880, Note_on_c, 1, 74, 127
2, 47880, Note_off_c, 1, 76, 0
2, 48080, Note_on_c, 1, 73, 127
2, 48080, Note_off_c, 1, 74, 0
2, 48280, Note_off_c, 1, 73, 0
2, 48280, Note_on_c, 1, 74, 127
2, 48480, Note_off_c, 1, 74, 0
2, 48480, Note_on_c, 1, 78, 127
2, 48680, Note_on_c, 1, 76, 127
2, 48680, Note_off_c, 1, 78, 0
2, 48840, Note_on_c, 1, 54, 127
2, 48840, Note_on_c, 1, 70, 127
2, 48840, Note_off_c, 1, 71, 0
2, 48840, Note_off_c, 1, 76, 0
2, 48840, Note_on_c, 1, 78, 127
2, 49040, Note_off_c, 1, 54, 0
2, 49040, Note_on_c, 1, 56, 127
2, 49040, Note_off_c, 1, 70, 0
2, 49040, Note_on_c, 1, 71, 127
2, 49240, Note_off_c, 1, 56, 0
2, 49240, Note_on_c, 1, 58, 127
2, 49240, Note_off_c, 1, 71, 0
2, 49240, Note_on_c, 1, 73, 127
2, 49440, Note_off_c, 1, 58, 0
2, 49440, Note_on_c, 1, 59, 127
2, 49440, Note_off_c, 1, 73, 0
2, 49440, Note_on_c, 1, 74, 127
2, 49640, Note_on_c, 1, 58, 127
2, 49640, Note_off_c, 1, 59, 0
2, 49640, Note_off_c, 1, 74, 0
2, 49640, Note_on_c, 1, 76, 127
2, 49840, Note_off_c, 1, 58, 0
2, 49840, Note_on_c, 1, 61, 127
2, 49840, Note_on_c, 1, 70, 127
2, 49840, Note_off_c, 1, 76, 0
2, 50000, Note_off_c, 1, 61, 0
2, 50000, Note_off_c, 1, 70, 0
2, 50040, Note_on_c, 1, 62, 127
2, 50040, Note_on_c, 1, 71, 127
2, 50200, Note_off_c, 1, 78, 0
2, 50200, Note_on_c, 1, 79, 127
2, 50400, Note_off_c, 1, 79, 0
2, 50400, Note_on_c, 1, 81, 127
2, 50600, Note_off_c, 1, 81, 0
2, 50600, Note_on_c, 1, 83, 127
2, 50800, Note_off_c, 1, 83, 0
2, 50800, Note_on_c, 1, 84, 127
2, 51000, Note_off_c, 1, 62, 0
2, 51000, Note_on_c, 1, 63, 127
2, 51000, Note_on_c, 1, 81, 127
2, 51000, Note_off_c, 1, 84, 0
2, 51200, Note_off_c, 1, 63, 0
2, 51200, Note_on_c, 1, 64, 127
2, 51200, Note_on_c, 1, 79, 127
2, 51200, Note_off_c, 1, 81, 0
2, 51360, Note_off_c, 1, 64, 0
2, 51360, Note_on_c, 1, 66, 127
2, 51360, Note_on_c, 1, 78, 127
2, 51360, Note_off_c, 1, 79, 0
2, 51560, Note_off_c, 1, 66, 0
2, 51560, Note_on_c, 1, 67, 127
2, 51560, Note_on_c, 1, 76, 127
2, 51560, Note_off_c, 1, 78, 0
2, 51760, Note_on_c, 1, 66, 127
2, 51760, Note_off_c, 1, 67, 0
2, 51760, Note_on_c, 1, 74, 127
2, 51760, Note_off_c, 1, 76, 0
2, 51960, Note_off_c, 1, 66, 0
2, 51960, Note_on_c, 1, 67, 127
2, 51960, Note_off_c, 1, 74, 0
2, 51960, Note_on_c, 1, 76, 127
2, 52160, Note_on_c, 1, 64, 127
2, 52160, Note_off_c, 1, 67, 0
2, 52160, Note_on_c, 1, 73, 127
2, 52160, Note_off_c, 1, 76, 0
2, 52360, Note_on_c, 1, 62, 127
2, 52360, Note_off_c, 1, 64, 0
2, 52360, Note_off_c, 1, 73, 0
2, 52360, Note_on_c, 1, 78, 127
2, 52560, Note_off_c, 1, 62, 0
2, 52560, Note_on_c, 1, 66, 127
2, 52720, Note_on_c, 1, 64, 127
2, 52720, Note_off_c, 1, 66, 0
2, 52720, Note_off_c, 1, 78, 0
2, 52720, Note_on_c, 1, 79, 127
2, 52920, Note_off_c, 1, 64, 0
2, 52920, Note_on_c, 1, 66, 127
2, 52920, Note_on_c, 1, 70, 127
2, 52920, Note_off_c, 1, 71, 0
2, 52920, Note_on_c, 1, 74, 127
2, 52920, Note_off_c, 1, 79, 0
2, 53000, Note_on_c, 1, 73, 127
2, 53040, Note_off_c, 1, 74, 0
2, 53080, Note_off_c, 1, 73, 0
2, 53080, Note_on_c, 1, 74, 127
2, 53120, Note_on_c, 1, 61, 127
2, 53120, Note_off_c, 1, 66, 0
2, 53120, Note_on_c, 1, 73, 127
2, 53120, Note_off_c, 1, 74, 0
2, 53200, Note_off_c, 1, 73, 0
2, 53200, Note_on_c, 1, 74, 127
2, 53240, Note_on_c, 1, 73, 127
2, 53240, Note_off_c, 1, 74, 0
2, 53320, Note_off_c, 1, 61, 0
2, 53320, Note_on_c, 1, 64, 127
2, 53320, Note_off_c, 1, 70, 0
2, 53320, Note_on_c, 1, 71, 127
2, 53320, Note_off_c, 1, 73, 0
2, 53520, Note_on_c, 1, 83, 127
2, 53560, Note_on_c, 1, 63, 127
2, 53560, Note_off_c, 1, 64, 0
2, 53640, Note_off_c, 1, 63, 0
2, 53640, Note_on_c, 1, 64, 127
2, 53720, Note_on_c, 1, 63, 127
2, 53720, Note_off_c, 1, 64, 0
2, 53720, Note_on_c, 1, 81, 127
2, 53720, Note_off_c, 1, 83, 0
2, 53880, Note_on_c, 1, 80, 127
2, 53880, Note_off_c, 1, 81, 0
2, 54080, Note_on_c, 1, 78, 127
2, 54080, Note_off_c, 1, 80, 0
2, 54280, Note_off_c, 1, 78, 0
2, 54280, Note_on_c, 1, 80, 127
2, 54480, Note_off_c, 1, 63, 0
2, 54480, Note_on_c, 1, 64, 127
2, 54480, Note_on_c, 1, 76, 127
2, 54480, Note_off_c, 1, 80, 0
2, 54680, Note_off_c, 1, 64, 0
2, 54680, Note_on_c, 1, 66, 127
2, 54680, Note_on_c, 1, 75, 127
2, 54680, Note_off_c, 1, 76, 0
2, 54880, Note_on_c, 1, 59, 127
2, 54880, Note_off_c, 1, 66, 0
2, 54880, Note_off_c, 1, 75, 0
2, 54880, Note_on_c, 1, 76, 127
2, 55080, Note_on_c, 1, 57, 127
2, 55080, Note_off_c, 1, 59, 0
2, 55080, Note_off_c, 1, 76, 0
2, 55080, Note_on_c, 1, 78, 127
2, 55240, Note_on_c, 1, 56, 127
2, 55240, Note_off_c, 1, 57, 0
2, 55240, Note_off_c, 1, 78, 0
2, 55440, Note_off_c, 1, 56, 0
2, 55440, Note_on_c, 1, 57, 127
2, 55440, Note_on_c, 1, 73, 127
2, 55640, Note_on_c, 1, 54, 127
2, 55640, Note_off_c, 1, 57, 0
2, 55640, Note_on_c, 1, 69, 127
2, 55640, Note_off_c, 1, 71, 0
2, 55640, Note_off_c, 1, 73, 0
2, 55640, Note_on_c, 1, 75, 127
2, 55840, Note_on_c, 1, 52, 127
2, 55840, Note_off_c, 1, 54, 0
2, 55840, Note_on_c, 1, 68, 127
2, 55840, Note_off_c, 1, 69, 0
2, 55840, Note_off_c, 1, 75, 0
2, 55840, Note_on_c, 1, 76, 127
2, 56040, Note_off_c, 1, 52, 0
2, 56040, Note_on_c, 1, 54, 127
2, 56040, Note_on_c, 1, 71, 127
2, 56040, Note_off_c, 1, 76, 0
2, 56240, Note_off_c, 1, 54, 0
2, 56240, Note_on_c, 1, 56, 127
2, 56240, Note_off_c, 1, 71, 0
2, 56240, Note_on_c, 1, 76, 127
2, 56400, Note_off_c, 1, 56, 0
2, 56400, Note_off_c, 1, 68, 0
2, 56440, Note_on_c, 1, 57, 127
2, 56440, Note_on_c, 1, 66, 127
2, 56600, Note_on_c, 1, 54, 127
2, 56600, Note_off_c, 1, 57, 0
2, 56800, Note_off_c, 1, 54, 0
2, 56800, Note_on_c, 1, 59, 127
2, 56800, Note_on_c, 1, 74, 127
2, 56800, Note_off_c, 1, 76, 0
2, 57000, Note_on_c, 1, 56, 127
2, 57000, Note_off_c, 1, 59, 0
2, 57000, Note_on_c, 1, 64, 127
2, 57000, Note_off_c, 1, 66, 0
2, 57200, Note_on_c, 1, 52, 127
2, 57200, Note_off_c, 1, 56, 0
2, 57400, Note_off_c, 1, 52, 0
2, 57400, Note_on_c, 1, 57, 127
2, 57400, Note_on_c, 1, 73, 127
2, 57400, Note_off_c, 1, 74, 0
2, 57600, Note_on_c, 1, 51, 127
2, 57600, Note_off_c, 1, 57, 0
2, 57600, Note_off_c, 1, 64, 0
2, 57600, Note_on_c, 1, 66, 127
2, 57760, Note_on_c, 1, 54, 127
2, 57760, Note_on_c, 1, 71, 127
2, 57760, Note_off_c, 1, 73, 0
2, 57960, Note_off_c, 1, 54, 0
2, 57960, Note_on_c, 1, 59, 127
2, 57960, Note_on_c, 1, 69, 127
2, 57960, Note_off_c, 1, 71, 0
2, 58160, Note_off_c, 1, 51, 0
2, 58160, Note_on_c, 1, 52, 127
2, 58160, Note_off_c, 1, 66, 0
2, 58160, Note_on_c, 1, 68, 127
2, 58160, Note_off_c, 1, 69, 0
2, 58360, Note_off_c, 1, 59, 0
2, 58360, Note_on_c, 1, 61, 127
2, 58560, Note_on_c, 1, 47, 127
2, 58560, Note_off_c, 1, 61, 0
2, 58560, Note_on_c, 1, 63, 127
2, 58760, Note_on_c, 1, 44, 127
2, 58760, Note_off_c, 1, 47, 0
2, 58760, Note_off_c, 1, 63, 0
2, 58760, Note_on_c, 1, 64, 127
2, 58960, Note_off_c, 1, 44, 0
2, 58960, Note_on_c, 1, 45, 127
2, 58960, Note_on_c, 1, 63, 127
2, 58960, Note_off_c, 1, 64, 0
2, 59120, Note_off_c, 1, 45, 0
2, 59120, Note_on_c, 1, 47, 127
2, 59120, Note_off_c, 1, 63, 0
2, 59120, Note_on_c, 1, 66, 127
2, 59320, Note_on_c, 1, 40, 127
2, 59320, Note_off_c, 1, 47, 0
2, 59320, Note_on_c, 1, 64, 127
2, 59320, Note_off_c, 1, 66, 0
2, 59520, Note_off_c, 1, 52, 0
2, 59520, Note_on_c, 1, 54, 127
2, 59520, Note_off_c, 1, 68, 0
2, 59520, Note_on_c, 1, 69, 127
2, 59720, Note_off_c, 1, 40, 0
2, 59720, Note_off_c, 1, 54, 0
2, 59720, Note_on_c, 1, 56, 127
2, 59720, Note_off_c, 1, 69, 0
2, 59720, Note_on_c, 1, 71, 127
2, 59920, Note_off_c, 1, 56, 0
2, 59920, Note_on_c, 1, 57, 127
2, 59920, Note_off_c, 1, 71, 0
2, 59920, Note_on_c, 1, 73, 127
2, 60120, Note_on_c, 1, 56, 127
2, 60120, Note_off_c, 1, 57, 0
2, 60120, Note_on_c, 1, 71, 127
2, 60120, Note_off_c, 1, 73, 0
2, 60280, Note_off_c, 1, 56, 0
2, 60280, Note_off_c, 1, 71, 0
2, 60320, Note_on_c, 1, 59, 127
2, 60320, Note_on_c, 1, 74, 127
2, 60480, Note_on_c, 1, 57, 127
2, 60480, Note_off_c, 1, 59, 0
2, 60480, Note_on_c, 1, 73, 127
2, 60480, Note_off_c, 1, 74, 0
2, 60680, Note_off_c, 1, 64, 0
2, 60680, Note_on_c, 1, 66, 127
2, 60880, Note_on_c, 1, 52, 127
2, 60880, Note_off_c, 1, 66, 0
2, 60880, Note_on_c, 1, 68, 127
2, 61080, Note_on_c, 1, 49, 127
2, 61080, Note_off_c, 1, 52, 0
2, 61080, Note_off_c, 1, 68, 0
2, 61080, Note_on_c, 1, 69, 127
2, 61280, Note_off_c, 1, 49, 0
2, 61280, Note_on_c, 1, 50, 127
2, 61280, Note_on_c, 1, 68, 127
2, 61280, Note_off_c, 1, 69, 0
2, 61480, Note_off_c, 1, 50, 0
2, 61480, Note_on_c, 1, 52, 127
2, 61480, Note_off_c, 1, 68, 0
2, 61480, Note_on_c, 1, 71, 127
2, 61640, Note_on_c, 1, 45, 127
2, 61640, Note_off_c, 1, 52, 0
2, 61640, Note_on_c, 1, 69, 127
2, 61640, Note_off_c, 1, 71, 0
2, 61840, Note_off_c, 1, 57, 0
2, 61840, Note_on_c, 1, 59, 127
2, 61840, Note_off_c, 1, 73, 0
2, 61840, Note_on_c, 1, 74, 127
2, 62040, Note_off_c, 1, 45, 0
2, 62040, Note_off_c, 1, 59, 0
2, 62040, Note_on_c, 1, 61, 127
2, 62040, Note_off_c, 1, 74, 0
2, 62040, Note_on_c, 1, 76, 127
2, 62240, Note_off_c, 1, 61, 0
2, 62240, Note_on_c, 1, 62, 127
2, 62240, Note_off_c, 1, 76, 0
2, 62240, Note_on_c, 1, 78, 127
2, 62440, Note_on_c, 1, 61, 127
2, 62440, Note_off_c, 1, 62, 0
2, 62440, Note_on_c, 1, 76, 127
2, 62440, Note_off_c, 1, 78, 0
2, 62640, Note_off_c, 1, 61, 0
2, 62640, Note_on_c, 1, 64, 127
2, 62640, Note_off_c, 1, 76, 0
2, 62640, Note_on_c, 1, 79, 127
2, 62840, Note_on_c, 1, 62, 127
2, 62840, Note_off_c, 1, 64, 0
2, 62840, Note_on_c, 1, 78, 127
2, 62840, Note_off_c, 1, 79, 0
2, 63000, Note_off_c, 1, 69, 0
2, 63000, Note_on_c, 1, 71, 127
2, 63200, Note_on_c, 1, 57, 127
2, 63200, Note_off_c, 1, 71, 0
2, 63200, Note_on_c, 1, 73, 127
2, 63400, Note_on_c, 1, 54, 127
2, 63400, Note_off_c, 1, 57, 0
2, 63400, Note_off_c, 1, 73, 0
2, 63400, Note_on_c, 1, 74, 127
2, 63600, Note_off_c, 1, 54, 0
2, 63600, Note_on_c, 1, 55, 127
2, 63600, Note_on_c, 1, 73, 127
2, 63600, Note_off_c, 1, 74, 0
2, 63800, Note_off_c, 1, 55, 0
2, 63800, Note_on_c, 1, 57, 127
2, 63800, Note_off_c, 1, 73, 0
2, 63800, Note_on_c, 1, 76, 127
2, 64000, Note_on_c, 1, 50, 127
2, 64000, Note_off_c, 1, 57, 0
2, 64000, Note_off_c, 1, 62, 0
2, 64000, Note_on_c, 1, 74, 127
2, 64000, Note_off_c, 1, 76, 0
2, 64160, Note_off_c, 1, 50, 0
2, 64160, Note_off_c, 1, 78, 0
2, 64200, Note_on_c, 1, 54, 127
2, 64200, Note_on_c, 1, 80, 127
2, 64360, Note_on_c, 1, 50, 127
2, 64360, Note_off_c, 1, 54, 0
2, 64360, Note_off_c, 1, 80, 0
2, 64360, Note_on_c, 1, 81, 127
2, 64560, Note_on_c, 1, 47, 127
2, 64560, Note_off_c, 1, 50, 0
2, 64560, Note_off_c, 1, 81, 0
2, 64560, Note_on_c, 1, 83, 127
2, 64760, Note_off_c, 1, 47, 0
2, 64760, Note_on_c, 1, 50, 127
2, 64760, Note_on_c, 1, 78, 127
2, 64760, Note_off_c, 1, 83, 0
2, 64960, Note_on_c, 1, 47, 127
2, 64960, Note_off_c, 1, 50, 0
2, 64960, Note_off_c, 1, 78, 0
2, 64960, Note_on_c, 1, 81, 127
2, 65160, Note_off_c, 1, 47, 0
2, 65160, Note_on_c, 1, 52, 127
2, 65160, Note_on_c, 1, 80, 127
2, 65160, Note_off_c, 1, 81, 0
2, 65360, Note_on_c, 1, 78, 127
2, 65360, Note_off_c, 1, 80, 0
2, 65520, Note_on_c, 1, 76, 127
2, 65520, Note_off_c, 1, 78, 0
2, 65720, Note_on_c, 1, 73, 127
2, 65720, Note_off_c, 1, 74, 0
2, 65720, Note_off_c, 1, 76, 0
2, 65720, Note_on_c, 1, 81, 127
2, 65920, Note_on_c, 1, 71, 127
2, 65920, Note_off_c, 1, 73, 0
2, 66120, Note_on_c, 1, 69, 127
2, 66120, Note_off_c, 1, 71, 0
2, 66320, Note_off_c, 1, 69, 0
2, 66320, Note_on_c, 1, 71, 127
2, 66520, Note_on_c, 1, 80, 127
2, 66520, Note_off_c, 1, 81, 0
2, 66720, Note_on_c, 1, 78, 127
2, 66720, Note_off_c, 1, 80, 0
2, 66880, Note_off_c, 1, 78, 0
2, 66880, Note_on_c, 1, 80, 127
2, 67080, Note_off_c, 1, 52, 0
2, 67080, Note_on_c, 1, 64, 127
2, 67080, Note_off_c, 1, 71, 0
2, 67080, Note_on_c, 1, 73, 127
2, 67080, Note_on_c, 1, 76, 127
2, 67080, Note_off_c, 1, 80, 0
2, 67280, Note_on_c, 1, 62, 127
2, 67280, Note_off_c, 1, 64, 0
2, 67280, Note_off_c, 1, 73, 0
2, 67280, Note_on_c, 1, 74, 127
2, 67280, Note_off_c, 1, 76, 0
2, 67280, Note_on_c, 1, 78, 127
2, 67480, Note_on_c, 1, 61, 127
2, 67480, Note_off_c, 1, 62, 0
2, 67480, Note_off_c, 1, 74, 0
2, 67480, Note_on_c, 1, 76, 127
2, 67480, Note_off_c, 1, 78, 0
2, 67480, Note_on_c, 1, 79, 127
2, 67680, Note_off_c, 1, 61, 0
2, 67680, Note_on_c, 1, 62, 127
2, 67680, Note_on_c, 1, 74, 127
2, 67680, Note_off_c, 1, 76, 0
2, 67880, Note_on_c, 1, 59, 127
2, 67880, Note_off_c, 1, 62, 0
2, 67880, Note_off_c, 1, 74, 0
2, 67880, Note_on_c, 1, 78, 127
2, 68040, Note_off_c, 1, 59, 0
2, 68040, Note_off_c, 1, 78, 0
2, 68080, Note_on_c, 1, 61, 127
2, 68080, Note_on_c, 1, 76, 127
2, 68240, Note_on_c, 1, 59, 127
2, 68240, Note_off_c, 1, 61, 0
2, 68440, Note_on_c, 1, 57, 127
2, 68440, Note_off_c, 1, 59, 0
2, 68640, Note_off_c, 1, 57, 0
2, 68640, Note_on_c, 1, 62, 127
2, 68640, Note_on_c, 1, 78, 127
2, 68640, Note_off_c, 1, 79, 0
2, 68840, Note_on_c, 1, 69, 127
2, 68840, Note_off_c, 1, 76, 0
2, 69040, Note_off_c, 1, 69, 0
2, 69040, Note_on_c, 1, 73, 127
2, 69240, Note_off_c, 1, 73, 0
2, 69240, Note_on_c, 1, 74, 127
2, 69400, Note_on_c, 1, 59, 127
2, 69400, Note_off_c, 1, 62, 0
2, 69600, Note_off_c, 1, 59, 0
2, 69600, Note_on_c, 1, 62, 127
2, 69800, Note_on_c, 1, 56, 127
2, 69800, Note_off_c, 1, 62, 0
2, 69800, Note_on_c, 1, 76, 127
2, 69800, Note_off_c, 1, 78, 0
2, 70000, Note_off_c, 1, 56, 0
2, 70000, Note_on_c, 1, 59, 127
2, 70000, Note_on_c, 1, 68, 127
2, 70000, Note_off_c, 1, 74, 0
2, 70200, Note_on_c, 1, 52, 127
2, 70200, Note_off_c, 1, 59, 0
2, 70200, Note_off_c, 1, 68, 0
2, 70200, Note_on_c, 1, 71, 127
2, 70400, Note_off_c, 1, 52, 0
2, 70400, Note_on_c, 1, 57, 127
2, 70400, Note_off_c, 1, 71, 0
2, 70400, Note_on_c, 1, 73, 127
2, 70600, Note_on_c, 1, 49, 127
2, 70600, Note_off_c, 1, 57, 0
2, 70760, Note_off_c, 1, 49, 0
2, 70760, Note_on_c, 1, 52, 127
2, 70960, Note_on_c, 1, 42, 127
2, 70960, Note_off_c, 1, 52, 0
2, 70960, Note_on_c, 1, 74, 127
2, 70960, Note_off_c, 1, 76, 0
2, 71160, Note_on_c, 1, 71, 127
2, 71160, Note_off_c, 1, 73, 0
2, 71360, Note_on_c, 1, 69, 127
2, 71360, Note_off_c, 1, 71, 0
2, 71560, Note_off_c, 1, 69, 0
2, 71560, Note_on_c, 1, 71, 127
2, 71640, Note_off_c, 1, 42, 0
2, 71640, Note_on_c, 1, 44, 127
2, 71680, Note_off_c, 1, 44, 0
2, 71680, Note_on_c, 1, 45, 127
2, 71760, Note_on_c, 1, 44, 127
2, 71760, Note_off_c, 1, 45, 0
2, 71760, Note_on_c, 1, 73, 127
2, 71760, Note_off_c, 1, 74, 0
2, 71840, Note_off_c, 1, 44, 0
2, 71840, Note_on_c, 1, 45, 127
2, 71880, Note_on_c, 1, 44, 127
2, 71880, Note_off_c, 1, 45, 0
2, 71920, Note_off_c, 1, 71, 0
2, 71920, Note_off_c, 1, 73, 0
2, 71960, Note_on_c, 1, 42, 127
2, 71960, Note_off_c, 1, 44, 0
2, 71960, Note_on_c, 1, 71, 127
2, 72040, Note_off_c, 1, 42, 0
2, 72040, Note_on_c, 1, 44, 127
2, 72120, Note_off_c, 1, 44, 0
2, 72120, Note_on_c, 1, 45, 127
2, 72120, Note_off_c, 1, 71, 0
2, 72120, Note_on_c, 1, 73, 127
2, 72320, Note_off_c, 1, 45, 0
2, 72320, Note_on_c, 1, 49, 127
2, 72320, Note_on_c, 1, 69, 127
2, 72520, Note_off_c, 1, 49, 0
2, 72520, Note_on_c, 1, 52, 127
2, 72520, Note_on_c, 1, 67, 127
2, 72520, Note_off_c, 1, 69, 0
2, 72720, Note_off_c, 1, 52, 0
2, 72720, Note_on_c, 1, 57, 127
2, 72720, Note_on_c, 1, 66, 127
2, 72720, Note_off_c, 1, 67, 0
2, 72920, Note_on_c, 1, 45, 127
2, 72920, Note_off_c, 1, 57, 0
2, 72920, Note_off_c, 1, 66, 0
2, 72920, Note_on_c, 1, 67, 127
2, 73120, Note_off_c, 1, 45, 0
2, 73120, Note_on_c, 1, 49, 127
2, 73120, Note_on_c, 1, 64, 127
2, 73120, Note_off_c, 1, 67, 0
2, 73280, Note_on_c, 1, 38, 127
2, 73280, Note_off_c, 1, 49, 0
2, 73280, Note_off_c, 1, 64, 0
2, 73280, Note_on_c, 1, 66, 127
2, 73480, Note_off_c, 1, 73, 0
2, 73480, Note_on_c, 1, 74, 127
2, 73680, Note_on_c, 1, 73, 127
2, 73680, Note_off_c, 1, 74, 0
2, 73880, Note_on_c, 1, 37, 127
2, 73880, Note_off_c, 1, 38, 0
2, 73880, Note_on_c, 1, 71, 127
2, 73880, Note_off_c, 1, 73, 0
2, 73960, Note_off_c, 1, 37, 0
2, 73960, Note_on_c, 1, 39, 127
2, 74000, Note_off_c, 1, 39, 0
2, 74000, Note_on_c, 1, 40, 127
2, 74080, Note_on_c, 1, 39, 127
2, 74080, Note_off_c, 1, 40, 0
2, 74080, Note_off_c, 1, 71, 0
2, 74080, Note_on_c, 1, 73, 127
2, 74160, Note_off_c, 1, 39, 0
2, 74160, Note_on_c, 1, 40, 127
2, 74240, Note_on_c, 1, 39, 127
2, 74240, Note_off_c, 1, 40, 0
2, 74280, Note_on_c, 1, 37, 127
2, 74280, Note_off_c, 1, 39, 0
2, 74280, Note_on_c, 1, 69, 127
2, 74280, Note_off_c, 1, 73, 0
2, 74360, Note_off_c, 1, 37, 0
2, 74360, Note_on_c, 1, 39, 127
2, 74480, Note_off_c, 1, 39, 0
2, 74480, Note_on_c, 1, 40, 127
2, 74480, Note_on_c, 1, 64, 127
2, 74480, Note_off_c, 1, 66, 0
2, 74560, Note_on_c, 1, 68, 127
2, 74560, Note_off_c, 1, 69, 0
2, 74640, Note_on_c, 1, 62, 127
2, 74640, Note_off_c, 1, 64, 0
2, 74640, Note_off_c, 1, 68, 0
2, 74640, Note_on_c, 1, 69, 127
2, 74720, Note_on_c, 1, 68, 127
2, 74720, Note_off_c, 1, 69, 0
2, 74800, Note_off_c, 1, 68, 0
2, 74800, Note_on_c, 1, 69, 127
2, 74840, Note_off_c, 1, 40, 0
2, 74840, Note_on_c, 1, 61, 127
2, 74840, Note_off_c, 1, 62, 0
2, 74840, Note_on_c, 1, 68, 127
2, 74880, Note_off_c, 1, 69, 0
2, 75040, Note_on_c, 1, 59, 127
2, 75040, Note_off_c, 1, 61, 0
2, 75240, Note_off_c, 1, 59, 0
2, 75240, Note_on_c, 1, 61, 127
2, 75240, Note_off_c, 1, 68, 0
2, 75240, Note_on_c, 1, 69, 127
2, 75440, Note_on_c, 1, 57, 127
2, 75440, Note_off_c, 1, 61, 0
2, 75440, Note_off_c, 1, 69, 0
2, 75440, Note_on_c, 1, 71, 127
2, 75640, Note_on_c, 1, 56, 127
2, 75640, Note_off_c, 1, 57, 0
2, 75640, Note_on_c, 1, 64, 127
2, 75640, Note_off_c, 1, 71, 0
2, 75800, Note_on_c, 1, 62, 127
2, 76000, Note_off_c, 1, 56, 0
2, 76000, Note_on_c, 1, 57, 127
2, 76000, Note_on_c, 1, 61, 127
2, 76000, Note_off_c, 1, 62, 0
2, 76200, Note_on_c, 1, 56, 127
2, 76200, Note_off_c, 1, 57, 0
2, 76200, Note_on_c, 1, 59, 127
2, 76200, Note_off_c, 1, 61, 0
2, 76400, Note_off_c, 1, 59, 0
2, 76400, Note_on_c, 1, 61, 127
2, 76400, Note_off_c, 1, 64, 0
2, 76600, Note_on_c, 1, 54, 127
2, 76600, Note_off_c, 1, 56, 0
2, 76600, Note_on_c, 1, 57, 127
2, 76600, Note_off_c, 1, 61, 0
2, 76800, Note_on_c, 1, 52, 127
2, 76800, Note_off_c, 1, 54, 0
2, 76800, Note_on_c, 1, 56, 127
2, 76800, Note_off_c, 1, 57, 0
2, 76800, Note_on_c, 1, 76, 127
2, 77000, Note_on_c, 1, 74, 127
2, 77000, Note_off_c, 1, 76, 0
2, 77160, Note_off_c, 1, 52, 0
2, 77160, Note_on_c, 1, 54, 127
2, 77160, Note_off_c, 1, 56, 0
2, 77160, Note_on_c, 1, 57, 127
2, 77160, Note_on_c, 1, 73, 127
2, 77160, Note_off_c, 1, 74, 0
2, 77360, Note_off_c, 1, 54, 0
2, 77360, Note_on_c, 1, 56, 127
2, 77360, Note_off_c, 1, 57, 0
2, 77360, Note_on_c, 1, 59, 127
2, 77360, Note_on_c, 1, 71, 127
2, 77360, Note_off_c, 1, 73, 0
2, 77560, Note_off_c, 1, 59, 0
2, 77560, Note_on_c, 1, 64, 127
2, 77560, Note_off_c, 1, 71, 0
2, 77560, Note_on_c, 1, 74, 127
2, 77760, Note_off_c, 1, 56, 0
2, 77760, Note_on_c, 1, 57, 127
2, 77760, Note_off_c, 1, 64, 0
2, 77760, Note_on_c, 1, 66, 127
2, 77760, Note_on_c, 1, 73, 127
2, 77760, Note_off_c, 1, 74, 0
2, 77960, Note_on_c, 1, 52, 127
2, 77960, Note_off_c, 1, 57, 0
2, 77960, Note_on_c, 1, 59, 127
2, 77960, Note_off_c, 1, 66, 0
2, 77960, Note_on_c, 1, 68, 127
2, 77960, Note_off_c, 1, 73, 0
2, 77960, Note_on_c, 1, 74, 127
2, 78160, Note_on_c, 1, 50, 127
2, 78160, Note_off_c, 1, 52, 0
2, 78320, Note_off_c, 1, 59, 0
2, 78360, Note_on_c, 1, 49, 127
2, 78360, Note_off_c, 1, 50, 0
2, 78520, Note_on_c, 1, 47, 127
2, 78520, Note_off_c, 1, 49, 0
2, 78720, Note_off_c, 1, 47, 0
2, 78720, Note_on_c, 1, 49, 127
2, 78920, Note_on_c, 1, 45, 127
2, 78920, Note_off_c, 1, 49, 0
2, 78920, Note_off_c, 1, 68, 0
2, 78920, Note_on_c, 1, 69, 127
2, 79120, Note_on_c, 1, 44, 127
2, 79120, Note_off_c, 1, 45, 0
2, 79120, Note_off_c, 1, 69, 0
2, 79120, Note_on_c, 1, 71, 127
2, 79320, Note_on_c, 1, 42, 127
2, 79320, Note_off_c, 1, 44, 0
2, 79520, Note_on_c, 1, 40, 127
2, 79520, Note_off_c, 1, 42, 0
2, 79680, Note_off_c, 1, 40, 0
2, 79680, Note_on_c, 1, 45, 127
2, 79680, Note_on_c, 1, 73, 127
2, 79680, Note_off_c, 1, 74, 0
2, 79880, Note_off_c, 1, 45, 0
2, 79880, Note_on_c, 1, 47, 127
2, 79880, Note_on_c, 1, 69, 127
2, 79880, Note_off_c, 1, 71, 0
2, 80080, Note_off_c, 1, 47, 0
2, 80080, Note_on_c, 1, 49, 127
2, 80080, Note_on_c, 1, 67, 127
2, 80080, Note_off_c, 1, 69, 0
2, 80280, Note_off_c, 1, 49, 0
2, 80280, Note_on_c, 1, 50, 127
2, 80280, Note_on_c, 1, 66, 127
2, 80280, Note_off_c, 1, 67, 0
2, 80480, Note_on_c, 1, 49, 127
2, 80480, Note_off_c, 1, 50, 0
2, 80480, Note_off_c, 1, 73, 0
2, 80480, Note_on_c, 1, 74, 127
2, 80680, Note_off_c, 1, 49, 0
2, 80680, Note_on_c, 1, 52, 127
2, 80680, Note_on_c, 1, 73, 127
2, 80680, Note_off_c, 1, 74, 0
2, 80880, Note_on_c, 1, 50, 127
2, 80880, Note_off_c, 1, 52, 0
2, 80880, Note_on_c, 1, 65, 127
2, 80880, Note_off_c, 1, 66, 0
2, 80880, Note_on_c, 1, 71, 127
2, 80880, Note_off_c, 1, 73, 0
2, 81040, Note_off_c, 1, 50, 0
2, 81040, Note_on_c, 1, 52, 127
2, 81040, Note_off_c, 1, 71, 0
2, 81040, Note_on_c, 1, 72, 127
2, 81240, Note_off_c, 1, 52, 0
2, 81240, Note_on_c, 1, 53, 127
2, 81240, Note_on_c, 1, 69, 127
2, 81240, Note_off_c, 1, 72, 0
2, 81440, Note_on_c, 1, 52, 127
2, 81440, Note_off_c, 1, 53, 0
2, 81440, Note_on_c, 1, 68, 127
2, 81440, Note_off_c, 1, 69, 0
2, 81640, Note_on_c, 1, 64, 127
2, 81640, Note_off_c, 1, 65, 0
2, 81840, Note_on_c, 1, 62, 127
2, 81840, Note_off_c, 1, 64, 0
2, 82040, Note_off_c, 1, 52, 0
2, 82040, Note_on_c, 1, 61, 127
2, 82040, Note_off_c, 1, 62, 0
2, 82240, Note_off_c, 1, 61, 0
2, 82240, Note_on_c, 1, 62, 127
2, 82240, Note_off_c, 1, 68, 0
2, 82240, Note_on_c, 1, 71, 127
2, 82400, Note_on_c, 1, 59, 127
2, 82400, Note_off_c, 1, 62, 0
2, 82400, Note_on_c, 1, 68, 127
2, 82400, Note_off_c, 1, 71, 0
2, 82600, Note_off_c, 1, 59, 0
2, 82600, Note_on_c, 1, 61, 127
2, 82600, Note_on_c, 1, 64, 127
2, 82600, Note_off_c, 1, 68, 0
2, 82800, Note_off_c, 1, 64, 0
2, 82800, Note_on_c, 1, 76, 127
2, 83000, Note_on_c, 1, 69, 127
2, 83000, Note_off_c, 1, 76, 0
2, 83200, Note_on_c, 1, 59, 127
2, 83200, Note_off_c, 1, 61, 0
2, 83200, Note_on_c, 1, 62, 127
2, 83400, Note_off_c, 1, 69, 0
2, 83400, Note_on_c, 1, 71, 127
2, 83560, Note_on_c, 1, 68, 127
2, 83560, Note_off_c, 1, 71, 0
2, 83760, Note_off_c, 1, 68, 0
2, 83800, Note_on_c, 1, 57, 127
2, 83800, Note_off_c, 1, 59, 0
2, 83800, Note_on_c, 1, 61, 127
2, 83800, Note_off_c, 1, 62, 0
2, 83800, Note_on_c, 1, 69, 127
2, 83800, Note_on_c, 1, 81, 127
2, 84000, Note_on_c, 1, 80, 127
2, 84000, Note_off_c, 1, 81, 0
2, 84160, Note_off_c, 1, 61, 0
2, 84160, Note_off_c, 1, 80, 0
2, 84200, Note_on_c, 1, 62, 127
2, 84200, Note_on_c, 1, 78, 127
2, 84360, Note_on_c, 1, 61, 127
2, 84360, Note_off_c, 1, 62, 0
2, 84360, Note_on_c, 1, 76, 127
2, 84360, Note_off_c, 1, 78, 0
2, 84560, Note_off_c, 1, 76, 0
2, 84560, Note_on_c, 1, 78, 127
2, 84760, Note_on_c, 1, 59, 127
2, 84760, Note_off_c, 1, 61, 0
2, 84760, Note_on_c, 1, 74, 127
2, 84760, Note_off_c, 1, 78, 0
2, 84960, Note_off_c, 1, 59, 0
2, 84960, Note_on_c, 1, 73, 127
2, 84960, Note_off_c, 1, 74, 0
2, 85160, Note_on_c, 1, 68, 127
2, 85160, Note_off_c, 1, 69, 0
2, 85360, Note_on_c, 1, 66, 127
2, 85360, Note_off_c, 1, 68, 0
2, 85360, Note_off_c, 1, 73, 0
2, 85360, Note_on_c, 1, 74, 127
2, 85560, Note_on_c, 1, 64, 127
2, 85560, Note_off_c, 1, 66, 0
2, 85640, Note_on_c, 1, 73, 127
2, 85640, Note_off_c, 1, 74, 0
2, 85680, Note_off_c, 1, 73, 0
2, 85680, Note_on_c, 1, 74, 127
2, 85760, Note_off_c, 1, 64, 0
2, 85760, Note_on_c, 1, 66, 127
2, 85760, Note_on_c, 1, 73, 127
2, 85760, Note_off_c, 1, 74, 0
2, 85800, Note_off_c, 1, 73, 0
2, 85800, Note_on_c, 1, 74, 127
2, 85840, Note_on_c, 1, 73, 127
2, 85840, Note_off_c, 1, 74, 0
2, 85920, Note_on_c, 1, 62, 127
2, 85920, Note_off_c, 1, 66, 0
2, 85920, Note_on_c, 1, 71, 127
2, 85920, Note_off_c, 1, 73, 0
2, 86120, Note_on_c, 1, 61, 127
2, 86120, Note_off_c, 1, 62, 0
2, 86120, Note_on_c, 1, 69, 127
2, 86120, Note_off_c, 1, 71, 0
2, 86320, Note_off_c, 1, 61, 0
2, 86320, Note_on_c, 1, 62, 127
2, 86320, Note_on_c, 1, 71, 127
2, 86520, Note_off_c, 1, 62, 0
2, 86520, Note_on_c, 1, 64, 127
2, 86520, Note_off_c, 1, 71, 0
2, 86520, Note_on_c, 1, 73, 127
2, 86720, Note_off_c, 1, 64, 0
2, 86720, Note_on_c, 1, 66, 127
2, 86720, Note_off_c, 1, 73, 0
2, 86720, Note_on_c, 1, 74, 127
2, 86920, Note_on_c, 1, 62, 127
2, 86920, Note_off_c, 1, 66, 0
2, 86920, Note_off_c, 1, 74, 0
2, 86920, Note_on_c, 1, 78, 127
2, 87120, Note_on_c, 1, 61, 127
2, 87120, Note_off_c, 1, 62, 0
2, 87120, Note_on_c, 1, 76, 127
2, 87120, Note_off_c, 1, 78, 0
2, 87320, Note_off_c, 1, 61, 0
2, 87320, Note_on_c, 1, 62, 127
2, 87320, Note_off_c, 1, 76, 0
2, 87320, Note_on_c, 1, 78, 127
2, 87520, Note_off_c, 1, 62, 0
2, 87520, Note_on_c, 1, 66, 127
2, 87520, Note_off_c, 1, 69, 0
2, 87520, Note_on_c, 1, 74, 127
2, 87520, Note_off_c, 1, 78, 0
2, 87720, Note_on_c, 1, 64, 127
2, 87720, Note_off_c, 1, 66, 0
2, 87720, Note_on_c, 1, 76, 127
2, 87920, Note_on_c, 1, 62, 127
2, 87920, Note_off_c, 1, 64, 0
2, 87920, Note_off_c, 1, 76, 0
2, 87920, Note_on_c, 1, 78, 127
2, 88120, Note_off_c, 1, 62, 0
2, 88160, Note_on_c, 1, 66, 127
2, 88160, Note_on_c, 1, 81, 127
2, 88360, Note_on_c, 1, 64, 127
2, 88360, Note_off_c, 1, 66, 0
2, 88360, Note_on_c, 1, 80, 127
2, 88360, Note_off_c, 1, 81, 0
2, 88560, Note_off_c, 1, 64, 0
2, 88560, Note_on_c, 1, 66, 127
2, 88560, Note_off_c, 1, 80, 0
2, 88560, Note_on_c, 1, 81, 127
2, 88760, Note_off_c, 1, 66, 0
2, 88760, Note_on_c, 1, 69, 127
2, 89000, Note_on_c, 1, 68, 127
2, 89200, Note_off_c, 1, 68, 0
2, 89200, Note_off_c, 1, 69, 0
2, 89240, Note_on_c, 1, 69, 127
2, 89440, Note_off_c, 1, 74, 0
2, 89440, Note_off_c, 1, 78, 0
2, 89480, Note_on_c, 1, 73, 127
2, 89480, Note_on_c, 1, 76, 127
2, 89720, Note_off_c, 1, 73, 0
2, 89720, Note_off_c, 1, 76, 0
2, 89760, Note_on_c, 1, 71, 127
2, 89760, Note_on_c, 1, 74, 127
2, 89960, Note_off_c, 1, 69, 0
2, 90000, Note_on_c, 1, 45, 127
2, 90000, Note_on_c, 1, 69, 127
2, 90000, Note_off_c, 1, 71, 0
2, 90000, Note_on_c, 1, 73, 127
2, 90000, Note_off_c, 1, 74, 0
2, 92360, Note_off_c, 1, 57, 0
2, 92360, Note_off_c, 1, 81, 0
2, 93320, Note_off_c, 1, 45, 0
2, 93320, Note_off_c, 1, 69, 0
2, 93320, Note_off_c, 1, 73, 0
2, 93320, Note_on_c, 1, 81, 127
2, 93720, Note_on_c, 1, 57, 127
2, 93920, Note_on_c, 1, 61, 127
2, 94080, Note_on_c, 1, 64, 127
2, 94280, Note_on_c, 1, 69, 127
2, 94480, Note_on_c, 1, 73, 127
2, 94680, Note_off_c, 1, 73, 0
2, 94680, Note_on_c, 1, 76, 127
2, 94680, Note_off_c, 1, 81, 0
2, 94840, Note_off_c, 1, 76, 0
2, 94840, Note_on_c, 1, 81, 127
2, 95040, Note_off_c, 1, 61, 0
2, 95040, Note_on_c, 1, 62, 127
2, 95040, Note_off_c, 1, 64, 0
2, 95040, Note_off_c, 1, 69, 0
2, 95040, Note_on_c, 1, 71, 127
2, 95440, Note_on_c, 1, 80, 127
2, 95440, Note_off_c, 1, 81, 0
2, 95600, Note_on_c, 1, 78, 127
2, 95600, Note_off_c, 1, 80, 0
2, 95800, Note_off_c, 1, 78, 0
2, 95800, Note_on_c, 1, 80, 127
2, 96000, Note_off_c, 1, 80, 0
2, 96000, Note_on_c, 1, 83, 127
2, 96200, Note_on_c, 1, 76, 127
2, 96200, Note_off_c, 1, 83, 0
2, 96360, Note_off_c, 1, 76, 0
2, 96360, Note_on_c, 1, 78, 127
2, 96560, Note_off_c, 1, 62, 0
2, 96560, Note_on_c, 1, 64, 127
2, 96560, Note_off_c, 1, 71, 0
2, 96560, Note_off_c, 1, 78, 0
2, 96560, Note_on_c, 1, 79, 127
2, 96640, Note_on_c, 1, 62, 127
2, 96680, Note_off_c, 1, 64, 0
2, 96720, Note_off_c, 1, 62, 0
2, 96720, Note_on_c, 1, 64, 127
2, 96760, Note_on_c, 1, 76, 127
2, 96960, Note_on_c, 1, 73, 127
2, 97120, Note_on_c, 1, 69, 127
2, 97320, Note_off_c, 1, 64, 0
2, 97320, Note_on_c, 1, 66, 127
2, 97720, Note_off_c, 1, 73, 0
2, 97720, Note_on_c, 1, 74, 127
2, 97720, Note_off_c, 1, 76, 0
2, 97720, Note_on_c, 1, 78, 127
2, 97720, Note_off_c, 1, 79, 0
2, 97880, Note_on_c, 1, 68, 127
2, 97880, Note_off_c, 1, 69, 0
2, 97920, Note_off_c, 1, 66, 0
2, 98080, Note_off_c, 1, 68, 0
2, 98080, Note_on_c, 1, 69, 127
2, 98080, Note_off_c, 1, 74, 0
2, 98080, Note_on_c, 1, 76, 127
2, 98080, Note_off_c, 1, 78, 0
2, 98280, Note_on_c, 1, 74, 127
2, 98480, Note_on_c, 1, 73, 127
2, 98480, Note_off_c, 1, 74, 0
2, 98640, Note_on_c, 1, 71, 127
2, 98640, Note_off_c, 1, 73, 0
2, 98840, Note_off_c, 1, 71, 0
2, 98840, Note_on_c, 1, 73, 127
2, 99040, Note_off_c, 1, 69, 0
2, 99040, Note_on_c, 1, 71, 127
2, 99240, Note_on_c, 1, 64, 127
2, 99240, Note_off_c, 1, 71, 0
2, 99400, Note_off_c, 1, 64, 0
2, 99400, Note_on_c, 1, 66, 127
2, 99600, Note_off_c, 1, 66, 0
2, 99600, Note_on_c, 1, 67, 127
2, 99640, Note_off_c, 1, 57, 0
2, 99800, Note_on_c, 1, 64, 127
2, 100000, Note_on_c, 1, 61, 127
2, 100200, Note_on_c, 1, 57, 127
2, 100360, Note_off_c, 1, 61, 0
2, 100360, Note_off_c, 1, 64, 0
2, 100360, Note_on_c, 1, 66, 127
2, 100360, Note_off_c, 1, 67, 0
2, 100360, Note_off_c, 1, 76, 0
2, 100560, Note_on_c, 1, 69, 127
2, 100560, Note_off_c, 1, 73, 0
2, 100760, Note_on_c, 1, 65, 127
2, 100760, Note_off_c, 1, 66, 0
2, 100760, Note_on_c, 1, 74, 127
2, 100920, Note_off_c, 1, 69, 0
2, 100960, Note_on_c, 1, 68, 127
2, 101120, Note_on_c, 1, 64, 127
2, 101120, Note_off_c, 1, 65, 0
2, 101120, Note_off_c, 1, 68, 0
2, 101120, Note_on_c, 1, 69, 127
2, 101520, Note_on_c, 1, 73, 127
2, 101520, Note_off_c, 1, 74, 0
2, 101720, Note_on_c, 1, 71, 127
2, 101720, Note_off_c, 1, 73, 0
2, 101880, Note_off_c, 1, 71, 0
2, 101880, Note_on_c, 1, 73, 127
2, 101960, Note_on_c, 1, 68, 127
2, 102040, Note_off_c, 1, 68, 0
2, 102080, Note_off_c, 1, 57, 0
2, 102080, Note_on_c, 1, 61, 127
2, 102280, Note_on_c, 1, 54, 127
2, 102280, Note_off_c, 1, 61, 0
2, 102480, Note_off_c, 1, 54, 0
2, 102480, Note_on_c, 1, 56, 127
2, 102640, Note_off_c, 1, 56, 0
2, 102640, Note_on_c, 1, 57, 127
2, 102640, Note_on_c, 1, 63, 127
2, 102640, Note_off_c, 1, 64, 0
2, 102640, Note_on_c, 1, 66, 127
2, 102640, Note_off_c, 1, 69, 0
2, 102640, Note_on_c, 1, 71, 127
2, 102640, Note_off_c, 1, 73, 0
2, 102840, Note_on_c, 1, 54, 127
2, 103040, Note_on_c, 1, 51, 127
2, 103240, Note_on_c, 1, 47, 127
2, 103400, Note_off_c, 1, 47, 0
2, 103400, Note_off_c, 1, 51, 0
2, 103400, Note_off_c, 1, 54, 0
2, 103400, Note_on_c, 1, 56, 127
2, 103400, Note_off_c, 1, 57, 0
2, 103400, Note_off_c, 1, 63, 0
2, 103600, Note_on_c, 1, 59, 127
2, 103800, Note_on_c, 1, 64, 127
2, 103800, Note_off_c, 1, 66, 0
2, 104000, Note_off_c, 1, 71, 0
2, 104000, Note_on_c, 1, 73, 127
2, 104160, Note_on_c, 1, 54, 127
2, 104160, Note_off_c, 1, 56, 0
2, 104160, Note_off_c, 1, 59, 0
2, 104160, Note_on_c, 1, 61, 127
2, 104160, Note_on_c, 1, 69, 127
2, 104160, Note_off_c, 1, 73, 0
2, 104360, Note_off_c, 1, 69, 0
2, 104360, Note_on_c, 1, 73, 127
2, 104560, Note_on_c, 1, 66, 127
2, 104560, Note_off_c, 1, 73, 0
2, 104760, Note_off_c, 1, 66, 0
2, 104760, Note_on_c, 1, 68, 127
2, 104920, Note_off_c, 1, 68, 0
2, 104920, Note_on_c, 1, 69, 127
2, 105120, Note_off_c, 1, 64, 0
2, 105120, Note_on_c, 1, 66, 127
2, 105320, Note_on_c, 1, 59, 127
2, 105320, Note_off_c, 1, 61, 0
2, 105320, Note_on_c, 1, 63, 127
2, 105320, Note_off_c, 1, 66, 0
2, 105520, Note_on_c, 1, 57, 127
2, 105520, Note_off_c, 1, 59, 0
2, 105680, Note_on_c, 1, 52, 127
2, 105680, Note_off_c, 1, 54, 0
2, 105680, Note_off_c, 1, 57, 0
2, 105680, Note_on_c, 1, 59, 127
2, 105680, Note_off_c, 1, 63, 0
2, 105680, Note_on_c, 1, 64, 127
2, 106080, Note_on_c, 1, 68, 127
2, 106080, Note_off_c, 1, 69, 0
2, 106280, Note_on_c, 1, 66, 127
2, 106280, Note_off_c, 1, 68, 0
2, 106440, Note_off_c, 1, 66, 0
2, 106440, Note_on_c, 1, 68, 127
2, 106520, Note_on_c, 1, 63, 127
2, 106560, Note_off_c, 1, 64, 0
2, 106600, Note_on_c, 1, 64, 127
2, 106640, Note_off_c, 1, 52, 0
2, 106640, Note_on_c, 1, 54, 127
2, 106640, Note_off_c, 1, 63, 0
2, 106840, Note_on_c, 1, 47, 127
2, 106840, Note_off_c, 1, 54, 0
2, 107040, Note_off_c, 1, 47, 0
2, 107040, Note_on_c, 1, 49, 127
2, 107200, Note_off_c, 1, 49, 0
2, 107200, Note_on_c, 1, 50, 127
2, 107400, Note_on_c, 1, 47, 127
2, 107600, Note_on_c, 1, 44, 127
2, 107720, Note_off_c, 1, 64, 0
2, 107760, Note_off_c, 1, 59, 0
2, 107760, Note_off_c, 1, 68, 0
2, 107800, Note_on_c, 1, 40, 127
2, 107800, Note_on_c, 1, 68, 127
2, 107960, Note_off_c, 1, 40, 0
2, 107960, Note_off_c, 1, 44, 0
2, 107960, Note_off_c, 1, 47, 0
2, 107960, Note_on_c, 1, 49, 127
2, 107960, Note_off_c, 1, 50, 0
2, 107960, Note_on_c, 1, 64, 127
2, 107960, Note_off_c, 1, 68, 0
2, 107960, Note_on_c, 1, 69, 127
2, 108160, Note_on_c, 1, 57, 127
2, 108160, Note_off_c, 1, 69, 0
2, 108160, Note_on_c, 1, 71, 127
2, 108360, Note_on_c, 1, 47, 127
2, 108360, Note_off_c, 1, 49, 0
2, 108360, Note_off_c, 1, 71, 0
2, 108360, Note_on_c, 1, 73, 127
2, 108440, Note_on_c, 1, 71, 127
2, 108440, Note_off_c, 1, 73, 0
2, 108560, Note_on_c, 1, 56, 127
2, 108560, Note_off_c, 1, 57, 0
2, 108560, Note_on_c, 1, 69, 127
2, 108560, Note_off_c, 1, 71, 0
2, 108640, Note_off_c, 1, 69, 0
2, 108640, Note_on_c, 1, 71, 127
2, 108720, Note_on_c, 1, 45, 127
2, 108720, Note_off_c, 1, 47, 0
2, 108720, Note_off_c, 1, 56, 0
2, 108720, Note_off_c, 1, 71, 0
2, 108720, Note_on_c, 1, 73, 127
2, 108920, Note_on_c, 1, 71, 127
2, 109120, Note_on_c, 1, 69, 127
2, 109120, Note_off_c, 1, 71, 0
2, 109320, Note_on_c, 1, 52, 127
2, 109320, Note_on_c, 1, 68, 127
2, 109320, Note_off_c, 1, 69, 0
2, 109480, Note_off_c, 1, 45, 0
2, 109480, Note_off_c, 1, 52, 0
2, 109480, Note_on_c, 1, 57, 127
2, 109480, Note_off_c, 1, 68, 0
2, 109480, Note_on_c, 1, 69, 127
2, 109680, Note_off_c, 1, 57, 0
2, 109680, Note_on_c, 1, 59, 127
2, 109880, Note_on_c, 1, 52, 127
2, 109880, Note_off_c, 1, 59, 0
2, 110080, Note_off_c, 1, 52, 0
2, 110080, Note_on_c, 1, 54, 127
2, 110240, Note_off_c, 1, 54, 0
2, 110240, Note_on_c, 1, 55, 127
2, 110440, Note_on_c, 1, 52, 127
2, 110640, Note_on_c, 1, 49, 127
2, 110760, Note_off_c, 1, 64, 0
2, 110800, Note_off_c, 1, 73, 0
2, 110840, Note_on_c, 1, 45, 127
2, 110840, Note_off_c, 1, 69, 0
2, 110840, Note_on_c, 1, 73, 127
2, 111000, Note_off_c, 1, 45, 0
2, 111000, Note_off_c, 1, 49, 0
2, 111000, Note_off_c, 1, 52, 0
2, 111000, Note_on_c, 1, 54, 127
2, 111000, Note_off_c, 1, 55, 0
2, 111000, Note_on_c, 1, 69, 127
2, 111000, Note_off_c, 1, 73, 0
2, 111000, Note_on_c, 1, 74, 127
2, 111200, Note_on_c, 1, 62, 127
2, 111200, Note_on_c, 1, 73, 127
2, 111200, Note_off_c, 1, 74, 0
2, 111320, Note_off_c, 1, 73, 0
2, 111320, Note_on_c, 1, 74, 127
2, 111400, Note_on_c, 1, 52, 127
2, 111400, Note_off_c, 1, 54, 0
2, 111400, Note_off_c, 1, 74, 0
2, 111400, Note_on_c, 1, 76, 127
2, 111600, Note_on_c, 1, 61, 127
2, 111600, Note_off_c, 1, 62, 0
2, 111600, Note_on_c, 1, 74, 127
2, 111600, Note_off_c, 1, 76, 0
2, 111680, Note_off_c, 1, 74, 0
2, 111680, Note_on_c, 1, 76, 127
2, 111760, Note_on_c, 1, 50, 127
2, 111760, Note_off_c, 1, 52, 0
2, 111760, Note_off_c, 1, 61, 0
2, 111760, Note_off_c, 1, 76, 0
2, 111760, Note_on_c, 1, 78, 127
2, 111960, Note_on_c, 1, 76, 127
2, 112160, Note_on_c, 1, 74, 127
2, 112160, Note_off_c, 1, 76, 0
2, 112360, Note_on_c, 1, 57, 127
2, 112360, Note_on_c, 1, 73, 127
2, 112360, Note_off_c, 1, 74, 0
2, 112520, Note_off_c, 1, 50, 0
2, 112520, Note_off_c, 1, 57, 0
2, 112520, Note_on_c, 1, 62, 127
2, 112520, Note_off_c, 1, 73, 0
2, 112520, Note_on_c, 1, 74, 127
2, 112720, Note_off_c, 1, 62, 0
2, 112720, Note_on_c, 1, 66, 127
2, 112920, Note_on_c, 1, 59, 127
2, 112920, Note_off_c, 1, 66, 0
2, 113120, Note_off_c, 1, 59, 0
2, 113120, Note_on_c, 1, 61, 127
2, 113120, Note_off_c, 1, 74, 0
2, 113280, Note_off_c, 1, 61, 0
2, 113280, Note_on_c, 1, 62, 127
2, 113280, Note_off_c, 1, 69, 0
2, 113280, Note_on_c, 1, 76, 127
2, 113280, Note_off_c, 1, 78, 0
2, 113280, Note_on_c, 1, 80, 127
2, 113480, Note_on_c, 1, 59, 127
2, 113480, Note_off_c, 1, 80, 0
2, 113480, Note_on_c, 1, 81, 127
2, 113680, Note_on_c, 1, 56, 127
2, 113680, Note_on_c, 1, 80, 127
2, 113680, Note_off_c, 1, 81, 0
2, 113880, Note_on_c, 1, 52, 127
2, 113880, Note_off_c, 1, 80, 0
2, 113880, Note_on_c, 1, 81, 127
2, 114040, Note_off_c, 1, 52, 0
2, 114040, Note_off_c, 1, 56, 0
2, 114040, Note_off_c, 1, 59, 0
2, 114040, Note_on_c, 1, 61, 127
2, 114040, Note_off_c, 1, 62, 0
2, 114040, Note_off_c, 1, 81, 0
2, 114040, Note_on_c, 1, 83, 127
2, 114240, Note_on_c, 1, 64, 127
2, 114280, Note_on_c, 1, 81, 127
2, 114280, Note_off_c, 1, 83, 0
2, 114360, Note_off_c, 1, 81, 0
2, 114360, Note_on_c, 1, 83, 127
2, 114440, Note_on_c, 1, 59, 127
2, 114440, Note_off_c, 1, 61, 0
2, 114440, Note_on_c, 1, 81, 127
2, 114440, Note_off_c, 1, 83, 0
2, 114480, Note_on_c, 1, 83, 127
2, 114520, Note_off_c, 1, 81, 0
2, 114560, Note_on_c, 1, 81, 127
2, 114560, Note_off_c, 1, 83, 0
2, 114640, Note_on_c, 1, 57, 127
2, 114640, Note_off_c, 1, 59, 0
2, 114640, Note_off_c, 1, 81, 0
2, 114680, Note_on_c, 1, 80, 127
2, 114760, Note_off_c, 1, 80, 0
2, 114760, Note_on_c, 1, 81, 127
2, 114800, Note_on_c, 1, 56, 127
2, 114800, Note_off_c, 1, 57, 0
2, 114800, Note_off_c, 1, 81, 0
2, 114800, Note_on_c, 1, 83, 127
2, 115000, Note_off_c, 1, 76, 0
2, 115000, Note_on_c, 1, 81, 127
2, 115200, Note_on_c, 1, 80, 127
2, 115200, Note_off_c, 1, 81, 0
2, 115400, Note_on_c, 1, 57, 127
2, 115400, Note_on_c, 1, 78, 127
2, 115400, Note_off_c, 1, 80, 0
2, 115560, Note_off_c, 1, 57, 0
2, 115560, Note_on_c, 1, 59, 127
2, 115560, Note_on_c, 1, 76, 127
2, 115560, Note_off_c, 1, 78, 0
2, 115760, Note_on_c, 1, 74, 127
2, 115760, Note_off_c, 1, 76, 0
2, 115960, Note_on_c, 1, 73, 127
2, 115960, Note_off_c, 1, 74, 0
2, 116160, Note_on_c, 1, 71, 127
2, 116160, Note_off_c, 1, 73, 0
2, 116320, Note_off_c, 1, 56, 0
2, 116320, Note_on_c, 1, 57, 127
2, 116320, Note_off_c, 1, 59, 0
2, 116320, Note_off_c, 1, 71, 0
2, 116320, Note_on_c, 1, 73, 127
2, 116520, Note_on_c, 1, 76, 127
2, 116520, Note_off_c, 1, 83, 0
2, 116720, Note_off_c, 1, 57, 0
2, 116720, Note_on_c, 1, 61, 127
2, 116720, Note_off_c, 1, 76, 0
2, 116720, Note_on_c, 1, 81, 127
2, 116880, Note_off_c, 1, 73, 0
2, 116920, Note_on_c, 1, 57, 127
2, 116920, Note_off_c, 1, 61, 0
2, 116920, Note_on_c, 1, 73, 127
2, 117080, Note_off_c, 1, 57, 0
2, 117080, Note_on_c, 1, 71, 127
2, 117080, Note_off_c, 1, 73, 0
2, 117080, Note_off_c, 1, 81, 0
2, 117240, Note_on_c, 1, 74, 127
2, 117440, Note_on_c, 1, 52, 127
2, 117440, Note_on_c, 1, 81, 127
2, 117640, Note_on_c, 1, 80, 127
2, 117640, Note_off_c, 1, 81, 0
2, 117800, Note_off_c, 1, 52, 0
2, 117800, Note_off_c, 1, 71, 0
2, 117800, Note_off_c, 1, 74, 0
2, 117840, Note_on_c, 1, 57, 127
2, 117840, Note_on_c, 1, 73, 127
2, 118200, Note_off_c, 1, 64, 0
2, 118200, Note_on_c, 1, 66, 127
2, 118200, Note_on_c, 1, 78, 127
2, 118200, Note_off_c, 1, 80, 0
2, 118400, Note_off_c, 1, 66, 0
2, 118400, Note_on_c, 1, 68, 127
2, 118400, Note_on_c, 1, 76, 127
2, 118400, Note_off_c, 1, 78, 0
2, 118560, Note_off_c, 1, 68, 0
2, 118560, Note_off_c, 1, 76, 0
2, 118600, Note_on_c, 1, 69, 127
2, 118600, Note_on_c, 1, 78, 127
2, 118760, Note_off_c, 1, 78, 0
2, 118760, Note_on_c, 1, 81, 127
2, 118960, Note_off_c, 1, 81, 0
2, 119120, Note_off_c, 1, 69, 0
2, 119160, Note_on_c, 1, 68, 127
2, 119160, Note_off_c, 1, 73, 0
2, 119160, Note_on_c, 1, 75, 127
2, 119320, Note_off_c, 1, 57, 0
2, 119360, Note_on_c, 1, 58, 127
2, 119360, Note_off_c, 1, 68, 0
2, 119360, Note_off_c, 1, 75, 0
2, 119360, Note_on_c, 1, 76, 127
2, 119520, Note_on_c, 1, 73, 127
2, 119720, Note_on_c, 1, 70, 127
2, 119920, Note_on_c, 1, 66, 127
2, 120080, Note_off_c, 1, 76, 0
2, 120120, Note_on_c, 1, 76, 127
2, 120280, Note_on_c, 1, 54, 127
2, 120280, Note_off_c, 1, 58, 0
2, 120480, Note_off_c, 1, 54, 0
2, 120480, Note_on_c, 1, 56, 127
2, 120680, Note_off_c, 1, 56, 0
2, 120680, Note_on_c, 1, 58, 127
2, 120680, Note_off_c, 1, 76, 0
2, 120680, Note_on_c, 1, 78, 127
2, 120840, Note_off_c, 1, 73, 0
2, 120880, Note_off_c, 1, 58, 0
2, 120880, Note_on_c, 1, 59, 127
2, 120880, Note_off_c, 1, 70, 0
2, 120880, Note_on_c, 1, 75, 127
2, 120880, Note_off_c, 1, 78, 0
2, 121040, Note_on_c, 1, 73, 127
2, 121240, Note_on_c, 1, 71, 127
2, 121240, Note_off_c, 1, 73, 0
2, 121440, Note_on_c, 1, 70, 127
2, 121440, Note_off_c, 1, 71, 0
2, 121640, Note_off_c, 1, 70, 0
2, 121640, Note_on_c, 1, 71, 127
2, 121800, Note_off_c, 1, 59, 0
2, 121800, Note_on_c, 1, 61, 127
2, 122000, Note_on_c, 1, 54, 127
2, 122000, Note_off_c, 1, 61, 0
2, 122200, Note_off_c, 1, 54, 0
2, 122200, Note_on_c, 1, 56, 127
2, 122400, Note_off_c, 1, 56, 0
2, 122400, Note_on_c, 1, 57, 127
2, 122560, Note_on_c, 1, 54, 127
2, 122760, Note_on_c, 1, 51, 127
2, 122960, Note_on_c, 1, 47, 127
2, 123080, Note_off_c, 1, 66, 0
2, 123120, Note_off_c, 1, 51, 0
2, 123120, Note_off_c, 1, 54, 0
2, 123120, Note_off_c, 1, 57, 0
2, 123120, Note_off_c, 1, 75, 0
2, 123160, Note_off_c, 1, 47, 0
2, 123160, Note_on_c, 1, 56, 127
2, 123160, Note_on_c, 1, 74, 127
2, 123240, Note_on_c, 1, 73, 127
2, 123240, Note_off_c, 1, 74, 0
2, 123320, Note_on_c, 1, 59, 127
2, 123320, Note_off_c, 1, 73, 0
2, 123320, Note_on_c, 1, 74, 127
2, 123520, Note_on_c, 1, 64, 127
2, 123720, Note_off_c, 1, 74, 0
2, 123720, Note_on_c, 1, 76, 127
2, 123880, Note_off_c, 1, 56, 0
2, 123880, Note_off_c, 1, 59, 0
2, 123920, Note_on_c, 1, 57, 127
2, 123920, Note_on_c, 1, 73, 127
2, 123920, Note_off_c, 1, 76, 0
2, 124280, Note_on_c, 1, 56, 127
2, 124280, Note_off_c, 1, 57, 0
2, 124280, Note_on_c, 1, 69, 127
2, 124280, Note_off_c, 1, 71, 0
2, 124480, Note_on_c, 1, 68, 127
2, 124480, Note_off_c, 1, 69, 0
2, 124640, Note_off_c, 1, 73, 0
2, 124680, Note_on_c, 1, 54, 127
2, 124680, Note_off_c, 1, 56, 0
2, 124680, Note_off_c, 1, 64, 0
2, 124680, Note_off_c, 1, 68, 0
2, 124680, Note_on_c, 1, 69, 127
2, 124840, Note_off_c, 1, 69, 0
2, 124840, Note_on_c, 1, 73, 127
2, 125040, Note_on_c, 1, 52, 127
2, 125040, Note_off_c, 1, 54, 0
2, 125040, Note_on_c, 1, 66, 127
2, 125040, Note_off_c, 1, 73, 0
2, 125240, Note_off_c, 1, 66, 0
2, 125240, Note_on_c, 1, 68, 127
2, 125440, Note_on_c, 1, 51, 127
2, 125440, Note_off_c, 1, 52, 0
2, 125440, Note_off_c, 1, 68, 0
2, 125440, Note_on_c, 1, 69, 127
2, 125600, Note_on_c, 1, 66, 127
2, 125800, Note_on_c, 1, 47, 127
2, 125800, Note_off_c, 1, 51, 0
2, 125800, Note_on_c, 1, 63, 127
2, 126000, Note_on_c, 1, 59, 127
2, 126160, Note_off_c, 1, 66, 0
2, 126160, Note_off_c, 1, 69, 0
2, 126200, Note_off_c, 1, 47, 0
2, 126200, Note_on_c, 1, 52, 127
2, 126200, Note_off_c, 1, 59, 0
2, 126200, Note_off_c, 1, 63, 0
2, 126200, Note_on_c, 1, 68, 127
2, 126360, Note_on_c, 1, 59, 127
2, 126560, Note_on_c, 1, 40, 127
2, 126560, Note_off_c, 1, 59, 0
2, 126560, Note_on_c, 1, 64, 127
2, 126960, Note_off_c, 1, 40, 0
2, 126960, Note_on_c, 1, 45, 127
2, 126960, Note_on_c, 1, 61, 127
2, 126960, Note_off_c, 1, 64, 0
2, 127320, Note_off_c, 1, 52, 0
2, 127320, Note_on_c, 1, 54, 127
2, 127320, Note_on_c, 1, 66, 127
2, 127320, Note_off_c, 1, 68, 0
2, 127520, Note_off_c, 1, 54, 0
2, 127520, Note_on_c, 1, 56, 127
2, 127520, Note_on_c, 1, 64, 127
2, 127520, Note_off_c, 1, 66, 0
2, 127720, Note_off_c, 1, 56, 0
2, 127720, Note_on_c, 1, 57, 127
2, 127720, Note_off_c, 1, 64, 0
2, 127720, Note_on_c, 1, 66, 127
2, 127880, Note_off_c, 1, 66, 0
2, 127880, Note_on_c, 1, 69, 127
2, 128080, Note_off_c, 1, 69, 0
2, 128280, Note_off_c, 1, 57, 0
2, 128280, Note_on_c, 1, 59, 127
2, 128280, Note_off_c, 1, 61, 0
2, 128280, Note_on_c, 1, 63, 127
2, 128480, Note_off_c, 1, 45, 0
2, 128480, Note_on_c, 1, 46, 127
2, 128480, Note_off_c, 1, 59, 0
2, 128480, Note_off_c, 1, 63, 0
2, 128480, Note_on_c, 1, 64, 127
2, 128640, Note_on_c, 1, 61, 127
2, 128840, Note_on_c, 1, 58, 127
2, 129040, Note_on_c, 1, 54, 127
2, 129200, Note_off_c, 1, 64, 0
2, 129240, Note_on_c, 1, 64, 127
2, 129400, Note_on_c, 1, 42, 127
2, 129400, Note_off_c, 1, 46, 0
2, 129600, Note_off_c, 1, 42, 0
2, 129600, Note_on_c, 1, 44, 127
2, 129800, Note_off_c, 1, 44, 0
2, 129800, Note_on_c, 1, 46, 127
2, 129800, Note_off_c, 1, 64, 0
2, 129800, Note_on_c, 1, 66, 127
2, 130000, Note_on_c, 1, 35, 127
2, 130000, Note_off_c, 1, 46, 0
2, 130000, Note_off_c, 1, 54, 0
2, 130000, Note_off_c, 1, 58, 0
2, 130000, Note_off_c, 1, 61, 0
2, 130000, Note_on_c, 1, 64, 127
2, 130000, Note_off_c, 1, 66, 0
2, 130120, Note_on_c, 1, 63, 127
2, 130120, Note_off_c, 1, 64, 0
2, 130160, Note_off_c, 1, 35, 0
2, 130160, Note_on_c, 1, 47, 127
2, 130160, Note_off_c, 1, 63, 0
2, 130160, Note_on_c, 1, 64, 127
2, 130240, Note_on_c, 1, 63, 127
2, 130240, Note_off_c, 1, 64, 0
2, 130320, Note_off_c, 1, 63, 0
2, 130320, Note_on_c, 1, 64, 127
2, 130360, Note_on_c, 1, 51, 127
2, 130360, Note_on_c, 1, 63, 127
2, 130360, Note_off_c, 1, 64, 0
2, 130560, Note_on_c, 1, 54, 127
2, 130760, Note_on_c, 1, 59, 127
2, 130760, Note_off_c, 1, 63, 0
2, 130920, Note_on_c, 1, 63, 127
2, 131120, Note_off_c, 1, 63, 0
2, 131120, Note_on_c, 1, 66, 127
2, 131320, Note_off_c, 1, 66, 0
2, 131320, Note_on_c, 1, 71, 127
2, 131480, Note_off_c, 1, 59, 0
2, 131520, Note_off_c, 1, 51, 0
2, 131520, Note_on_c, 1, 52, 127
2, 131520, Note_off_c, 1, 54, 0
2, 131520, Note_on_c, 1, 61, 127
2, 131880, Note_on_c, 1, 70, 127
2, 131880, Note_off_c, 1, 71, 0
2, 132080, Note_on_c, 1, 68, 127
2, 132080, Note_off_c, 1, 70, 0
2, 132280, Note_off_c, 1, 68, 0
2, 132280, Note_on_c, 1, 70, 127
2, 132440, Note_off_c, 1, 70, 0
2, 132440, Note_on_c, 1, 73, 127
2, 132640, Note_on_c, 1, 66, 127
2, 132640, Note_off_c, 1, 73, 0
2, 132840, Note_off_c, 1, 66, 0
2, 132840, Note_on_c, 1, 68, 127
2, 133040, Note_off_c, 1, 52, 0
2, 133040, Note_on_c, 1, 54, 127
2, 133040, Note_off_c, 1, 61, 0
2, 133040, Note_off_c, 1, 68, 0
2, 133040, Note_on_c, 1, 69, 127
2, 133200, Note_on_c, 1, 66, 127
2, 133400, Note_on_c, 1, 63, 127
2, 133600, Note_on_c, 1, 59, 127
2, 133680, Note_off_c, 1, 63, 0
2, 133800, Note_off_c, 1, 54, 0
2, 133800, Note_on_c, 1, 56, 127
2, 134160, Note_on_c, 1, 64, 127
2, 134160, Note_off_c, 1, 66, 0
2, 134160, Note_on_c, 1, 68, 127
2, 134160, Note_off_c, 1, 69, 0
2, 134360, Note_off_c, 1, 56, 0
2, 134360, Note_on_c, 1, 58, 127
2, 134520, Note_off_c, 1, 59, 0
2, 134560, Note_off_c, 1, 58, 0
2, 134560, Note_on_c, 1, 59, 127
2, 134560, Note_on_c, 1, 66, 127
2, 134560, Note_off_c, 1, 68, 0
2, 134920, Note_on_c, 1, 63, 127
2, 134920, Note_off_c, 1, 64, 0
2, 135120, Note_on_c, 1, 61, 127
2, 135120, Note_off_c, 1, 63, 0
2, 135320, Note_off_c, 1, 61, 0
2, 135320, Note_on_c, 1, 63, 127
2, 135480, Note_off_c, 1, 59, 0
2, 135480, Note_on_c, 1, 61, 127
2, 135680, Note_on_c, 1, 54, 127
2, 135680, Note_off_c, 1, 61, 0
2, 135880, Note_off_c, 1, 54, 0
2, 135880, Note_on_c, 1, 56, 127
2, 136080, Note_off_c, 1, 56, 0
2, 136080, Note_on_c, 1, 57, 127
2, 136240, Note_on_c, 1, 54, 127
2, 136240, Note_off_c, 1, 57, 0
2, 136440, Note_on_c, 1, 51, 127
2, 136520, Note_off_c, 1, 47, 0
2, 136640, Note_on_c, 1, 47, 127
2, 136800, Note_off_c, 1, 54, 0
2, 136840, Note_off_c, 1, 51, 0
2, 136840, Note_on_c, 1, 56, 127
2, 137000, Note_on_c, 1, 59, 127
2, 137000, Note_off_c, 1, 63, 0
2, 137160, Note_off_c, 1, 66, 0
2, 137200, Note_on_c, 1, 55, 127
2, 137200, Note_off_c, 1, 56, 0
2, 137200, Note_on_c, 1, 64, 127
2, 137400, Note_on_c, 1, 58, 127
2, 137400, Note_off_c, 1, 59, 0
2, 137600, Note_on_c, 1, 54, 127
2, 137600, Note_off_c, 1, 55, 0
2, 137600, Note_off_c, 1, 58, 0
2, 137600, Note_on_c, 1, 59, 127
2, 137680, Note_off_c, 1, 64, 0
2, 137720, Note_on_c, 1, 66, 127
2, 137800, Note_off_c, 1, 66, 0
2, 137800, Note_on_c, 1, 68, 127
2, 137880, Note_off_c, 1, 68, 0
2, 137880, Note_on_c, 1, 69, 127
2, 137960, Note_off_c, 1, 54, 0
2, 138000, Note_on_c, 1, 52, 127
2, 138000, Note_on_c, 1, 68, 127
2, 138000, Note_off_c, 1, 69, 0
2, 138080, Note_on_c, 1, 66, 127
2, 138080, Note_off_c, 1, 68, 0
2, 138160, Note_off_c, 1, 66, 0
2, 138160, Note_on_c, 1, 68, 127
2, 138280, Note_off_c, 1, 68, 0
2, 138280, Note_on_c, 1, 69, 127
2, 138360, Note_off_c, 1, 52, 0
2, 138360, Note_on_c, 1, 54, 127
2, 138360, Note_on_c, 1, 64, 127
2, 138360, Note_off_c, 1, 69, 0
2, 138480, Note_on_c, 1, 63, 127
2, 138480, Note_off_c, 1, 64, 0
2, 138560, Note_off_c, 1, 54, 0
2, 138560, Note_on_c, 1, 56, 127
2, 138560, Note_off_c, 1, 63, 0
2, 138560, Note_on_c, 1, 64, 127
2, 138600, Note_on_c, 1, 63, 127
2, 138600, Note_off_c, 1, 64, 0
2, 138680, Note_off_c, 1, 63, 0
2, 138680, Note_on_c, 1, 64, 127
2, 138760, Note_off_c, 1, 56, 0
2, 138760, Note_on_c, 1, 57, 127
2, 138760, Note_on_c, 1, 63, 127
2, 138760, Note_off_c, 1, 64, 0
2, 138920, Note_off_c, 1, 63, 0
2, 138920, Note_on_c, 1, 64, 127
2, 139000, Note_off_c, 1, 47, 0
2, 139120, Note_on_c, 1, 52, 127
2, 139280, Note_off_c, 1, 59, 0
2, 139320, Note_on_c, 1, 59, 127
2, 139480, Note_off_c, 1, 57, 0
2, 139520, Note_on_c, 1, 56, 127
2, 139520, Note_off_c, 1, 59, 0
2, 139520, Note_on_c, 1, 61, 127
2, 139680, Note_off_c, 1, 61, 0
2, 139680, Note_on_c, 1, 62, 127
2, 139880, Note_on_c, 1, 61, 127
2, 139880, Note_off_c, 1, 62, 0
2, 140080, Note_off_c, 1, 56, 0
2, 140080, Note_on_c, 1, 57, 127
2, 140280, Note_on_c, 1, 54, 127
2, 140280, Note_off_c, 1, 57, 0
2, 140440, Note_on_c, 1, 57, 127
2, 140440, Note_on_c, 1, 60, 127
2, 140440, Note_off_c, 1, 61, 0
2, 140440, Note_on_c, 1, 63, 127
2, 140440, Note_off_c, 1, 64, 0
2, 140640, Note_off_c, 1, 54, 0
2, 140640, Note_on_c, 1, 56, 127
2, 140640, Note_off_c, 1, 57, 0
2, 140640, Note_on_c, 1, 59, 127
2, 140640, Note_off_c, 1, 60, 0
2, 140640, Note_off_c, 1, 63, 0
2, 140640, Note_on_c, 1, 64, 127
2, 140840, Note_on_c, 1, 40, 127
2, 141040, Note_on_c, 1, 44, 127
2, 141200, Note_off_c, 1, 44, 0
2, 141200, Note_on_c, 1, 47, 127
2, 141960, Note_off_c, 1, 56, 0
2, 141960, Note_off_c, 1, 59, 0
2, 141960, Note_off_c, 1, 64, 0
2, 141960, Note_on_c, 1, 71, 127
2, 142160, Note_off_c, 1, 40, 0
2, 142160, Note_off_c, 1, 47, 0
2, 142160, Note_off_c, 1, 52, 0
2, 142360, Note_on_c, 1, 52, 127
2, 142560, Note_on_c, 1, 56, 127
2, 142720, Note_on_c, 1, 59, 127
2, 142920, Note_on_c, 1, 64, 127
2, 143120, Note_on_c, 1, 68, 127
2, 143480, Note_on_c, 1, 76, 127
2, 143680, Note_off_c, 1, 56, 0
2, 143680, Note_off_c, 1, 59, 0
2, 143680, Note_on_c, 1, 61, 127
2, 143680, Note_off_c, 1, 64, 0
2, 143680, Note_on_c, 1, 66, 127
2, 143680, Note_off_c, 1, 68, 0
2, 143680, Note_off_c, 1, 76, 0
2, 143800, Note_on_c, 1, 70, 127
2, 143800, Note_off_c, 1, 71, 0
2, 143880, Note_off_c, 1, 52, 0
2, 143880, Note_on_c, 1, 55, 127
2, 143880, Note_off_c, 1, 70, 0
2, 143880, Note_on_c, 1, 71, 127
2, 143920, Note_off_c, 1, 71, 0
2, 143960, Note_on_c, 1, 70, 127
2, 144000, Note_off_c, 1, 70, 0
2, 144000, Note_on_c, 1, 71, 127
2, 144080, Note_on_c, 1, 49, 127
2, 144080, Note_off_c, 1, 55, 0
2, 144080, Note_on_c, 1, 70, 127
2, 144080, Note_off_c, 1, 71, 0
2, 144120, Note_off_c, 1, 70, 0
2, 144120, Note_on_c, 1, 71, 127
2, 144200, Note_on_c, 1, 70, 127
2, 144200, Note_off_c, 1, 71, 0
2, 144240, Note_off_c, 1, 49, 0
2, 144240, Note_on_c, 1, 52, 127
2, 144440, Note_on_c, 1, 46, 127
2, 144440, Note_off_c, 1, 52, 0
2, 144640, Note_off_c, 1, 46, 0
2, 144640, Note_on_c, 1, 49, 127
2, 144840, Note_on_c, 1, 42, 127
2, 144840, Note_off_c, 1, 49, 0
2, 145000, Note_off_c, 1, 42, 0
2, 145000, Note_on_c, 1, 52, 127
2, 145200, Note_on_c, 1, 50, 127
2, 145200, Note_off_c, 1, 52, 0
2, 145320, Note_off_c, 1, 70, 0
2, 145400, Note_on_c, 1, 54, 127
2, 145600, Note_on_c, 1, 58, 127
2, 145760, Note_on_c, 1, 64, 127
2, 145760, Note_off_c, 1, 66, 0
2, 145960, Note_off_c, 1, 54, 0
2, 145960, Note_off_c, 1, 58, 0
2, 145960, Note_on_c, 1, 59, 127
2, 145960, Note_off_c, 1, 61, 0
2, 145960, Note_on_c, 1, 62, 127
2, 145960, Note_off_c, 1, 64, 0
2, 146160, Note_on_c, 1, 66, 127
2, 146360, Note_on_c, 1, 54, 127
2, 146360, Note_on_c, 1, 71, 127
2, 146520, Note_on_c, 1, 74, 127
2, 146720, Note_on_c, 1, 49, 127
2, 146720, Note_off_c, 1, 50, 0
2, 146720, Note_off_c, 1, 54, 0
2, 146720, Note_on_c, 1, 55, 127
2, 146720, Note_off_c, 1, 62, 0
2, 146720, Note_off_c, 1, 66, 0
2, 146720, Note_off_c, 1, 71, 0
2, 146720, Note_off_c, 1, 74, 0
2, 146720, Note_on_c, 1, 76, 127
2, 146920, Note_off_c, 1, 76, 0
2, 146920, Note_on_c, 1, 79, 127
2, 147120, Note_on_c, 1, 52, 127
2, 147120, Note_off_c, 1, 59, 0
2, 147120, Note_on_c, 1, 73, 127
2, 147120, Note_off_c, 1, 79, 0
2, 147280, Note_off_c, 1, 73, 0
2, 147280, Note_on_c, 1, 76, 127
2, 147480, Note_off_c, 1, 49, 0
2, 147480, Note_off_c, 1, 52, 0
2, 147480, Note_on_c, 1, 54, 127
2, 147480, Note_off_c, 1, 55, 0
2, 147480, Note_on_c, 1, 70, 127
2, 147480, Note_off_c, 1, 76, 0
2, 147680, Note_off_c, 1, 70, 0
2, 147680, Note_on_c, 1, 73, 127
2, 147880, Note_on_c, 1, 42, 127
2, 147880, Note_on_c, 1, 66, 127
2, 147880, Note_off_c, 1, 73, 0
2, 148040, Note_on_c, 1, 76, 127
2, 148240, Note_off_c, 1, 42, 0
2, 148240, Note_on_c, 1, 47, 127
2, 148240, Note_off_c, 1, 54, 0
2, 148240, Note_on_c, 1, 74, 127
2, 148240, Note_off_c, 1, 76, 0
2, 148640, Note_off_c, 1, 66, 0
2, 148640, Note_on_c, 1, 68, 127
2, 148800, Note_off_c, 1, 68, 0
2, 148800, Note_on_c, 1, 70, 127
2, 149000, Note_off_c, 1, 70, 0
2, 149000, Note_on_c, 1, 71, 127
2, 149000, Note_off_c, 1, 74, 0
2, 149200, Note_on_c, 1, 74, 127
2, 149400, Note_on_c, 1, 67, 127
2, 149400, Note_off_c, 1, 74, 0
2, 149760, Note_on_c, 1, 65, 127
2, 149760, Note_off_c, 1, 67, 0
2, 149760, Note_on_c, 1, 68, 127
2, 149760, Note_off_c, 1, 71, 0
2, 149760, Note_on_c, 1, 73, 127
2, 149960, Note_off_c, 1, 47, 0
2, 149960, Note_on_c, 1, 50, 127
2, 150160, Note_on_c, 1, 44, 127
2, 150160, Note_off_c, 1, 50, 0
2, 150320, Note_off_c, 1, 44, 0
2, 150320, Note_on_c, 1, 47, 127
2, 150520, Note_on_c, 1, 41, 127
2, 150520, Note_off_c, 1, 47, 0
2, 150720, Note_off_c, 1, 41, 0
2, 150720, Note_on_c, 1, 44, 127
2, 150920, Note_on_c, 1, 37, 127
2, 150920, Note_off_c, 1, 44, 0
2, 151080, Note_off_c, 1, 37, 0
2, 151080, Note_on_c, 1, 47, 127
2, 151280, Note_on_c, 1, 45, 127
2, 151280, Note_off_c, 1, 47, 0
2, 151280, Note_off_c, 1, 65, 0
2, 151280, Note_on_c, 1, 66, 127
2, 151280, Note_off_c, 1, 68, 0
2, 151280, Note_on_c, 1, 69, 127
2, 151480, Note_on_c, 1, 49, 127
2, 151680, Note_on_c, 1, 54, 127
2, 151840, Note_on_c, 1, 57, 127
2, 152040, Note_off_c, 1, 49, 0
2, 152040, Note_on_c, 1, 51, 127
2, 152040, Note_off_c, 1, 54, 0
2, 152040, Note_off_c, 1, 57, 0
2, 152040, Note_on_c, 1, 59, 127
2, 152040, Note_off_c, 1, 66, 0
2, 152040, Note_off_c, 1, 69, 0
2, 152040, Note_off_c, 1, 73, 0
2, 152240, Note_on_c, 1, 63, 127
2, 152440, Note_off_c, 1, 51, 0
2, 152440, Note_on_c, 1, 66, 127
2, 152640, Note_on_c, 1, 71, 127
2, 152800, Note_on_c, 1, 44, 127
2, 152800, Note_off_c, 1, 45, 0
2, 152800, Note_off_c, 1, 59, 0
2, 152800, Note_off_c, 1, 63, 0
2, 152800, Note_on_c, 1, 65, 127
2, 152800, Note_off_c, 1, 66, 0
2, 153000, Note_off_c, 1, 44, 0
2, 153000, Note_on_c, 1, 49, 127
2, 153000, Note_on_c, 1, 68, 127
2, 153000, Note_off_c, 1, 71, 0
2, 153200, Note_off_c, 1, 49, 0
2, 153200, Note_on_c, 1, 51, 127
2, 153200, Note_off_c, 1, 65, 0
2, 153200, Note_off_c, 1, 68, 0
2, 153200, Note_on_c, 1, 73, 127
2, 153360, Note_off_c, 1, 51, 0
2, 153360, Note_on_c, 1, 53, 127
2, 153360, Note_on_c, 1, 71, 127
2, 153360, Note_off_c, 1, 73, 0
2, 153520, Note_off_c, 1, 53, 0
2, 153520, Note_on_c, 1, 54, 127
2, 153520, Note_on_c, 1, 69, 127
2, 153520, Note_off_c, 1, 71, 0
2, 153720, Note_on_c, 1, 53, 127
2, 153720, Note_off_c, 1, 54, 0
2, 153720, Note_on_c, 1, 66, 127
2, 153920, Note_off_c, 1, 53, 0
2, 153920, Note_on_c, 1, 54, 127
2, 153920, Note_off_c, 1, 69, 0
2, 153920, Note_on_c, 1, 74, 127
2, 154080, Note_off_c, 1, 54, 0
2, 154080, Note_off_c, 1, 66, 0
2, 154120, Note_on_c, 1, 56, 127
2, 154120, Note_on_c, 1, 65, 127
2, 154280, Note_off_c, 1, 56, 0
2, 154280, Note_on_c, 1, 57, 127
2, 154280, Note_off_c, 1, 65, 0
2, 154280, Note_on_c, 1, 73, 127
2, 154280, Note_off_c, 1, 74, 0
2, 154480, Note_on_c, 1, 56, 127
2, 154480, Note_off_c, 1, 57, 0
2, 154480, Note_on_c, 1, 65, 127
2, 154680, Note_off_c, 1, 56, 0
2, 154680, Note_on_c, 1, 57, 127
2, 154680, Note_off_c, 1, 65, 0
2, 154680, Note_on_c, 1, 66, 127
2, 154840, Note_off_c, 1, 73, 0
2, 154880, Note_off_c, 1, 57, 0
2, 154880, Note_on_c, 1, 59, 127
2, 154880, Note_on_c, 1, 68, 127
2, 155040, Note_off_c, 1, 59, 0
2, 155040, Note_on_c, 1, 61, 127
2, 155040, Note_off_c, 1, 68, 0
2, 155040, Note_on_c, 1, 69, 127
2, 155440, Note_on_c, 1, 49, 127
2, 155440, Note_off_c, 1, 61, 0
2, 155440, Note_on_c, 1, 68, 127
2, 155440, Note_off_c, 1, 69, 0
2, 155600, Note_off_c, 1, 66, 0
2, 155640, Note_on_c, 1, 65, 127
2, 155800, Note_off_c, 1, 49, 0
2, 155800, Note_on_c, 1, 54, 127
2, 155800, Note_off_c, 1, 65, 0
2, 155800, Note_on_c, 1, 66, 127
2, 155800, Note_off_c, 1, 68, 0
2, 156000, Note_on_c, 1, 57, 127
2, 156000, Note_on_c, 1, 73, 127
2, 156040, Note_off_c, 1, 66, 0
2, 156200, Note_off_c, 1, 57, 0
2, 156200, Note_on_c, 1, 61, 127
2, 156200, Note_off_c, 1, 73, 0
2, 156200, Note_on_c, 1, 78, 127
2, 156400, Note_off_c, 1, 61, 0
2, 156400, Note_on_c, 1, 65, 127
2, 156400, Note_off_c, 1, 78, 0
2, 156400, Note_on_c, 1, 80, 127
2, 156560, Note_off_c, 1, 54, 0
2, 156600, Note_off_c, 1, 65, 0
2, 156600, Note_on_c, 1, 66, 127
2, 156600, Note_off_c, 1, 80, 0
2, 156600, Note_on_c, 1, 81, 127
2, 156680, Note_on_c, 1, 80, 127
2, 156680, Note_off_c, 1, 81, 0
2, 156760, Note_off_c, 1, 66, 0
2, 156760, Note_on_c, 1, 69, 127
2, 156760, Note_off_c, 1, 80, 0
2, 156760, Note_on_c, 1, 81, 127
2, 156960, Note_on_c, 1, 54, 127
2, 156960, Note_on_c, 1, 62, 127
2, 156960, Note_off_c, 1, 69, 0
2, 157160, Note_off_c, 1, 62, 0
2, 157160, Note_on_c, 1, 66, 127
2, 157360, Note_off_c, 1, 54, 0
2, 157360, Note_on_c, 1, 56, 127
2, 157360, Note_on_c, 1, 60, 127
2, 157360, Note_off_c, 1, 66, 0
2, 157520, Note_on_c, 1, 78, 127
2, 157520, Note_off_c, 1, 81, 0
2, 157720, Note_on_c, 1, 75, 127
2, 157720, Note_off_c, 1, 78, 0
2, 157920, Note_off_c, 1, 75, 0
2, 157920, Note_on_c, 1, 78, 127
2, 158120, Note_off_c, 1, 60, 0
2, 158120, Note_on_c, 1, 72, 127
2, 158120, Note_off_c, 1, 78, 0
2, 158280, Note_off_c, 1, 72, 0
2, 158280, Note_on_c, 1, 75, 127
2, 158480, Note_off_c, 1, 56, 0
2, 158480, Note_on_c, 1, 58, 127
2, 158480, Note_on_c, 1, 68, 127
2, 158480, Note_off_c, 1, 75, 0
2, 158680, Note_off_c, 1, 58, 0
2, 158680, Note_on_c, 1, 60, 127
2, 158680, Note_off_c, 1, 68, 0
2, 158680, Note_on_c, 1, 78, 127
2, 158880, Note_off_c, 1, 60, 0
2, 158880, Note_on_c, 1, 61, 127
2, 158880, Note_on_c, 1, 76, 127
2, 158880, Note_off_c, 1, 78, 0
2, 159040, Note_off_c, 1, 61, 0
2, 159040, Note_on_c, 1, 64, 127
2, 159040, Note_on_c, 1, 75, 127
2, 159240, Note_on_c, 1, 57, 127
2, 159240, Note_off_c, 1, 64, 0
2, 159240, Note_on_c, 1, 73, 127
2, 159240, Note_off_c, 1, 75, 0
2, 159440, Note_off_c, 1, 57, 0
2, 159440, Note_on_c, 1, 61, 127
2, 159440, Note_on_c, 1, 71, 127
2, 159440, Note_off_c, 1, 73, 0
2, 159640, Note_on_c, 1, 54, 127
2, 159640, Note_off_c, 1, 61, 0
2, 159640, Note_on_c, 1, 69, 127
2, 159640, Note_off_c, 1, 71, 0
2, 159800, Note_off_c, 1, 54, 0
2, 159800, Note_on_c, 1, 57, 127
2, 160000, Note_on_c, 1, 51, 127
2, 160000, Note_off_c, 1, 57, 0
2, 160000, Note_on_c, 1, 75, 127
2, 160000, Note_off_c, 1, 76, 0
2, 160200, Note_off_c, 1, 51, 0
2, 160200, Note_on_c, 1, 54, 127
2, 160200, Note_on_c, 1, 73, 127
2, 160200, Note_off_c, 1, 75, 0
2, 160400, Note_on_c, 1, 44, 127
2, 160400, Note_off_c, 1, 54, 0
2, 160400, Note_on_c, 1, 72, 127
2, 160400, Note_off_c, 1, 73, 0
2, 160560, Note_on_c, 1, 51, 127
2, 160560, Note_on_c, 1, 68, 127
2, 160560, Note_off_c, 1, 69, 0
2, 160760, Note_off_c, 1, 51, 0
2, 160760, Note_on_c, 1, 56, 127
2, 160760, Note_on_c, 1, 70, 127
2, 160760, Note_off_c, 1, 72, 0
2, 160960, Note_on_c, 1, 54, 127
2, 160960, Note_off_c, 1, 56, 0
2, 160960, Note_off_c, 1, 70, 0
2, 160960, Note_on_c, 1, 72, 127
2, 161160, Note_off_c, 1, 44, 0
2, 161160, Note_on_c, 1, 52, 127
2, 161160, Note_off_c, 1, 54, 0
2, 161160, Note_off_c, 1, 72, 0
2, 161160, Note_on_c, 1, 73, 127
2, 161320, Note_on_c, 1, 61, 127
2, 161320, Note_on_c, 1, 72, 127
2, 161320, Note_off_c, 1, 73, 0
2, 161520, Note_on_c, 1, 51, 127
2, 161520, Note_off_c, 1, 52, 0
2, 161520, Note_off_c, 1, 72, 0
2, 161520, Note_on_c, 1, 73, 127
2, 161720, Note_on_c, 1, 60, 127
2, 161720, Note_off_c, 1, 61, 0
2, 161720, Note_off_c, 1, 73, 0
2, 161720, Note_on_c, 1, 75, 127
2, 161880, Note_off_c, 1, 68, 0
2, 161920, Note_on_c, 1, 49, 127
2, 161920, Note_off_c, 1, 51, 0
2, 161920, Note_off_c, 1, 60, 0
2, 161920, Note_off_c, 1, 75, 0
2, 161920, Note_on_c, 1, 76, 127
2, 162080, Note_off_c, 1, 49, 0
2, 162080, Note_on_c, 1, 51, 127
2, 162080, Note_off_c, 1, 76, 0
2, 162080, Note_on_c, 1, 78, 127
2, 162240, Note_off_c, 1, 51, 0
2, 162240, Note_on_c, 1, 52, 127
2, 162240, Note_off_c, 1, 78, 0
2, 162240, Note_on_c, 1, 80, 127
2, 162440, Note_off_c, 1, 52, 0
2, 162440, Note_on_c, 1, 54, 127
2, 162440, Note_off_c, 1, 80, 0
2, 162440, Note_on_c, 1, 81, 127
2, 162640, Note_off_c, 1, 54, 0
2, 162640, Note_on_c, 1, 56, 127
2, 162640, Note_on_c, 1, 72, 127
2, 162640, Note_on_c, 1, 76, 127
2, 162640, Note_off_c, 1, 81, 0
2, 162760, Note_on_c, 1, 75, 127
2, 162760, Note_off_c, 1, 76, 0
2, 162800, Note_off_c, 1, 75, 0
2, 162840, Note_on_c, 1, 76, 127
2, 162880, Note_on_c, 1, 75, 127
2, 162880, Note_off_c, 1, 76, 0
2, 162960, Note_off_c, 1, 75, 0
2, 162960, Note_on_c, 1, 76, 127
2, 163000, Note_on_c, 1, 44, 127
2, 163000, Note_on_c, 1, 75, 127
2, 163000, Note_off_c, 1, 76, 0
2, 163200, Note_on_c, 1, 73, 127
2, 163200, Note_off_c, 1, 75, 0
2, 163400, Note_off_c, 1, 44, 0
2, 163400, Note_on_c, 1, 49, 127
2, 163400, Note_off_c, 1, 72, 0
2, 163560, Note_on_c, 1, 68, 127
2, 163760, Note_on_c, 1, 64, 127
2, 164160, Note_off_c, 1, 49, 0
2, 164160, Note_off_c, 1, 56, 0
2, 164160, Note_on_c, 1, 61, 127
2, 164240, Note_on_c, 1, 60, 127
2, 164240, Note_off_c, 1, 61, 0
2, 164320, Note_on_c, 1, 61, 127
2, 164320, Note_off_c, 1, 64, 0
2, 164320, Note_off_c, 1, 68, 0
2, 164320, Note_off_c, 1, 73, 0
2, 164320, Note_on_c, 1, 74, 127
2, 164360, Note_off_c, 1, 60, 0
2, 164520, Note_on_c, 1, 73, 127
2, 164520, Note_off_c, 1, 74, 0
2, 164720, Note_on_c, 1, 59, 127
2, 164720, Note_off_c, 1, 61, 0
2, 164720, Note_off_c, 1, 73, 0
2, 164720, Note_on_c, 1, 74, 127
2, 164920, Note_on_c, 1, 58, 127
2, 164920, Note_off_c, 1, 59, 0
2, 164920, Note_off_c, 1, 74, 0
2, 164920, Note_on_c, 1, 76, 127
2, 165080, Note_off_c, 1, 58, 0
2, 165080, Note_on_c, 1, 59, 127
2, 165080, Note_off_c, 1, 76, 0
2, 165080, Note_on_c, 1, 79, 127
2, 165280, Note_on_c, 1, 58, 127
2, 165280, Note_off_c, 1, 59, 0
2, 165280, Note_on_c, 1, 73, 127
2, 165280, Note_off_c, 1, 79, 0
2, 165480, Note_on_c, 1, 56, 127
2, 165480, Note_off_c, 1, 58, 0
2, 165480, Note_off_c, 1, 73, 0
2, 165480, Note_on_c, 1, 76, 127
2, 165680, Note_on_c, 1, 54, 127
2, 165680, Note_off_c, 1, 56, 0
2, 165680, Note_on_c, 1, 70, 127
2, 165680, Note_off_c, 1, 76, 0
2, 165840, Note_on_c, 1, 52, 127
2, 165840, Note_off_c, 1, 54, 0
2, 165840, Note_off_c, 1, 70, 0
2, 165840, Note_on_c, 1, 73, 127
2, 166040, Note_on_c, 1, 50, 127
2, 166040, Note_off_c, 1, 52, 0
2, 166040, Note_on_c, 1, 66, 127
2, 166040, Note_off_c, 1, 73, 0
2, 166240, Note_on_c, 1, 49, 127
2, 166240, Note_off_c, 1, 50, 0
2, 166240, Note_off_c, 1, 66, 0
2, 166240, Note_on_c, 1, 76, 127
2, 166440, Note_on_c, 1, 47, 127
2, 166440, Note_off_c, 1, 49, 0
2, 166440, Note_on_c, 1, 74, 127
2, 166440, Note_off_c, 1, 76, 0
2, 166600, Note_on_c, 1, 71, 127
2, 166800, Note_on_c, 1, 66, 127
2, 167000, Note_on_c, 1, 54, 127
2, 167200, Note_off_c, 1, 47, 0
2, 167200, Note_off_c, 1, 54, 0
2, 167200, Note_on_c, 1, 59, 127
2, 167280, Note_on_c, 1, 58, 127
2, 167280, Note_off_c, 1, 59, 0
2, 167360, Note_off_c, 1, 58, 0
2, 167360, Note_on_c, 1, 59, 127
2, 167360, Note_off_c, 1, 66, 0
2, 167360, Note_off_c, 1, 71, 0
2, 167360, Note_on_c, 1, 73, 127
2, 167360, Note_off_c, 1, 74, 0
2, 167560, Note_on_c, 1, 71, 127
2, 167560, Note_off_c, 1, 73, 0
2, 167760, Note_on_c, 1, 57, 127
2, 167760, Note_off_c, 1, 59, 0
2, 167760, Note_off_c, 1, 71, 0
2, 167760, Note_on_c, 1, 73, 127
2, 167960, Note_on_c, 1, 56, 127
2, 167960, Note_off_c, 1, 57, 0
2, 167960, Note_off_c, 1, 73, 0
2, 167960, Note_on_c, 1, 74, 127
2, 168120, Note_off_c, 1, 56, 0
2, 168120, Note_on_c, 1, 57, 127
2, 168120, Note_off_c, 1, 74, 0
2, 168120, Note_on_c, 1, 76, 127
2, 168240, Note_off_c, 1, 76, 0
2, 168240, Note_on_c, 1, 78, 127
2, 168320, Note_on_c, 1, 56, 127
2, 168320, Note_off_c, 1, 57, 0
2, 168320, Note_on_c, 1, 71, 127
2, 168320, Note_off_c, 1, 78, 0
2, 168520, Note_on_c, 1, 54, 127
2, 168520, Note_off_c, 1, 56, 0
2, 168520, Note_off_c, 1, 71, 0
2, 168520, Note_on_c, 1, 73, 127
2, 168600, Note_off_c, 1, 73, 0
2, 168600, Note_on_c, 1, 74, 127
2, 168720, Note_on_c, 1, 52, 127
2, 168720, Note_off_c, 1, 54, 0
2, 168720, Note_on_c, 1, 68, 127
2, 168720, Note_off_c, 1, 74, 0
2, 168880, Note_on_c, 1, 50, 127
2, 168880, Note_off_c, 1, 52, 0
2, 168880, Note_off_c, 1, 68, 0
2, 168880, Note_on_c, 1, 69, 127
2, 169000, Note_off_c, 1, 69, 0
2, 169000, Note_on_c, 1, 71, 127
2, 169080, Note_on_c, 1, 49, 127
2, 169080, Note_off_c, 1, 50, 0
2, 169080, Note_on_c, 1, 64, 127
2, 169080, Note_off_c, 1, 71, 0
2, 169280, Note_on_c, 1, 47, 127
2, 169280, Note_off_c, 1, 49, 0
2, 169280, Note_off_c, 1, 64, 0
2, 169280, Note_on_c, 1, 74, 127
2, 169480, Note_on_c, 1, 45, 127
2, 169480, Note_off_c, 1, 47, 0
2, 169480, Note_on_c, 1, 73, 127
2, 169480, Note_off_c, 1, 74, 0
2, 169640, Note_on_c, 1, 69, 127
2, 169840, Note_on_c, 1, 64, 127
2, 170040, Note_on_c, 1, 52, 127
2, 170240, Note_off_c, 1, 45, 0
2, 170240, Note_off_c, 1, 52, 0
2, 170240, Note_on_c, 1, 57, 127
2, 170320, Note_on_c, 1, 56, 127
2, 170320, Note_off_c, 1, 57, 0
2, 170400, Note_off_c, 1, 56, 0
2, 170400, Note_on_c, 1, 57, 127
2, 170400, Note_off_c, 1, 64, 0
2, 170400, Note_off_c, 1, 73, 0
2, 170600, Note_off_c, 1, 69, 0
2, 170600, Note_on_c, 1, 71, 127
2, 170800, Note_on_c, 1, 55, 127
2, 170800, Note_off_c, 1, 57, 0
2, 170800, Note_off_c, 1, 71, 0
2, 170800, Note_on_c, 1, 73, 127
2, 171000, Note_on_c, 1, 54, 127
2, 171000, Note_off_c, 1, 55, 0
2, 171000, Note_off_c, 1, 73, 0
2, 171000, Note_on_c, 1, 74, 127
2, 171160, Note_off_c, 1, 54, 0
2, 171160, Note_on_c, 1, 55, 127
2, 171160, Note_off_c, 1, 74, 0
2, 171160, Note_on_c, 1, 76, 127
2, 171360, Note_on_c, 1, 54, 127
2, 171360, Note_off_c, 1, 55, 0
2, 171360, Note_on_c, 1, 74, 127
2, 171360, Note_off_c, 1, 76, 0
2, 171560, Note_on_c, 1, 52, 127
2, 171560, Note_off_c, 1, 54, 0
2, 171560, Note_on_c, 1, 73, 127
2, 171560, Note_off_c, 1, 74, 0
2, 171760, Note_on_c, 1, 50, 127
2, 171760, Note_off_c, 1, 52, 0
2, 171760, Note_on_c, 1, 71, 127
2, 171760, Note_off_c, 1, 73, 0
2, 171920, Note_on_c, 1, 49, 127
2, 171920, Note_off_c, 1, 50, 0
2, 171920, Note_on_c, 1, 69, 127
2, 171920, Note_off_c, 1, 71, 0
2, 172120, Note_on_c, 1, 47, 127
2, 172120, Note_off_c, 1, 49, 0
2, 172120, Note_on_c, 1, 68, 127
2, 172120, Note_off_c, 1, 69, 0
2, 172320, Note_on_c, 1, 45, 127
2, 172320, Note_off_c, 1, 47, 0
2, 172320, Note_off_c, 1, 68, 0
2, 172320, Note_on_c, 1, 69, 127
2, 172520, Note_off_c, 1, 45, 0
2, 172520, Note_on_c, 1, 52, 127
2, 172560, Note_on_c, 1, 68, 127
2, 172560, Note_off_c, 1, 69, 0
2, 172640, Note_off_c, 1, 68, 0
2, 172640, Note_on_c, 1, 69, 127
2, 172680, Note_on_c, 1, 68, 127
2, 172680, Note_off_c, 1, 69, 0
2, 172880, Note_on_c, 1, 64, 127
2, 172880, Note_off_c, 1, 68, 0
2, 173080, Note_on_c, 1, 50, 127
2, 173080, Note_off_c, 1, 52, 0
2, 173080, Note_off_c, 1, 64, 0
2, 173080, Note_on_c, 1, 71, 127
2, 173280, Note_on_c, 1, 49, 127
2, 173280, Note_off_c, 1, 50, 0
2, 173280, Note_off_c, 1, 71, 0
2, 173280, Note_on_c, 1, 76, 127
2, 173440, Note_on_c, 1, 45, 127
2, 173440, Note_off_c, 1, 49, 0
2, 173640, Note_off_c, 1, 45, 0
2, 173640, Note_on_c, 1, 49, 127
2, 173840, Note_off_c, 1, 49, 0
2, 173840, Note_on_c, 1, 52, 127
2, 173840, Note_on_c, 1, 74, 127
2, 173840, Note_off_c, 1, 76, 0
2, 174040, Note_off_c, 1, 52, 0
2, 174040, Note_on_c, 1, 57, 127
2, 174040, Note_on_c, 1, 73, 127
2, 174040, Note_off_c, 1, 74, 0
2, 174200, Note_on_c, 1, 69, 127
2, 174200, Note_off_c, 1, 73, 0
2, 174400, Note_off_c, 1, 69, 0
2, 174400, Note_on_c, 1, 73, 127
2, 174600, Note_on_c, 1, 55, 127
2, 174600, Note_off_c, 1, 57, 0
2, 174600, Note_off_c, 1, 73, 0
2, 174600, Note_on_c, 1, 76, 127
2, 174800, Note_on_c, 1, 54, 127
2, 174800, Note_off_c, 1, 55, 0
2, 174800, Note_off_c, 1, 76, 0
2, 174800, Note_on_c, 1, 81, 127
2, 174960, Note_on_c, 1, 50, 127
2, 174960, Note_off_c, 1, 54, 0
2, 175160, Note_off_c, 1, 50, 0
2, 175160, Note_on_c, 1, 54, 127
2, 175360, Note_off_c, 1, 54, 0
2, 175360, Note_on_c, 1, 57, 127
2, 175360, Note_on_c, 1, 79, 127
2, 175360, Note_off_c, 1, 81, 0
2, 175560, Note_off_c, 1, 57, 0
2, 175560, Note_on_c, 1, 62, 127
2, 175560, Note_on_c, 1, 78, 127
2, 175560, Note_off_c, 1, 79, 0
2, 175720, Note_off_c, 1, 78, 0
2, 175720, Note_on_c, 1, 81, 127
2, 175920, Note_on_c, 1, 61, 127
2, 175920, Note_off_c, 1, 62, 0
2, 175920, Note_on_c, 1, 74, 127
2, 175920, Note_off_c, 1, 81, 0
2, 176120, Note_off_c, 1, 74, 0
2, 176120, Note_on_c, 1, 76, 127
2, 176320, Note_on_c, 1, 59, 127
2, 176320, Note_off_c, 1, 61, 0
2, 176320, Note_off_c, 1, 76, 0
2, 176320, Note_on_c, 1, 78, 127
2, 176480, Note_on_c, 1, 74, 127
2, 176480, Note_off_c, 1, 78, 0
2, 176680, Note_on_c, 1, 57, 127
2, 176680, Note_off_c, 1, 59, 0
2, 176680, Note_on_c, 1, 71, 127
2, 176680, Note_off_c, 1, 74, 0
2, 176880, Note_off_c, 1, 71, 0
2, 176880, Note_on_c, 1, 73, 127
2, 177080, Note_off_c, 1, 57, 0
2, 177080, Note_on_c, 1, 59, 127
2, 177080, Note_off_c, 1, 73, 0
2, 177080, Note_on_c, 1, 74, 127
2, 177240, Note_off_c, 1, 74, 0
2, 177240, Note_on_c, 1, 78, 127
2, 177440, Note_on_c, 1, 57, 127
2, 177440, Note_off_c, 1, 59, 0
2, 177440, Note_on_c, 1, 71, 127
2, 177440, Note_off_c, 1, 78, 0
2, 177640, Note_off_c, 1, 71, 0
2, 177640, Note_on_c, 1, 73, 127
2, 177840, Note_on_c, 1, 56, 127
2, 177840, Note_off_c, 1, 57, 0
2, 177840, Note_off_c, 1, 73, 0
2, 177840, Note_on_c, 1, 74, 127
2, 178000, Note_on_c, 1, 71, 127
2, 178000, Note_off_c, 1, 74, 0
2, 178200, Note_on_c, 1, 54, 127
2, 178200, Note_off_c, 1, 56, 0
2, 178200, Note_on_c, 1, 68, 127
2, 178200, Note_off_c, 1, 71, 0
2, 178400, Note_off_c, 1, 68, 0
2, 178400, Note_on_c, 1, 69, 127
2, 178600, Note_on_c, 1, 52, 127
2, 178600, Note_off_c, 1, 54, 0
2, 178640, Note_on_c, 1, 68, 127
2, 178640, Note_off_c, 1, 69, 0
2, 178720, Note_off_c, 1, 68, 0
2, 178720, Note_on_c, 1, 69, 127
2, 178760, Note_on_c, 1, 54, 127
2, 178760, Note_on_c, 1, 68, 127
2, 178760, Note_off_c, 1, 69, 0
2, 178960, Note_off_c, 1, 54, 0
2, 178960, Note_on_c, 1, 56, 127
2, 179080, Note_off_c, 1, 68, 0
2, 179160, Note_on_c, 1, 59, 127
2, 179160, Note_on_c, 1, 66, 127
2, 179360, Note_on_c, 1, 64, 127
2, 179360, Note_off_c, 1, 66, 0
2, 179520, Note_on_c, 1, 68, 127
2, 179720, Note_off_c, 1, 68, 0
2, 179720, Note_on_c, 1, 71, 127
2, 179920, Note_off_c, 1, 71, 0
2, 179920, Note_on_c, 1, 76, 127
2, 180080, Note_off_c, 1, 64, 0
2, 180120, Note_off_c, 1, 56, 0
2, 180120, Note_on_c, 1, 57, 127
2, 180120, Note_off_c, 1, 59, 0
2, 180120, Note_on_c, 1, 66, 127
2, 180480, Note_on_c, 1, 75, 127
2, 180480, Note_off_c, 1, 76, 0
2, 180680, Note_on_c, 1, 73, 127
2, 180680, Note_off_c, 1, 75, 0
2, 180880, Note_off_c, 1, 73, 0
2, 180880, Note_on_c, 1, 75, 127
2, 181040, Note_off_c, 1, 75, 0
2, 181040, Note_on_c, 1, 78, 127
2, 181240, Note_on_c, 1, 71, 127
2, 181240, Note_off_c, 1, 78, 0
2, 181440, Note_off_c, 1, 71, 0
2, 181440, Note_on_c, 1, 73, 127
2, 181640, Note_off_c, 1, 57, 0
2, 181640, Note_on_c, 1, 59, 127
2, 181640, Note_off_c, 1, 66, 0
2, 181640, Note_off_c, 1, 73, 0
2, 181640, Note_on_c, 1, 74, 127
2, 181800, Note_on_c, 1, 71, 127
2, 182000, Note_on_c, 1, 68, 127
2, 182200, Note_on_c, 1, 64, 127
2, 182400, Note_off_c, 1, 59, 0
2, 182400, Note_on_c, 1, 61, 127
2, 182760, Note_off_c, 1, 68, 0
2, 182760, Note_on_c, 1, 69, 127
2, 182760, Note_off_c, 1, 71, 0
2, 182760, Note_on_c, 1, 73, 127
2, 182760, Note_off_c, 1, 74, 0
2, 182960, Note_off_c, 1, 61, 0
2, 182960, Note_on_c, 1, 63, 127
2, 183120, Note_off_c, 1, 64, 0
2, 183160, Note_off_c, 1, 63, 0
2, 183160, Note_on_c, 1, 64, 127
2, 183160, Note_on_c, 1, 71, 127
2, 183160, Note_off_c, 1, 73, 0
2, 183520, Note_on_c, 1, 68, 127
2, 183520, Note_off_c, 1, 69, 0
2, 183720, Note_on_c, 1, 66, 127
2, 183720, Note_off_c, 1, 68, 0
2, 183920, Note_off_c, 1, 66, 0
2, 183920, Note_on_c, 1, 68, 127
2, 184080, Note_off_c, 1, 64, 0
2, 184080, Note_on_c, 1, 66, 127
2, 184280, Note_on_c, 1, 59, 127
2, 184280, Note_off_c, 1, 66, 0
2, 184480, Note_off_c, 1, 59, 0
2, 184480, Note_on_c, 1, 61, 127
2, 184680, Note_off_c, 1, 61, 0
2, 184680, Note_on_c, 1, 62, 127
2, 184840, Note_on_c, 1, 59, 127
2, 185040, Note_on_c, 1, 56, 127
2, 185120, Note_off_c, 1, 52, 0
2, 185240, Note_on_c, 1, 52, 127
2, 185400, Note_off_c, 1, 59, 0
2, 185440, Note_off_c, 1, 56, 0
2, 185440, Note_on_c, 1, 61, 127
2, 185440, Note_off_c, 1, 62, 0
2, 185600, Note_off_c, 1, 68, 0
2, 185640, Note_on_c, 1, 64, 127
2, 185760, Note_off_c, 1, 71, 0
2, 185800, Note_on_c, 1, 60, 127
2, 185800, Note_off_c, 1, 61, 0
2, 185800, Note_on_c, 1, 69, 127
2, 186000, Note_on_c, 1, 63, 127
2, 186000, Note_off_c, 1, 64, 0
2, 186200, Note_on_c, 1, 59, 127
2, 186200, Note_off_c, 1, 60, 0
2, 186200, Note_off_c, 1, 63, 0
2, 186200, Note_on_c, 1, 64, 127
2, 186280, Note_off_c, 1, 69, 0
2, 186280, Note_on_c, 1, 71, 127
2, 186360, Note_off_c, 1, 71, 0
2, 186400, Note_on_c, 1, 73, 127
2, 186480, Note_off_c, 1, 73, 0
2, 186480, Note_on_c, 1, 74, 127
2, 186560, Note_on_c, 1, 57, 127
2, 186560, Note_off_c, 1, 59, 0
2, 186560, Note_on_c, 1, 73, 127
2, 186560, Note_off_c, 1, 74, 0
2, 186680, Note_on_c, 1, 71, 127
2, 186680, Note_off_c, 1, 73, 0
2, 186760, Note_off_c, 1, 71, 0
2, 186760, Note_on_c, 1, 73, 127
2, 186840, Note_off_c, 1, 73, 0
2, 186840, Note_on_c, 1, 74, 127
2, 186960, Note_off_c, 1, 57, 0
2, 186960, Note_on_c, 1, 59, 127
2, 186960, Note_on_c, 1, 69, 127
2, 186960, Note_off_c, 1, 74, 0
2, 187080, Note_on_c, 1, 68, 127
2, 187080, Note_off_c, 1, 69, 0
2, 187120, Note_off_c, 1, 59, 0
2, 187120, Note_off_c, 1, 68, 0
2, 187160, Note_on_c, 1, 61, 127
2, 187160, Note_on_c, 1, 69, 127
2, 187200, Note_on_c, 1, 68, 127
2, 187200, Note_off_c, 1, 69, 0
2, 187280, Note_off_c, 1, 68, 0
2, 187280, Note_on_c, 1, 69, 127
2, 187320, Note_off_c, 1, 61, 0
2, 187320, Note_on_c, 1, 62, 127
2, 187320, Note_on_c, 1, 68, 127
2, 187320, Note_off_c, 1, 69, 0
2, 187520, Note_off_c, 1, 52, 0
2, 187520, Note_off_c, 1, 68, 0
2, 187520, Note_on_c, 1, 69, 127
2, 187720, Note_on_c, 1, 57, 127
2, 188080, Note_off_c, 1, 62, 0
2, 188120, Note_on_c, 1, 61, 127
2, 188120, Note_off_c, 1, 64, 0
2, 188120, Note_on_c, 1, 66, 127
2, 188280, Note_off_c, 1, 66, 0
2, 188320, Note_on_c, 1, 67, 127
2, 188520, Note_on_c, 1, 66, 127
2, 188520, Note_off_c, 1, 67, 0
2, 188720, Note_off_c, 1, 61, 0
2, 188720, Note_on_c, 1, 62, 127
2, 188920, Note_on_c, 1, 59, 127
2, 188920, Note_off_c, 1, 62, 0
2, 189120, Note_on_c, 1, 62, 127
2, 189120, Note_on_c, 1, 65, 127
2, 189120, Note_off_c, 1, 66, 0
2, 189120, Note_on_c, 1, 68, 127
2, 189120, Note_off_c, 1, 69, 0
2, 189360, Note_off_c, 1, 59, 0
2, 189360, Note_on_c, 1, 61, 127
2, 189360, Note_off_c, 1, 62, 0
2, 189360, Note_on_c, 1, 64, 127
2, 189360, Note_off_c, 1, 65, 0
2, 189360, Note_off_c, 1, 68, 0
2, 189360, Note_on_c, 1, 69, 127
2, 189560, Note_on_c, 1, 45, 127
2, 189800, Note_on_c, 1, 49, 127
2, 190040, Note_on_c, 1, 52, 127
2, 190240, Note_off_c, 1, 49, 0
2, 192720, Note_off_c, 1, 45, 0
2, 192720, Note_off_c, 1, 52, 0
2, 192720, Note_off_c, 1, 57, 0
2, 192720, Note_off_c, 1, 61, 0
2, 192720, Note_off_c, 1, 64, 0
2, 192720, Note_off_c, 1, 69, 0
2, 192720, Note_on_c, 1, 81, 127
2, 192960, Note_on_c, 1, 57, 127
2, 192960, Note_on_c, 1, 73, 127
2, 192960, Note_off_c, 1, 81, 0
2, 193040, Note_on_c, 1, 76, 127
2, 193120, Note_on_c, 1, 81, 127
2, 193160, Note_on_c, 1, 45, 127
2, 193360, Note_off_c, 1, 45, 0
2, 193360, Note_on_c, 1, 47, 127
2, 193560, Note_off_c, 1, 47, 0
2, 193560, Note_on_c, 1, 49, 127
2, 193560, Note_off_c, 1, 73, 0
2, 193560, Note_off_c, 1, 76, 0
2, 193560, Note_on_c, 1, 80, 127
2, 193560, Note_off_c, 1, 81, 0
2, 193760, Note_off_c, 1, 49, 0
2, 193760, Note_on_c, 1, 50, 127
2, 193760, Note_on_c, 1, 78, 127
2, 193760, Note_off_c, 1, 80, 0
2, 193960, Note_on_c, 1, 76, 127
2, 193960, Note_off_c, 1, 78, 0
2, 194120, Note_off_c, 1, 50, 0
2, 194120, Note_on_c, 1, 52, 127
2, 194120, Note_on_c, 1, 56, 127
2, 194120, Note_off_c, 1, 57, 0
2, 194120, Note_on_c, 1, 74, 127
2, 194120, Note_off_c, 1, 76, 0
2, 194320, Note_on_c, 1, 73, 127
2, 194320, Note_off_c, 1, 74, 0
2, 194520, Note_off_c, 1, 52, 0
2, 194520, Note_on_c, 1, 54, 127
2, 194520, Note_off_c, 1, 56, 0
2, 194600, Note_on_c, 1, 56, 127
2, 194680, Note_off_c, 1, 56, 0
2, 194680, Note_on_c, 1, 57, 127
2, 194720, Note_off_c, 1, 73, 0
2, 194720, Note_on_c, 1, 74, 127
2, 194760, Note_on_c, 1, 73, 127
2, 194760, Note_off_c, 1, 74, 0
2, 194840, Note_off_c, 1, 73, 0
2, 194840, Note_on_c, 1, 74, 127
2, 194880, Note_off_c, 1, 54, 0
2, 194880, Note_on_c, 1, 56, 127
2, 194880, Note_off_c, 1, 57, 0
2, 194960, Note_on_c, 1, 57, 127
2, 195040, Note_off_c, 1, 57, 0
2, 195040, Note_on_c, 1, 59, 127
2, 195080, Note_off_c, 1, 74, 0
2, 195080, Note_on_c, 1, 76, 127
2, 195280, Note_off_c, 1, 56, 0
2, 195280, Note_on_c, 1, 57, 127
2, 195280, Note_off_c, 1, 59, 0
2, 195280, Note_on_c, 1, 74, 127
2, 195280, Note_off_c, 1, 76, 0
2, 195320, Note_on_c, 1, 73, 127
2, 195320, Note_off_c, 1, 74, 0
2, 195400, Note_off_c, 1, 73, 0
2, 195400, Note_on_c, 1, 74, 127
2, 195440, Note_off_c, 1, 74, 0
2, 195480, Note_on_c, 1, 61, 127
2, 195480, Note_on_c, 1, 73, 127
2, 195640, Note_on_c, 1, 64, 127
2, 195840, Note_on_c, 1, 56, 127
2, 195840, Note_off_c, 1, 57, 0
2, 195840, Note_on_c, 1, 71, 127
2, 195840, Note_off_c, 1, 73, 0
2, 196000, Note_off_c, 1, 61, 0
2, 196040, Note_on_c, 1, 54, 127
2, 196040, Note_off_c, 1, 56, 0
2, 196040, Note_off_c, 1, 64, 0
2, 196040, Note_on_c, 1, 69, 127
2, 196040, Note_off_c, 1, 71, 0
2, 196240, Note_on_c, 1, 52, 127
2, 196240, Note_off_c, 1, 54, 0
2, 196240, Note_on_c, 1, 68, 127
2, 196240, Note_off_c, 1, 69, 0
2, 196400, Note_on_c, 1, 50, 127
2, 196400, Note_off_c, 1, 52, 0
2, 196400, Note_on_c, 1, 66, 127
2, 196400, Note_off_c, 1, 68, 0
2, 196600, Note_on_c, 1, 49, 127
2, 196600, Note_off_c, 1, 50, 0
2, 196600, Note_off_c, 1, 66, 0
2, 196600, Note_on_c, 1, 74, 127
2, 196800, Note_off_c, 1, 49, 0
2, 196800, Note_on_c, 1, 50, 127
2, 196800, Note_on_c, 1, 73, 127
2, 196800, Note_off_c, 1, 74, 0
2, 196920, Note_on_c, 1, 71, 127
2, 196920, Note_off_c, 1, 73, 0
2, 197000, Note_on_c, 1, 54, 127
2, 197000, Note_off_c, 1, 71, 0
2, 197000, Note_on_c, 1, 73, 127
2, 197040, Note_on_c, 1, 71, 127
2, 197040, Note_off_c, 1, 73, 0
2, 197120, Note_off_c, 1, 71, 0
2, 197120, Note_on_c, 1, 73, 127
2, 197160, Note_on_c, 1, 47, 127
2, 197160, Note_off_c, 1, 50, 0
2, 197160, Note_on_c, 1, 71, 127
2, 197160, Note_off_c, 1, 73, 0
2, 197360, Note_on_c, 1, 69, 127
2, 197360, Note_off_c, 1, 71, 0
2, 197520, Note_off_c, 1, 54, 0
2, 197560, Note_off_c, 1, 47, 0
2, 197560, Note_on_c, 1, 52, 127
2, 197600, Note_on_c, 1, 68, 127
2, 197600, Note_off_c, 1, 69, 0
2, 197680, Note_off_c, 1, 68, 0
2, 197680, Note_on_c, 1, 69, 127
2, 197760, Note_on_c, 1, 56, 127
2, 197760, Note_on_c, 1, 68, 127
2, 197760, Note_off_c, 1, 69, 0
2, 197920, Note_on_c, 1, 59, 127
2, 198120, Note_on_c, 1, 66, 127
2, 198120, Note_off_c, 1, 68, 0
2, 198320, Note_on_c, 1, 50, 127
2, 198320, Note_off_c, 1, 52, 0
2, 198320, Note_on_c, 1, 64, 127
2, 198320, Note_off_c, 1, 66, 0
2, 198520, Note_off_c, 1, 64, 0
2, 198520, Note_on_c, 1, 66, 127
2, 198680, Note_on_c, 1, 49, 127
2, 198680, Note_off_c, 1, 50, 0
2, 198680, Note_on_c, 1, 52, 127
2, 198680, Note_off_c, 1, 56, 0
2, 198680, Note_on_c, 1, 57, 127
2, 198680, Note_off_c, 1, 59, 0
2, 198680, Note_off_c, 1, 66, 0
2, 198680, Note_on_c, 1, 68, 127
2, 198880, Note_off_c, 1, 68, 0
2, 198880, Note_on_c, 1, 69, 127
2, 199080, Note_on_c, 1, 47, 127
2, 199080, Note_off_c, 1, 49, 0
2, 199080, Note_on_c, 1, 50, 127
2, 199080, Note_off_c, 1, 52, 0
2, 199080, Note_off_c, 1, 57, 0
2, 199280, Note_on_c, 1, 56, 127
2, 199280, Note_off_c, 1, 69, 0
2, 199280, Note_on_c, 1, 71, 127
2, 199320, Note_on_c, 1, 69, 127
2, 199320, Note_off_c, 1, 71, 0
2, 199400, Note_off_c, 1, 69, 0
2, 199400, Note_on_c, 1, 71, 127
2, 199440, Note_on_c, 1, 45, 127
2, 199440, Note_off_c, 1, 47, 0
2, 199440, Note_off_c, 1, 50, 0
2, 199440, Note_on_c, 1, 52, 127
2, 199440, Note_off_c, 1, 56, 0
2, 199640, Note_on_c, 1, 57, 127
2, 199640, Note_off_c, 1, 71, 0
2, 199640, Note_on_c, 1, 73, 127
2, 199840, Note_on_c, 1, 44, 127
2, 199840, Note_off_c, 1, 45, 0
2, 199840, Note_off_c, 1, 52, 0
2, 199840, Note_off_c, 1, 57, 0
2, 199840, Note_off_c, 1, 73, 0
2, 199840, Note_on_c, 1, 74, 127
2, 200040, Note_on_c, 1, 47, 127
2, 200040, Note_on_c, 1, 71, 127
2, 200200, Note_off_c, 1, 47, 0
2, 200200, Note_on_c, 1, 52, 127
2, 200200, Note_on_c, 1, 68, 127
2, 200200, Note_off_c, 1, 71, 0
2, 200400, Note_on_c, 1, 40, 127
2, 200400, Note_off_c, 1, 44, 0
2, 200400, Note_off_c, 1, 74, 0
2, 200400, Note_on_c, 1, 76, 127
2, 200600, Note_off_c, 1, 40, 0
2, 200600, Note_on_c, 1, 45, 127
2, 200600, Note_off_c, 1, 68, 0
2, 200600, Note_on_c, 1, 69, 127
2, 200600, Note_on_c, 1, 74, 127
2, 200600, Note_off_c, 1, 76, 0
2, 200640, Note_on_c, 1, 73, 127
2, 200640, Note_off_c, 1, 74, 0
2, 200720, Note_off_c, 1, 73, 0
2, 200720, Note_on_c, 1, 74, 127
2, 200800, Note_on_c, 1, 73, 127
2, 200800, Note_off_c, 1, 74, 0
2, 200960, Note_off_c, 1, 45, 0
2, 200960, Note_on_c, 1, 50, 127
2, 200960, Note_off_c, 1, 52, 0
2, 200960, Note_on_c, 1, 54, 127
2, 201160, Note_on_c, 1, 71, 127
2, 201160, Note_off_c, 1, 73, 0
2, 201360, Note_off_c, 1, 50, 0
2, 201360, Note_on_c, 1, 52, 127
2, 201360, Note_off_c, 1, 54, 0
2, 201360, Note_on_c, 1, 68, 127
2, 201360, Note_off_c, 1, 69, 0
2, 201360, Note_off_c, 1, 71, 0
2, 201360, Note_on_c, 1, 73, 127
2, 201480, Note_on_c, 1, 71, 127
2, 201480, Note_off_c, 1, 73, 0
2, 201560, Note_off_c, 1, 71, 0
2, 201560, Note_on_c, 1, 73, 127
2, 201600, Note_on_c, 1, 71, 127
2, 201600, Note_off_c, 1, 73, 0
2, 201680, Note_off_c, 1, 71, 0
2, 201680, Note_on_c, 1, 73, 127
2, 201720, Note_on_c, 1, 40, 127
2, 201720, Note_on_c, 1, 71, 127
2, 201720, Note_off_c, 1, 73, 0
2, 201920, Note_on_c, 1, 69, 127
2, 201920, Note_off_c, 1, 71, 0
2, 202120, Note_off_c, 1, 40, 0
2, 202120, Note_on_c, 1, 45, 127
2, 202120, Note_off_c, 1, 52, 0
2, 202120, Note_on_c, 1, 61, 127
2, 202120, Note_off_c, 1, 68, 0
2, 202120, Note_off_c, 1, 69, 0
2, 202200, Note_on_c, 1, 64, 127
2, 202280, Note_on_c, 1, 69, 127
2, 202320, Note_on_c, 1, 52, 127
2, 202480, Note_off_c, 1, 52, 0
2, 202480, Note_on_c, 1, 54, 127
2, 202680, Note_off_c, 1, 54, 0
2, 202680, Note_on_c, 1, 56, 127
2, 202880, Note_off_c, 1, 45, 0
2, 202880, Note_off_c, 1, 56, 0
2, 202880, Note_on_c, 1, 57, 127
2, 202880, Note_off_c, 1, 61, 0
2, 202880, Note_off_c, 1, 64, 0
2, 203040, Note_off_c, 1, 69, 0
2, 203080, Note_on_c, 1, 73, 127
2, 203240, Note_on_c, 1, 56, 127
2, 203240, Note_off_c, 1, 57, 0
2, 203240, Note_on_c, 1, 71, 127
2, 203240, Note_off_c, 1, 73, 0
2, 203440, Note_on_c, 1, 54, 127
2, 203440, Note_off_c, 1, 56, 0
2, 203440, Note_on_c, 1, 69, 127
2, 203440, Note_off_c, 1, 71, 0
2, 203640, Note_on_c, 1, 53, 127
2, 203640, Note_off_c, 1, 54, 0
2, 203760, Note_on_c, 1, 68, 127
2, 203760, Note_off_c, 1, 69, 0
2, 203800, Note_off_c, 1, 68, 0
2, 203840, Note_on_c, 1, 56, 127
2, 203840, Note_on_c, 1, 69, 127
2, 203880, Note_on_c, 1, 68, 127
2, 203880, Note_off_c, 1, 69, 0
2, 203960, Note_off_c, 1, 68, 0
2, 203960, Note_on_c, 1, 69, 127
2, 204000, Note_on_c, 1, 49, 127
2, 204000, Note_off_c, 1, 53, 0
2, 204000, Note_on_c, 1, 68, 127
2, 204000, Note_off_c, 1, 69, 0
2, 204200, Note_off_c, 1, 68, 0
2, 204200, Note_on_c, 1, 69, 127
2, 204360, Note_off_c, 1, 56, 0
2, 204400, Note_off_c, 1, 49, 0
2, 204400, Note_on_c, 1, 54, 127
2, 204400, Note_off_c, 1, 69, 0
2, 204400, Note_on_c, 1, 71, 127
2, 204600, Note_on_c, 1, 69, 127
2, 204600, Note_off_c, 1, 71, 0
2, 204760, Note_on_c, 1, 68, 127
2, 204760, Note_off_c, 1, 69, 0
2, 204960, Note_off_c, 1, 54, 0
2, 204960, Note_on_c, 1, 56, 127
2, 204960, Note_on_c, 1, 66, 127
2, 204960, Note_off_c, 1, 68, 0
2, 205160, Note_off_c, 1, 56, 0
2, 205160, Note_on_c, 1, 57, 127
2, 205160, Note_off_c, 1, 66, 0
2, 205160, Note_on_c, 1, 78, 127
2, 205200, Note_on_c, 1, 76, 127
2, 205200, Note_off_c, 1, 78, 0
2, 205280, Note_off_c, 1, 76, 0
2, 205280, Note_on_c, 1, 78, 127
2, 205320, Note_off_c, 1, 57, 0
2, 205360, Note_on_c, 1, 61, 127
2, 205520, Note_on_c, 1, 59, 127
2, 205520, Note_off_c, 1, 61, 0
2, 205720, Note_on_c, 1, 57, 127
2, 205720, Note_off_c, 1, 59, 0
2, 205720, Note_on_c, 1, 75, 127
2, 205720, Note_off_c, 1, 78, 0
2, 205920, Note_on_c, 1, 56, 127
2, 205920, Note_off_c, 1, 57, 0
2, 206000, Note_on_c, 1, 57, 127
2, 206040, Note_off_c, 1, 75, 0
2, 206040, Note_on_c, 1, 76, 127
2, 206080, Note_off_c, 1, 57, 0
2, 206080, Note_on_c, 1, 59, 127
2, 206120, Note_on_c, 1, 75, 127
2, 206120, Note_off_c, 1, 76, 0
2, 206160, Note_off_c, 1, 75, 0
2, 206160, Note_on_c, 1, 76, 127
2, 206280, Note_off_c, 1, 56, 0
2, 206280, Note_on_c, 1, 58, 127
2, 206280, Note_off_c, 1, 59, 0
2, 206360, Note_on_c, 1, 59, 127
2, 206440, Note_off_c, 1, 59, 0
2, 206440, Note_on_c, 1, 61, 127
2, 206480, Note_off_c, 1, 76, 0
2, 206480, Note_on_c, 1, 78, 127
2, 206680, Note_off_c, 1, 58, 0
2, 206680, Note_on_c, 1, 59, 127
2, 206680, Note_off_c, 1, 61, 0
2, 206680, Note_on_c, 1, 76, 127
2, 206680, Note_off_c, 1, 78, 0
2, 206720, Note_on_c, 1, 75, 127
2, 206720, Note_off_c, 1, 76, 0
2, 206800, Note_off_c, 1, 75, 0
2, 206800, Note_on_c, 1, 76, 127
2, 206840, Note_off_c, 1, 76, 0
2, 206880, Note_on_c, 1, 63, 127
2, 206880, Note_on_c, 1, 75, 127
2, 207040, Note_on_c, 1, 66, 127
2, 207240, Note_on_c, 1, 73, 127
2, 207240, Note_off_c, 1, 75, 0
2, 207440, Note_on_c, 1, 57, 127
2, 207440, Note_off_c, 1, 59, 0
2, 207440, Note_on_c, 1, 71, 127
2, 207440, Note_off_c, 1, 73, 0
2, 207600, Note_off_c, 1, 71, 0
2, 207640, Note_on_c, 1, 73, 127
2, 207800, Note_on_c, 1, 56, 127
2, 207800, Note_off_c, 1, 57, 0
2, 207800, Note_on_c, 1, 59, 127
2, 207800, Note_off_c, 1, 63, 0
2, 207800, Note_on_c, 1, 64, 127
2, 207800, Note_off_c, 1, 66, 0
2, 207800, Note_off_c, 1, 73, 0
2, 207800, Note_on_c, 1, 75, 127
2, 208000, Note_off_c, 1, 75, 0
2, 208000, Note_on_c, 1, 76, 127
2, 208200, Note_on_c, 1, 54, 127
2, 208200, Note_off_c, 1, 56, 0
2, 208200, Note_on_c, 1, 57, 127
2, 208200, Note_off_c, 1, 59, 0
2, 208200, Note_off_c, 1, 64, 0
2, 208360, Note_off_c, 1, 76, 0
2, 208400, Note_on_c, 1, 63, 127
2, 208400, Note_on_c, 1, 78, 127
2, 208440, Note_on_c, 1, 76, 127
2, 208440, Note_off_c, 1, 78, 0
2, 208520, Note_off_c, 1, 76, 0
2, 208520, Note_on_c, 1, 78, 127
2, 208560, Note_on_c, 1, 52, 127
2, 208560, Note_off_c, 1, 54, 0
2, 208560, Note_off_c, 1, 57, 0
2, 208560, Note_on_c, 1, 59, 127
2, 208560, Note_off_c, 1, 63, 0
2, 208760, Note_on_c, 1, 64, 127
2, 208760, Note_off_c, 1, 78, 0
2, 208760, Note_on_c, 1, 80, 127
2, 208960, Note_on_c, 1, 51, 127
2, 208960, Note_off_c, 1, 52, 0
2, 208960, Note_off_c, 1, 59, 0
2, 208960, Note_off_c, 1, 64, 0
2, 208960, Note_off_c, 1, 80, 0
2, 208960, Note_on_c, 1, 81, 127
2, 209160, Note_on_c, 1, 54, 127
2, 209160, Note_on_c, 1, 78, 127
2, 209320, Note_off_c, 1, 54, 0
2, 209320, Note_on_c, 1, 59, 127
2, 209320, Note_on_c, 1, 75, 127
2, 209320, Note_off_c, 1, 78, 0
2, 209520, Note_on_c, 1, 47, 127
2, 209520, Note_off_c, 1, 51, 0
2, 209520, Note_off_c, 1, 81, 0
2, 209520, Note_on_c, 1, 83, 127
2, 209720, Note_off_c, 1, 47, 0
2, 209720, Note_on_c, 1, 52, 127
2, 209720, Note_off_c, 1, 75, 0
2, 209720, Note_on_c, 1, 76, 127
2, 209720, Note_on_c, 1, 81, 127
2, 209720, Note_off_c, 1, 83, 0
2, 209760, Note_on_c, 1, 80, 127
2, 209760, Note_off_c, 1, 81, 0
2, 209840, Note_off_c, 1, 80, 0
2, 209840, Note_on_c, 1, 81, 127
2, 209880, Note_off_c, 1, 81, 0
2, 209920, Note_on_c, 1, 80, 127
2, 209960, Note_off_c, 1, 80, 0
2, 209960, Note_on_c, 1, 81, 127
2, 210040, Note_on_c, 1, 80, 127
2, 210040, Note_off_c, 1, 81, 0
2, 210080, Note_off_c, 1, 52, 0
2, 210080, Note_on_c, 1, 57, 127
2, 210080, Note_off_c, 1, 59, 0
2, 210080, Note_on_c, 1, 61, 127
2, 210280, Note_on_c, 1, 78, 127
2, 210280, Note_off_c, 1, 80, 0
2, 210480, Note_off_c, 1, 57, 0
2, 210480, Note_on_c, 1, 59, 127
2, 210480, Note_off_c, 1, 61, 0
2, 210480, Note_on_c, 1, 75, 127
2, 210480, Note_off_c, 1, 76, 0
2, 210480, Note_off_c, 1, 78, 0
2, 210480, Note_on_c, 1, 80, 127
2, 210600, Note_on_c, 1, 78, 127
2, 210600, Note_off_c, 1, 80, 0
2, 210640, Note_off_c, 1, 78, 0
2, 210680, Note_on_c, 1, 80, 127
2, 210720, Note_on_c, 1, 78, 127
2, 210720, Note_off_c, 1, 80, 0
2, 210800, Note_off_c, 1, 78, 0
2, 210800, Note_on_c, 1, 80, 127
2, 210840, Note_on_c, 1, 56, 127
2, 210840, Note_on_c, 1, 78, 127
2, 210840, Note_off_c, 1, 80, 0
2, 211040, Note_on_c, 1, 76, 127
2, 211040, Note_off_c, 1, 78, 0
2, 211240, Note_off_c, 1, 56, 0
2, 211240, Note_off_c, 1, 59, 0
2, 211240, Note_on_c, 1, 61, 127
2, 211240, Note_off_c, 1, 75, 0
2, 211400, Note_off_c, 1, 61, 0
2, 211440, Note_on_c, 1, 63, 127
2, 211600, Note_on_c, 1, 61, 127
2, 211600, Note_off_c, 1, 63, 0
2, 211800, Note_on_c, 1, 59, 127
2, 211800, Note_off_c, 1, 61, 0
2, 211800, Note_on_c, 1, 75, 127
2, 212000, Note_on_c, 1, 57, 127
2, 212000, Note_off_c, 1, 59, 0
2, 212000, Note_on_c, 1, 73, 127
2, 212000, Note_off_c, 1, 75, 0
2, 212160, Note_off_c, 1, 57, 0
2, 212160, Note_off_c, 1, 73, 0
2, 212200, Note_on_c, 1, 56, 127
2, 212200, Note_on_c, 1, 71, 127
2, 212360, Note_on_c, 1, 54, 127
2, 212360, Note_off_c, 1, 56, 0
2, 212360, Note_on_c, 1, 69, 127
2, 212360, Note_off_c, 1, 71, 0
2, 212560, Note_on_c, 1, 52, 127
2, 212560, Note_off_c, 1, 54, 0
2, 212560, Note_on_c, 1, 68, 127
2, 212560, Note_off_c, 1, 69, 0
2, 212760, Note_off_c, 1, 52, 0
2, 212760, Note_on_c, 1, 59, 127
2, 212760, Note_on_c, 1, 66, 127
2, 212760, Note_off_c, 1, 68, 0
2, 212760, Note_off_c, 1, 76, 0
2, 212960, Note_on_c, 1, 69, 127
2, 213120, Note_on_c, 1, 47, 127
2, 213120, Note_on_c, 1, 76, 127
2, 213320, Note_on_c, 1, 75, 127
2, 213320, Note_off_c, 1, 76, 0
2, 213480, Note_off_c, 1, 69, 0
2, 213520, Note_off_c, 1, 47, 0
2, 213520, Note_on_c, 1, 52, 127
2, 213520, Note_off_c, 1, 59, 0
2, 213520, Note_off_c, 1, 66, 0
2, 213520, Note_off_c, 1, 75, 0
2, 213520, Note_on_c, 1, 76, 127
2, 213880, Note_on_c, 1, 40, 127
2, 214080, Note_on_c, 1, 71, 127
2, 214280, Note_on_c, 1, 47, 127
2, 214280, Note_off_c, 1, 52, 0
2, 214280, Note_off_c, 1, 71, 0
2, 214280, Note_on_c, 1, 73, 127
2, 214480, Note_on_c, 1, 69, 127
2, 214480, Note_off_c, 1, 73, 0
2, 214640, Note_off_c, 1, 47, 0
2, 214640, Note_on_c, 1, 52, 127
2, 214640, Note_on_c, 1, 68, 127
2, 214640, Note_off_c, 1, 69, 0
2, 214640, Note_off_c, 1, 76, 0
2, 214720, Note_on_c, 1, 71, 127
2, 214800, Note_on_c, 1, 76, 127
2, 215400, Note_off_c, 1, 68, 0
2, 215400, Note_off_c, 1, 71, 0
2, 215600, Note_off_c, 1, 40, 0
2, 215600, Note_off_c, 1, 52, 0
2, 215600, Note_on_c, 1, 71, 127
2, 215600, Note_off_c, 1, 76, 0
2, 215800, Note_on_c, 1, 40, 127
2, 215800, Note_on_c, 1, 64, 127
2, 215800, Note_off_c, 1, 71, 0
2, 215880, Note_on_c, 1, 68, 127
2, 215960, Note_on_c, 1, 71, 127
2, 216000, Note_on_c, 1, 47, 127
2, 216160, Note_off_c, 1, 47, 0
2, 216160, Note_on_c, 1, 49, 127
2, 216360, Note_off_c, 1, 49, 0
2, 216360, Note_on_c, 1, 51, 127
2, 216360, Note_off_c, 1, 64, 0
2, 216360, Note_off_c, 1, 68, 0
2, 216360, Note_on_c, 1, 69, 127
2, 216360, Note_off_c, 1, 71, 0
2, 216560, Note_off_c, 1, 40, 0
2, 216560, Note_off_c, 1, 51, 0
2, 216560, Note_on_c, 1, 52, 127
2, 216560, Note_on_c, 1, 68, 127
2, 216560, Note_off_c, 1, 69, 0
2, 216760, Note_on_c, 1, 54, 127
2, 216760, Note_off_c, 1, 68, 0
2, 216760, Note_on_c, 1, 69, 127
2, 216920, Note_off_c, 1, 54, 0
2, 216920, Note_on_c, 1, 56, 127
2, 216920, Note_off_c, 1, 69, 0
2, 216920, Note_on_c, 1, 71, 127
2, 217120, Note_off_c, 1, 71, 0
2, 217120, Note_on_c, 1, 73, 127
2, 217320, Note_off_c, 1, 52, 0
2, 217320, Note_on_c, 1, 54, 127
2, 217320, Note_off_c, 1, 56, 0
2, 217400, Note_on_c, 1, 56, 127
2, 217480, Note_off_c, 1, 56, 0
2, 217480, Note_on_c, 1, 57, 127
2, 217520, Note_off_c, 1, 73, 0
2, 217520, Note_on_c, 1, 74, 127
2, 217560, Note_on_c, 1, 73, 127
2, 217560, Note_off_c, 1, 74, 0
2, 217640, Note_off_c, 1, 73, 0
2, 217640, Note_on_c, 1, 74, 127
2, 217680, Note_off_c, 1, 54, 0
2, 217680, Note_on_c, 1, 56, 127
2, 217680, Note_off_c, 1, 57, 0
2, 217760, Note_on_c, 1, 57, 127
2, 217840, Note_off_c, 1, 57, 0
2, 217840, Note_on_c, 1, 59, 127
2, 217880, Note_off_c, 1, 74, 0
2, 217880, Note_on_c, 1, 76, 127
2, 218080, Note_off_c, 1, 56, 0
2, 218080, Note_on_c, 1, 57, 127
2, 218080, Note_off_c, 1, 59, 0
2, 218080, Note_on_c, 1, 74, 127
2, 218080, Note_off_c, 1, 76, 0
2, 218120, Note_on_c, 1, 73, 127
2, 218120, Note_off_c, 1, 74, 0
2, 218200, Note_off_c, 1, 73, 0
2, 218200, Note_on_c, 1, 74, 127
2, 218280, Note_on_c, 1, 61, 127
2, 218280, Note_on_c, 1, 73, 127
2, 218280, Note_off_c, 1, 74, 0
2, 218440, Note_off_c, 1, 61, 0
2, 218440, Note_on_c, 1, 64, 127
2, 218640, Note_off_c, 1, 57, 0
2, 218640, Note_on_c, 1, 59, 127
2, 218640, Note_on_c, 1, 71, 127
2, 218640, Note_off_c, 1, 73, 0
2, 218840, Note_off_c, 1, 59, 0
2, 218840, Note_on_c, 1, 61, 127
2, 218840, Note_on_c, 1, 69, 127
2, 218840, Note_off_c, 1, 71, 0
2, 219040, Note_off_c, 1, 69, 0
2, 219040, Note_on_c, 1, 81, 127
2, 219200, Note_on_c, 1, 57, 127
2, 219200, Note_off_c, 1, 64, 0
2, 219200, Note_on_c, 1, 80, 127
2, 219200, Note_off_c, 1, 81, 0
2, 219400, Note_on_c, 1, 78, 127
2, 219400, Note_off_c, 1, 80, 0
2, 219600, Note_off_c, 1, 57, 0
2, 219600, Note_off_c, 1, 61, 0
2, 219600, Note_on_c, 1, 62, 127
2, 219600, Note_on_c, 1, 66, 127
2, 219600, Note_off_c, 1, 78, 0
2, 219600, Note_on_c, 1, 83, 127
2, 219800, Note_on_c, 1, 80, 127
2, 219800, Note_off_c, 1, 83, 0
2, 219960, Note_on_c, 1, 59, 127
2, 219960, Note_off_c, 1, 66, 0
2, 219960, Note_off_c, 1, 80, 0
2, 219960, Note_on_c, 1, 81, 127
2, 220160, Note_on_c, 1, 78, 127
2, 220160, Note_off_c, 1, 81, 0
2, 220360, Note_off_c, 1, 59, 0
2, 220360, Note_on_c, 1, 61, 127
2, 220360, Note_off_c, 1, 62, 0
2, 220480, Note_on_c, 1, 77, 127
2, 220480, Note_off_c, 1, 78, 0
2, 220560, Note_on_c, 1, 73, 127
2, 220560, Note_off_c, 1, 77, 0
2, 220560, Note_on_c, 1, 78, 127
2, 220600, Note_on_c, 1, 77, 127
2, 220600, Note_off_c, 1, 78, 0
2, 220680, Note_off_c, 1, 77, 0
2, 220680, Note_on_c, 1, 78, 127
2, 220720, Note_on_c, 1, 68, 127
2, 220720, Note_on_c, 1, 77, 127
2, 220720, Note_off_c, 1, 78, 0
2, 220800, Note_off_c, 1, 77, 0
2, 220800, Note_on_c, 1, 78, 127
2, 220840, Note_on_c, 1, 77, 127
2, 220840, Note_off_c, 1, 78, 0
2, 220920, Note_on_c, 1, 59, 127
2, 220920, Note_off_c, 1, 61, 0
2, 221120, Note_on_c, 1, 57, 127
2, 221120, Note_off_c, 1, 59, 0
2, 221280, Note_off_c, 1, 57, 0
2, 221320, Note_on_c, 1, 56, 127
2, 221480, Note_on_c, 1, 54, 127
2, 221480, Note_off_c, 1, 56, 0
2, 221480, Note_off_c, 1, 68, 0
2, 221480, Note_on_c, 1, 69, 127
2, 221480, Note_off_c, 1, 73, 0
2, 221480, Note_off_c, 1, 77, 0
2, 221560, Note_on_c, 1, 73, 127
2, 221640, Note_on_c, 1, 78, 127
2, 221680, Note_on_c, 1, 53, 127
2, 221680, Note_off_c, 1, 54, 0
2, 221880, Note_off_c, 1, 53, 0
2, 221880, Note_on_c, 1, 54, 127
2, 221880, Note_off_c, 1, 69, 0
2, 221880, Note_off_c, 1, 73, 0
2, 221880, Note_on_c, 1, 76, 127
2, 221880, Note_off_c, 1, 78, 0
2, 221960, Note_on_c, 1, 56, 127
2, 222000, Note_on_c, 1, 75, 127
2, 222000, Note_off_c, 1, 76, 0
2, 222040, Note_off_c, 1, 56, 0
2, 222040, Note_on_c, 1, 57, 127
2, 222080, Note_off_c, 1, 75, 0
2, 222080, Note_on_c, 1, 76, 127
2, 222120, Note_on_c, 1, 75, 127
2, 222120, Note_off_c, 1, 76, 0
2, 222200, Note_off_c, 1, 75, 0
2, 222200, Note_on_c, 1, 76, 127
2, 222240, Note_off_c, 1, 54, 0
2, 222240, Note_on_c, 1, 56, 127
2, 222240, Note_off_c, 1, 57, 0
2, 222240, Note_on_c, 1, 75, 127
2, 222240, Note_off_c, 1, 76, 0
2, 222320, Note_on_c, 1, 57, 127
2, 222400, Note_off_c, 1, 57, 0
2, 222400, Note_on_c, 1, 59, 127
2, 222440, Note_off_c, 1, 75, 0
2, 222440, Note_on_c, 1, 76, 127
2, 222640, Note_off_c, 1, 56, 0
2, 222640, Note_on_c, 1, 57, 127
2, 222640, Note_off_c, 1, 59, 0
2, 222640, Note_on_c, 1, 73, 127
2, 222640, Note_off_c, 1, 76, 0
2, 222680, Note_on_c, 1, 71, 127
2, 222680, Note_off_c, 1, 73, 0
2, 222760, Note_off_c, 1, 71, 0
2, 222760, Note_on_c, 1, 73, 127
2, 222840, Note_on_c, 1, 61, 127
2, 223000, Note_off_c, 1, 61, 0
2, 223000, Note_on_c, 1, 66, 127
2, 223200, Note_off_c, 1, 57, 0
2, 223200, Note_on_c, 1, 59, 127
2, 223200, Note_off_c, 1, 73, 0
2, 223200, Note_on_c, 1, 74, 127
2, 223400, Note_on_c, 1, 56, 127
2, 223400, Note_off_c, 1, 59, 0
2, 223400, Note_on_c, 1, 65, 127
2, 223400, Note_off_c, 1, 66, 0
2, 223400, Note_on_c, 1, 73, 127
2, 223400, Note_off_c, 1, 74, 0
2, 223520, Note_on_c, 1, 71, 127
2, 223520, Note_off_c, 1, 73, 0
2, 223560, Note_off_c, 1, 71, 0
2, 223600, Note_on_c, 1, 73, 127
2, 223640, Note_on_c, 1, 71, 127
2, 223640, Note_off_c, 1, 73, 0
2, 223720, Note_off_c, 1, 71, 0
2, 223720, Note_on_c, 1, 73, 127
2, 223760, Note_on_c, 1, 54, 127
2, 223760, Note_off_c, 1, 56, 0
2, 223760, Note_off_c, 1, 65, 0
2, 223760, Note_on_c, 1, 66, 127
2, 223760, Note_on_c, 1, 71, 127
2, 223760, Note_off_c, 1, 73, 0
2, 223960, Note_on_c, 1, 69, 127
2, 223960, Note_off_c, 1, 71, 0
2, 224160, Note_off_c, 1, 54, 0
2, 224160, Note_on_c, 1, 61, 127
2, 224160, Note_on_c, 1, 65, 127
2, 224160, Note_off_c, 1, 66, 0
2, 224280, Note_on_c, 1, 68, 127
2, 224280, Note_off_c, 1, 69, 0
2, 224320, Note_off_c, 1, 68, 0
2, 224360, Note_on_c, 1, 69, 127
2, 224400, Note_on_c, 1, 68, 127
2, 224400, Note_off_c, 1, 69, 0
2, 224480, Note_off_c, 1, 68, 0
2, 224480, Note_on_c, 1, 69, 127
2, 224520, Note_on_c, 1, 49, 127
2, 224520, Note_off_c, 1, 61, 0
2, 224520, Note_on_c, 1, 68, 127
2, 224520, Note_off_c, 1, 69, 0
2, 224720, Note_on_c, 1, 66, 127
2, 224720, Note_off_c, 1, 68, 0
2, 224920, Note_on_c, 1, 42, 127
2, 224920, Note_off_c, 1, 49, 0
2, 224920, Note_on_c, 1, 57, 127
2, 224920, Note_off_c, 1, 65, 0
2, 224920, Note_off_c, 1, 66, 0
2, 225000, Note_on_c, 1, 61, 127
2, 225080, Note_on_c, 1, 49, 127
2, 225080, Note_on_c, 1, 66, 127
2, 225280, Note_off_c, 1, 49, 0
2, 225280, Note_on_c, 1, 51, 127
2, 225480, Note_off_c, 1, 51, 0
2, 225480, Note_on_c, 1, 53, 127
2, 225680, Note_off_c, 1, 42, 0
2, 225680, Note_off_c, 1, 53, 0
2, 225680, Note_on_c, 1, 54, 127
2, 225680, Note_off_c, 1, 57, 0
2, 225680, Note_off_c, 1, 61, 0
2, 225840, Note_on_c, 1, 57, 127
2, 225840, Note_off_c, 1, 66, 0
2, 225840, Note_on_c, 1, 78, 127
2, 226040, Note_off_c, 1, 54, 0
2, 226040, Note_on_c, 1, 56, 127
2, 226040, Note_off_c, 1, 57, 0
2, 226040, Note_on_c, 1, 76, 127
2, 226040, Note_off_c, 1, 78, 0
2, 226240, Note_on_c, 1, 59, 127
2, 226240, Note_on_c, 1, 74, 127
2, 226240, Note_off_c, 1, 76, 0
2, 226440, Note_off_c, 1, 56, 0
2, 226440, Note_on_c, 1, 58, 127
2, 226440, Note_off_c, 1, 59, 0
2, 226560, Note_on_c, 1, 73, 127
2, 226560, Note_off_c, 1, 74, 0
2, 226600, Note_on_c, 1, 61, 127
2, 226600, Note_off_c, 1, 73, 0
2, 226600, Note_on_c, 1, 74, 127
2, 226680, Note_on_c, 1, 73, 127
2, 226680, Note_off_c, 1, 74, 0
2, 226760, Note_off_c, 1, 73, 0
2, 226760, Note_on_c, 1, 74, 127
2, 226800, Note_on_c, 1, 54, 127
2, 226800, Note_off_c, 1, 58, 0
2, 226800, Note_on_c, 1, 73, 127
2, 226800, Note_off_c, 1, 74, 0
2, 227000, Note_off_c, 1, 73, 0
2, 227000, Note_on_c, 1, 74, 127
2, 227160, Note_off_c, 1, 61, 0
2, 227200, Note_off_c, 1, 54, 0
2, 227200, Note_on_c, 1, 59, 127
2, 227200, Note_off_c, 1, 74, 0
2, 227200, Note_on_c, 1, 76, 127
2, 227360, Note_off_c, 1, 76, 0
2, 227400, Note_on_c, 1, 74, 127
2, 227560, Note_on_c, 1, 73, 127
2, 227560, Note_off_c, 1, 74, 0
2, 227760, Note_off_c, 1, 59, 0
2, 227760, Note_on_c, 1, 61, 127
2, 227760, Note_on_c, 1, 71, 127
2, 227760, Note_off_c, 1, 73, 0
2, 227960, Note_off_c, 1, 61, 0
2, 227960, Note_on_c, 1, 62, 127
2, 227960, Note_off_c, 1, 71, 0
2, 227960, Note_on_c, 1, 83, 127
2, 228000, Note_on_c, 1, 81, 127
2, 228000, Note_off_c, 1, 83, 0
2, 228080, Note_off_c, 1, 81, 0
2, 228080, Note_on_c, 1, 83, 127
2, 228120, Note_off_c, 1, 62, 0
2, 228120, Note_on_c, 1, 66, 127
2, 228320, Note_on_c, 1, 64, 127
2, 228320, Note_off_c, 1, 66, 0
2, 228520, Note_on_c, 1, 62, 127
2, 228520, Note_off_c, 1, 64, 0
2, 228520, Note_on_c, 1, 80, 127
2, 228520, Note_off_c, 1, 83, 0
2, 228720, Note_on_c, 1, 61, 127
2, 228720, Note_off_c, 1, 62, 0
2, 228800, Note_on_c, 1, 62, 127
2, 228880, Note_off_c, 1, 62, 0
2, 228880, Note_on_c, 1, 64, 127
2, 228880, Note_off_c, 1, 80, 0
2, 228880, Note_on_c, 1, 81, 127
2, 228960, Note_on_c, 1, 80, 127
2, 228960, Note_off_c, 1, 81, 0
2, 229040, Note_off_c, 1, 80, 0
2, 229040, Note_on_c, 1, 81, 127
2, 229080, Note_off_c, 1, 61, 0
2, 229080, Note_on_c, 1, 63, 127
2, 229080, Note_off_c, 1, 64, 0
2, 229160, Note_on_c, 1, 64, 127
2, 229240, Note_off_c, 1, 64, 0
2, 229240, Note_on_c, 1, 66, 127
2, 229280, Note_off_c, 1, 81, 0
2, 229280, Note_on_c, 1, 83, 127
2, 229480, Note_off_c, 1, 63, 0
2, 229480, Note_on_c, 1, 64, 127
2, 229480, Note_off_c, 1, 66, 0
2, 229480, Note_on_c, 1, 81, 127
2, 229480, Note_off_c, 1, 83, 0
2, 229600, Note_on_c, 1, 80, 127
2, 229600, Note_off_c, 1, 81, 0
2, 229640, Note_on_c, 1, 68, 127
2, 229640, Note_off_c, 1, 80, 0
2, 229640, Note_on_c, 1, 81, 127
2, 229720, Note_on_c, 1, 80, 127
2, 229720, Note_off_c, 1, 81, 0
2, 229800, Note_off_c, 1, 80, 0
2, 229800, Note_on_c, 1, 81, 127
2, 229840, Note_on_c, 1, 71, 127
2, 229840, Note_on_c, 1, 80, 127
2, 229840, Note_off_c, 1, 81, 0
2, 230040, Note_on_c, 1, 62, 127
2, 230040, Note_off_c, 1, 64, 0
2, 230040, Note_off_c, 1, 68, 0
2, 230040, Note_on_c, 1, 78, 127
2, 230040, Note_off_c, 1, 80, 0
2, 230240, Note_on_c, 1, 61, 127
2, 230240, Note_off_c, 1, 62, 0
2, 230240, Note_off_c, 1, 71, 0
2, 230240, Note_on_c, 1, 76, 127
2, 230240, Note_off_c, 1, 78, 0
2, 230400, Note_on_c, 1, 59, 127
2, 230400, Note_off_c, 1, 61, 0
2, 230400, Note_on_c, 1, 74, 127
2, 230400, Note_off_c, 1, 76, 0
2, 230600, Note_on_c, 1, 57, 127
2, 230600, Note_off_c, 1, 59, 0
2, 230600, Note_on_c, 1, 73, 127
2, 230600, Note_off_c, 1, 74, 0
2, 230800, Note_on_c, 1, 56, 127
2, 230800, Note_off_c, 1, 57, 0
2, 230800, Note_on_c, 1, 71, 127
2, 230800, Note_off_c, 1, 73, 0
2, 231000, Note_on_c, 1, 54, 127
2, 231000, Note_off_c, 1, 56, 0
2, 231000, Note_on_c, 1, 69, 127
2, 231000, Note_off_c, 1, 71, 0
2, 231160, Note_on_c, 1, 52, 127
2, 231160, Note_off_c, 1, 54, 0
2, 231160, Note_on_c, 1, 68, 127
2, 231160, Note_off_c, 1, 69, 0
2, 231360, Note_on_c, 1, 50, 127
2, 231360, Note_off_c, 1, 52, 0
2, 231360, Note_off_c, 1, 68, 0
2, 231360, Note_on_c, 1, 69, 127
2, 231560, Note_on_c, 1, 49, 127
2, 231560, Note_off_c, 1, 50, 0
2, 231560, Note_on_c, 1, 66, 127
2, 231560, Note_off_c, 1, 69, 0
2, 231760, Note_on_c, 1, 47, 127
2, 231760, Note_off_c, 1, 49, 0
2, 231760, Note_off_c, 1, 66, 0
2, 231760, Note_on_c, 1, 74, 127
2, 231800, Note_on_c, 1, 73, 127
2, 231800, Note_off_c, 1, 74, 0
2, 231880, Note_off_c, 1, 73, 0
2, 231880, Note_on_c, 1, 74, 127
2, 231920, Note_on_c, 1, 45, 127
2, 231920, Note_off_c, 1, 47, 0
2, 232120, Note_off_c, 1, 45, 0
2, 232120, Note_on_c, 1, 47, 127
2, 232320, Note_on_c, 1, 44, 127
2, 232320, Note_off_c, 1, 47, 0
2, 232320, Note_off_c, 1, 74, 0
2, 232320, Note_on_c, 1, 76, 127
2, 232520, Note_off_c, 1, 44, 0
2, 232520, Note_on_c, 1, 45, 127
2, 232520, Note_on_c, 1, 74, 127
2, 232520, Note_off_c, 1, 76, 0
2, 232640, Note_on_c, 1, 73, 127
2, 232640, Note_off_c, 1, 74, 0
2, 232680, Note_off_c, 1, 73, 0
2, 232680, Note_on_c, 1, 74, 127
2, 232760, Note_on_c, 1, 73, 127
2, 232760, Note_off_c, 1, 74, 0
2, 232840, Note_off_c, 1, 73, 0
2, 232840, Note_on_c, 1, 74, 127
2, 232880, Note_off_c, 1, 45, 0
2, 232880, Note_on_c, 1, 50, 127
2, 232880, Note_on_c, 1, 69, 127
2, 232880, Note_on_c, 1, 73, 127
2, 232880, Note_off_c, 1, 74, 0
2, 233080, Note_on_c, 1, 71, 127
2, 233080, Note_off_c, 1, 73, 0
2, 233280, Note_off_c, 1, 50, 0
2, 233280, Note_on_c, 1, 52, 127
2, 233280, Note_on_c, 1, 68, 127
2, 233280, Note_off_c, 1, 69, 0
2, 233280, Note_off_c, 1, 71, 0
2, 233280, Note_on_c, 1, 73, 127
2, 233400, Note_on_c, 1, 71, 127
2, 233400, Note_off_c, 1, 73, 0
2, 233440, Note_off_c, 1, 71, 0
2, 233440, Note_on_c, 1, 73, 127
2, 233520, Note_on_c, 1, 71, 127
2, 233520, Note_off_c, 1, 73, 0
2, 233600, Note_off_c, 1, 71, 0
2, 233600, Note_on_c, 1, 73, 127
2, 233640, Note_on_c, 1, 49, 127
2, 233640, Note_on_c, 1, 71, 127
2, 233640, Note_off_c, 1, 73, 0
2, 233840, Note_on_c, 1, 69, 127
2, 233840, Note_off_c, 1, 71, 0
2, 234000, Note_off_c, 1, 52, 0
2, 234000, Note_off_c, 1, 68, 0
2, 234040, Note_off_c, 1, 49, 0
2, 234040, Note_on_c, 1, 54, 127
2, 234200, Note_off_c, 1, 54, 0
2, 234200, Note_on_c, 1, 56, 127
2, 234400, Note_on_c, 1, 54, 127
2, 234400, Note_off_c, 1, 56, 0
2, 234600, Note_on_c, 1, 52, 127
2, 234600, Note_off_c, 1, 54, 0
2, 234600, Note_on_c, 1, 68, 127
2, 234800, Note_on_c, 1, 50, 127
2, 234800, Note_off_c, 1, 52, 0
2, 234800, Note_on_c, 1, 66, 127
2, 234800, Note_off_c, 1, 68, 0
2, 234960, Note_on_c, 1, 49, 127
2, 234960, Note_off_c, 1, 50, 0
2, 234960, Note_on_c, 1, 64, 127
2, 234960, Note_off_c, 1, 66, 0
2, 235160, Note_on_c, 1, 47, 127
2, 235160, Note_off_c, 1, 49, 0
2, 235160, Note_on_c, 1, 62, 127
2, 235160, Note_off_c, 1, 64, 0
2, 235360, Note_on_c, 1, 45, 127
2, 235360, Note_off_c, 1, 47, 0
2, 235360, Note_on_c, 1, 61, 127
2, 235360, Note_off_c, 1, 62, 0
2, 235560, Note_off_c, 1, 45, 0
2, 235560, Note_on_c, 1, 52, 127
2, 235560, Note_on_c, 1, 59, 127
2, 235560, Note_off_c, 1, 61, 0
2, 235560, Note_off_c, 1, 69, 0
2, 235720, Note_on_c, 1, 62, 127
2, 235920, Note_on_c, 1, 40, 127
2, 235920, Note_on_c, 1, 69, 127
2, 236120, Note_on_c, 1, 68, 127
2, 236120, Note_off_c, 1, 69, 0
2, 236280, Note_off_c, 1, 52, 0
2, 236280, Note_off_c, 1, 59, 0
2, 236280, Note_off_c, 1, 62, 0
2, 236320, Note_off_c, 1, 40, 0
2, 236320, Note_on_c, 1, 45, 127
2, 236320, Note_off_c, 1, 68, 0
2, 236320, Note_on_c, 1, 69, 127
2, 236680, Note_on_c, 1, 33, 127
2, 236880, Note_on_c, 1, 64, 127
2, 237040, Note_off_c, 1, 45, 0
2, 237080, Note_on_c, 1, 40, 127
2, 237080, Note_off_c, 1, 64, 0
2, 237080, Note_on_c, 1, 66, 127
2, 237240, Note_on_c, 1, 62, 127
2, 237240, Note_off_c, 1, 66, 0
2, 237440, Note_off_c, 1, 40, 0
2, 237440, Note_on_c, 1, 45, 127
2, 237440, Note_on_c, 1, 61, 127
2, 237440, Note_off_c, 1, 62, 0
2, 237440, Note_off_c, 1, 69, 0
2, 237520, Note_on_c, 1, 64, 127
2, 237600, Note_on_c, 1, 69, 127
2, 238200, Note_off_c, 1, 33, 0
2, 238200, Note_off_c, 1, 45, 0
2, 238400, Note_off_c, 1, 61, 0
2, 238400, Note_off_c, 1, 64, 0
2, 238600, Note_on_c, 1, 45, 127
2, 238760, Note_on_c, 1, 64, 127
2, 238960, Note_on_c, 1, 61, 127
2, 239160, Note_off_c, 1, 45, 0
2, 239160, Note_on_c, 1, 47, 127
2, 239240, Note_off_c, 1, 47, 0
2, 239240, Note_on_c, 1, 49, 127
2, 239360, Note_on_c, 1, 47, 127
2, 239360, Note_off_c, 1, 49, 0
2, 239520, Note_off_c, 1, 47, 0
2, 239520, Note_on_c, 1, 49, 127
2, 239640, Note_off_c, 1, 49, 0
2, 239640, Note_on_c, 1, 50, 127
2, 239720, Note_on_c, 1, 49, 127
2, 239720, Note_off_c, 1, 50, 0
2, 239720, Note_off_c, 1, 61, 0
2, 239720, Note_off_c, 1, 69, 0
2, 240120, Note_off_c, 1, 64, 0
2, 240120, Note_on_c, 1, 66, 127
2, 240160, Note_on_c, 1, 64, 127
2, 240160, Note_off_c, 1, 66, 0
2, 240240, Note_on_c, 1, 47, 127
2, 240240, Note_off_c, 1, 49, 0
2, 240240, Note_off_c, 1, 64, 0
2, 240240, Note_on_c, 1, 66, 127
2, 240280, Note_off_c, 1, 47, 0
2, 240280, Note_on_c, 1, 49, 127
2, 240360, Note_on_c, 1, 47, 127
2, 240360, Note_off_c, 1, 49, 0
2, 240480, Note_on_c, 1, 45, 127
2, 240480, Note_off_c, 1, 47, 0
2, 240680, Note_off_c, 1, 66, 0
2, 240680, Note_on_c, 1, 67, 127
2, 240880, Note_off_c, 1, 45, 0
2, 240880, Note_on_c, 1, 50, 127
2, 241000, Note_on_c, 1, 66, 127
2, 241000, Note_off_c, 1, 67, 0
2, 241040, Note_off_c, 1, 66, 0
2, 241040, Note_on_c, 1, 67, 127
2, 241120, Note_on_c, 1, 66, 127
2, 241120, Note_off_c, 1, 67, 0
2, 241200, Note_off_c, 1, 66, 0
2, 241200, Note_on_c, 1, 67, 127
2, 241240, Note_on_c, 1, 66, 127
2, 241240, Note_off_c, 1, 67, 0
2, 241360, Note_on_c, 1, 49, 127
2, 241360, Note_off_c, 1, 50, 0
2, 241440, Note_off_c, 1, 49, 0
2, 241440, Note_on_c, 1, 50, 127
2, 241440, Note_off_c, 1, 66, 0
2, 241440, Note_on_c, 1, 69, 127
2, 241480, Note_off_c, 1, 50, 0
2, 241520, Note_on_c, 1, 49, 127
2, 241640, Note_on_c, 1, 47, 127
2, 241640, Note_off_c, 1, 49, 0
2, 241640, Note_off_c, 1, 69, 0
2, 241640, Note_on_c, 1, 74, 127
2, 241720, Note_on_c, 1, 73, 127
2, 241720, Note_off_c, 1, 74, 0
2, 241800, Note_off_c, 1, 73, 0
2, 241800, Note_on_c, 1, 74, 127
2, 242000, Note_off_c, 1, 47, 0
2, 242000, Note_on_c, 1, 56, 127
2, 242200, Note_off_c, 1, 74, 0
2, 242200, Note_on_c, 1, 76, 127
2, 242400, Note_off_c, 1, 56, 0
2, 242400, Note_on_c, 1, 57, 127
2, 242400, Note_on_c, 1, 74, 127
2, 242400, Note_off_c, 1, 76, 0
2, 242440, Note_on_c, 1, 56, 127
2, 242440, Note_off_c, 1, 57, 0
2, 242520, Note_off_c, 1, 56, 0
2, 242520, Note_on_c, 1, 57, 127
2, 242520, Note_on_c, 1, 73, 127
2, 242520, Note_off_c, 1, 74, 0
2, 242560, Note_off_c, 1, 73, 0
2, 242560, Note_on_c, 1, 74, 127
2, 242640, Note_on_c, 1, 73, 127
2, 242640, Note_off_c, 1, 74, 0
2, 242720, Note_off_c, 1, 73, 0
2, 242720, Note_on_c, 1, 74, 127
2, 242760, Note_on_c, 1, 45, 127
2, 242760, Note_off_c, 1, 57, 0
2, 242760, Note_on_c, 1, 73, 127
2, 242760, Note_off_c, 1, 74, 0
2, 242960, Note_on_c, 1, 71, 127
2, 242960, Note_off_c, 1, 73, 0
2, 243160, Note_off_c, 1, 45, 0
2, 243160, Note_on_c, 1, 52, 127
2, 243320, Note_on_c, 1, 68, 127
2, 243520, Note_on_c, 1, 64, 127
2, 243720, Note_off_c, 1, 52, 0
2, 243720, Note_on_c, 1, 54, 127
2, 243800, Note_off_c, 1, 54, 0
2, 243800, Note_on_c, 1, 56, 127
2, 243920, Note_on_c, 1, 54, 127
2, 243920, Note_off_c, 1, 56, 0
2, 244080, Note_off_c, 1, 54, 0
2, 244080, Note_on_c, 1, 56, 127
2, 244200, Note_off_c, 1, 56, 0
2, 244200, Note_on_c, 1, 57, 127
2, 244280, Note_on_c, 1, 56, 127
2, 244280, Note_off_c, 1, 57, 0
2, 244280, Note_off_c, 1, 64, 0
2, 244280, Note_off_c, 1, 68, 0
2, 244280, Note_off_c, 1, 71, 0
2, 244280, Note_on_c, 1, 76, 127
2, 244360, Note_on_c, 1, 74, 127
2, 244360, Note_off_c, 1, 76, 0
2, 244400, Note_off_c, 1, 74, 0
2, 244400, Note_on_c, 1, 76, 127
2, 244800, Note_on_c, 1, 54, 127
2, 244800, Note_off_c, 1, 56, 0
2, 244800, Note_on_c, 1, 74, 127
2, 244800, Note_off_c, 1, 76, 0
2, 244840, Note_off_c, 1, 54, 0
2, 244840, Note_on_c, 1, 56, 127
2, 244840, Note_off_c, 1, 74, 0
2, 244840, Note_on_c, 1, 76, 127
2, 244920, Note_on_c, 1, 54, 127
2, 244920, Note_off_c, 1, 56, 0
2, 244920, Note_on_c, 1, 74, 127
2, 244920, Note_off_c, 1, 76, 0
2, 244960, Note_off_c, 1, 74, 0
2, 245000, Note_on_c, 1, 76, 127
2, 245040, Note_on_c, 1, 52, 127
2, 245040, Note_off_c, 1, 54, 0
2, 245040, Note_on_c, 1, 74, 127
2, 245040, Note_off_c, 1, 76, 0
2, 245240, Note_off_c, 1, 74, 0
2, 245240, Note_on_c, 1, 76, 127
2, 245440, Note_off_c, 1, 52, 0
2, 245440, Note_on_c, 1, 57, 127
2, 245440, Note_on_c, 1, 74, 127
2, 245440, Note_off_c, 1, 76, 0
2, 245480, Note_on_c, 1, 73, 127
2, 245480, Note_off_c, 1, 74, 0
2, 245560, Note_off_c, 1, 73, 0
2, 245560, Note_on_c, 1, 74, 127
2, 245600, Note_on_c, 1, 73, 127
2, 245600, Note_off_c, 1, 74, 0
2, 245800, Note_off_c, 1, 57, 0
2, 245800, Note_on_c, 1, 59, 127
2, 246000, Note_on_c, 1, 71, 127
2, 246000, Note_off_c, 1, 73, 0
2, 246200, Note_off_c, 1, 59, 0
2, 246200, Note_on_c, 1, 61, 127
2, 246200, Note_on_c, 1, 69, 127
2, 246200, Note_off_c, 1, 71, 0
2, 246360, Note_off_c, 1, 69, 0
2, 246360, Note_on_c, 1, 73, 127
2, 246560, Note_on_c, 1, 54, 127
2, 246560, Note_on_c, 1, 57, 127
2, 246560, Note_off_c, 1, 61, 0
2, 246560, Note_off_c, 1, 73, 0
2, 246560, Note_on_c, 1, 78, 127
2, 246960, Note_off_c, 1, 54, 0
2, 246960, Note_on_c, 1, 56, 127
2, 246960, Note_off_c, 1, 57, 0
2, 246960, Note_on_c, 1, 59, 127
2, 247080, Note_on_c, 1, 76, 127
2, 247080, Note_off_c, 1, 78, 0
2, 247120, Note_off_c, 1, 76, 0
2, 247120, Note_on_c, 1, 78, 127
2, 247200, Note_on_c, 1, 76, 127
2, 247200, Note_off_c, 1, 78, 0
2, 247240, Note_off_c, 1, 76, 0
2, 247280, Note_on_c, 1, 78, 127
2, 247320, Note_off_c, 1, 56, 0
2, 247320, Note_on_c, 1, 58, 127
2, 247320, Note_off_c, 1, 59, 0
2, 247320, Note_on_c, 1, 61, 127
2, 247320, Note_on_c, 1, 76, 127
2, 247320, Note_off_c, 1, 78, 0
2, 247520, Note_off_c, 1, 76, 0
2, 247520, Note_on_c, 1, 78, 127
2, 247720, Note_off_c, 1, 58, 0
2, 247720, Note_on_c, 1, 59, 127
2, 247720, Note_off_c, 1, 61, 0
2, 247720, Note_on_c, 1, 76, 127
2, 247720, Note_off_c, 1, 78, 0
2, 247760, Note_on_c, 1, 75, 127
2, 247760, Note_off_c, 1, 76, 0
2, 247840, Note_off_c, 1, 75, 0
2, 247840, Note_on_c, 1, 76, 127
2, 247880, Note_on_c, 1, 75, 127
2, 247880, Note_off_c, 1, 76, 0
2, 248080, Note_off_c, 1, 59, 0
2, 248080, Note_on_c, 1, 61, 127
2, 248280, Note_on_c, 1, 73, 127
2, 248280, Note_off_c, 1, 75, 0
2, 248480, Note_off_c, 1, 61, 0
2, 248480, Note_on_c, 1, 63, 127
2, 248480, Note_on_c, 1, 71, 127
2, 248480, Note_off_c, 1, 73, 0
2, 248640, Note_on_c, 1, 78, 127
2, 248840, Note_on_c, 1, 56, 127
2, 248840, Note_off_c, 1, 63, 0
2, 248840, Note_off_c, 1, 78, 0
2, 248840, Note_on_c, 1, 83, 127
2, 249200, Note_off_c, 1, 71, 0
2, 249240, Note_off_c, 1, 56, 0
2, 249240, Note_on_c, 1, 61, 127
2, 249240, Note_on_c, 1, 76, 127
2, 249360, Note_on_c, 1, 81, 127
2, 249360, Note_off_c, 1, 83, 0
2, 249400, Note_off_c, 1, 81, 0
2, 249400, Note_on_c, 1, 83, 127
2, 249480, Note_on_c, 1, 81, 127
2, 249480, Note_off_c, 1, 83, 0
2, 249520, Note_off_c, 1, 81, 0
2, 249520, Note_on_c, 1, 83, 127
2, 249600, Note_off_c, 1, 61, 0
2, 249600, Note_on_c, 1, 63, 127
2, 249600, Note_off_c, 1, 76, 0
2, 249600, Note_on_c, 1, 78, 127
2, 249600, Note_on_c, 1, 81, 127
2, 249600, Note_off_c, 1, 83, 0
2, 249800, Note_off_c, 1, 81, 0
2, 249800, Note_on_c, 1, 83, 127
2, 249960, Note_off_c, 1, 78, 0
2, 250000, Note_off_c, 1, 63, 0
2, 250000, Note_on_c, 1, 64, 127
2, 250000, Note_on_c, 1, 71, 127
2, 250000, Note_on_c, 1, 81, 127
2, 250000, Note_off_c, 1, 83, 0
2, 250120, Note_on_c, 1, 80, 127
2, 250120, Note_off_c, 1, 81, 0
2, 250160, Note_off_c, 1, 80, 0
2, 250160, Note_on_c, 1, 81, 127
2, 250240, Note_on_c, 1, 80, 127
2, 250240, Note_off_c, 1, 81, 0
2, 250280, Note_off_c, 1, 80, 0
2, 250280, Note_on_c, 1, 81, 127
2, 250360, Note_on_c, 1, 52, 127
2, 250360, Note_off_c, 1, 64, 0
2, 250360, Note_on_c, 1, 80, 127
2, 250360, Note_off_c, 1, 81, 0
2, 250560, Note_off_c, 1, 52, 0
2, 250560, Note_on_c, 1, 54, 127
2, 250560, Note_off_c, 1, 80, 0
2, 250560, Note_on_c, 1, 81, 127
2, 250760, Note_off_c, 1, 54, 0
2, 250760, Note_on_c, 1, 56, 127
2, 250760, Note_off_c, 1, 81, 0
2, 250760, Note_on_c, 1, 83, 127
2, 250920, Note_on_c, 1, 80, 127
2, 250920, Note_off_c, 1, 83, 0
2, 251120, Note_on_c, 1, 52, 127
2, 251120, Note_off_c, 1, 56, 0
2, 251120, Note_off_c, 1, 80, 0
2, 251120, Note_on_c, 1, 81, 127
2, 251320, Note_off_c, 1, 81, 0
2, 251320, Note_on_c, 1, 83, 127
2, 251520, Note_off_c, 1, 52, 0
2, 251520, Note_on_c, 1, 57, 127
2, 251520, Note_off_c, 1, 71, 0
2, 251520, Note_on_c, 1, 74, 127
2, 251520, Note_off_c, 1, 83, 0
2, 251560, Note_on_c, 1, 73, 127
2, 251560, Note_off_c, 1, 74, 0
2, 251640, Note_off_c, 1, 73, 0
2, 251640, Note_on_c, 1, 74, 127
2, 251680, Note_on_c, 1, 71, 127
2, 251680, Note_on_c, 1, 73, 127
2, 251680, Note_off_c, 1, 74, 0
2, 251760, Note_off_c, 1, 73, 0
2, 251760, Note_on_c, 1, 74, 127
2, 251800, Note_on_c, 1, 73, 127
2, 251800, Note_off_c, 1, 74, 0
2, 251880, Note_on_c, 1, 54, 127
2, 251880, Note_off_c, 1, 57, 0
2, 251880, Note_on_c, 1, 69, 127
2, 251880, Note_off_c, 1, 71, 0
2, 252040, Note_off_c, 1, 73, 0
2, 252080, Note_on_c, 1, 81, 127
2, 252240, Note_off_c, 1, 54, 0
2, 252240, Note_off_c, 1, 81, 0
2, 252280, Note_on_c, 1, 59, 127
2, 252280, Note_on_c, 1, 76, 127
2, 252400, Note_on_c, 1, 75, 127
2, 252400, Note_off_c, 1, 76, 0
2, 252440, Note_off_c, 1, 59, 0
2, 252440, Note_on_c, 1, 61, 127
2, 252440, Note_off_c, 1, 75, 0
2, 252440, Note_on_c, 1, 76, 127
2, 252520, Note_on_c, 1, 75, 127
2, 252520, Note_off_c, 1, 76, 0
2, 252560, Note_off_c, 1, 75, 0
2, 252560, Note_on_c, 1, 76, 127
2, 252640, Note_on_c, 1, 59, 127
2, 252640, Note_off_c, 1, 61, 0
2, 252640, Note_on_c, 1, 75, 127
2, 252640, Note_off_c, 1, 76, 0
2, 252840, Note_on_c, 1, 57, 127
2, 252840, Note_off_c, 1, 59, 0
2, 252840, Note_on_c, 1, 73, 127
2, 252840, Note_off_c, 1, 75, 0
2, 253000, Note_on_c, 1, 56, 127
2, 253000, Note_off_c, 1, 57, 0
2, 253000, Note_off_c, 1, 69, 0
2, 253000, Note_on_c, 1, 71, 127
2, 253000, Note_off_c, 1, 73, 0
2, 253160, Note_on_c, 1, 54, 127
2, 253160, Note_off_c, 1, 56, 0
2, 253160, Note_on_c, 1, 69, 127
2, 253160, Note_off_c, 1, 71, 0
2, 253360, Note_on_c, 1, 52, 127
2, 253360, Note_off_c, 1, 54, 0
2, 253360, Note_on_c, 1, 68, 127
2, 253360, Note_off_c, 1, 69, 0
2, 253560, Note_off_c, 1, 68, 0
2, 253560, Note_on_c, 1, 76, 127
2, 253720, Note_off_c, 1, 52, 0
2, 253720, Note_on_c, 1, 59, 127
2, 253720, Note_on_c, 1, 63, 127
2, 253720, Note_on_c, 1, 68, 127
2, 253720, Note_off_c, 1, 76, 0
2, 253840, Note_on_c, 1, 66, 127
2, 253840, Note_off_c, 1, 68, 0
2, 253880, Note_off_c, 1, 66, 0
2, 253880, Note_on_c, 1, 68, 127
2, 253960, Note_on_c, 1, 66, 127
2, 253960, Note_off_c, 1, 68, 0
2, 254000, Note_off_c, 1, 66, 0
2, 254000, Note_on_c, 1, 68, 127
2, 254080, Note_on_c, 1, 47, 127
2, 254080, Note_on_c, 1, 66, 127
2, 254080, Note_off_c, 1, 68, 0
2, 254280, Note_on_c, 1, 64, 127
2, 254280, Note_off_c, 1, 66, 0
2, 254440, Note_off_c, 1, 47, 0
2, 254440, Note_on_c, 1, 52, 127
2, 254440, Note_off_c, 1, 59, 0
2, 254440, Note_off_c, 1, 63, 0
2, 254840, Note_on_c, 1, 40, 127
2, 255200, Note_off_c, 1, 52, 0
2, 255240, Note_on_c, 1, 47, 127
2, 255600, Note_off_c, 1, 47, 0
2, 255600, Note_on_c, 1, 52, 127
2, 255600, Note_on_c, 1, 56, 127
2, 255600, Note_on_c, 1, 59, 127
2, 256360, Note_off_c, 1, 40, 0
2, 256360, Note_off_c, 1, 52, 0
2, 256360, Note_off_c, 1, 64, 0
2, 256560, Note_off_c, 1, 56, 0
2, 256560, Note_off_c, 1, 59, 0
2, 256560, Note_on_c, 1, 71, 127
2, 256720, Note_on_c, 1, 40, 127
2, 256880, Note_on_c, 1, 68, 127
2, 257080, Note_on_c, 1, 64, 127
2, 257160, Note_off_c, 1, 40, 0
2, 257160, Note_on_c, 1, 47, 127
2, 257280, Note_off_c, 1, 47, 0
2, 257280, Note_on_c, 1, 49, 127
2, 257360, Note_off_c, 1, 49, 0
2, 257360, Note_on_c, 1, 50, 127
2, 257480, Note_on_c, 1, 49, 127
2, 257480, Note_off_c, 1, 50, 0
2, 257640, Note_off_c, 1, 49, 0
2, 257640, Note_on_c, 1, 50, 127
2, 257760, Note_off_c, 1, 50, 0
2, 257760, Note_on_c, 1, 52, 127
2, 257840, Note_on_c, 1, 50, 127
2, 257840, Note_off_c, 1, 52, 0
2, 257840, Note_off_c, 1, 71, 0
2, 258240, Note_off_c, 1, 64, 0
2, 258240, Note_on_c, 1, 66, 127
2, 258360, Note_on_c, 1, 49, 127
2, 258360, Note_off_c, 1, 50, 0
2, 258400, Note_off_c, 1, 49, 0
2, 258400, Note_on_c, 1, 50, 127
2, 258400, Note_off_c, 1, 68, 0
2, 258400, Note_on_c, 1, 69, 127
2, 258480, Note_on_c, 1, 49, 127
2, 258480, Note_off_c, 1, 50, 0
2, 258480, Note_on_c, 1, 68, 127
2, 258480, Note_off_c, 1, 69, 0
2, 258520, Note_off_c, 1, 68, 0
2, 258560, Note_on_c, 1, 69, 127
2, 258600, Note_on_c, 1, 47, 127
2, 258600, Note_off_c, 1, 49, 0
2, 258760, Note_off_c, 1, 66, 0
2, 258800, Note_on_c, 1, 68, 127
2, 258800, Note_off_c, 1, 69, 0
2, 258800, Note_on_c, 1, 71, 127
2, 259000, Note_on_c, 1, 45, 127
2, 259000, Note_off_c, 1, 47, 0
2, 259000, Note_off_c, 1, 68, 0
2, 259000, Note_on_c, 1, 69, 127
2, 259000, Note_off_c, 1, 71, 0
2, 259000, Note_on_c, 1, 73, 127
2, 259360, Note_off_c, 1, 45, 0
2, 259360, Note_on_c, 1, 49, 127
2, 259560, Note_off_c, 1, 73, 0
2, 259760, Note_off_c, 1, 49, 0
2, 259760, Note_on_c, 1, 50, 127
2, 259760, Note_on_c, 1, 78, 127
2, 259800, Note_on_c, 1, 76, 127
2, 259800, Note_off_c, 1, 78, 0
2, 259880, Note_off_c, 1, 76, 0
2, 259880, Note_on_c, 1, 78, 127
2, 260120, Note_off_c, 1, 50, 0
2, 260120, Note_on_c, 1, 55, 127
2, 260120, Note_off_c, 1, 69, 0
2, 260120, Note_on_c, 1, 71, 127
2, 260320, Note_off_c, 1, 78, 0
2, 260320, Note_on_c, 1, 79, 127
2, 260520, Note_on_c, 1, 49, 127
2, 260520, Note_off_c, 1, 55, 0
2, 260520, Note_on_c, 1, 78, 127
2, 260520, Note_off_c, 1, 79, 0
2, 260680, Note_on_c, 1, 76, 127
2, 260680, Note_off_c, 1, 78, 0
2, 260760, Note_off_c, 1, 76, 0
2, 260760, Note_on_c, 1, 78, 127
2, 260840, Note_on_c, 1, 76, 127
2, 260840, Note_off_c, 1, 78, 0
2, 260880, Note_off_c, 1, 49, 0
2, 260880, Note_on_c, 1, 54, 127
2, 260880, Note_on_c, 1, 70, 127
2, 260880, Note_off_c, 1, 71, 0
2, 260880, Note_off_c, 1, 76, 0
2, 260880, Note_on_c, 1, 78, 127
2, 260960, Note_on_c, 1, 76, 127
2, 260960, Note_off_c, 1, 78, 0
2, 261120, Note_on_c, 1, 74, 127
2, 261120, Note_off_c, 1, 76, 0
2, 261200, Note_on_c, 1, 73, 127
2, 261200, Note_off_c, 1, 74, 0
2, 261280, Note_on_c, 1, 47, 127
2, 261280, Note_off_c, 1, 54, 0
2, 261280, Note_off_c, 1, 70, 0
2, 261280, Note_on_c, 1, 71, 127
2, 261280, Note_off_c, 1, 73, 0
2, 261280, Note_on_c, 1, 74, 127
2, 261320, Note_on_c, 1, 73, 127
2, 261320, Note_off_c, 1, 74, 0
2, 261400, Note_off_c, 1, 73, 0
2, 261400, Note_on_c, 1, 74, 127
2, 261840, Note_off_c, 1, 47, 0
2, 261840, Note_on_c, 1, 49, 127
2, 261920, Note_off_c, 1, 49, 0
2, 261920, Note_on_c, 1, 50, 127
2, 262040, Note_on_c, 1, 49, 127
2, 262040, Note_off_c, 1, 50, 0
2, 262200, Note_off_c, 1, 49, 0
2, 262200, Note_on_c, 1, 50, 127
2, 262320, Note_off_c, 1, 50, 0
2, 262320, Note_on_c, 1, 52, 127
2, 262400, Note_on_c, 1, 50, 127
2, 262400, Note_off_c, 1, 52, 0
2, 262400, Note_off_c, 1, 74, 0
2, 262480, Note_on_c, 1, 78, 127
2, 262560, Note_on_c, 1, 83, 127
2, 262800, Note_off_c, 1, 50, 0
2, 262800, Note_on_c, 1, 52, 127
2, 262800, Note_off_c, 1, 71, 0
2, 262920, Note_on_c, 1, 81, 127
2, 262920, Note_off_c, 1, 83, 0
2, 262960, Note_on_c, 1, 51, 127
2, 262960, Note_off_c, 1, 52, 0
2, 262960, Note_off_c, 1, 81, 0
2, 262960, Note_on_c, 1, 83, 127
2, 263040, Note_on_c, 1, 81, 127
2, 263040, Note_off_c, 1, 83, 0
2, 263120, Note_off_c, 1, 81, 0
2, 263120, Note_on_c, 1, 83, 127
2, 263160, Note_on_c, 1, 49, 127
2, 263160, Note_off_c, 1, 51, 0
2, 263160, Note_on_c, 1, 81, 127
2, 263160, Note_off_c, 1, 83, 0
2, 263240, Note_off_c, 1, 49, 0
2, 263240, Note_on_c, 1, 51, 127
2, 263280, Note_on_c, 1, 49, 127
2, 263280, Note_off_c, 1, 51, 0
2, 263360, Note_on_c, 1, 47, 127
2, 263360, Note_off_c, 1, 49, 0
2, 263360, Note_off_c, 1, 81, 0
2, 263360, Note_on_c, 1, 83, 127
2, 263520, Note_off_c, 1, 78, 0
2, 263560, Note_off_c, 1, 47, 0
2, 263560, Note_on_c, 1, 52, 127
2, 263560, Note_on_c, 1, 76, 127
2, 263560, Note_on_c, 1, 81, 127
2, 263560, Note_off_c, 1, 83, 0
2, 263600, Note_on_c, 1, 79, 127
2, 263600, Note_off_c, 1, 81, 0
2, 263680, Note_off_c, 1, 79, 0
2, 263680, Note_on_c, 1, 81, 127
2, 263720, Note_on_c, 1, 79, 127
2, 263720, Note_off_c, 1, 81, 0
2, 263920, Note_off_c, 1, 52, 0
2, 263920, Note_on_c, 1, 54, 127
2, 264120, Note_on_c, 1, 78, 127
2, 264120, Note_off_c, 1, 79, 0
2, 264280, Note_off_c, 1, 76, 0
2, 264320, Note_off_c, 1, 54, 0
2, 264320, Note_on_c, 1, 55, 127
2, 264320, Note_on_c, 1, 76, 127
2, 264320, Note_off_c, 1, 78, 0
2, 264480, Note_off_c, 1, 76, 0
2, 264480, Note_on_c, 1, 79, 127
2, 264680, Note_on_c, 1, 54, 127
2, 264680, Note_off_c, 1, 55, 0
2, 264680, Note_on_c, 1, 62, 127
2, 264680, Note_on_c, 1, 67, 127
2, 264680, Note_on_c, 1, 71, 127
2, 264680, Note_off_c, 1, 79, 0
2, 265080, Note_off_c, 1, 62, 0
2, 265080, Note_on_c, 1, 64, 127
2, 265080, Note_off_c, 1, 67, 0
2, 265080, Note_off_c, 1, 71, 0
2, 265120, Note_on_c, 1, 67, 127
2, 265160, Note_on_c, 1, 52, 127
2, 265160, Note_off_c, 1, 54, 0
2, 265200, Note_on_c, 1, 69, 127
2, 265240, Note_off_c, 1, 52, 0
2, 265240, Note_on_c, 1, 54, 127
2, 265240, Note_on_c, 1, 73, 127
2, 265360, Note_on_c, 1, 52, 127
2, 265360, Note_off_c, 1, 54, 0
2, 265440, Note_on_c, 1, 50, 127
2, 265440, Note_off_c, 1, 52, 0
2, 265440, Note_off_c, 1, 64, 0
2, 265440, Note_on_c, 1, 66, 127
2, 265440, Note_off_c, 1, 67, 0
2, 265440, Note_off_c, 1, 69, 0
2, 265640, Note_off_c, 1, 73, 0
2, 265640, Note_on_c, 1, 74, 127
2, 265840, Note_off_c, 1, 50, 0
2, 265840, Note_on_c, 1, 57, 127
2, 265840, Note_on_c, 1, 64, 127
2, 265840, Note_off_c, 1, 66, 0
2, 265880, Note_on_c, 1, 73, 127
2, 265880, Note_off_c, 1, 74, 0
2, 265960, Note_off_c, 1, 73, 0
2, 265960, Note_on_c, 1, 74, 127
2, 266000, Note_on_c, 1, 73, 127
2, 266000, Note_off_c, 1, 74, 0
2, 266200, Note_off_c, 1, 57, 0
2, 266200, Note_on_c, 1, 59, 127
2, 266400, Note_on_c, 1, 71, 127
2, 266400, Note_off_c, 1, 73, 0
2, 266600, Note_off_c, 1, 59, 0
2, 266600, Note_on_c, 1, 61, 127
2, 266600, Note_on_c, 1, 69, 127
2, 266600, Note_off_c, 1, 71, 0
2, 266760, Note_off_c, 1, 69, 0
2, 266760, Note_on_c, 1, 76, 127
2, 266960, Note_on_c, 1, 57, 127
2, 266960, Note_off_c, 1, 64, 0
2, 266960, Note_off_c, 1, 76, 0
2, 266960, Note_on_c, 1, 81, 127
2, 267360, Note_off_c, 1, 57, 0
2, 267360, Note_on_c, 1, 59, 127
2, 267360, Note_off_c, 1, 61, 0
2, 267360, Note_on_c, 1, 62, 127
2, 267480, Note_on_c, 1, 79, 127
2, 267480, Note_off_c, 1, 81, 0
2, 267520, Note_off_c, 1, 79, 0
2, 267520, Note_on_c, 1, 81, 127
2, 267600, Note_on_c, 1, 79, 127
2, 267600, Note_off_c, 1, 81, 0
2, 267640, Note_off_c, 1, 79, 0
2, 267680, Note_on_c, 1, 81, 127
2, 267720, Note_off_c, 1, 59, 0
2, 267720, Note_on_c, 1, 61, 127
2, 267720, Note_off_c, 1, 62, 0
2, 267720, Note_on_c, 1, 64, 127
2, 267720, Note_on_c, 1, 79, 127
2, 267720, Note_off_c, 1, 81, 0
2, 267920, Note_off_c, 1, 79, 0
2, 267920, Note_on_c, 1, 81, 127
2, 268120, Note_off_c, 1, 61, 0
2, 268120, Note_on_c, 1, 62, 127
2, 268120, Note_off_c, 1, 64, 0
2, 268120, Note_on_c, 1, 78, 127
2, 268120, Note_off_c, 1, 81, 0
2, 268160, Note_on_c, 1, 76, 127
2, 268160, Note_off_c, 1, 78, 0
2, 268240, Note_off_c, 1, 76, 0
2, 268240, Note_on_c, 1, 78, 127
2, 268480, Note_on_c, 1, 50, 127
2, 268680, Note_off_c, 1, 50, 0
2, 268680, Note_on_c, 1, 52, 127
2, 268680, Note_on_c, 1, 76, 127
2, 268680, Note_off_c, 1, 78, 0
2, 268880, Note_off_c, 1, 52, 0
2, 268880, Note_on_c, 1, 54, 127
2, 268880, Note_on_c, 1, 74, 127
2, 268880, Note_off_c, 1, 76, 0
2, 269040, Note_on_c, 1, 73, 127
2, 269040, Note_off_c, 1, 74, 0
2, 269240, Note_off_c, 1, 54, 0
2, 269240, Note_on_c, 1, 55, 127
2, 269240, Note_off_c, 1, 62, 0
2, 269240, Note_on_c, 1, 71, 127
2, 269240, Note_off_c, 1, 73, 0
2, 269440, Note_off_c, 1, 71, 0
2, 269440, Note_on_c, 1, 76, 127
2, 269640, Note_off_c, 1, 55, 0
2, 269640, Note_on_c, 1, 57, 127
2, 269640, Note_on_c, 1, 74, 127
2, 269640, Note_off_c, 1, 76, 0
2, 269760, Note_on_c, 1, 73, 127
2, 269760, Note_off_c, 1, 74, 0
2, 269800, Note_off_c, 1, 73, 0
2, 269800, Note_on_c, 1, 74, 127
2, 269880, Note_on_c, 1, 73, 127
2, 269880, Note_off_c, 1, 74, 0
2, 269920, Note_off_c, 1, 73, 0
2, 269920, Note_on_c, 1, 74, 127
2, 270000, Note_on_c, 1, 45, 127
2, 270000, Note_on_c, 1, 73, 127
2, 270000, Note_off_c, 1, 74, 0
2, 270200, Note_off_c, 1, 73, 0
2, 270200, Note_on_c, 1, 74, 127
2, 270360, Note_off_c, 1, 57, 0
2, 270400, Note_off_c, 1, 45, 0
2, 270400, Note_on_c, 1, 50, 127
2, 270560, Note_on_c, 1, 69, 127
2, 270760, Note_on_c, 1, 66, 127
2, 270960, Note_off_c, 1, 50, 0
2, 270960, Note_on_c, 1, 52, 127
2, 271040, Note_off_c, 1, 52, 0
2, 271040, Note_on_c, 1, 54, 127
2, 271160, Note_on_c, 1, 52, 127
2, 271160, Note_off_c, 1, 54, 0
2, 271320, Note_off_c, 1, 52, 0
2, 271320, Note_on_c, 1, 54, 127
2, 271440, Note_off_c, 1, 54, 0
2, 271440, Note_on_c, 1, 55, 127
2, 271520, Note_on_c, 1, 46, 127
2, 271520, Note_off_c, 1, 55, 0
2, 271520, Note_off_c, 1, 66, 0
2, 271520, Note_off_c, 1, 69, 0
2, 271520, Note_on_c, 1, 73, 127
2, 271520, Note_off_c, 1, 74, 0
2, 271520, Note_on_c, 1, 78, 127
2, 271920, Note_off_c, 1, 46, 0
2, 271920, Note_on_c, 1, 47, 127
2, 271920, Note_off_c, 1, 73, 0
2, 271920, Note_on_c, 1, 74, 127
2, 272120, Note_off_c, 1, 78, 0
2, 272120, Note_on_c, 1, 79, 127
2, 272160, Note_on_c, 1, 78, 127
2, 272160, Note_off_c, 1, 79, 0
2, 272240, Note_off_c, 1, 78, 0
2, 272240, Note_on_c, 1, 79, 127
2, 272280, Note_on_c, 1, 45, 127
2, 272280, Note_off_c, 1, 47, 0
2, 272280, Note_on_c, 1, 72, 127
2, 272280, Note_off_c, 1, 74, 0
2, 272480, Note_on_c, 1, 78, 127
2, 272480, Note_off_c, 1, 79, 0
2, 272680, Note_on_c, 1, 43, 127
2, 272680, Note_off_c, 1, 45, 0
2, 272680, Note_on_c, 1, 71, 127
2, 272680, Note_off_c, 1, 72, 0
2, 272760, Note_on_c, 1, 76, 127
2, 272760, Note_off_c, 1, 78, 0
2, 272800, Note_off_c, 1, 76, 0
2, 272800, Note_on_c, 1, 78, 127
2, 272880, Note_on_c, 1, 76, 127
2, 272880, Note_off_c, 1, 78, 0
2, 273040, Note_on_c, 1, 69, 127
2, 273040, Note_off_c, 1, 71, 0
2, 273160, Note_on_c, 1, 42, 127
2, 273160, Note_off_c, 1, 43, 0
2, 273240, Note_off_c, 1, 42, 0
2, 273240, Note_on_c, 1, 43, 127
2, 273240, Note_on_c, 1, 74, 127
2, 273240, Note_off_c, 1, 76, 0
2, 273360, Note_on_c, 1, 42, 127
2, 273360, Note_off_c, 1, 43, 0
2, 273440, Note_on_c, 1, 40, 127
2, 273440, Note_off_c, 1, 42, 0
2, 273440, Note_on_c, 1, 67, 127
2, 273440, Note_off_c, 1, 69, 0
2, 273640, Note_on_c, 1, 72, 127
2, 273640, Note_off_c, 1, 74, 0
2, 273800, Note_off_c, 1, 40, 0
2, 273800, Note_on_c, 1, 49, 127
2, 273800, Note_on_c, 1, 71, 127
2, 273800, Note_off_c, 1, 72, 0
2, 274000, Note_on_c, 1, 70, 127
2, 274000, Note_off_c, 1, 71, 0
2, 274200, Note_off_c, 1, 49, 0
2, 274200, Note_on_c, 1, 50, 127
2, 274200, Note_on_c, 1, 66, 127
2, 274200, Note_off_c, 1, 67, 0
2, 274200, Note_off_c, 1, 70, 0
2, 274200, Note_on_c, 1, 71, 127
2, 274280, Note_on_c, 1, 70, 127
2, 274280, Note_off_c, 1, 71, 0
2, 274320, Note_off_c, 1, 70, 0
2, 274320, Note_on_c, 1, 71, 127
2, 274560, Note_off_c, 1, 50, 0
2, 274560, Note_on_c, 1, 52, 127
2, 274560, Note_off_c, 1, 66, 0
2, 274560, Note_on_c, 1, 67, 127
2, 274760, Note_off_c, 1, 71, 0
2, 274760, Note_on_c, 1, 73, 127
2, 274960, Note_off_c, 1, 52, 0
2, 274960, Note_on_c, 1, 54, 127
2, 274960, Note_on_c, 1, 61, 127
2, 274960, Note_off_c, 1, 67, 0
2, 274960, Note_on_c, 1, 71, 127
2, 274960, Note_off_c, 1, 73, 0
2, 275080, Note_on_c, 1, 70, 127
2, 275080, Note_off_c, 1, 71, 0
2, 275160, Note_off_c, 1, 70, 0
2, 275160, Note_on_c, 1, 71, 127
2, 275200, Note_on_c, 1, 70, 127
2, 275200, Note_off_c, 1, 71, 0
2, 275280, Note_off_c, 1, 70, 0
2, 275280, Note_on_c, 1, 71, 127
2, 275320, Note_off_c, 1, 54, 0
2, 275320, Note_on_c, 1, 56, 127
2, 275320, Note_on_c, 1, 70, 127
2, 275320, Note_off_c, 1, 71, 0
2, 275520, Note_on_c, 1, 68, 127
2, 275520, Note_off_c, 1, 70, 0
2, 275720, Note_off_c, 1, 56, 0
2, 275720, Note_on_c, 1, 58, 127
2, 275720, Note_on_c, 1, 66, 127
2, 275720, Note_off_c, 1, 68, 0
2, 275920, Note_off_c, 1, 66, 0
2, 275920, Note_on_c, 1, 73, 127
2, 276080, Note_on_c, 1, 54, 127
2, 276080, Note_off_c, 1, 61, 0
2, 276080, Note_off_c, 1, 73, 0
2, 276080, Note_on_c, 1, 78, 127
2, 276480, Note_off_c, 1, 54, 0
2, 276480, Note_on_c, 1, 56, 127
2, 276480, Note_off_c, 1, 58, 0
2, 276480, Note_on_c, 1, 59, 127
2, 276600, Note_on_c, 1, 76, 127
2, 276600, Note_off_c, 1, 78, 0
2, 276680, Note_off_c, 1, 76, 0
2, 276680, Note_on_c, 1, 78, 127
2, 276720, Note_on_c, 1, 76, 127
2, 276720, Note_off_c, 1, 78, 0
2, 276800, Note_off_c, 1, 76, 0
2, 276800, Note_on_c, 1, 78, 127
2, 276840, Note_off_c, 1, 56, 0
2, 276840, Note_on_c, 1, 58, 127
2, 276840, Note_off_c, 1, 59, 0
2, 276840, Note_on_c, 1, 61, 127
2, 276840, Note_on_c, 1, 76, 127
2, 276840, Note_off_c, 1, 78, 0
2, 277040, Note_off_c, 1, 76, 0
2, 277040, Note_on_c, 1, 78, 127
2, 277240, Note_off_c, 1, 58, 0
2, 277240, Note_on_c, 1, 59, 127
2, 277240, Note_off_c, 1, 61, 0
2, 277240, Note_on_c, 1, 76, 127
2, 277240, Note_off_c, 1, 78, 0
2, 277280, Note_off_c, 1, 76, 0
2, 277320, Note_on_c, 1, 74, 127
2, 277360, Note_off_c, 1, 74, 0
2, 277360, Note_on_c, 1, 76, 127
2, 277440, Note_off_c, 1, 59, 0
2, 277440, Note_on_c, 1, 61, 127
2, 277440, Note_on_c, 1, 74, 127
2, 277440, Note_off_c, 1, 76, 0
2, 277600, Note_on_c, 1, 59, 127
2, 277600, Note_off_c, 1, 61, 0
2, 277800, Note_on_c, 1, 57, 127
2, 277800, Note_off_c, 1, 59, 0
2, 277800, Note_on_c, 1, 73, 127
2, 277800, Note_off_c, 1, 74, 0
2, 278000, Note_on_c, 1, 55, 127
2, 278000, Note_off_c, 1, 57, 0
2, 278000, Note_on_c, 1, 71, 127
2, 278000, Note_off_c, 1, 73, 0
2, 278200, Note_on_c, 1, 54, 127
2, 278200, Note_off_c, 1, 55, 0
2, 278200, Note_on_c, 1, 70, 127
2, 278200, Note_off_c, 1, 71, 0
2, 278360, Note_off_c, 1, 54, 0
2, 278360, Note_on_c, 1, 55, 127
2, 278360, Note_off_c, 1, 70, 0
2, 278360, Note_on_c, 1, 71, 127
2, 278560, Note_on_c, 1, 52, 127
2, 278560, Note_off_c, 1, 55, 0
2, 278560, Note_off_c, 1, 71, 0
2, 278560, Note_on_c, 1, 73, 127
2, 278760, Note_off_c, 1, 52, 0
2, 278760, Note_on_c, 1, 54, 127
2, 278760, Note_on_c, 1, 70, 127
2, 278760, Note_off_c, 1, 73, 0
2, 278760, Note_on_c, 1, 74, 127
2, 278880, Note_on_c, 1, 73, 127
2, 278880, Note_off_c, 1, 74, 0
2, 278960, Note_off_c, 1, 73, 0
2, 278960, Note_on_c, 1, 74, 127
2, 279000, Note_on_c, 1, 73, 127
2, 279000, Note_off_c, 1, 74, 0
2, 279080, Note_off_c, 1, 73, 0
2, 279080, Note_on_c, 1, 74, 127
2, 279120, Note_on_c, 1, 42, 127
2, 279120, Note_on_c, 1, 73, 127
2, 279120, Note_off_c, 1, 74, 0
2, 279320, Note_on_c, 1, 71, 127
2, 279320, Note_off_c, 1, 73, 0
2, 279520, Note_off_c, 1, 42, 0
2, 279520, Note_on_c, 1, 47, 127
2, 279520, Note_off_c, 1, 54, 0
2, 279520, Note_off_c, 1, 70, 0
2, 279720, Note_on_c, 1, 66, 127
2, 279880, Note_on_c, 1, 62, 127
2, 280080, Note_off_c, 1, 47, 0
2, 280080, Note_on_c, 1, 50, 127
2, 280160, Note_off_c, 1, 50, 0
2, 280200, Note_on_c, 1, 49, 127
2, 280280, Note_on_c, 1, 47, 127
2, 280280, Note_off_c, 1, 49, 0
2, 280480, Note_off_c, 1, 47, 0
2, 280480, Note_on_c, 1, 49, 127
2, 280560, Note_off_c, 1, 49, 0
2, 280560, Note_on_c, 1, 50, 127
2, 280640, Note_on_c, 1, 44, 127
2, 280640, Note_off_c, 1, 50, 0
2, 280640, Note_off_c, 1, 62, 0
2, 280640, Note_off_c, 1, 66, 0
2, 280720, Note_on_c, 1, 69, 127
2, 280720, Note_off_c, 1, 71, 0
2, 280800, Note_off_c, 1, 69, 0
2, 280800, Note_on_c, 1, 71, 127
2, 281040, Note_on_c, 1, 64, 127
2, 281040, Note_off_c, 1, 71, 0
2, 281120, Note_on_c, 1, 71, 127
2, 281160, Note_on_c, 1, 42, 127
2, 281160, Note_off_c, 1, 44, 0
2, 281200, Note_on_c, 1, 76, 127
2, 281240, Note_off_c, 1, 42, 0
2, 281240, Note_on_c, 1, 44, 127
2, 281280, Note_on_c, 1, 42, 127
2, 281280, Note_off_c, 1, 44, 0
2, 281400, Note_on_c, 1, 40, 127
2, 281400, Note_off_c, 1, 42, 0
2, 281600, Note_on_c, 1, 74, 127
2, 281600, Note_off_c, 1, 76, 0
2, 281800, Note_off_c, 1, 40, 0
2, 281800, Note_on_c, 1, 45, 127
2, 281800, Note_off_c, 1, 71, 0
2, 281840, Note_off_c, 1, 74, 0
2, 281880, Note_on_c, 1, 73, 127
2, 281920, Note_off_c, 1, 73, 0
2, 281920, Note_on_c, 1, 74, 127
2, 282000, Note_on_c, 1, 73, 127
2, 282000, Note_off_c, 1, 74, 0
2, 282160, Note_off_c, 1, 45, 0
2, 282160, Note_on_c, 1, 47, 127
2, 282360, Note_on_c, 1, 71, 127
2, 282360, Note_off_c, 1, 73, 0
2, 282560, Note_off_c, 1, 47, 0
2, 282560, Note_on_c, 1, 49, 127
2, 282560, Note_on_c, 1, 69, 127
2, 282560, Note_off_c, 1, 71, 0
2, 282760, Note_off_c, 1, 69, 0
2, 282760, Note_on_c, 1, 73, 127
2, 282920, Note_off_c, 1, 49, 0
2, 282920, Note_on_c, 1, 50, 127
2, 282920, Note_on_c, 1, 57, 127
2, 282920, Note_off_c, 1, 64, 0
2, 282920, Note_on_c, 1, 66, 127
2, 282920, Note_off_c, 1, 73, 0
2, 283320, Note_on_c, 1, 49, 127
2, 283320, Note_off_c, 1, 50, 0
2, 283320, Note_off_c, 1, 57, 0
2, 283320, Note_on_c, 1, 62, 127
2, 283320, Note_off_c, 1, 66, 0
2, 283400, Note_on_c, 1, 64, 127
2, 283440, Note_on_c, 1, 47, 127
2, 283440, Note_off_c, 1, 49, 0
2, 283480, Note_on_c, 1, 68, 127
2, 283520, Note_off_c, 1, 47, 0
2, 283520, Note_on_c, 1, 49, 127
2, 283560, Note_on_c, 1, 47, 127
2, 283560, Note_off_c, 1, 49, 0
2, 283680, Note_on_c, 1, 45, 127
2, 283680, Note_off_c, 1, 47, 0
2, 283680, Note_on_c, 1, 61, 127
2, 283680, Note_off_c, 1, 62, 0
2, 283680, Note_off_c, 1, 64, 0
2, 283880, Note_off_c, 1, 68, 0
2, 283880, Note_on_c, 1, 69, 127
2, 284080, Note_off_c, 1, 45, 0
2, 284080, Note_on_c, 1, 52, 127
2, 284080, Note_on_c, 1, 59, 127
2, 284080, Note_off_c, 1, 61, 0
2, 284120, Note_off_c, 1, 69, 0
2, 284160, Note_on_c, 1, 68, 127
2, 284200, Note_off_c, 1, 68, 0
2, 284200, Note_on_c, 1, 69, 127
2, 284280, Note_on_c, 1, 68, 127
2, 284280, Note_off_c, 1, 69, 0
2, 284440, Note_off_c, 1, 52, 0
2, 284440, Note_on_c, 1, 54, 127
2, 284640, Note_on_c, 1, 66, 127
2, 284640, Note_off_c, 1, 68, 0
2, 284840, Note_off_c, 1, 54, 0
2, 284840, Note_on_c, 1, 56, 127
2, 284840, Note_on_c, 1, 64, 127
2, 284840, Note_off_c, 1, 66, 0
2, 285200, Note_on_c, 1, 52, 127
2, 285200, Note_off_c, 1, 56, 0
2, 285200, Note_off_c, 1, 59, 0
2, 285200, Note_off_c, 1, 64, 0
2, 285200, Note_on_c, 1, 71, 127
2, 285400, Note_off_c, 1, 71, 0
2, 285400, Note_on_c, 1, 73, 127
2, 285520, Note_off_c, 1, 73, 0
2, 285520, Note_on_c, 1, 74, 127
2, 285600, Note_off_c, 1, 52, 0
2, 285600, Note_on_c, 1, 57, 127
2, 285720, Note_on_c, 1, 73, 127
2, 285720, Note_off_c, 1, 74, 0
2, 285800, Note_off_c, 1, 73, 0
2, 285800, Note_on_c, 1, 74, 127
2, 285840, Note_on_c, 1, 73, 127
2, 285840, Note_off_c, 1, 74, 0
2, 285920, Note_off_c, 1, 73, 0
2, 285920, Note_on_c, 1, 74, 127
2, 285960, Note_off_c, 1, 57, 0
2, 285960, Note_on_c, 1, 59, 127
2, 285960, Note_on_c, 1, 73, 127
2, 285960, Note_off_c, 1, 74, 0
2, 286160, Note_on_c, 1, 71, 127
2, 286160, Note_off_c, 1, 73, 0
2, 286360, Note_off_c, 1, 59, 0
2, 286360, Note_on_c, 1, 61, 127
2, 286560, Note_off_c, 1, 71, 0
2, 286560, Note_on_c, 1, 76, 127
2, 286720, Note_on_c, 1, 59, 127
2, 286920, Note_off_c, 1, 76, 0
2, 286920, Note_on_c, 1, 78, 127
2, 287120, Note_on_c, 1, 57, 127
2, 287120, Note_off_c, 1, 59, 0
2, 287120, Note_off_c, 1, 61, 0
2, 287120, Note_off_c, 1, 78, 0
2, 287120, Note_on_c, 1, 79, 127
2, 287320, Note_on_c, 1, 76, 127
2, 287320, Note_off_c, 1, 79, 0
2, 287480, Note_on_c, 1, 45, 127
2, 287480, Note_off_c, 1, 57, 0
2, 287480, Note_on_c, 1, 73, 127
2, 287480, Note_off_c, 1, 76, 0
2, 287480, Note_on_c, 1, 81, 127
2, 287880, Note_off_c, 1, 45, 0
2, 287880, Note_on_c, 1, 47, 127
2, 287880, Note_off_c, 1, 73, 0
2, 287880, Note_on_c, 1, 74, 127
2, 288000, Note_on_c, 1, 79, 127
2, 288000, Note_off_c, 1, 81, 0
2, 288080, Note_off_c, 1, 79, 0
2, 288080, Note_on_c, 1, 81, 127
2, 288120, Note_on_c, 1, 79, 127
2, 288120, Note_off_c, 1, 81, 0
2, 288200, Note_off_c, 1, 79, 0
2, 288200, Note_on_c, 1, 81, 127
2, 288240, Note_off_c, 1, 47, 0
2, 288240, Note_on_c, 1, 49, 127
2, 288240, Note_off_c, 1, 74, 0
2, 288240, Note_on_c, 1, 76, 127
2, 288240, Note_on_c, 1, 79, 127
2, 288240, Note_off_c, 1, 81, 0
2, 288440, Note_off_c, 1, 79, 0
2, 288440, Note_on_c, 1, 81, 127
2, 288640, Note_off_c, 1, 49, 0
2, 288640, Note_on_c, 1, 50, 127
2, 288640, Note_on_c, 1, 69, 127
2, 288640, Note_on_c, 1, 79, 127
2, 288640, Note_off_c, 1, 81, 0
2, 288800, Note_off_c, 1, 76, 0
2, 288840, Note_on_c, 1, 78, 127
2, 288840, Note_off_c, 1, 79, 0
2, 289000, Note_on_c, 1, 47, 127
2, 289000, Note_off_c, 1, 50, 0
2, 289000, Note_off_c, 1, 69, 0
2, 289000, Note_on_c, 1, 74, 127
2, 289200, Note_off_c, 1, 78, 0
2, 289200, Note_on_c, 1, 80, 127
2, 289400, Note_off_c, 1, 47, 0
2, 289400, Note_on_c, 1, 49, 127
2, 289400, Note_on_c, 1, 73, 127
2, 289400, Note_off_c, 1, 74, 0
2, 289400, Note_off_c, 1, 80, 0
2, 289400, Note_on_c, 1, 81, 127
2, 289600, Note_on_c, 1, 71, 127
2, 289600, Note_off_c, 1, 73, 0
2, 289600, Note_on_c, 1, 74, 127
2, 289600, Note_off_c, 1, 81, 0
2, 289760, Note_off_c, 1, 49, 0
2, 289760, Note_on_c, 1, 50, 127
2, 289760, Note_on_c, 1, 69, 127
2, 289760, Note_off_c, 1, 71, 0
2, 289760, Note_on_c, 1, 73, 127
2, 289760, Note_off_c, 1, 74, 0
2, 289920, Note_off_c, 1, 69, 0
2, 289920, Note_on_c, 1, 71, 127
2, 289920, Note_off_c, 1, 73, 0
2, 290120, Note_off_c, 1, 50, 0
2, 290120, Note_on_c, 1, 52, 127
2, 290120, Note_on_c, 1, 68, 127
2, 290120, Note_off_c, 1, 71, 0
2, 290120, Note_on_c, 1, 73, 127
2, 290240, Note_on_c, 1, 71, 127
2, 290240, Note_off_c, 1, 73, 0
2, 290320, Note_off_c, 1, 71, 0
2, 290320, Note_on_c, 1, 73, 127
2, 290360, Note_on_c, 1, 71, 127
2, 290360, Note_off_c, 1, 73, 0
2, 290440, Note_off_c, 1, 71, 0
2, 290440, Note_on_c, 1, 73, 127
2, 290480, Note_on_c, 1, 40, 127
2, 290480, Note_on_c, 1, 71, 127
2, 290480, Note_off_c, 1, 73, 0
2, 290680, Note_on_c, 1, 69, 127
2, 290680, Note_off_c, 1, 71, 0
2, 290880, Note_off_c, 1, 40, 0
2, 290880, Note_on_c, 1, 45, 127
2, 290880, Note_off_c, 1, 52, 0
2, 290880, Note_off_c, 1, 68, 0
2, 291280, Note_on_c, 1, 33, 127
2, 291640, Note_on_c, 1, 40, 127
2, 291640, Note_off_c, 1, 45, 0
2, 292040, Note_off_c, 1, 40, 0
2, 292040, Note_on_c, 1, 45, 127
2, 292040, Note_on_c, 1, 61, 127
2, 292040, Note_on_c, 1, 64, 127
2, 292760, Note_off_c, 1, 45, 0
2, 292800, Note_off_c, 1, 33, 0
2, 292920, Note_off_c, 1, 69, 0
2, 292960, Note_off_c, 1, 61, 0
2, 292960, Note_off_c, 1, 64, 0
2, 292960, Note_on_c, 1, 69, 127
2, 293160, Note_on_c, 1, 45, 127
2, 293360, Note_on_c, 1, 64, 127
2, 293560, Note_on_c, 1, 61, 127
2, 293640, Note_off_c, 1, 45, 0
2, 293640, Note_on_c, 1, 57, 127
2, 293720, Note_on_c, 1, 56, 127
2, 293720, Note_off_c, 1, 57, 0
2, 293840, Note_on_c, 1, 54, 127
2, 293840, Note_off_c, 1, 56, 0
2, 293920, Note_on_c, 1, 52, 127
2, 293920, Note_off_c, 1, 54, 0
2, 294120, Note_off_c, 1, 52, 0
2, 294120, Note_on_c, 1, 54, 127
2, 294200, Note_on_c, 1, 50, 127
2, 294200, Note_off_c, 1, 54, 0
2, 294320, Note_on_c, 1, 49, 127
2, 294320, Note_off_c, 1, 50, 0
2, 294320, Note_off_c, 1, 61, 0
2, 294320, Note_off_c, 1, 69, 0
2, 294480, Note_off_c, 1, 49, 0
2, 294480, Note_on_c, 1, 50, 127
2, 294600, Note_off_c, 1, 50, 0
2, 294600, Note_on_c, 1, 52, 127
2, 294680, Note_on_c, 1, 50, 127
2, 294680, Note_off_c, 1, 52, 0
2, 294880, Note_off_c, 1, 50, 0
2, 294880, Note_on_c, 1, 52, 127
2, 294880, Note_off_c, 1, 64, 0
2, 294880, Note_on_c, 1, 66, 127
2, 294920, Note_on_c, 1, 64, 127
2, 294920, Note_off_c, 1, 66, 0
2, 294960, Note_on_c, 1, 49, 127
2, 294960, Note_off_c, 1, 52, 0
2, 295000, Note_off_c, 1, 64, 0
2, 295000, Note_on_c, 1, 66, 127
2, 295080, Note_on_c, 1, 47, 127
2, 295080, Note_off_c, 1, 49, 0
2, 295240, Note_off_c, 1, 47, 0
2, 295240, Note_on_c, 1, 49, 127
2, 295240, Note_off_c, 1, 66, 0
2, 295240, Note_on_c, 1, 67, 127
2, 295360, Note_on_c, 1, 45, 127
2, 295360, Note_off_c, 1, 49, 0
2, 295440, Note_off_c, 1, 45, 0
2, 295440, Note_on_c, 1, 50, 127
2, 295520, Note_off_c, 1, 67, 0
2, 295560, Note_on_c, 1, 66, 127
2, 295600, Note_off_c, 1, 66, 0
2, 295600, Note_on_c, 1, 67, 127
2, 295640, Note_on_c, 1, 66, 127
2, 295640, Note_off_c, 1, 67, 0
2, 295720, Note_on_c, 1, 62, 127
2, 295720, Note_off_c, 1, 66, 0
2, 295800, Note_off_c, 1, 62, 0
2, 295800, Note_on_c, 1, 64, 127
2, 295840, Note_on_c, 1, 49, 127
2, 295840, Note_off_c, 1, 50, 0
2, 295880, Note_off_c, 1, 64, 0
2, 295880, Note_on_c, 1, 66, 127
2, 295920, Note_off_c, 1, 66, 0
2, 295920, Note_on_c, 1, 68, 127
2, 296000, Note_off_c, 1, 68, 0
2, 296000, Note_on_c, 1, 69, 127
2, 296080, Note_off_c, 1, 69, 0
2, 296080, Note_on_c, 1, 71, 127
2, 296120, Note_off_c, 1, 71, 0
2, 296160, Note_on_c, 1, 73, 127
2, 296200, Note_on_c, 1, 47, 127
2, 296200, Note_off_c, 1, 49, 0
2, 296200, Note_off_c, 1, 73, 0
2, 296200, Note_on_c, 1, 74, 127
2, 296400, Note_on_c, 1, 71, 127
2, 296600, Note_off_c, 1, 47, 0
2, 296600, Note_on_c, 1, 52, 127
2, 296600, Note_on_c, 1, 68, 127
2, 296600, Note_off_c, 1, 71, 0
2, 296760, Note_off_c, 1, 74, 0
2, 296760, Note_on_c, 1, 76, 127
2, 296960, Note_on_c, 1, 45, 127
2, 296960, Note_off_c, 1, 52, 0
2, 296960, Note_off_c, 1, 68, 0
2, 296960, Note_on_c, 1, 74, 127
2, 296960, Note_off_c, 1, 76, 0
2, 297040, Note_on_c, 1, 73, 127
2, 297040, Note_off_c, 1, 74, 0
2, 297080, Note_off_c, 1, 73, 0
2, 297080, Note_on_c, 1, 74, 127
2, 297160, Note_on_c, 1, 73, 127
2, 297160, Note_off_c, 1, 74, 0
2, 297240, Note_on_c, 1, 71, 127
2, 297360, Note_on_c, 1, 38, 127
2, 297360, Note_off_c, 1, 45, 0
2, 297360, Note_on_c, 1, 69, 127
2, 297360, Note_off_c, 1, 71, 0
2, 297520, Note_on_c, 1, 71, 127
2, 297520, Note_off_c, 1, 73, 0
2, 297600, Note_off_c, 1, 69, 0
2, 297720, Note_off_c, 1, 38, 0
2, 297720, Note_on_c, 1, 40, 127
2, 297920, Note_on_c, 1, 68, 127
2, 298120, Note_on_c, 1, 64, 127
2, 298200, Note_off_c, 1, 40, 0
2, 298200, Note_on_c, 1, 52, 127
2, 298280, Note_on_c, 1, 50, 127
2, 298280, Note_off_c, 1, 52, 0
2, 298400, Note_on_c, 1, 49, 127
2, 298400, Note_off_c, 1, 50, 0
2, 298480, Note_on_c, 1, 47, 127
2, 298480, Note_off_c, 1, 49, 0
2, 298680, Note_off_c, 1, 47, 0
2, 298680, Note_on_c, 1, 49, 127
2, 298760, Note_on_c, 1, 45, 127
2, 298760, Note_off_c, 1, 49, 0
2, 298880, Note_on_c, 1, 44, 127
2, 298880, Note_off_c, 1, 45, 0
2, 298880, Note_off_c, 1, 68, 0
2, 298880, Note_off_c, 1, 71, 0
2, 298960, Note_on_c, 1, 71, 127
2, 299040, Note_off_c, 1, 44, 0
2, 299040, Note_on_c, 1, 45, 127
2, 299040, Note_on_c, 1, 76, 127
2, 299160, Note_off_c, 1, 45, 0
2, 299160, Note_on_c, 1, 47, 127
2, 299240, Note_on_c, 1, 45, 127
2, 299240, Note_off_c, 1, 47, 0
2, 299240, Note_off_c, 1, 64, 0
2, 299320, Note_on_c, 1, 74, 127
2, 299320, Note_off_c, 1, 76, 0
2, 299360, Note_on_c, 1, 73, 127
2, 299360, Note_off_c, 1, 74, 0
2, 299440, Note_off_c, 1, 45, 0
2, 299440, Note_on_c, 1, 47, 127
2, 299440, Note_off_c, 1, 73, 0
2, 299440, Note_on_c, 1, 74, 127
2, 299480, Note_off_c, 1, 74, 0
2, 299480, Note_on_c, 1, 76, 127
2, 299520, Note_on_c, 1, 44, 127
2, 299520, Note_off_c, 1, 47, 0
2, 299560, Note_on_c, 1, 74, 127
2, 299560, Note_off_c, 1, 76, 0
2, 299640, Note_on_c, 1, 42, 127
2, 299640, Note_off_c, 1, 44, 0
2, 299640, Note_off_c, 1, 74, 0
2, 299640, Note_on_c, 1, 76, 127
2, 299680, Note_on_c, 1, 74, 127
2, 299680, Note_off_c, 1, 76, 0
2, 299760, Note_on_c, 1, 73, 127
2, 299760, Note_off_c, 1, 74, 0
2, 299800, Note_off_c, 1, 42, 0
2, 299800, Note_on_c, 1, 44, 127
2, 299800, Note_off_c, 1, 73, 0
2, 299800, Note_on_c, 1, 74, 127
2, 299880, Note_off_c, 1, 74, 0
2, 299880, Note_on_c, 1, 76, 127
2, 299920, Note_on_c, 1, 40, 127
2, 299920, Note_off_c, 1, 44, 0
2, 300000, Note_off_c, 1, 40, 0
2, 300000, Note_on_c, 1, 45, 127
2, 300000, Note_off_c, 1, 71, 0
2, 300000, Note_on_c, 1, 74, 127
2, 300000, Note_off_c, 1, 76, 0
2, 300200, Note_on_c, 1, 73, 127
2, 300200, Note_off_c, 1, 74, 0
2, 300400, Note_off_c, 1, 45, 0
2, 300400, Note_on_c, 1, 47, 127
2, 300400, Note_on_c, 1, 71, 127
2, 300400, Note_off_c, 1, 73, 0
2, 300560, Note_on_c, 1, 69, 127
2, 300560, Note_off_c, 1, 71, 0
2, 300760, Note_off_c, 1, 47, 0
2, 300760, Note_on_c, 1, 49, 127
2, 300760, Note_on_c, 1, 68, 127
2, 300760, Note_off_c, 1, 69, 0
2, 300960, Note_on_c, 1, 66, 127
2, 300960, Note_off_c, 1, 68, 0
2, 301160, Note_on_c, 1, 42, 127
2, 301160, Note_off_c, 1, 49, 0
2, 301160, Note_off_c, 1, 66, 0
2, 301160, Note_on_c, 1, 78, 127
2, 301520, Note_off_c, 1, 42, 0
2, 301520, Note_on_c, 1, 44, 127
2, 301600, Note_on_c, 1, 76, 127
2, 301600, Note_off_c, 1, 78, 0
2, 301640, Note_on_c, 1, 75, 127
2, 301640, Note_off_c, 1, 76, 0
2, 301720, Note_off_c, 1, 75, 0
2, 301720, Note_on_c, 1, 76, 127
2, 301760, Note_off_c, 1, 76, 0
2, 301760, Note_on_c, 1, 78, 127
2, 301840, Note_on_c, 1, 76, 127
2, 301840, Note_off_c, 1, 78, 0
2, 301920, Note_off_c, 1, 44, 0
2, 301920, Note_on_c, 1, 46, 127
2, 301920, Note_off_c, 1, 76, 0
2, 301920, Note_on_c, 1, 78, 127
2, 301960, Note_on_c, 1, 76, 127
2, 301960, Note_off_c, 1, 78, 0
2, 302040, Note_on_c, 1, 75, 127
2, 302040, Note_off_c, 1, 76, 0
2, 302080, Note_off_c, 1, 75, 0
2, 302080, Note_on_c, 1, 76, 127
2, 302160, Note_off_c, 1, 76, 0
2, 302160, Note_on_c, 1, 78, 127
2, 302280, Note_off_c, 1, 46, 0
2, 302280, Note_on_c, 1, 47, 127
2, 302280, Note_on_c, 1, 76, 127
2, 302280, Note_off_c, 1, 78, 0
2, 302480, Note_on_c, 1, 75, 127
2, 302480, Note_off_c, 1, 76, 0
2, 302640, Note_off_c, 1, 47, 0
2, 302640, Note_on_c, 1, 49, 127
2, 302640, Note_on_c, 1, 73, 127
2, 302640, Note_off_c, 1, 75, 0
2, 302800, Note_on_c, 1, 71, 127
2, 302800, Note_off_c, 1, 73, 0
2, 303000, Note_off_c, 1, 49, 0
2, 303000, Note_on_c, 1, 51, 127
2, 303000, Note_on_c, 1, 69, 127
2, 303000, Note_off_c, 1, 71, 0
2, 303200, Note_on_c, 1, 68, 127
2, 303200, Note_off_c, 1, 69, 0
2, 303360, Note_on_c, 1, 44, 127
2, 303360, Note_off_c, 1, 51, 0
2, 303360, Note_off_c, 1, 68, 0
2, 303360, Note_on_c, 1, 83, 127
2, 303720, Note_off_c, 1, 44, 0
2, 303720, Note_on_c, 1, 49, 127
2, 303800, Note_on_c, 1, 81, 127
2, 303800, Note_off_c, 1, 83, 0
2, 303840, Note_on_c, 1, 80, 127
2, 303840, Note_off_c, 1, 81, 0
2, 303920, Note_off_c, 1, 80, 0
2, 303920, Note_on_c, 1, 81, 127
2, 303960, Note_off_c, 1, 81, 0
2, 303960, Note_on_c, 1, 83, 127
2, 304040, Note_on_c, 1, 81, 127
2, 304040, Note_off_c, 1, 83, 0
2, 304080, Note_off_c, 1, 49, 0
2, 304080, Note_on_c, 1, 51, 127
2, 304080, Note_off_c, 1, 81, 0
2, 304080, Note_on_c, 1, 83, 127
2, 304120, Note_on_c, 1, 81, 127
2, 304120, Note_off_c, 1, 83, 0
2, 304200, Note_on_c, 1, 80, 127
2, 304200, Note_off_c, 1, 81, 0
2, 304240, Note_off_c, 1, 80, 0
2, 304240, Note_on_c, 1, 81, 127
2, 304320, Note_off_c, 1, 81, 0
2, 304320, Note_on_c, 1, 83, 127
2, 304440, Note_off_c, 1, 51, 0
2, 304440, Note_on_c, 1, 52, 127
2, 304440, Note_on_c, 1, 81, 127
2, 304440, Note_off_c, 1, 83, 0
2, 304480, Note_on_c, 1, 80, 127
2, 304480, Note_off_c, 1, 81, 0
2, 304520, Note_off_c, 1, 80, 0
2, 304520, Note_on_c, 1, 81, 127
2, 304600, Note_on_c, 1, 80, 127
2, 304600, Note_off_c, 1, 81, 0
2, 304640, Note_on_c, 1, 78, 127
2, 304640, Note_off_c, 1, 80, 0
2, 304800, Note_off_c, 1, 52, 0
2, 304800, Note_on_c, 1, 54, 127
2, 304800, Note_off_c, 1, 78, 0
2, 304800, Note_on_c, 1, 80, 127
2, 304960, Note_off_c, 1, 80, 0
2, 304960, Note_on_c, 1, 81, 127
2, 305160, Note_off_c, 1, 54, 0
2, 305160, Note_on_c, 1, 56, 127
2, 305160, Note_off_c, 1, 81, 0
2, 305160, Note_on_c, 1, 83, 127
2, 305360, Note_on_c, 1, 80, 127
2, 305360, Note_off_c, 1, 83, 0
2, 305520, Note_on_c, 1, 52, 127
2, 305520, Note_off_c, 1, 56, 0
2, 305520, Note_off_c, 1, 80, 0
2, 305520, Note_on_c, 1, 81, 127
2, 305680, Note_off_c, 1, 81, 0
2, 305680, Note_on_c, 1, 83, 127
2, 305880, Note_off_c, 1, 52, 0
2, 305880, Note_on_c, 1, 57, 127
2, 305880, Note_on_c, 1, 74, 127
2, 305880, Note_off_c, 1, 83, 0
2, 305920, Note_on_c, 1, 73, 127
2, 305960, Note_off_c, 1, 74, 0
2, 306000, Note_off_c, 1, 73, 0
2, 306000, Note_on_c, 1, 74, 127
2, 306040, Note_on_c, 1, 73, 127
2, 306080, Note_off_c, 1, 74, 0
2, 306120, Note_on_c, 1, 71, 127
2, 306120, Note_off_c, 1, 73, 0
2, 306280, Note_on_c, 1, 54, 127
2, 306280, Note_off_c, 1, 57, 0
2, 306280, Note_off_c, 1, 71, 0
2, 306280, Note_on_c, 1, 73, 127
2, 306440, Note_off_c, 1, 73, 0
2, 306440, Note_on_c, 1, 81, 127
2, 306640, Note_off_c, 1, 54, 0
2, 306640, Note_on_c, 1, 59, 127
2, 306640, Note_on_c, 1, 76, 127
2, 306640, Note_off_c, 1, 81, 0
2, 306720, Note_on_c, 1, 75, 127
2, 306720, Note_off_c, 1, 76, 0
2, 306760, Note_off_c, 1, 75, 0
2, 306760, Note_on_c, 1, 76, 127
2, 306800, Note_on_c, 1, 75, 127
2, 306840, Note_off_c, 1, 76, 0
2, 306880, Note_on_c, 1, 73, 127
2, 306880, Note_off_c, 1, 75, 0
2, 307040, Note_off_c, 1, 59, 0
2, 307040, Note_on_c, 1, 61, 127
2, 307040, Note_off_c, 1, 73, 0
2, 307040, Note_on_c, 1, 75, 127
2, 307200, Note_off_c, 1, 75, 0
2, 307200, Note_on_c, 1, 76, 127
2, 307400, Note_off_c, 1, 61, 0
2, 307400, Note_on_c, 1, 63, 127
2, 307400, Note_off_c, 1, 76, 0
2, 307400, Note_on_c, 1, 78, 127
2, 307600, Note_on_c, 1, 69, 127
2, 307800, Note_off_c, 1, 63, 0
2, 307800, Note_on_c, 1, 64, 127
2, 307800, Note_on_c, 1, 68, 127
2, 307800, Note_off_c, 1, 69, 0
2, 307960, Note_on_c, 1, 57, 127
2, 307960, Note_off_c, 1, 64, 0
2, 307960, Note_on_c, 1, 76, 127
2, 307960, Note_off_c, 1, 78, 0
2, 308160, Note_off_c, 1, 57, 0
2, 308160, Note_on_c, 1, 59, 127
2, 308160, Note_on_c, 1, 66, 127
2, 308160, Note_off_c, 1, 68, 0
2, 308360, Note_on_c, 1, 69, 127
2, 308360, Note_off_c, 1, 76, 0
2, 308560, Note_on_c, 1, 47, 127
2, 308560, Note_off_c, 1, 59, 0
2, 308560, Note_on_c, 1, 76, 127
2, 308720, Note_on_c, 1, 75, 127
2, 308720, Note_off_c, 1, 76, 0
2, 308920, Note_off_c, 1, 47, 0
2, 308920, Note_on_c, 1, 52, 127
2, 308920, Note_off_c, 1, 66, 0
2, 308920, Note_off_c, 1, 69, 0
2, 308920, Note_off_c, 1, 75, 0
2, 308920, Note_on_c, 1, 76, 127
2, 309120, Note_on_c, 1, 71, 127
2, 309320, Note_on_c, 1, 68, 127
2, 309480, Note_on_c, 1, 63, 127
2, 309680, Note_off_c, 1, 63, 0
2, 309680, Note_on_c, 1, 64, 127
2, 309880, Note_on_c, 1, 47, 127
2, 310080, Note_on_c, 1, 40, 127
2, 310080, Note_off_c, 1, 47, 0
2, 310800, Note_off_c, 1, 68, 0
2, 310840, Note_off_c, 1, 52, 0
2, 310840, Note_off_c, 1, 71, 0
2, 310840, Note_off_c, 1, 76, 0
2, 310880, Note_on_c, 1, 71, 127
2, 311000, Note_off_c, 1, 64, 0
2, 311160, Note_off_c, 1, 71, 0
2, 311200, Note_on_c, 1, 71, 127
2, 311400, Note_on_c, 1, 68, 127
2, 311600, Note_on_c, 1, 64, 127
2, 311680, Note_off_c, 1, 40, 0
2, 311680, Note_on_c, 1, 56, 127
2, 311760, Note_off_c, 1, 56, 0
2, 311800, Note_on_c, 1, 54, 127
2, 311880, Note_on_c, 1, 52, 127
2, 311880, Note_off_c, 1, 54, 0
2, 311960, Note_on_c, 1, 50, 127
2, 311960, Note_off_c, 1, 52, 0
2, 312160, Note_off_c, 1, 50, 0
2, 312160, Note_on_c, 1, 52, 127
2, 312240, Note_on_c, 1, 49, 127
2, 312240, Note_off_c, 1, 52, 0
2, 312360, Note_off_c, 1, 49, 0
2, 312360, Note_on_c, 1, 50, 127
2, 312360, Note_off_c, 1, 71, 0
2, 312520, Note_off_c, 1, 50, 0
2, 312560, Note_on_c, 1, 52, 127
2, 312640, Note_off_c, 1, 52, 0
2, 312640, Note_on_c, 1, 54, 127
2, 312720, Note_on_c, 1, 52, 127
2, 312720, Note_off_c, 1, 54, 0
2, 312720, Note_off_c, 1, 64, 0
2, 312720, Note_on_c, 1, 66, 127
2, 312920, Note_off_c, 1, 52, 0
2, 312920, Note_on_c, 1, 54, 127
2, 312920, Note_off_c, 1, 68, 0
2, 312920, Note_on_c, 1, 69, 127
2, 313000, Note_on_c, 1, 50, 127
2, 313000, Note_off_c, 1, 54, 0
2, 313000, Note_on_c, 1, 68, 127
2, 313000, Note_off_c, 1, 69, 0
2, 313040, Note_off_c, 1, 68, 0
2, 313040, Note_on_c, 1, 69, 127
2, 313120, Note_on_c, 1, 49, 127
2, 313120, Note_off_c, 1, 50, 0
2, 313280, Note_off_c, 1, 66, 0
2, 313320, Note_off_c, 1, 49, 0
2, 313320, Note_on_c, 1, 50, 127
2, 313320, Note_on_c, 1, 68, 127
2, 313320, Note_off_c, 1, 69, 0
2, 313320, Note_on_c, 1, 71, 127
2, 313400, Note_on_c, 1, 47, 127
2, 313400, Note_off_c, 1, 50, 0
2, 313480, Note_on_c, 1, 45, 127
2, 313480, Note_off_c, 1, 47, 0
2, 313480, Note_off_c, 1, 68, 0
2, 313480, Note_on_c, 1, 69, 127
2, 313600, Note_off_c, 1, 71, 0
2, 313600, Note_on_c, 1, 73, 127
2, 313680, Note_off_c, 1, 69, 0
2, 313680, Note_on_c, 1, 71, 127
2, 313680, Note_off_c, 1, 73, 0
2, 313760, Note_on_c, 1, 69, 127
2, 313760, Note_off_c, 1, 71, 0
2, 313880, Note_off_c, 1, 45, 0
2, 313880, Note_on_c, 1, 49, 127
2, 313880, Note_off_c, 1, 69, 0
2, 313880, Note_on_c, 1, 71, 127
2, 313960, Note_off_c, 1, 71, 0
2, 313960, Note_on_c, 1, 73, 127
2, 314080, Note_off_c, 1, 73, 0
2, 314080, Note_on_c, 1, 74, 127
2, 314160, Note_off_c, 1, 74, 0
2, 314160, Note_on_c, 1, 76, 127
2, 314240, Note_off_c, 1, 49, 0
2, 314240, Note_on_c, 1, 50, 127
2, 314240, Note_off_c, 1, 76, 0
2, 314240, Note_on_c, 1, 78, 127
2, 314440, Note_on_c, 1, 74, 127
2, 314640, Note_off_c, 1, 50, 0
2, 314640, Note_on_c, 1, 55, 127
2, 314640, Note_on_c, 1, 71, 127
2, 314640, Note_off_c, 1, 74, 0
2, 314800, Note_off_c, 1, 78, 0
2, 314840, Note_on_c, 1, 79, 127
2, 315000, Note_on_c, 1, 49, 127
2, 315000, Note_off_c, 1, 55, 0
2, 315000, Note_on_c, 1, 78, 127
2, 315000, Note_off_c, 1, 79, 0
2, 315200, Note_on_c, 1, 76, 127
2, 315200, Note_off_c, 1, 78, 0
2, 315400, Note_off_c, 1, 49, 0
2, 315400, Note_on_c, 1, 54, 127
2, 315400, Note_on_c, 1, 70, 127
2, 315400, Note_off_c, 1, 71, 0
2, 315400, Note_on_c, 1, 74, 127
2, 315400, Note_off_c, 1, 76, 0
2, 315600, Note_on_c, 1, 73, 127
2, 315600, Note_off_c, 1, 74, 0
2, 315760, Note_on_c, 1, 47, 127
2, 315760, Note_off_c, 1, 54, 0
2, 315760, Note_off_c, 1, 70, 0
2, 315960, Note_on_c, 1, 71, 127
2, 316160, Note_on_c, 1, 66, 127
2, 316240, Note_off_c, 1, 47, 0
2, 316240, Note_on_c, 1, 59, 127
2, 316320, Note_off_c, 1, 73, 0
2, 316360, Note_on_c, 1, 57, 127
2, 316360, Note_off_c, 1, 59, 0
2, 316360, Note_on_c, 1, 74, 127
2, 316440, Note_on_c, 1, 55, 127
2, 316440, Note_off_c, 1, 57, 0
2, 316520, Note_on_c, 1, 54, 127
2, 316520, Note_off_c, 1, 55, 0
2, 316720, Note_off_c, 1, 54, 0
2, 316720, Note_on_c, 1, 55, 127
2, 316800, Note_on_c, 1, 52, 127
2, 316800, Note_off_c, 1, 55, 0
2, 316920, Note_on_c, 1, 50, 127
2, 316920, Note_off_c, 1, 52, 0
2, 316920, Note_off_c, 1, 66, 0
2, 316920, Note_off_c, 1, 74, 0
2, 317000, Note_on_c, 1, 78, 127
2, 317080, Note_on_c, 1, 83, 127
2, 317120, Note_off_c, 1, 50, 0
2, 317120, Note_on_c, 1, 52, 127
2, 317200, Note_off_c, 1, 52, 0
2, 317200, Note_on_c, 1, 54, 127
2, 317280, Note_on_c, 1, 52, 127
2, 317280, Note_off_c, 1, 54, 0
2, 317280, Note_off_c, 1, 71, 0
2, 317360, Note_on_c, 1, 81, 127
2, 317360, Note_off_c, 1, 83, 0
2, 317400, Note_on_c, 1, 80, 127
2, 317400, Note_off_c, 1, 81, 0
2, 317480, Note_off_c, 1, 52, 0
2, 317480, Note_on_c, 1, 54, 127
2, 317480, Note_off_c, 1, 80, 0
2, 317480, Note_on_c, 1, 81, 127
2, 317560, Note_on_c, 1, 51, 127
2, 317560, Note_off_c, 1, 54, 0
2, 317560, Note_off_c, 1, 81, 0
2, 317560, Note_on_c, 1, 83, 127
2, 317600, Note_on_c, 1, 81, 127
2, 317600, Note_off_c, 1, 83, 0
2, 317680, Note_on_c, 1, 49, 127
2, 317680, Note_off_c, 1, 51, 0
2, 317680, Note_off_c, 1, 81, 0
2, 317680, Note_on_c, 1, 83, 127
2, 317720, Note_on_c, 1, 81, 127
2, 317720, Note_off_c, 1, 83, 0
2, 317800, Note_on_c, 1, 80, 127
2, 317800, Note_off_c, 1, 81, 0
2, 317840, Note_off_c, 1, 49, 0
2, 317840, Note_off_c, 1, 80, 0
2, 317880, Note_on_c, 1, 51, 127
2, 317880, Note_on_c, 1, 81, 127
2, 317920, Note_off_c, 1, 81, 0
2, 317920, Note_on_c, 1, 83, 127
2, 317960, Note_on_c, 1, 47, 127
2, 317960, Note_off_c, 1, 51, 0
2, 318040, Note_off_c, 1, 47, 0
2, 318040, Note_on_c, 1, 52, 127
2, 318040, Note_off_c, 1, 78, 0
2, 318040, Note_on_c, 1, 81, 127
2, 318040, Note_off_c, 1, 83, 0
2, 318240, Note_on_c, 1, 79, 127
2, 318240, Note_off_c, 1, 81, 0
2, 318440, Note_off_c, 1, 52, 0
2, 318440, Note_on_c, 1, 54, 127
2, 318440, Note_on_c, 1, 78, 127
2, 318440, Note_off_c, 1, 79, 0
2, 318600, Note_off_c, 1, 78, 0
2, 318640, Note_on_c, 1, 76, 127
2, 318800, Note_off_c, 1, 54, 0
2, 318800, Note_on_c, 1, 55, 127
2, 318800, Note_on_c, 1, 74, 127
2, 318800, Note_off_c, 1, 76, 0
2, 319000, Note_on_c, 1, 73, 127
2, 319000, Note_off_c, 1, 74, 0
2, 319200, Note_on_c, 1, 54, 127
2, 319200, Note_off_c, 1, 55, 0
2, 319200, Note_on_c, 1, 71, 127
2, 319200, Note_off_c, 1, 73, 0
2, 319360, Note_off_c, 1, 71, 0
2, 319400, Note_on_c, 1, 73, 127
2, 319560, Note_on_c, 1, 52, 127
2, 319560, Note_off_c, 1, 54, 0
2, 319560, Note_off_c, 1, 73, 0
2, 319560, Note_on_c, 1, 74, 127
2, 319680, Note_off_c, 1, 52, 0
2, 319680, Note_on_c, 1, 54, 127
2, 319760, Note_on_c, 1, 52, 127
2, 319760, Note_off_c, 1, 54, 0
2, 319760, Note_off_c, 1, 74, 0
2, 319760, Note_on_c, 1, 78, 127
2, 319960, Note_on_c, 1, 50, 127
2, 319960, Note_off_c, 1, 52, 0
2, 319960, Note_on_c, 1, 76, 127
2, 319960, Note_off_c, 1, 78, 0
2, 320120, Note_off_c, 1, 76, 0
2, 320160, Note_on_c, 1, 74, 127
2, 320320, Note_off_c, 1, 50, 0
2, 320320, Note_on_c, 1, 57, 127
2, 320400, Note_on_c, 1, 73, 127
2, 320400, Note_off_c, 1, 74, 0
2, 320440, Note_off_c, 1, 73, 0
2, 320440, Note_on_c, 1, 74, 127
2, 320520, Note_on_c, 1, 73, 127
2, 320520, Note_off_c, 1, 74, 0
2, 320560, Note_on_c, 1, 71, 127
2, 320560, Note_off_c, 1, 73, 0
2, 320720, Note_on_c, 1, 61, 127
2, 320720, Note_on_c, 1, 69, 127
2, 320720, Note_off_c, 1, 71, 0
2, 320920, Note_off_c, 1, 69, 0
2, 320920, Note_on_c, 1, 71, 127
2, 321080, Note_off_c, 1, 61, 0
2, 321080, Note_on_c, 1, 64, 127
2, 321080, Note_off_c, 1, 71, 0
2, 321080, Note_on_c, 1, 73, 127
2, 321280, Note_off_c, 1, 73, 0
2, 321280, Note_on_c, 1, 74, 127
2, 321480, Note_on_c, 1, 61, 127
2, 321480, Note_off_c, 1, 64, 0
2, 321480, Note_off_c, 1, 74, 0
2, 321480, Note_on_c, 1, 76, 127
2, 321680, Note_off_c, 1, 76, 0
2, 321680, Note_on_c, 1, 78, 127
2, 321840, Note_off_c, 1, 57, 0
2, 321840, Note_on_c, 1, 59, 127
2, 321840, Note_off_c, 1, 61, 0
2, 321840, Note_on_c, 1, 62, 127
2, 321840, Note_off_c, 1, 78, 0
2, 321840, Note_on_c, 1, 79, 127
2, 322040, Note_off_c, 1, 79, 0
2, 322040, Note_on_c, 1, 83, 127
2, 322240, Note_off_c, 1, 59, 0
2, 322240, Note_on_c, 1, 61, 127
2, 322240, Note_off_c, 1, 62, 0
2, 322240, Note_on_c, 1, 64, 127
2, 322240, Note_on_c, 1, 81, 127
2, 322240, Note_off_c, 1, 83, 0
2, 322440, Note_on_c, 1, 79, 127
2, 322440, Note_off_c, 1, 81, 0
2, 322600, Note_off_c, 1, 61, 0
2, 322600, Note_on_c, 1, 62, 127
2, 322600, Note_off_c, 1, 64, 0
2, 322600, Note_on_c, 1, 78, 127
2, 322600, Note_off_c, 1, 79, 0
2, 322800, Note_off_c, 1, 78, 0
2, 322800, Note_on_c, 1, 79, 127
2, 323000, Note_on_c, 1, 50, 127
2, 323000, Note_off_c, 1, 62, 0
2, 323000, Note_on_c, 1, 78, 127
2, 323000, Note_off_c, 1, 79, 0
2, 323200, Note_off_c, 1, 50, 0
2, 323200, Note_on_c, 1, 52, 127
2, 323200, Note_on_c, 1, 76, 127
2, 323200, Note_off_c, 1, 78, 0
2, 323360, Note_off_c, 1, 52, 0
2, 323360, Note_on_c, 1, 54, 127
2, 323360, Note_on_c, 1, 74, 127
2, 323360, Note_off_c, 1, 76, 0
2, 323560, Note_on_c, 1, 73, 127
2, 323560, Note_off_c, 1, 74, 0
2, 323760, Note_off_c, 1, 54, 0
2, 323760, Note_on_c, 1, 55, 127
2, 323760, Note_on_c, 1, 71, 127
2, 323760, Note_off_c, 1, 73, 0
2, 323960, Note_off_c, 1, 71, 0
2, 323960, Note_on_c, 1, 76, 127
2, 324120, Note_off_c, 1, 55, 0
2, 324120, Note_on_c, 1, 57, 127
2, 324120, Note_on_c, 1, 74, 127
2, 324120, Note_off_c, 1, 76, 0
2, 324240, Note_off_c, 1, 74, 0
2, 324280, Note_on_c, 1, 73, 127
2, 324320, Note_off_c, 1, 73, 0
2, 324320, Note_on_c, 1, 74, 127
2, 324400, Note_on_c, 1, 73, 127
2, 324400, Note_off_c, 1, 74, 0
2, 324440, Note_off_c, 1, 73, 0
2, 324440, Note_on_c, 1, 74, 127
2, 324520, Note_on_c, 1, 45, 127
2, 324520, Note_off_c, 1, 57, 0
2, 324520, Note_on_c, 1, 73, 127
2, 324520, Note_off_c, 1, 74, 0
2, 324720, Note_off_c, 1, 73, 0
2, 324720, Note_on_c, 1, 74, 127
2, 324880, Note_on_c, 1, 38, 127
2, 324880, Note_off_c, 1, 45, 0
2, 325080, Note_on_c, 1, 69, 127
2, 325280, Note_on_c, 1, 66, 127
2, 325360, Note_off_c, 1, 38, 0
2, 325360, Note_on_c, 1, 54, 127
2, 325480, Note_on_c, 1, 52, 127
2, 325480, Note_off_c, 1, 54, 0
2, 325560, Note_on_c, 1, 50, 127
2, 325560, Note_off_c, 1, 52, 0
2, 325640, Note_on_c, 1, 49, 127
2, 325640, Note_off_c, 1, 50, 0
2, 325840, Note_off_c, 1, 49, 0
2, 325840, Note_on_c, 1, 50, 127
2, 325920, Note_on_c, 1, 47, 127
2, 325920, Note_off_c, 1, 50, 0
2, 326040, Note_on_c, 1, 46, 127
2, 326040, Note_off_c, 1, 47, 0
2, 326040, Note_off_c, 1, 66, 0
2, 326040, Note_off_c, 1, 69, 0
2, 326040, Note_off_c, 1, 74, 0
2, 326040, Note_on_c, 1, 78, 127
2, 326240, Note_off_c, 1, 46, 0
2, 326240, Note_on_c, 1, 47, 127
2, 326240, Note_off_c, 1, 78, 0
2, 326240, Note_on_c, 1, 79, 127
2, 326320, Note_off_c, 1, 47, 0
2, 326320, Note_on_c, 1, 49, 127
2, 326320, Note_off_c, 1, 79, 0
2, 326320, Note_on_c, 1, 81, 127
2, 326400, Note_on_c, 1, 47, 127
2, 326400, Note_off_c, 1, 49, 0
2, 326520, Note_off_c, 1, 81, 0
2, 326560, Note_on_c, 1, 79, 127
2, 326600, Note_off_c, 1, 47, 0
2, 326600, Note_on_c, 1, 49, 127
2, 326600, Note_off_c, 1, 79, 0
2, 326600, Note_on_c, 1, 81, 127
2, 326680, Note_on_c, 1, 45, 127
2, 326680, Note_off_c, 1, 49, 0
2, 326680, Note_on_c, 1, 79, 127
2, 326680, Note_off_c, 1, 81, 0
2, 326720, Note_off_c, 1, 79, 0
2, 326720, Note_on_c, 1, 81, 127
2, 326800, Note_on_c, 1, 43, 127
2, 326800, Note_off_c, 1, 45, 0
2, 326800, Note_on_c, 1, 79, 127
2, 326800, Note_off_c, 1, 81, 0
2, 327000, Note_off_c, 1, 43, 0
2, 327000, Note_on_c, 1, 45, 127
2, 327000, Note_on_c, 1, 78, 127
2, 327000, Note_off_c, 1, 79, 0
2, 327080, Note_on_c, 1, 42, 127
2, 327080, Note_off_c, 1, 45, 0
2, 327160, Note_off_c, 1, 42, 0
2, 327160, Note_on_c, 1, 43, 127
2, 327360, Note_on_c, 1, 76, 127
2, 327360, Note_off_c, 1, 78, 0
2, 327560, Note_on_c, 1, 42, 127
2, 327560, Note_off_c, 1, 43, 0
2, 327560, Note_on_c, 1, 74, 127
2, 327560, Note_off_c, 1, 76, 0
2, 327640, Note_off_c, 1, 42, 0
2, 327640, Note_on_c, 1, 43, 127
2, 327760, Note_on_c, 1, 42, 127
2, 327760, Note_off_c, 1, 43, 0
2, 327760, Note_on_c, 1, 73, 127
2, 327760, Note_off_c, 1, 74, 0
2, 327920, Note_on_c, 1, 40, 127
2, 327920, Note_off_c, 1, 42, 0
2, 327920, Note_off_c, 1, 73, 0
2, 327920, Note_on_c, 1, 74, 127
2, 328120, Note_on_c, 1, 73, 127
2, 328120, Note_off_c, 1, 74, 0
2, 328320, Note_off_c, 1, 40, 0
2, 328320, Note_on_c, 1, 49, 127
2, 328320, Note_on_c, 1, 71, 127
2, 328320, Note_off_c, 1, 73, 0
2, 328520, Note_on_c, 1, 70, 127
2, 328520, Note_off_c, 1, 71, 0
2, 328680, Note_off_c, 1, 49, 0
2, 328680, Note_on_c, 1, 50, 127
2, 328680, Note_off_c, 1, 70, 0
2, 328680, Note_on_c, 1, 71, 127
2, 328880, Note_on_c, 1, 70, 127
2, 328880, Note_off_c, 1, 71, 0
2, 329080, Note_off_c, 1, 50, 0
2, 329080, Note_on_c, 1, 52, 127
2, 329080, Note_off_c, 1, 70, 0
2, 329080, Note_on_c, 1, 71, 127
2, 329280, Note_off_c, 1, 71, 0
2, 329280, Note_on_c, 1, 73, 127
2, 329440, Note_off_c, 1, 52, 0
2, 329440, Note_on_c, 1, 54, 127
2, 329440, Note_on_c, 1, 70, 127
2, 329440, Note_off_c, 1, 73, 0
2, 329640, Note_on_c, 1, 68, 127
2, 329640, Note_off_c, 1, 70, 0
2, 329840, Note_on_c, 1, 58, 127
2, 329840, Note_on_c, 1, 66, 127
2, 329840, Note_off_c, 1, 68, 0
2, 330040, Note_off_c, 1, 66, 0
2, 330040, Note_on_c, 1, 68, 127
2, 330200, Note_off_c, 1, 58, 0
2, 330200, Note_on_c, 1, 61, 127
2, 330200, Note_off_c, 1, 68, 0
2, 330200, Note_on_c, 1, 70, 127
2, 330400, Note_off_c, 1, 70, 0
2, 330400, Note_on_c, 1, 71, 127
2, 330600, Note_on_c, 1, 58, 127
2, 330600, Note_off_c, 1, 61, 0
2, 330600, Note_off_c, 1, 71, 0
2, 330600, Note_on_c, 1, 73, 127
2, 330800, Note_off_c, 1, 73, 0
2, 330800, Note_on_c, 1, 74, 127
2, 330960, Note_off_c, 1, 54, 0
2, 330960, Note_on_c, 1, 56, 127
2, 330960, Note_off_c, 1, 58, 0
2, 330960, Note_on_c, 1, 59, 127
2, 330960, Note_off_c, 1, 74, 0
2, 330960, Note_on_c, 1, 76, 127
2, 331160, Note_off_c, 1, 76, 0
2, 331160, Note_on_c, 1, 79, 127
2, 331360, Note_off_c, 1, 56, 0
2, 331360, Note_on_c, 1, 58, 127
2, 331360, Note_off_c, 1, 59, 0
2, 331360, Note_on_c, 1, 61, 127
2, 331360, Note_on_c, 1, 78, 127
2, 331360, Note_off_c, 1, 79, 0
2, 331560, Note_on_c, 1, 76, 127
2, 331560, Note_off_c, 1, 78, 0
2, 331720, Note_off_c, 1, 58, 0
2, 331720, Note_on_c, 1, 59, 127
2, 331720, Note_off_c, 1, 61, 0
2, 331720, Note_on_c, 1, 74, 127
2, 331720, Note_off_c, 1, 76, 0
2, 331920, Note_off_c, 1, 59, 0
2, 331920, Note_on_c, 1, 61, 127
2, 331920, Note_off_c, 1, 74, 0
2, 331920, Note_on_c, 1, 76, 127
2, 332120, Note_on_c, 1, 59, 127
2, 332120, Note_off_c, 1, 61, 0
2, 332120, Note_on_c, 1, 74, 127
2, 332120, Note_off_c, 1, 76, 0
2, 332320, Note_on_c, 1, 57, 127
2, 332320, Note_off_c, 1, 59, 0
2, 332320, Note_on_c, 1, 73, 127
2, 332320, Note_off_c, 1, 74, 0
2, 332480, Note_on_c, 1, 55, 127
2, 332480, Note_off_c, 1, 57, 0
2, 332480, Note_on_c, 1, 71, 127
2, 332480, Note_off_c, 1, 73, 0
2, 332680, Note_on_c, 1, 54, 127
2, 332680, Note_off_c, 1, 55, 0
2, 332680, Note_on_c, 1, 70, 127
2, 332680, Note_off_c, 1, 71, 0
2, 332880, Note_off_c, 1, 54, 0
2, 332880, Note_on_c, 1, 55, 127
2, 332880, Note_off_c, 1, 70, 0
2, 332880, Note_on_c, 1, 71, 127
2, 333080, Note_on_c, 1, 52, 127
2, 333080, Note_off_c, 1, 55, 0
2, 333080, Note_off_c, 1, 71, 0
2, 333080, Note_on_c, 1, 73, 127
2, 333240, Note_off_c, 1, 52, 0
2, 333240, Note_on_c, 1, 54, 127
2, 333240, Note_on_c, 1, 70, 127
2, 333240, Note_off_c, 1, 73, 0
2, 333240, Note_on_c, 1, 74, 127
2, 333320, Note_on_c, 1, 73, 127
2, 333320, Note_off_c, 1, 74, 0
2, 333360, Note_off_c, 1, 73, 0
2, 333360, Note_on_c, 1, 74, 127
2, 333440, Note_on_c, 1, 73, 127
2, 333440, Note_off_c, 1, 74, 0
2, 333520, Note_off_c, 1, 73, 0
2, 333520, Note_on_c, 1, 74, 127
2, 333560, Note_on_c, 1, 73, 127
2, 333560, Note_off_c, 1, 74, 0
2, 333640, Note_on_c, 1, 42, 127
2, 333640, Note_off_c, 1, 54, 0
2, 333800, Note_off_c, 1, 70, 0
2, 333840, Note_on_c, 1, 71, 127
2, 333840, Note_off_c, 1, 73, 0
2, 334000, Note_on_c, 1, 35, 127
2, 334000, Note_off_c, 1, 42, 0
2, 334200, Note_on_c, 1, 66, 127
2, 334400, Note_on_c, 1, 62, 127
2, 334480, Note_off_c, 1, 35, 0
2, 334480, Note_on_c, 1, 52, 127
2, 334600, Note_on_c, 1, 50, 127
2, 334600, Note_off_c, 1, 52, 0
2, 334680, Note_on_c, 1, 49, 127
2, 334680, Note_off_c, 1, 50, 0
2, 334760, Note_on_c, 1, 47, 127
2, 334760, Note_off_c, 1, 49, 0
2, 334960, Note_off_c, 1, 47, 0
2, 334960, Note_on_c, 1, 49, 127
2, 335040, Note_on_c, 1, 45, 127
2, 335040, Note_off_c, 1, 49, 0
2, 335160, Note_on_c, 1, 44, 127
2, 335160, Note_off_c, 1, 45, 0
2, 335160, Note_off_c, 1, 62, 0
2, 335160, Note_off_c, 1, 66, 0
2, 335360, Note_off_c, 1, 44, 0
2, 335360, Note_on_c, 1, 45, 127
2, 335440, Note_off_c, 1, 45, 0
2, 335440, Note_on_c, 1, 47, 127
2, 335520, Note_on_c, 1, 45, 127
2, 335520, Note_off_c, 1, 47, 0
2, 335520, Note_off_c, 1, 71, 0
2, 335520, Note_on_c, 1, 73, 127
2, 335600, Note_off_c, 1, 73, 0
2, 335600, Note_on_c, 1, 74, 127
2, 335640, Note_off_c, 1, 74, 0
2, 335640, Note_on_c, 1, 76, 127
2, 335720, Note_off_c, 1, 45, 0
2, 335720, Note_on_c, 1, 47, 127
2, 335800, Note_on_c, 1, 44, 127
2, 335800, Note_off_c, 1, 47, 0
2, 335920, Note_on_c, 1, 42, 127
2, 335920, Note_off_c, 1, 44, 0
2, 336080, Note_off_c, 1, 42, 0
2, 336080, Note_on_c, 1, 44, 127
2, 336080, Note_on_c, 1, 74, 127
2, 336080, Note_off_c, 1, 76, 0
2, 336160, Note_on_c, 1, 40, 127
2, 336160, Note_off_c, 1, 44, 0
2, 336240, Note_off_c, 1, 40, 0
2, 336240, Note_on_c, 1, 45, 127
2, 336240, Note_on_c, 1, 73, 127
2, 336240, Note_off_c, 1, 74, 0
2, 336440, Note_off_c, 1, 73, 0
2, 336440, Note_on_c, 1, 74, 127
2, 336640, Note_off_c, 1, 45, 0
2, 336640, Note_on_c, 1, 47, 127
2, 336640, Note_on_c, 1, 73, 127
2, 336640, Note_off_c, 1, 74, 0
2, 336800, Note_off_c, 1, 73, 0
2, 336840, Note_on_c, 1, 71, 127
2, 337000, Note_off_c, 1, 47, 0
2, 337000, Note_on_c, 1, 49, 127
2, 337000, Note_on_c, 1, 69, 127
2, 337000, Note_off_c, 1, 71, 0
2, 337200, Note_on_c, 1, 68, 127
2, 337200, Note_off_c, 1, 69, 0
2, 337400, Note_off_c, 1, 49, 0
2, 337400, Note_on_c, 1, 50, 127
2, 337400, Note_on_c, 1, 66, 127
2, 337400, Note_off_c, 1, 68, 0
2, 337560, Note_on_c, 1, 49, 127
2, 337560, Note_off_c, 1, 50, 0
2, 337560, Note_off_c, 1, 66, 0
2, 337560, Note_on_c, 1, 68, 127
2, 337720, Note_on_c, 1, 47, 127
2, 337720, Note_off_c, 1, 49, 0
2, 337720, Note_off_c, 1, 68, 0
2, 337720, Note_on_c, 1, 69, 127
2, 337840, Note_off_c, 1, 47, 0
2, 337840, Note_on_c, 1, 49, 127
2, 337920, Note_on_c, 1, 47, 127
2, 337920, Note_off_c, 1, 49, 0
2, 337920, Note_off_c, 1, 69, 0
2, 337920, Note_on_c, 1, 73, 127
2, 338120, Note_on_c, 1, 45, 127
2, 338120, Note_off_c, 1, 47, 0
2, 338120, Note_on_c, 1, 71, 127
2, 338120, Note_off_c, 1, 73, 0
2, 338280, Note_off_c, 1, 71, 0
2, 338320, Note_on_c, 1, 69, 127
2, 338480, Note_off_c, 1, 45, 0
2, 338480, Note_on_c, 1, 52, 127
2, 338480, Note_on_c, 1, 68, 127
2, 338480, Note_off_c, 1, 69, 0
2, 338680, Note_on_c, 1, 66, 127
2, 338680, Note_off_c, 1, 68, 0
2, 338880, Note_on_c, 1, 56, 127
2, 338880, Note_on_c, 1, 64, 127
2, 338880, Note_off_c, 1, 66, 0
2, 339040, Note_off_c, 1, 64, 0
2, 339080, Note_on_c, 1, 66, 127
2, 339240, Note_off_c, 1, 56, 0
2, 339240, Note_on_c, 1, 59, 127
2, 339240, Note_off_c, 1, 66, 0
2, 339240, Note_on_c, 1, 68, 127
2, 339440, Note_off_c, 1, 68, 0
2, 339440, Note_on_c, 1, 69, 127
2, 339640, Note_off_c, 1, 69, 0
2, 339640, Note_on_c, 1, 71, 127
2, 339800, Note_off_c, 1, 71, 0
2, 339840, Note_on_c, 1, 73, 127
2, 340000, Note_off_c, 1, 52, 0
2, 340000, Note_on_c, 1, 57, 127
2, 340000, Note_off_c, 1, 59, 0
2, 340000, Note_off_c, 1, 73, 0
2, 340000, Note_on_c, 1, 74, 127
2, 340200, Note_on_c, 1, 73, 127
2, 340200, Note_off_c, 1, 74, 0
2, 340400, Note_off_c, 1, 57, 0
2, 340400, Note_on_c, 1, 59, 127
2, 340400, Note_on_c, 1, 71, 127
2, 340400, Note_off_c, 1, 73, 0
2, 340440, Note_off_c, 1, 71, 0
2, 340440, Note_on_c, 1, 73, 127
2, 340520, Note_on_c, 1, 71, 127
2, 340520, Note_off_c, 1, 73, 0
2, 340560, Note_off_c, 1, 71, 0
2, 340600, Note_on_c, 1, 69, 127
2, 340760, Note_off_c, 1, 59, 0
2, 340760, Note_on_c, 1, 61, 127
2, 340760, Note_off_c, 1, 69, 0
2, 340760, Note_on_c, 1, 76, 127
2, 340960, Note_on_c, 1, 74, 127
2, 340960, Note_off_c, 1, 76, 0
2, 341160, Note_on_c, 1, 64, 127
2, 341160, Note_on_c, 1, 73, 127
2, 341160, Note_off_c, 1, 74, 0
2, 341320, Note_off_c, 1, 73, 0
2, 341360, Note_on_c, 1, 74, 127
2, 341520, Note_off_c, 1, 64, 0
2, 341520, Note_on_c, 1, 69, 127
2, 341520, Note_off_c, 1, 74, 0
2, 341520, Note_on_c, 1, 76, 127
2, 341720, Note_off_c, 1, 76, 0
2, 341720, Note_on_c, 1, 78, 127
2, 341920, Note_on_c, 1, 57, 127
2, 341920, Note_off_c, 1, 69, 0
2, 341920, Note_off_c, 1, 78, 0
2, 341920, Note_on_c, 1, 79, 127
2, 342080, Note_off_c, 1, 79, 0
2, 342120, Note_on_c, 1, 78, 127
2, 342280, Note_off_c, 1, 57, 0
2, 342280, Note_on_c, 1, 59, 127
2, 342280, Note_off_c, 1, 61, 0
2, 342280, Note_on_c, 1, 62, 127
2, 342280, Note_off_c, 1, 78, 0
2, 342280, Note_on_c, 1, 79, 127
2, 342480, Note_off_c, 1, 79, 0
2, 342480, Note_on_c, 1, 83, 127
2, 342680, Note_off_c, 1, 59, 0
2, 342680, Note_on_c, 1, 61, 127
2, 342680, Note_off_c, 1, 62, 0
2, 342680, Note_on_c, 1, 64, 127
2, 342680, Note_on_c, 1, 81, 127
2, 342680, Note_off_c, 1, 83, 0
2, 342840, Note_off_c, 1, 81, 0
2, 342880, Note_on_c, 1, 79, 127
2, 343040, Note_off_c, 1, 61, 0
2, 343040, Note_on_c, 1, 62, 127
2, 343040, Note_off_c, 1, 64, 0
2, 343040, Note_on_c, 1, 78, 127
2, 343040, Note_off_c, 1, 79, 0
2, 343240, Note_on_c, 1, 76, 127
2, 343240, Note_off_c, 1, 78, 0
2, 343440, Note_on_c, 1, 61, 127
2, 343440, Note_off_c, 1, 62, 0
2, 343440, Note_off_c, 1, 76, 0
2, 343440, Note_on_c, 1, 78, 127
2, 343600, Note_on_c, 1, 59, 127
2, 343600, Note_off_c, 1, 61, 0
2, 343600, Note_off_c, 1, 78, 0
2, 343600, Note_on_c, 1, 80, 127
2, 343760, Note_off_c, 1, 59, 0
2, 343760, Note_on_c, 1, 61, 127
2, 343760, Note_off_c, 1, 80, 0
2, 343760, Note_on_c, 1, 81, 127
2, 343960, Note_on_c, 1, 74, 127
2, 343960, Note_off_c, 1, 81, 0
2, 344160, Note_off_c, 1, 61, 0
2, 344160, Note_on_c, 1, 62, 127
2, 344160, Note_on_c, 1, 73, 127
2, 344160, Note_off_c, 1, 74, 0
2, 344320, Note_off_c, 1, 73, 0
2, 344360, Note_on_c, 1, 71, 127
2, 344520, Note_off_c, 1, 62, 0
2, 344520, Note_on_c, 1, 64, 127
2, 344520, Note_on_c, 1, 68, 127
2, 344520, Note_off_c, 1, 71, 0
2, 344520, Note_on_c, 1, 73, 127
2, 344640, Note_on_c, 1, 71, 127
2, 344640, Note_off_c, 1, 73, 0
2, 344720, Note_off_c, 1, 71, 0
2, 344720, Note_on_c, 1, 73, 127
2, 344800, Note_on_c, 1, 71, 127
2, 344800, Note_off_c, 1, 73, 0
2, 344840, Note_off_c, 1, 71, 0
2, 344840, Note_on_c, 1, 73, 127
2, 344920, Note_on_c, 1, 52, 127
2, 344920, Note_off_c, 1, 64, 0
2, 344920, Note_on_c, 1, 71, 127
2, 344920, Note_off_c, 1, 73, 0
2, 344960, Note_off_c, 1, 71, 0
2, 344960, Note_on_c, 1, 73, 127
2, 345040, Note_on_c, 1, 71, 127
2, 345040, Note_off_c, 1, 73, 0
2, 345080, Note_off_c, 1, 68, 0
2, 345080, Note_on_c, 1, 69, 127
2, 345080, Note_off_c, 1, 71, 0
2, 345280, Note_on_c, 1, 45, 127
2, 345280, Note_off_c, 1, 52, 0
2, 345480, Note_on_c, 1, 64, 127
2, 345680, Note_on_c, 1, 61, 127
2, 345840, Note_on_c, 1, 56, 127
2, 346040, Note_off_c, 1, 56, 0
2, 346040, Note_on_c, 1, 57, 127
2, 346240, Note_on_c, 1, 40, 127
2, 346240, Note_off_c, 1, 45, 0
2, 346440, Note_on_c, 1, 33, 127
2, 346440, Note_off_c, 1, 40, 0
2, 347160, Note_off_c, 1, 61, 0
2, 347200, Note_off_c, 1, 64, 0
2, 347200, Note_off_c, 1, 69, 0
2, 347360, Note_off_c, 1, 57, 0
2, 347400, Note_on_c, 1, 69, 127
2, 347560, Note_off_c, 1, 33, 0
2, 347560, Note_on_c, 1, 57, 127
2, 347760, Note_on_c, 1, 64, 127
2, 347960, Note_on_c, 1, 61, 127
2, 348120, Note_off_c, 1, 57, 0
2, 348160, Note_on_c, 1, 45, 127
2, 348320, Note_off_c, 1, 45, 0
2, 348320, Note_on_c, 1, 47, 127
2, 348520, Note_off_c, 1, 47, 0
2, 348520, Note_on_c, 1, 50, 127
2, 348720, Note_on_c, 1, 49, 127
2, 348720, Note_off_c, 1, 50, 0
2, 348720, Note_off_c, 1, 61, 0
2, 348720, Note_off_c, 1, 69, 0
2, 348880, Note_off_c, 1, 49, 0
2, 348920, Note_on_c, 1, 52, 127
2, 349080, Note_on_c, 1, 50, 127
2, 349080, Note_off_c, 1, 52, 0
2, 349200, Note_off_c, 1, 64, 0
2, 349200, Note_on_c, 1, 66, 127
2, 349280, Note_on_c, 1, 49, 127
2, 349280, Note_off_c, 1, 50, 0
2, 349280, Note_on_c, 1, 64, 127
2, 349280, Note_off_c, 1, 66, 0
2, 349360, Note_off_c, 1, 64, 0
2, 349360, Note_on_c, 1, 66, 127
2, 349480, Note_on_c, 1, 47, 127
2, 349480, Note_off_c, 1, 49, 0
2, 349640, Note_on_c, 1, 45, 127
2, 349640, Note_off_c, 1, 47, 0
2, 349640, Note_off_c, 1, 66, 0
2, 349640, Note_on_c, 1, 67, 127
2, 349800, Note_off_c, 1, 45, 0
2, 349800, Note_on_c, 1, 50, 127
2, 349920, Note_on_c, 1, 66, 127
2, 349920, Note_off_c, 1, 67, 0
2, 350000, Note_off_c, 1, 50, 0
2, 350000, Note_on_c, 1, 52, 127
2, 350000, Note_off_c, 1, 66, 0
2, 350000, Note_on_c, 1, 67, 127
2, 350080, Note_on_c, 1, 66, 127
2, 350080, Note_off_c, 1, 67, 0
2, 350120, Note_off_c, 1, 66, 0
2, 350120, Note_on_c, 1, 67, 127
2, 350200, Note_on_c, 1, 50, 127
2, 350200, Note_off_c, 1, 52, 0
2, 350200, Note_on_c, 1, 66, 127
2, 350200, Note_off_c, 1, 67, 0
2, 350360, Note_on_c, 1, 49, 127
2, 350360, Note_off_c, 1, 50, 0
2, 350360, Note_off_c, 1, 66, 0
2, 350360, Note_on_c, 1, 69, 127
2, 350520, Note_on_c, 1, 47, 127
2, 350520, Note_off_c, 1, 49, 0
2, 350520, Note_off_c, 1, 69, 0
2, 350520, Note_on_c, 1, 74, 127
2, 350720, Note_on_c, 1, 45, 127
2, 350720, Note_off_c, 1, 47, 0
2, 350720, Note_on_c, 1, 73, 127
2, 350920, Note_on_c, 1, 44, 127
2, 350920, Note_off_c, 1, 45, 0
2, 350920, Note_on_c, 1, 71, 127
2, 350920, Note_off_c, 1, 73, 0
2, 351080, Note_off_c, 1, 44, 0
2, 351080, Note_off_c, 1, 74, 0
2, 351120, Note_on_c, 1, 40, 127
2, 351120, Note_on_c, 1, 76, 127
2, 351280, Note_off_c, 1, 40, 0
2, 351280, Note_on_c, 1, 45, 127
2, 351280, Note_on_c, 1, 74, 127
2, 351280, Note_off_c, 1, 76, 0
2, 351400, Note_on_c, 1, 73, 127
2, 351400, Note_off_c, 1, 74, 0
2, 351480, Note_on_c, 1, 40, 127
2, 351480, Note_off_c, 1, 45, 0
2, 351480, Note_off_c, 1, 73, 0
2, 351480, Note_on_c, 1, 74, 127
2, 351560, Note_on_c, 1, 73, 127
2, 351560, Note_off_c, 1, 74, 0
2, 351600, Note_off_c, 1, 73, 0
2, 351600, Note_on_c, 1, 74, 127
2, 351680, Note_on_c, 1, 37, 127
2, 351680, Note_off_c, 1, 40, 0
2, 351680, Note_on_c, 1, 69, 127
2, 351680, Note_off_c, 1, 71, 0
2, 351680, Note_on_c, 1, 73, 127
2, 351680, Note_off_c, 1, 74, 0
2, 351840, Note_on_c, 1, 33, 127
2, 351840, Note_off_c, 1, 37, 0
2, 351840, Note_off_c, 1, 69, 0
2, 351840, Note_on_c, 1, 71, 127
2, 351840, Note_off_c, 1, 73, 0
2, 352000, Note_off_c, 1, 33, 0
2, 352000, Note_on_c, 1, 40, 127
2, 352200, Note_on_c, 1, 68, 127
2, 352400, Note_on_c, 1, 64, 127
2, 352560, Note_off_c, 1, 40, 0
2, 352600, Note_on_c, 1, 52, 127
2, 352760, Note_off_c, 1, 52, 0
2, 352760, Note_on_c, 1, 54, 127
2, 352960, Note_off_c, 1, 54, 0
2, 352960, Note_on_c, 1, 57, 127
2, 353160, Note_on_c, 1, 56, 127
2, 353160, Note_off_c, 1, 57, 0
2, 353160, Note_off_c, 1, 68, 0
2, 353160, Note_off_c, 1, 71, 0
2, 353240, Note_on_c, 1, 71, 127
2, 353320, Note_off_c, 1, 56, 0
2, 353320, Note_on_c, 1, 76, 127
2, 353360, Note_on_c, 1, 59, 127
2, 353520, Note_on_c, 1, 57, 127
2, 353520, Note_off_c, 1, 59, 0
2, 353520, Note_off_c, 1, 64, 0
2, 353600, Note_on_c, 1, 74, 127
2, 353600, Note_off_c, 1, 76, 0
2, 353640, Note_on_c, 1, 73, 127
2, 353640, Note_off_c, 1, 74, 0
2, 353720, Note_on_c, 1, 56, 127
2, 353720, Note_off_c, 1, 57, 0
2, 353720, Note_off_c, 1, 73, 0
2, 353720, Note_on_c, 1, 74, 127
2, 353800, Note_off_c, 1, 74, 0
2, 353800, Note_on_c, 1, 76, 127
2, 353840, Note_on_c, 1, 74, 127
2, 353840, Note_off_c, 1, 76, 0
2, 353920, Note_on_c, 1, 54, 127
2, 353920, Note_off_c, 1, 56, 0
2, 353920, Note_off_c, 1, 74, 0
2, 353920, Note_on_c, 1, 76, 127
2, 353960, Note_on_c, 1, 74, 127
2, 353960, Note_off_c, 1, 76, 0
2, 354040, Note_on_c, 1, 73, 127
2, 354040, Note_off_c, 1, 74, 0
2, 354080, Note_on_c, 1, 52, 127
2, 354080, Note_off_c, 1, 54, 0
2, 354080, Note_off_c, 1, 73, 0
2, 354080, Note_on_c, 1, 74, 127
2, 354160, Note_off_c, 1, 74, 0
2, 354160, Note_on_c, 1, 76, 127
2, 354280, Note_off_c, 1, 52, 0
2, 354280, Note_on_c, 1, 57, 127
2, 354280, Note_on_c, 1, 69, 127
2, 354280, Note_off_c, 1, 71, 0
2, 354280, Note_on_c, 1, 74, 127
2, 354280, Note_off_c, 1, 76, 0
2, 354360, Note_on_c, 1, 73, 127
2, 354360, Note_off_c, 1, 74, 0
2, 354400, Note_off_c, 1, 73, 0
2, 354400, Note_on_c, 1, 74, 127
2, 354480, Note_off_c, 1, 57, 0
2, 354480, Note_on_c, 1, 59, 127
2, 354480, Note_on_c, 1, 73, 127
2, 354480, Note_off_c, 1, 74, 0
2, 354680, Note_on_c, 1, 57, 127
2, 354680, Note_off_c, 1, 59, 0
2, 354840, Note_on_c, 1, 56, 127
2, 354840, Note_off_c, 1, 57, 0
2, 354840, Note_off_c, 1, 69, 0
2, 354840, Note_on_c, 1, 71, 127
2, 354840, Note_off_c, 1, 73, 0
2, 355040, Note_on_c, 1, 54, 127
2, 355040, Note_off_c, 1, 56, 0
2, 355040, Note_on_c, 1, 69, 127
2, 355040, Note_off_c, 1, 71, 0
2, 355240, Note_off_c, 1, 54, 0
2, 355240, Note_on_c, 1, 56, 127
2, 355240, Note_off_c, 1, 69, 0
2, 355240, Note_on_c, 1, 73, 127
2, 355440, Note_off_c, 1, 56, 0
2, 355440, Note_on_c, 1, 57, 127
2, 355440, Note_off_c, 1, 73, 0
2, 355440, Note_on_c, 1, 78, 127
2, 355600, Note_on_c, 1, 54, 127
2, 355600, Note_off_c, 1, 57, 0
2, 355800, Note_off_c, 1, 54, 0
2, 355800, Note_on_c, 1, 56, 127
2, 355880, Note_on_c, 1, 76, 127
2, 355880, Note_off_c, 1, 78, 0
2, 355920, Note_on_c, 1, 75, 127
2, 355920, Note_off_c, 1, 76, 0
2, 356000, Note_off_c, 1, 56, 0
2, 356000, Note_on_c, 1, 59, 127
2, 356000, Note_off_c, 1, 75, 0
2, 356000, Note_on_c, 1, 76, 127
2, 356040, Note_off_c, 1, 76, 0
2, 356080, Note_on_c, 1, 78, 127
2, 356120, Note_on_c, 1, 76, 127
2, 356120, Note_off_c, 1, 78, 0
2, 356200, Note_on_c, 1, 58, 127
2, 356200, Note_off_c, 1, 59, 0
2, 356200, Note_off_c, 1, 76, 0
2, 356200, Note_on_c, 1, 78, 127
2, 356240, Note_on_c, 1, 76, 127
2, 356240, Note_off_c, 1, 78, 0
2, 356320, Note_on_c, 1, 75, 127
2, 356320, Note_off_c, 1, 76, 0
2, 356360, Note_off_c, 1, 58, 0
2, 356360, Note_on_c, 1, 61, 127
2, 356360, Note_off_c, 1, 75, 0
2, 356360, Note_on_c, 1, 76, 127
2, 356440, Note_off_c, 1, 76, 0
2, 356440, Note_on_c, 1, 78, 127
2, 356560, Note_on_c, 1, 59, 127
2, 356560, Note_off_c, 1, 61, 0
2, 356560, Note_on_c, 1, 76, 127
2, 356560, Note_off_c, 1, 78, 0
2, 356640, Note_on_c, 1, 75, 127
2, 356640, Note_off_c, 1, 76, 0
2, 356680, Note_off_c, 1, 75, 0
2, 356680, Note_on_c, 1, 76, 127
2, 356760, Note_off_c, 1, 59, 0
2, 356760, Note_on_c, 1, 61, 127
2, 356760, Note_on_c, 1, 75, 127
2, 356760, Note_off_c, 1, 76, 0
2, 356960, Note_on_c, 1, 59, 127
2, 356960, Note_off_c, 1, 61, 0
2, 357120, Note_on_c, 1, 57, 127
2, 357120, Note_off_c, 1, 59, 0
2, 357120, Note_on_c, 1, 73, 127
2, 357120, Note_off_c, 1, 75, 0
2, 357320, Note_on_c, 1, 56, 127
2, 357320, Note_off_c, 1, 57, 0
2, 357320, Note_on_c, 1, 71, 127
2, 357320, Note_off_c, 1, 73, 0
2, 357520, Note_off_c, 1, 56, 0
2, 357520, Note_on_c, 1, 57, 127
2, 357520, Note_off_c, 1, 71, 0
2, 357520, Note_on_c, 1, 78, 127
2, 357720, Note_off_c, 1, 57, 0
2, 357720, Note_on_c, 1, 59, 127
2, 357720, Note_off_c, 1, 78, 0
2, 357720, Note_on_c, 1, 83, 127
2, 357880, Note_on_c, 1, 56, 127
2, 357880, Note_off_c, 1, 59, 0
2, 358080, Note_off_c, 1, 56, 0
2, 358080, Note_on_c, 1, 61, 127
2, 358160, Note_on_c, 1, 81, 127
2, 358160, Note_off_c, 1, 83, 0
2, 358200, Note_on_c, 1, 80, 127
2, 358200, Note_off_c, 1, 81, 0
2, 358280, Note_off_c, 1, 61, 0
2, 358280, Note_on_c, 1, 64, 127
2, 358280, Note_off_c, 1, 80, 0
2, 358280, Note_on_c, 1, 81, 127
2, 358320, Note_off_c, 1, 81, 0
2, 358320, Note_on_c, 1, 83, 127
2, 358400, Note_on_c, 1, 81, 127
2, 358400, Note_off_c, 1, 83, 0
2, 358480, Note_on_c, 1, 63, 127
2, 358480, Note_off_c, 1, 64, 0
2, 358480, Note_off_c, 1, 81, 0
2, 358480, Note_on_c, 1, 83, 127
2, 358520, Note_on_c, 1, 81, 127
2, 358520, Note_off_c, 1, 83, 0
2, 358600, Note_on_c, 1, 80, 127
2, 358600, Note_off_c, 1, 81, 0
2, 358640, Note_off_c, 1, 63, 0
2, 358640, Note_on_c, 1, 66, 127
2, 358640, Note_off_c, 1, 80, 0
2, 358640, Note_on_c, 1, 81, 127
2, 358720, Note_off_c, 1, 81, 0
2, 358720, Note_on_c, 1, 83, 127
2, 358840, Note_on_c, 1, 64, 127
2, 358840, Note_off_c, 1, 66, 0
2, 358840, Note_on_c, 1, 81, 127
2, 358840, Note_off_c, 1, 83, 0
2, 358920, Note_on_c, 1, 80, 127
2, 358920, Note_off_c, 1, 81, 0
2, 358960, Note_off_c, 1, 80, 0
2, 358960, Note_on_c, 1, 81, 127
2, 359040, Note_on_c, 1, 63, 127
2, 359040, Note_off_c, 1, 64, 0
2, 359040, Note_on_c, 1, 80, 127
2, 359040, Note_off_c, 1, 81, 0
2, 359200, Note_off_c, 1, 63, 0
2, 359240, Note_on_c, 1, 64, 127
2, 359400, Note_off_c, 1, 64, 0
2, 359400, Note_on_c, 1, 66, 127
2, 359400, Note_off_c, 1, 80, 0
2, 359400, Note_on_c, 1, 81, 127
2, 359600, Note_off_c, 1, 66, 0
2, 359600, Note_on_c, 1, 68, 127
2, 359600, Note_off_c, 1, 81, 0
2, 359600, Note_on_c, 1, 83, 127
2, 359800, Note_on_c, 1, 64, 127
2, 359800, Note_off_c, 1, 68, 0
2, 359800, Note_on_c, 1, 80, 127
2, 359800, Note_off_c, 1, 83, 0
2, 359960, Note_off_c, 1, 64, 0
2, 359960, Note_on_c, 1, 66, 127
2, 359960, Note_off_c, 1, 80, 0
2, 359960, Note_on_c, 1, 81, 127
2, 360120, Note_off_c, 1, 66, 0
2, 360120, Note_on_c, 1, 68, 127
2, 360120, Note_off_c, 1, 81, 0
2, 360120, Note_on_c, 1, 83, 127
2, 360320, Note_off_c, 1, 68, 0
2, 360320, Note_on_c, 1, 69, 127
2, 360320, Note_on_c, 1, 74, 127
2, 360320, Note_off_c, 1, 83, 0
2, 360400, Note_on_c, 1, 73, 127
2, 360400, Note_off_c, 1, 74, 0
2, 360440, Note_off_c, 1, 73, 0
2, 360440, Note_on_c, 1, 74, 127
2, 360520, Note_on_c, 1, 68, 127
2, 360520, Note_off_c, 1, 69, 0
2, 360520, Note_on_c, 1, 73, 127
2, 360520, Note_off_c, 1, 74, 0
2, 360680, Note_off_c, 1, 68, 0
2, 360680, Note_on_c, 1, 69, 127
2, 360880, Note_on_c, 1, 66, 127
2, 360880, Note_off_c, 1, 69, 0
2, 360880, Note_off_c, 1, 73, 0
2, 360880, Note_on_c, 1, 81, 127
2, 361080, Note_off_c, 1, 66, 0
2, 361080, Note_on_c, 1, 71, 127
2, 361080, Note_on_c, 1, 76, 127
2, 361080, Note_off_c, 1, 81, 0
2, 361160, Note_on_c, 1, 75, 127
2, 361160, Note_off_c, 1, 76, 0
2, 361200, Note_off_c, 1, 75, 0
2, 361200, Note_on_c, 1, 76, 127
2, 361280, Note_on_c, 1, 47, 127
2, 361280, Note_on_c, 1, 75, 127
2, 361280, Note_off_c, 1, 76, 0
2, 361440, Note_off_c, 1, 47, 0
2, 361440, Note_on_c, 1, 49, 127
2, 361640, Note_off_c, 1, 49, 0
2, 361640, Note_on_c, 1, 51, 127
2, 361640, Note_off_c, 1, 71, 0
2, 361640, Note_on_c, 1, 73, 127
2, 361640, Note_off_c, 1, 75, 0
2, 361840, Note_off_c, 1, 51, 0
2, 361840, Note_on_c, 1, 52, 127
2, 361840, Note_on_c, 1, 71, 127
2, 361840, Note_off_c, 1, 73, 0
2, 362040, Note_off_c, 1, 52, 0
2, 362040, Note_on_c, 1, 54, 127
2, 362040, Note_on_c, 1, 69, 127
2, 362040, Note_off_c, 1, 71, 0
2, 362200, Note_off_c, 1, 54, 0
2, 362200, Note_on_c, 1, 56, 127
2, 362200, Note_on_c, 1, 68, 127
2, 362200, Note_off_c, 1, 69, 0
2, 362400, Note_off_c, 1, 56, 0
2, 362400, Note_on_c, 1, 57, 127
2, 362400, Note_off_c, 1, 68, 0
2, 362400, Note_on_c, 1, 76, 127
2, 362600, Note_off_c, 1, 57, 0
2, 362600, Note_on_c, 1, 59, 127
2, 362600, Note_on_c, 1, 63, 127
2, 362600, Note_on_c, 1, 68, 127
2, 362600, Note_off_c, 1, 76, 0
2, 362720, Note_on_c, 1, 66, 127
2, 362720, Note_off_c, 1, 68, 0
2, 362800, Note_on_c, 1, 57, 127
2, 362800, Note_off_c, 1, 59, 0
2, 362800, Note_off_c, 1, 66, 0
2, 362800, Note_on_c, 1, 68, 127
2, 362840, Note_on_c, 1, 66, 127
2, 362840, Note_off_c, 1, 68, 0
2, 362920, Note_off_c, 1, 66, 0
2, 362920, Note_on_c, 1, 68, 127
2, 362960, Note_off_c, 1, 57, 0
2, 362960, Note_on_c, 1, 59, 127
2, 362960, Note_on_c, 1, 66, 127
2, 362960, Note_off_c, 1, 68, 0
2, 363160, Note_on_c, 1, 47, 127
2, 363160, Note_off_c, 1, 59, 0
2, 363160, Note_off_c, 1, 63, 0
2, 363160, Note_on_c, 1, 64, 127
2, 363160, Note_off_c, 1, 66, 0
2, 363360, Note_off_c, 1, 47, 0
2, 363360, Note_on_c, 1, 52, 127
2, 363560, Note_on_c, 1, 59, 127
2, 363720, Note_on_c, 1, 56, 127
2, 363920, Note_on_c, 1, 47, 127
2, 363920, Note_off_c, 1, 52, 0
2, 364120, Note_on_c, 1, 40, 127
2, 364120, Note_off_c, 1, 47, 0
2, 364320, Note_on_c, 1, 47, 127
2, 364480, Note_on_c, 1, 52, 127
2, 365080, Note_off_c, 1, 59, 0
2, 365240, Note_off_c, 1, 40, 0
2, 365280, Note_off_c, 1, 47, 0
2, 365280, Note_off_c, 1, 64, 0
2, 365280, Note_on_c, 1, 71, 127
2, 365440, Note_off_c, 1, 52, 0
2, 365440, Note_off_c, 1, 56, 0
2, 365600, Note_on_c, 1, 40, 127
2, 365800, Note_on_c, 1, 68, 127
2, 366000, Note_on_c, 1, 64, 127
2, 366160, Note_off_c, 1, 40, 0
2, 366160, Note_on_c, 1, 47, 127
2, 366360, Note_off_c, 1, 47, 0
2, 366360, Note_on_c, 1, 49, 127
2, 366560, Note_off_c, 1, 49, 0
2, 366560, Note_on_c, 1, 52, 127
2, 366720, Note_off_c, 1, 52, 0
2, 366720, Note_off_c, 1, 64, 0
2, 366720, Note_off_c, 1, 71, 0
2, 366760, Note_on_c, 1, 50, 127
2, 366760, Note_on_c, 1, 64, 127
2, 366920, Note_off_c, 1, 50, 0
2, 366920, Note_on_c, 1, 54, 127
2, 367120, Note_on_c, 1, 52, 127
2, 367120, Note_off_c, 1, 54, 0
2, 367120, Note_off_c, 1, 64, 0
2, 367120, Note_on_c, 1, 66, 127
2, 367240, Note_off_c, 1, 68, 0
2, 367240, Note_on_c, 1, 69, 127
2, 367320, Note_on_c, 1, 50, 127
2, 367320, Note_off_c, 1, 52, 0
2, 367320, Note_on_c, 1, 68, 127
2, 367320, Note_off_c, 1, 69, 0
2, 367360, Note_off_c, 1, 68, 0
2, 367360, Note_on_c, 1, 69, 127
2, 367480, Note_off_c, 1, 50, 0
2, 367520, Note_on_c, 1, 49, 127
2, 367680, Note_on_c, 1, 47, 127
2, 367680, Note_off_c, 1, 49, 0
2, 367680, Note_off_c, 1, 66, 0
2, 367680, Note_on_c, 1, 68, 127
2, 367680, Note_off_c, 1, 69, 0
2, 367680, Note_on_c, 1, 71, 127
2, 367880, Note_on_c, 1, 45, 127
2, 367880, Note_off_c, 1, 47, 0
2, 367880, Note_off_c, 1, 68, 0
2, 367880, Note_on_c, 1, 69, 127
2, 367880, Note_off_c, 1, 71, 0
2, 367880, Note_on_c, 1, 73, 127
2, 368080, Note_off_c, 1, 45, 0
2, 368080, Note_on_c, 1, 57, 127
2, 368240, Note_off_c, 1, 57, 0
2, 368280, Note_on_c, 1, 59, 127
2, 368440, Note_off_c, 1, 59, 0
2, 368440, Note_on_c, 1, 61, 127
2, 368440, Note_off_c, 1, 73, 0
2, 368640, Note_off_c, 1, 61, 0
2, 368640, Note_on_c, 1, 62, 127
2, 368640, Note_on_c, 1, 78, 127
2, 368840, Note_on_c, 1, 61, 127
2, 368840, Note_off_c, 1, 62, 0
2, 369000, Note_off_c, 1, 69, 0
2, 369040, Note_on_c, 1, 59, 127
2, 369040, Note_off_c, 1, 61, 0
2, 369040, Note_on_c, 1, 74, 127
2, 369200, Note_on_c, 1, 57, 127
2, 369200, Note_off_c, 1, 59, 0
2, 369200, Note_off_c, 1, 78, 0
2, 369200, Note_on_c, 1, 79, 127
2, 369400, Note_on_c, 1, 56, 127
2, 369400, Note_off_c, 1, 57, 0
2, 369400, Note_on_c, 1, 78, 127
2, 369400, Note_off_c, 1, 79, 0
2, 369520, Note_on_c, 1, 76, 127
2, 369520, Note_off_c, 1, 78, 0
2, 369560, Note_off_c, 1, 74, 0
2, 369600, Note_off_c, 1, 56, 0
2, 369600, Note_on_c, 1, 59, 127
2, 369600, Note_off_c, 1, 76, 0
2, 369600, Note_on_c, 1, 78, 127
2, 369640, Note_on_c, 1, 76, 127
2, 369640, Note_off_c, 1, 78, 0
2, 369720, Note_off_c, 1, 76, 0
2, 369720, Note_on_c, 1, 78, 127
2, 369800, Note_on_c, 1, 58, 127
2, 369800, Note_off_c, 1, 59, 0
2, 369800, Note_on_c, 1, 73, 127
2, 369800, Note_on_c, 1, 76, 127
2, 369800, Note_off_c, 1, 78, 0
2, 369960, Note_off_c, 1, 58, 0
2, 369960, Note_on_c, 1, 61, 127
2, 369960, Note_off_c, 1, 73, 0
2, 369960, Note_on_c, 1, 74, 127
2, 369960, Note_off_c, 1, 76, 0
2, 370080, Note_on_c, 1, 73, 127
2, 370080, Note_off_c, 1, 74, 0
2, 370160, Note_on_c, 1, 59, 127
2, 370160, Note_off_c, 1, 61, 0
2, 370160, Note_off_c, 1, 73, 0
2, 370160, Note_on_c, 1, 74, 127
2, 370360, Note_on_c, 1, 58, 127
2, 370360, Note_off_c, 1, 59, 0
2, 370360, Note_on_c, 1, 71, 127
2, 370560, Note_off_c, 1, 58, 0
2, 370560, Note_on_c, 1, 59, 127
2, 370560, Note_on_c, 1, 66, 127
2, 370720, Note_off_c, 1, 59, 0
2, 370720, Note_on_c, 1, 62, 127
2, 370920, Note_on_c, 1, 61, 127
2, 370920, Note_off_c, 1, 62, 0
2, 371120, Note_off_c, 1, 61, 0
2, 371120, Note_on_c, 1, 64, 127
2, 371320, Note_on_c, 1, 62, 127
2, 371320, Note_off_c, 1, 64, 0
2, 371320, Note_off_c, 1, 66, 0
2, 371320, Note_off_c, 1, 74, 0
2, 371400, Note_on_c, 1, 78, 127
2, 371480, Note_off_c, 1, 62, 0
2, 371480, Note_on_c, 1, 66, 127
2, 371480, Note_on_c, 1, 83, 127
2, 371680, Note_on_c, 1, 64, 127
2, 371680, Note_off_c, 1, 66, 0
2, 371680, Note_off_c, 1, 71, 0
2, 371760, Note_on_c, 1, 81, 127
2, 371760, Note_off_c, 1, 83, 0
2, 371800, Note_on_c, 1, 80, 127
2, 371800, Note_off_c, 1, 81, 0
2, 371880, Note_on_c, 1, 63, 127
2, 371880, Note_off_c, 1, 64, 0
2, 371880, Note_off_c, 1, 80, 0
2, 371880, Note_on_c, 1, 81, 127
2, 371920, Note_off_c, 1, 81, 0
2, 371920, Note_on_c, 1, 83, 127
2, 372000, Note_on_c, 1, 81, 127
2, 372000, Note_off_c, 1, 83, 0
2, 372080, Note_on_c, 1, 61, 127
2, 372080, Note_off_c, 1, 63, 0
2, 372080, Note_off_c, 1, 81, 0
2, 372080, Note_on_c, 1, 83, 127
2, 372120, Note_on_c, 1, 81, 127
2, 372120, Note_off_c, 1, 83, 0
2, 372200, Note_on_c, 1, 80, 127
2, 372200, Note_off_c, 1, 81, 0
2, 372240, Note_on_c, 1, 59, 127
2, 372240, Note_off_c, 1, 61, 0
2, 372240, Note_off_c, 1, 80, 0
2, 372240, Note_on_c, 1, 81, 127
2, 372320, Note_off_c, 1, 81, 0
2, 372320, Note_on_c, 1, 83, 127
2, 372440, Note_off_c, 1, 59, 0
2, 372440, Note_on_c, 1, 64, 127
2, 372440, Note_on_c, 1, 76, 127
2, 372440, Note_off_c, 1, 78, 0
2, 372440, Note_on_c, 1, 81, 127
2, 372440, Note_off_c, 1, 83, 0
2, 372560, Note_on_c, 1, 79, 127
2, 372560, Note_off_c, 1, 81, 0
2, 372640, Note_off_c, 1, 64, 0
2, 372640, Note_on_c, 1, 66, 127
2, 372640, Note_off_c, 1, 79, 0
2, 372640, Note_on_c, 1, 81, 127
2, 372680, Note_on_c, 1, 79, 127
2, 372680, Note_off_c, 1, 81, 0
2, 372760, Note_off_c, 1, 79, 0
2, 372760, Note_on_c, 1, 81, 127
2, 372800, Note_off_c, 1, 66, 0
2, 372800, Note_off_c, 1, 81, 0
2, 372840, Note_on_c, 1, 64, 127
2, 372840, Note_on_c, 1, 79, 127
2, 373000, Note_on_c, 1, 62, 127
2, 373000, Note_off_c, 1, 64, 0
2, 373000, Note_off_c, 1, 76, 0
2, 373000, Note_on_c, 1, 78, 127
2, 373000, Note_off_c, 1, 79, 0
2, 373200, Note_on_c, 1, 61, 127
2, 373200, Note_off_c, 1, 62, 0
2, 373200, Note_on_c, 1, 76, 127
2, 373200, Note_off_c, 1, 78, 0
2, 373400, Note_on_c, 1, 59, 127
2, 373400, Note_off_c, 1, 61, 0
2, 373400, Note_off_c, 1, 76, 0
2, 373400, Note_on_c, 1, 79, 127
2, 373560, Note_on_c, 1, 57, 127
2, 373560, Note_off_c, 1, 59, 0
2, 373560, Note_on_c, 1, 62, 127
2, 373560, Note_on_c, 1, 71, 127
2, 373560, Note_off_c, 1, 79, 0
2, 373720, Note_on_c, 1, 55, 127
2, 373720, Note_off_c, 1, 57, 0
2, 373920, Note_on_c, 1, 54, 127
2, 373920, Note_off_c, 1, 55, 0
2, 373920, Note_off_c, 1, 62, 0
2, 373920, Note_on_c, 1, 64, 127
2, 373920, Note_off_c, 1, 71, 0
2, 373960, Note_on_c, 1, 67, 127
2, 374000, Note_on_c, 1, 69, 127
2, 374080, Note_on_c, 1, 73, 127
2, 374120, Note_on_c, 1, 52, 127
2, 374120, Note_off_c, 1, 54, 0
2, 374320, Note_off_c, 1, 52, 0
2, 374320, Note_on_c, 1, 54, 127
2, 374440, Note_off_c, 1, 69, 0
2, 374480, Note_on_c, 1, 50, 127
2, 374480, Note_off_c, 1, 54, 0
2, 374480, Note_off_c, 1, 64, 0
2, 374480, Note_on_c, 1, 66, 127
2, 374480, Note_off_c, 1, 67, 0
2, 374480, Note_off_c, 1, 73, 0
2, 374480, Note_on_c, 1, 74, 127
2, 374680, Note_off_c, 1, 50, 0
2, 374680, Note_on_c, 1, 57, 127
2, 374680, Note_on_c, 1, 64, 127
2, 374680, Note_off_c, 1, 66, 0
2, 374760, Note_on_c, 1, 73, 127
2, 374760, Note_off_c, 1, 74, 0
2, 374800, Note_off_c, 1, 73, 0
2, 374800, Note_on_c, 1, 74, 127
2, 374880, Note_off_c, 1, 57, 0
2, 374880, Note_on_c, 1, 59, 127
2, 374880, Note_on_c, 1, 73, 127
2, 374880, Note_off_c, 1, 74, 0
2, 374920, Note_off_c, 1, 73, 0
2, 374920, Note_on_c, 1, 74, 127
2, 375000, Note_on_c, 1, 73, 127
2, 375000, Note_off_c, 1, 74, 0
2, 375080, Note_on_c, 1, 57, 127
2, 375080, Note_off_c, 1, 59, 0
2, 375240, Note_on_c, 1, 55, 127
2, 375240, Note_off_c, 1, 57, 0
2, 375240, Note_on_c, 1, 71, 127
2, 375240, Note_off_c, 1, 73, 0
2, 375440, Note_on_c, 1, 54, 127
2, 375440, Note_off_c, 1, 55, 0
2, 375440, Note_off_c, 1, 64, 0
2, 375440, Note_on_c, 1, 69, 127
2, 375440, Note_off_c, 1, 71, 0
2, 375640, Note_on_c, 1, 52, 127
2, 375640, Note_off_c, 1, 54, 0
2, 375640, Note_on_c, 1, 76, 127
2, 375840, Note_on_c, 1, 50, 127
2, 375840, Note_off_c, 1, 52, 0
2, 375840, Note_on_c, 1, 81, 127
2, 376000, Note_on_c, 1, 49, 127
2, 376000, Note_off_c, 1, 50, 0
2, 376200, Note_on_c, 1, 47, 127
2, 376200, Note_off_c, 1, 49, 0
2, 376200, Note_off_c, 1, 69, 0
2, 376200, Note_on_c, 1, 74, 127
2, 376200, Note_off_c, 1, 76, 0
2, 376280, Note_on_c, 1, 79, 127
2, 376280, Note_off_c, 1, 81, 0
2, 376320, Note_on_c, 1, 78, 127
2, 376320, Note_off_c, 1, 79, 0
2, 376400, Note_off_c, 1, 47, 0
2, 376400, Note_on_c, 1, 50, 127
2, 376400, Note_off_c, 1, 78, 0
2, 376400, Note_on_c, 1, 79, 127
2, 376440, Note_off_c, 1, 79, 0
2, 376440, Note_on_c, 1, 81, 127
2, 376520, Note_on_c, 1, 79, 127
2, 376520, Note_off_c, 1, 81, 0
2, 376560, Note_off_c, 1, 74, 0
2, 376600, Note_on_c, 1, 49, 127
2, 376600, Note_off_c, 1, 50, 0
2, 376600, Note_on_c, 1, 76, 127
2, 376600, Note_off_c, 1, 79, 0
2, 376600, Note_on_c, 1, 81, 127
2, 376640, Note_on_c, 1, 79, 127
2, 376640, Note_off_c, 1, 81, 0
2, 376720, Note_on_c, 1, 78, 127
2, 376720, Note_off_c, 1, 79, 0
2, 376760, Note_off_c, 1, 49, 0
2, 376760, Note_on_c, 1, 52, 127
2, 376760, Note_off_c, 1, 78, 0
2, 376760, Note_on_c, 1, 79, 127
2, 376840, Note_off_c, 1, 79, 0
2, 376840, Note_on_c, 1, 81, 127
2, 376960, Note_on_c, 1, 50, 127
2, 376960, Note_off_c, 1, 52, 0
2, 376960, Note_on_c, 1, 69, 127
2, 376960, Note_off_c, 1, 76, 0
2, 376960, Note_on_c, 1, 79, 127
2, 376960, Note_off_c, 1, 81, 0
2, 377080, Note_on_c, 1, 78, 127
2, 377080, Note_off_c, 1, 79, 0
2, 377160, Note_off_c, 1, 50, 0
2, 377160, Note_on_c, 1, 54, 127
2, 377160, Note_off_c, 1, 78, 0
2, 377160, Note_on_c, 1, 79, 127
2, 377200, Note_on_c, 1, 78, 127
2, 377200, Note_off_c, 1, 79, 0
2, 377320, Note_off_c, 1, 54, 0
2, 377360, Note_on_c, 1, 52, 127
2, 377520, Note_off_c, 1, 52, 0
2, 377520, Note_on_c, 1, 55, 127
2, 377520, Note_on_c, 1, 76, 127
2, 377520, Note_off_c, 1, 78, 0
2, 377720, Note_on_c, 1, 54, 127
2, 377720, Note_off_c, 1, 55, 0
2, 377720, Note_on_c, 1, 74, 127
2, 377720, Note_off_c, 1, 76, 0
2, 377920, Note_off_c, 1, 54, 0
2, 377920, Note_on_c, 1, 57, 127
2, 377920, Note_on_c, 1, 73, 127
2, 377920, Note_off_c, 1, 74, 0
2, 378080, Note_on_c, 1, 55, 127
2, 378080, Note_off_c, 1, 57, 0
2, 378080, Note_off_c, 1, 69, 0
2, 378080, Note_on_c, 1, 71, 127
2, 378080, Note_off_c, 1, 73, 0
2, 378240, Note_off_c, 1, 55, 0
2, 378240, Note_on_c, 1, 59, 127
2, 378240, Note_off_c, 1, 71, 0
2, 378240, Note_on_c, 1, 76, 127
2, 378440, Note_on_c, 1, 57, 127
2, 378440, Note_off_c, 1, 59, 0
2, 378440, Note_on_c, 1, 67, 127
2, 378440, Note_on_c, 1, 74, 127
2, 378440, Note_off_c, 1, 76, 0
2, 378560, Note_on_c, 1, 73, 127
2, 378560, Note_off_c, 1, 74, 0
2, 378640, Note_on_c, 1, 55, 127
2, 378640, Note_off_c, 1, 57, 0
2, 378640, Note_off_c, 1, 73, 0
2, 378640, Note_on_c, 1, 74, 127
2, 378680, Note_on_c, 1, 73, 127
2, 378680, Note_off_c, 1, 74, 0
2, 378760, Note_off_c, 1, 73, 0
2, 378760, Note_on_c, 1, 74, 127
2, 378800, Note_off_c, 1, 55, 0
2, 378800, Note_off_c, 1, 74, 0
2, 378840, Note_on_c, 1, 57, 127
2, 378840, Note_on_c, 1, 73, 127
2, 379000, Note_on_c, 1, 45, 127
2, 379000, Note_off_c, 1, 57, 0
2, 379000, Note_off_c, 1, 73, 0
2, 379000, Note_on_c, 1, 74, 127
2, 379200, Note_off_c, 1, 45, 0
2, 379200, Note_on_c, 1, 50, 127
2, 379200, Note_on_c, 1, 66, 127
2, 379200, Note_off_c, 1, 67, 0
2, 379200, Note_on_c, 1, 69, 127
2, 379400, Note_off_c, 1, 50, 0
2, 379400, Note_on_c, 1, 57, 127
2, 379560, Note_off_c, 1, 57, 0
2, 379600, Note_on_c, 1, 59, 127
2, 379760, Note_off_c, 1, 59, 0
2, 379760, Note_on_c, 1, 62, 127
2, 379960, Note_on_c, 1, 61, 127
2, 379960, Note_off_c, 1, 62, 0
2, 380160, Note_off_c, 1, 61, 0
2, 380160, Note_on_c, 1, 64, 127
2, 380320, Note_off_c, 1, 66, 0
2, 380360, Note_on_c, 1, 62, 127
2, 380360, Note_off_c, 1, 64, 0
2, 380360, Note_off_c, 1, 69, 0
2, 380360, Note_off_c, 1, 74, 0
2, 380360, Note_on_c, 1, 78, 127
2, 380400, Note_on_c, 1, 76, 127
2, 380400, Note_off_c, 1, 78, 0
2, 380480, Note_off_c, 1, 76, 0
2, 380480, Note_on_c, 1, 78, 127
2, 380560, Note_off_c, 1, 62, 0
2, 380560, Note_on_c, 1, 66, 127
2, 380720, Note_on_c, 1, 64, 127
2, 380720, Note_off_c, 1, 66, 0
2, 380920, Note_on_c, 1, 62, 127
2, 380920, Note_off_c, 1, 64, 0
2, 380920, Note_off_c, 1, 78, 0
2, 380920, Note_on_c, 1, 79, 127
2, 381000, Note_on_c, 1, 78, 127
2, 381000, Note_off_c, 1, 79, 0
2, 381040, Note_off_c, 1, 78, 0
2, 381040, Note_on_c, 1, 79, 127
2, 381120, Note_on_c, 1, 61, 127
2, 381120, Note_off_c, 1, 62, 0
2, 381320, Note_on_c, 1, 59, 127
2, 381320, Note_off_c, 1, 61, 0
2, 381320, Note_on_c, 1, 78, 127
2, 381320, Note_off_c, 1, 79, 0
2, 381480, Note_on_c, 1, 58, 127
2, 381480, Note_off_c, 1, 59, 0
2, 381600, Note_off_c, 1, 78, 0
2, 381640, Note_on_c, 1, 76, 127
2, 381680, Note_off_c, 1, 58, 0
2, 381680, Note_on_c, 1, 59, 127
2, 381680, Note_off_c, 1, 76, 0
2, 381680, Note_on_c, 1, 78, 127
2, 381760, Note_on_c, 1, 76, 127
2, 381760, Note_off_c, 1, 78, 0
2, 381800, Note_off_c, 1, 76, 0
2, 381800, Note_on_c, 1, 78, 127
2, 381880, Note_off_c, 1, 59, 0
2, 381880, Note_on_c, 1, 61, 127
2, 381880, Note_on_c, 1, 76, 127
2, 381880, Note_off_c, 1, 78, 0
2, 382080, Note_off_c, 1, 61, 0
2, 382080, Note_on_c, 1, 62, 127
2, 382080, Note_on_c, 1, 74, 127
2, 382080, Note_off_c, 1, 76, 0
2, 382240, Note_off_c, 1, 62, 0
2, 382240, Note_on_c, 1, 64, 127
2, 382360, Note_off_c, 1, 74, 0
2, 382400, Note_on_c, 1, 73, 127
2, 382440, Note_on_c, 1, 62, 127
2, 382440, Note_off_c, 1, 64, 0
2, 382440, Note_off_c, 1, 73, 0
2, 382440, Note_on_c, 1, 74, 127
2, 382520, Note_on_c, 1, 73, 127
2, 382520, Note_off_c, 1, 74, 0
2, 382640, Note_off_c, 1, 62, 0
2, 382640, Note_on_c, 1, 64, 127
2, 382640, Note_on_c, 1, 71, 127
2, 382640, Note_off_c, 1, 73, 0
2, 382840, Note_off_c, 1, 64, 0
2, 382840, Note_on_c, 1, 66, 127
2, 382840, Note_on_c, 1, 70, 127
2, 382840, Note_off_c, 1, 71, 0
2, 383000, Note_off_c, 1, 66, 0
2, 383000, Note_on_c, 1, 67, 127
2, 383120, Note_off_c, 1, 70, 0
2, 383160, Note_on_c, 1, 71, 127
2, 383200, Note_on_c, 1, 66, 127
2, 383200, Note_off_c, 1, 67, 0
2, 383200, Note_on_c, 1, 70, 127
2, 383200, Note_off_c, 1, 71, 0
2, 383280, Note_off_c, 1, 70, 0
2, 383280, Note_on_c, 1, 71, 127
2, 383400, Note_off_c, 1, 66, 0
2, 383400, Note_on_c, 1, 67, 127
2, 383600, Note_on_c, 1, 64, 127
2, 383600, Note_off_c, 1, 67, 0
2, 383600, Note_off_c, 1, 71, 0
2, 383600, Note_on_c, 1, 73, 127
2, 383760, Note_off_c, 1, 64, 0
2, 383760, Note_on_c, 1, 66, 127
2, 383760, Note_on_c, 1, 71, 127
2, 383760, Note_off_c, 1, 73, 0
2, 383840, Note_on_c, 1, 70, 127
2, 383840, Note_off_c, 1, 71, 0
2, 383880, Note_off_c, 1, 70, 0
2, 383880, Note_on_c, 1, 71, 127
2, 383960, Note_off_c, 1, 66, 0
2, 383960, Note_on_c, 1, 67, 127
2, 383960, Note_on_c, 1, 70, 127
2, 383960, Note_off_c, 1, 71, 0
2, 384160, Note_on_c, 1, 66, 127
2, 384160, Note_off_c, 1, 67, 0
2, 384360, Note_on_c, 1, 64, 127
2, 384360, Note_off_c, 1, 66, 0
2, 384360, Note_on_c, 1, 68, 127
2, 384360, Note_off_c, 1, 70, 0
2, 384520, Note_on_c, 1, 62, 127
2, 384520, Note_off_c, 1, 64, 0
2, 384520, Note_on_c, 1, 66, 127
2, 384520, Note_off_c, 1, 68, 0
2, 384720, Note_on_c, 1, 61, 127
2, 384720, Note_off_c, 1, 62, 0
2, 384720, Note_on_c, 1, 73, 127
2, 384920, Note_on_c, 1, 59, 127
2, 384920, Note_off_c, 1, 61, 0
2, 384920, Note_on_c, 1, 78, 127
2, 385120, Note_on_c, 1, 57, 127
2, 385120, Note_off_c, 1, 59, 0
2, 385280, Note_on_c, 1, 56, 127
2, 385280, Note_off_c, 1, 57, 0
2, 385280, Note_off_c, 1, 66, 0
2, 385280, Note_on_c, 1, 71, 127
2, 385280, Note_off_c, 1, 73, 0
2, 385400, Note_off_c, 1, 78, 0
2, 385440, Note_on_c, 1, 76, 127
2, 385480, Note_off_c, 1, 56, 0
2, 385480, Note_on_c, 1, 59, 127
2, 385480, Note_off_c, 1, 76, 0
2, 385480, Note_on_c, 1, 78, 127
2, 385560, Note_on_c, 1, 76, 127
2, 385560, Note_off_c, 1, 78, 0
2, 385600, Note_off_c, 1, 76, 0
2, 385600, Note_on_c, 1, 78, 127
2, 385680, Note_on_c, 1, 58, 127
2, 385680, Note_off_c, 1, 59, 0
2, 385680, Note_off_c, 1, 71, 0
2, 385680, Note_on_c, 1, 73, 127
2, 385680, Note_on_c, 1, 76, 127
2, 385680, Note_off_c, 1, 78, 0
2, 385880, Note_off_c, 1, 58, 0
2, 385880, Note_on_c, 1, 61, 127
2, 385880, Note_off_c, 1, 76, 0
2, 385880, Note_on_c, 1, 78, 127
2, 386040, Note_on_c, 1, 59, 127
2, 386040, Note_off_c, 1, 61, 0
2, 386040, Note_on_c, 1, 66, 127
2, 386040, Note_off_c, 1, 73, 0
2, 386040, Note_on_c, 1, 76, 127
2, 386040, Note_off_c, 1, 78, 0
2, 386120, Note_on_c, 1, 74, 127
2, 386120, Note_off_c, 1, 76, 0
2, 386160, Note_off_c, 1, 74, 0
2, 386160, Note_on_c, 1, 76, 127
2, 386240, Note_off_c, 1, 59, 0
2, 386240, Note_on_c, 1, 61, 127
2, 386240, Note_on_c, 1, 74, 127
2, 386240, Note_off_c, 1, 76, 0
2, 386440, Note_on_c, 1, 59, 127
2, 386440, Note_off_c, 1, 61, 0
2, 386640, Note_on_c, 1, 57, 127
2, 386640, Note_off_c, 1, 59, 0
2, 386640, Note_on_c, 1, 73, 127
2, 386640, Note_off_c, 1, 74, 0
2, 386800, Note_on_c, 1, 55, 127
2, 386800, Note_off_c, 1, 57, 0
2, 386800, Note_off_c, 1, 66, 0
2, 386800, Note_on_c, 1, 71, 127
2, 386800, Note_off_c, 1, 73, 0
2, 387000, Note_on_c, 1, 54, 127
2, 387000, Note_off_c, 1, 55, 0
2, 387000, Note_on_c, 1, 70, 127
2, 387000, Note_off_c, 1, 71, 0
2, 387200, Note_off_c, 1, 54, 0
2, 387200, Note_on_c, 1, 55, 127
2, 387200, Note_off_c, 1, 70, 0
2, 387200, Note_on_c, 1, 71, 127
2, 387400, Note_on_c, 1, 52, 127
2, 387400, Note_off_c, 1, 55, 0
2, 387400, Note_off_c, 1, 71, 0
2, 387400, Note_on_c, 1, 73, 127
2, 387560, Note_off_c, 1, 52, 0
2, 387560, Note_on_c, 1, 54, 127
2, 387560, Note_on_c, 1, 70, 127
2, 387560, Note_off_c, 1, 73, 0
2, 387560, Note_on_c, 1, 74, 127
2, 387680, Note_off_c, 1, 70, 0
2, 387680, Note_on_c, 1, 73, 127
2, 387680, Note_off_c, 1, 74, 0
2, 387760, Note_on_c, 1, 52, 127
2, 387760, Note_off_c, 1, 54, 0
2, 387760, Note_off_c, 1, 73, 0
2, 387760, Note_on_c, 1, 74, 127
2, 387840, Note_on_c, 1, 73, 127
2, 387840, Note_off_c, 1, 74, 0
2, 387880, Note_off_c, 1, 73, 0
2, 387880, Note_on_c, 1, 74, 127
2, 387960, Note_off_c, 1, 52, 0
2, 387960, Note_on_c, 1, 54, 127
2, 387960, Note_on_c, 1, 73, 127
2, 387960, Note_off_c, 1, 74, 0
2, 388000, Note_off_c, 1, 73, 0
2, 388000, Note_on_c, 1, 74, 127
2, 388080, Note_on_c, 1, 73, 127
2, 388080, Note_off_c, 1, 74, 0
2, 388120, Note_on_c, 1, 42, 127
2, 388120, Note_off_c, 1, 54, 0
2, 388120, Note_on_c, 1, 71, 127
2, 388120, Note_off_c, 1, 73, 0
2, 388280, Note_off_c, 1, 42, 0
2, 388280, Note_on_c, 1, 47, 127
2, 388280, Note_on_c, 1, 62, 127
2, 388280, Note_on_c, 1, 66, 127
2, 388480, Note_off_c, 1, 47, 0
2, 388480, Note_on_c, 1, 49, 127
2, 388680, Note_off_c, 1, 49, 0
2, 388680, Note_on_c, 1, 50, 127
2, 388840, Note_off_c, 1, 50, 0
2, 388880, Note_on_c, 1, 49, 127
2, 389040, Note_on_c, 1, 47, 127
2, 389040, Note_off_c, 1, 49, 0
2, 389240, Note_on_c, 1, 45, 127
2, 389240, Note_off_c, 1, 47, 0
2, 389440, Note_on_c, 1, 44, 127
2, 389440, Note_off_c, 1, 45, 0
2, 389440, Note_off_c, 1, 62, 0
2, 389440, Note_off_c, 1, 66, 0
2, 389600, Note_off_c, 1, 44, 0
2, 389640, Note_on_c, 1, 47, 127
2, 389800, Note_on_c, 1, 45, 127
2, 389800, Note_off_c, 1, 47, 0
2, 389800, Note_on_c, 1, 73, 127
2, 389880, Note_off_c, 1, 73, 0
2, 389880, Note_on_c, 1, 74, 127
2, 389920, Note_off_c, 1, 74, 0
2, 389920, Note_on_c, 1, 76, 127
2, 390000, Note_on_c, 1, 44, 127
2, 390000, Note_off_c, 1, 45, 0
2, 390200, Note_on_c, 1, 42, 127
2, 390200, Note_off_c, 1, 44, 0
2, 390360, Note_on_c, 1, 40, 127
2, 390360, Note_off_c, 1, 42, 0
2, 390360, Note_on_c, 1, 74, 127
2, 390360, Note_off_c, 1, 76, 0
2, 390560, Note_off_c, 1, 40, 0
2, 390560, Note_on_c, 1, 45, 127
2, 390560, Note_on_c, 1, 69, 127
2, 390560, Note_off_c, 1, 71, 0
2, 390680, Note_on_c, 1, 73, 127
2, 390680, Note_off_c, 1, 74, 0
2, 390760, Note_off_c, 1, 45, 0
2, 390760, Note_on_c, 1, 47, 127
2, 390760, Note_off_c, 1, 73, 0
2, 390760, Note_on_c, 1, 74, 127
2, 390840, Note_on_c, 1, 73, 127
2, 390840, Note_off_c, 1, 74, 0
2, 390880, Note_off_c, 1, 73, 0
2, 390880, Note_on_c, 1, 74, 127
2, 390960, Note_on_c, 1, 45, 127
2, 390960, Note_off_c, 1, 47, 0
2, 390960, Note_on_c, 1, 73, 127
2, 390960, Note_off_c, 1, 74, 0
2, 391120, Note_on_c, 1, 44, 127
2, 391120, Note_off_c, 1, 45, 0
2, 391120, Note_off_c, 1, 69, 0
2, 391120, Note_on_c, 1, 71, 127
2, 391120, Note_off_c, 1, 73, 0
2, 391320, Note_on_c, 1, 42, 127
2, 391320, Note_off_c, 1, 44, 0
2, 391320, Note_on_c, 1, 69, 127
2, 391320, Note_off_c, 1, 71, 0
2, 391520, Note_on_c, 1, 40, 127
2, 391520, Note_off_c, 1, 42, 0
2, 391520, Note_off_c, 1, 69, 0
2, 391520, Note_on_c, 1, 73, 127
2, 391720, Note_on_c, 1, 38, 127
2, 391720, Note_off_c, 1, 40, 0
2, 391720, Note_on_c, 1, 57, 127
2, 391720, Note_on_c, 1, 66, 127
2, 391720, Note_off_c, 1, 73, 0
2, 391880, Note_off_c, 1, 38, 0
2, 391880, Note_on_c, 1, 40, 127
2, 392080, Note_on_c, 1, 38, 127
2, 392080, Note_off_c, 1, 40, 0
2, 392080, Note_off_c, 1, 57, 0
2, 392080, Note_on_c, 1, 59, 127
2, 392080, Note_off_c, 1, 66, 0
2, 392120, Note_off_c, 1, 59, 0
2, 392120, Note_on_c, 1, 62, 127
2, 392200, Note_on_c, 1, 64, 127
2, 392240, Note_on_c, 1, 68, 127
2, 392280, Note_on_c, 1, 37, 127
2, 392280, Note_off_c, 1, 38, 0
2, 392480, Note_on_c, 1, 35, 127
2, 392480, Note_off_c, 1, 37, 0
2, 392640, Note_off_c, 1, 35, 0
2, 392640, Note_off_c, 1, 68, 0
2, 392680, Note_on_c, 1, 33, 127
2, 392680, Note_on_c, 1, 61, 127
2, 392680, Note_off_c, 1, 62, 0
2, 392680, Note_off_c, 1, 64, 0
2, 392680, Note_on_c, 1, 69, 127
2, 392840, Note_off_c, 1, 33, 0
2, 392840, Note_on_c, 1, 40, 127
2, 392840, Note_on_c, 1, 59, 127
2, 392840, Note_off_c, 1, 61, 0
2, 392920, Note_on_c, 1, 68, 127
2, 392920, Note_off_c, 1, 69, 0
2, 392960, Note_off_c, 1, 68, 0
2, 392960, Note_on_c, 1, 69, 127
2, 393040, Note_on_c, 1, 38, 127
2, 393040, Note_off_c, 1, 40, 0
2, 393040, Note_on_c, 1, 68, 127
2, 393040, Note_off_c, 1, 69, 0
2, 393240, Note_off_c, 1, 38, 0
2, 393240, Note_on_c, 1, 40, 127
2, 393400, Note_off_c, 1, 40, 0
2, 393400, Note_off_c, 1, 68, 0
2, 393440, Note_on_c, 1, 42, 127
2, 393440, Note_on_c, 1, 66, 127
2, 393600, Note_off_c, 1, 42, 0
2, 393600, Note_on_c, 1, 44, 127
2, 393600, Note_off_c, 1, 59, 0
2, 393600, Note_on_c, 1, 64, 127
2, 393600, Note_off_c, 1, 66, 0
2, 393800, Note_on_c, 1, 42, 127
2, 393800, Note_off_c, 1, 44, 0
2, 394000, Note_off_c, 1, 42, 0
2, 394000, Note_on_c, 1, 44, 127
2, 394000, Note_off_c, 1, 64, 0
2, 394000, Note_on_c, 1, 71, 127
2, 394160, Note_on_c, 1, 40, 127
2, 394160, Note_off_c, 1, 44, 0
2, 394160, Note_off_c, 1, 71, 0
2, 394160, Note_on_c, 1, 73, 127
2, 394240, Note_off_c, 1, 73, 0
2, 394240, Note_on_c, 1, 74, 127
2, 394320, Note_off_c, 1, 40, 0
2, 394320, Note_on_c, 1, 45, 127
2, 394440, Note_on_c, 1, 73, 127
2, 394440, Note_off_c, 1, 74, 0
2, 394520, Note_on_c, 1, 44, 127
2, 394520, Note_off_c, 1, 45, 0
2, 394520, Note_off_c, 1, 73, 0
2, 394520, Note_on_c, 1, 74, 127
2, 394600, Note_on_c, 1, 73, 127
2, 394600, Note_off_c, 1, 74, 0
2, 394640, Note_off_c, 1, 73, 0
2, 394640, Note_on_c, 1, 74, 127
2, 394720, Note_off_c, 1, 44, 0
2, 394720, Note_on_c, 1, 45, 127
2, 394720, Note_on_c, 1, 73, 127
2, 394720, Note_off_c, 1, 74, 0
2, 394880, Note_off_c, 1, 45, 0
2, 394880, Note_on_c, 1, 47, 127
2, 394880, Note_on_c, 1, 71, 127
2, 394880, Note_off_c, 1, 73, 0
2, 395040, Note_off_c, 1, 47, 0
2, 395040, Note_on_c, 1, 49, 127
2, 395240, Note_on_c, 1, 47, 127
2, 395240, Note_off_c, 1, 49, 0
2, 395240, Note_on_c, 1, 76, 127
2, 395440, Note_off_c, 1, 47, 0
2, 395440, Note_on_c, 1, 49, 127
2, 395440, Note_on_c, 1, 69, 127
2, 395440, Note_off_c, 1, 71, 0
2, 395600, Note_off_c, 1, 49, 0
2, 395600, Note_off_c, 1, 76, 0
2, 395640, Note_on_c, 1, 45, 127
2, 395640, Note_on_c, 1, 78, 127
2, 395800, Note_off_c, 1, 45, 0
2, 395800, Note_on_c, 1, 47, 127
2, 395800, Note_off_c, 1, 69, 0
2, 395800, Note_off_c, 1, 78, 0
2, 395800, Note_on_c, 1, 79, 127
2, 396000, Note_off_c, 1, 47, 0
2, 396000, Note_on_c, 1, 50, 127
2, 396000, Note_on_c, 1, 76, 127
2, 396000, Note_off_c, 1, 79, 0
2, 396200, Note_on_c, 1, 49, 127
2, 396200, Note_off_c, 1, 50, 0
2, 396200, Note_on_c, 1, 69, 127
2, 396200, Note_off_c, 1, 76, 0
2, 396240, Note_on_c, 1, 76, 127
2, 396320, Note_on_c, 1, 81, 127
2, 396360, Note_off_c, 1, 49, 0
2, 396360, Note_on_c, 1, 52, 127
2, 396560, Note_on_c, 1, 50, 127
2, 396560, Note_off_c, 1, 52, 0
2, 396560, Note_off_c, 1, 69, 0
2, 396640, Note_on_c, 1, 79, 127
2, 396640, Note_off_c, 1, 81, 0
2, 396680, Note_on_c, 1, 78, 127
2, 396680, Note_off_c, 1, 79, 0
2, 396760, Note_on_c, 1, 49, 127
2, 396760, Note_off_c, 1, 50, 0
2, 396760, Note_off_c, 1, 78, 0
2, 396760, Note_on_c, 1, 79, 127
2, 396800, Note_off_c, 1, 79, 0
2, 396840, Note_on_c, 1, 81, 127
2, 396880, Note_on_c, 1, 79, 127
2, 396880, Note_off_c, 1, 81, 0
2, 396960, Note_on_c, 1, 47, 127
2, 396960, Note_off_c, 1, 49, 0
2, 396960, Note_off_c, 1, 79, 0
2, 396960, Note_on_c, 1, 81, 127
2, 397000, Note_on_c, 1, 79, 127
2, 397000, Note_off_c, 1, 81, 0
2, 397080, Note_on_c, 1, 78, 127
2, 397080, Note_off_c, 1, 79, 0
2, 397120, Note_on_c, 1, 45, 127
2, 397120, Note_off_c, 1, 47, 0
2, 397120, Note_off_c, 1, 78, 0
2, 397120, Note_on_c, 1, 79, 127
2, 397200, Note_off_c, 1, 79, 0
2, 397200, Note_on_c, 1, 81, 127
2, 397320, Note_off_c, 1, 45, 0
2, 397320, Note_on_c, 1, 50, 127
2, 397320, Note_on_c, 1, 69, 127
2, 397320, Note_off_c, 1, 76, 0
2, 397320, Note_on_c, 1, 79, 127
2, 397320, Note_off_c, 1, 81, 0
2, 397440, Note_on_c, 1, 78, 127
2, 397440, Note_off_c, 1, 79, 0
2, 397520, Note_off_c, 1, 50, 0
2, 397520, Note_on_c, 1, 54, 127
2, 397520, Note_off_c, 1, 78, 0
2, 397520, Note_on_c, 1, 79, 127
2, 397600, Note_on_c, 1, 78, 127
2, 397600, Note_off_c, 1, 79, 0
2, 397640, Note_off_c, 1, 78, 0
2, 397640, Note_on_c, 1, 79, 127
2, 397720, Note_on_c, 1, 52, 127
2, 397720, Note_off_c, 1, 54, 0
2, 397720, Note_on_c, 1, 78, 127
2, 397720, Note_off_c, 1, 79, 0
2, 397880, Note_off_c, 1, 69, 0
2, 397920, Note_on_c, 1, 50, 127
2, 397920, Note_off_c, 1, 52, 0
2, 397920, Note_on_c, 1, 71, 127
2, 397920, Note_off_c, 1, 78, 0
2, 397920, Note_on_c, 1, 80, 127
2, 398120, Note_on_c, 1, 49, 127
2, 398120, Note_off_c, 1, 50, 0
2, 398120, Note_off_c, 1, 71, 0
2, 398120, Note_on_c, 1, 73, 127
2, 398120, Note_off_c, 1, 80, 0
2, 398120, Note_on_c, 1, 81, 127
2, 398320, Note_on_c, 1, 47, 127
2, 398320, Note_off_c, 1, 49, 0
2, 398320, Note_off_c, 1, 73, 0
2, 398320, Note_on_c, 1, 74, 127
2, 398320, Note_off_c, 1, 81, 0
2, 398520, Note_on_c, 1, 45, 127
2, 398520, Note_off_c, 1, 47, 0
2, 398520, Note_on_c, 1, 73, 127
2, 398520, Note_off_c, 1, 74, 0
2, 398720, Note_off_c, 1, 45, 0
2, 398720, Note_on_c, 1, 50, 127
2, 398720, Note_on_c, 1, 71, 127
2, 398720, Note_off_c, 1, 73, 0
2, 398920, Note_off_c, 1, 50, 0
2, 398920, Note_on_c, 1, 52, 127
2, 398920, Note_on_c, 1, 68, 127
2, 398920, Note_off_c, 1, 71, 0
2, 398920, Note_on_c, 1, 73, 127
2, 399040, Note_on_c, 1, 71, 127
2, 399040, Note_off_c, 1, 73, 0
2, 399120, Note_on_c, 1, 50, 127
2, 399120, Note_off_c, 1, 52, 0
2, 399120, Note_off_c, 1, 71, 0
2, 399120, Note_on_c, 1, 73, 127
2, 399200, Note_on_c, 1, 71, 127
2, 399200, Note_off_c, 1, 73, 0
2, 399280, Note_off_c, 1, 71, 0
2, 399280, Note_on_c, 1, 73, 127
2, 399320, Note_off_c, 1, 50, 0
2, 399320, Note_on_c, 1, 52, 127
2, 399320, Note_on_c, 1, 71, 127
2, 399320, Note_off_c, 1, 73, 0
2, 399400, Note_off_c, 1, 71, 0
2, 399400, Note_on_c, 1, 73, 127
2, 399480, Note_on_c, 1, 71, 127
2, 399480, Note_off_c, 1, 73, 0
2, 399520, Note_off_c, 1, 68, 0
2, 399560, Note_on_c, 1, 40, 127
2, 399560, Note_off_c, 1, 52, 0
2, 399560, Note_on_c, 1, 69, 127
2, 399560, Note_off_c, 1, 71, 0
2, 399760, Note_off_c, 1, 40, 0
2, 399760, Note_on_c, 1, 45, 127
2, 400000, Note_on_c, 1, 64, 127
2, 400240, Note_on_c, 1, 61, 127
2, 400480, Note_on_c, 1, 40, 127
2, 400480, Note_off_c, 1, 45, 0
2, 400680, Note_on_c, 1, 33, 127
2, 400680, Note_off_c, 1, 40, 0
2, 400920, Note_on_c, 1, 40, 127
2, 401160, Note_off_c, 1, 40, 0
2, 401160, Note_on_c, 1, 45, 127
2, 403520, Note_off_c, 1, 33, 0
2, 403520, Note_off_c, 1, 61, 0
2, 403560, Note_on_c, 1, 52, 127
2, 403640, Note_on_c, 1, 57, 127
2, 403640, Note_on_c, 1, 71, 127
2, 403720, Note_off_c, 1, 71, 0
2, 403720, Note_on_c, 1, 73, 127
2, 403880, Note_off_c, 1, 64, 0
2, 403880, Note_off_c, 1, 69, 0
2, 404120, Note_off_c, 1, 73, 0
2, 404120, Note_on_c, 1, 74, 127
2, 404200, Note_off_c, 1, 74, 0
2, 404200, Note_on_c, 1, 76, 127
2, 404280, Note_off_c, 1, 76, 0
2, 404320, Note_on_c, 1, 74, 127
2, 404760, Note_on_c, 1, 73, 127
2, 404760, Note_off_c, 1, 74, 0
2, 405240, Note_on_c, 1, 71, 127
2, 405240, Note_off_c, 1, 73, 0
2, 405280, Note_off_c, 1, 71, 0
2, 405280, Note_on_c, 1, 73, 127
2, 405360, Note_on_c, 1, 71, 127
2, 405360, Note_off_c, 1, 73, 0
2, 405560, Note_on_c, 1, 69, 127
2, 405560, Note_off_c, 1, 71, 0
2, 405960, Note_off_c, 1, 45, 0
2, 405960, Note_off_c, 1, 52, 0
2, 405960, Note_on_c, 1, 61, 127
2, 405960, Note_on_c, 1, 64, 127
2, 405960, Note_on_c, 1, 76, 127
2, 405960, Note_on_c, 1, 79, 127
2, 406360, Note_on_c, 1, 74, 127
2, 406360, Note_off_c, 1, 76, 0
2, 406360, Note_on_c, 1, 78, 127
2, 406360, Note_off_c, 1, 79, 0
2, 406720, Note_off_c, 1, 69, 0
2, 406760, Note_off_c, 1, 61, 0
2, 406760, Note_on_c, 1, 62, 127
2, 406760, Note_off_c, 1, 64, 0
2, 406760, Note_on_c, 1, 66, 127
2, 406760, Note_on_c, 1, 69, 127
2, 406760, Note_off_c, 1, 74, 0
2, 406760, Note_on_c, 1, 76, 127
2, 406760, Note_off_c, 1, 78, 0
2, 406760, Note_on_c, 1, 79, 127
2, 407520, Note_off_c, 1, 76, 0
2, 407520, Note_off_c, 1, 79, 0
2, 407560, Note_on_c, 1, 74, 127
2, 407560, Note_on_c, 1, 78, 127
2, 408320, Note_off_c, 1, 57, 0
2, 408320, Note_on_c, 1, 59, 127
2, 408320, Note_off_c, 1, 66, 0
2, 408320, Note_off_c, 1, 69, 0
2, 408320, Note_on_c, 1, 71, 127
2, 408320, Note_on_c, 1, 76, 127
2, 408320, Note_off_c, 1, 78, 0
2, 408320, Note_on_c, 1, 81, 127
2, 408720, Note_on_c, 1, 80, 127
2, 408720, Note_off_c, 1, 81, 0
2, 409080, Note_off_c, 1, 71, 0
2, 409080, Note_off_c, 1, 74, 0
2, 409080, Note_off_c, 1, 76, 0
2, 409120, Note_off_c, 1, 59, 0
2, 409120, Note_on_c, 1, 61, 127
2, 409120, Note_off_c, 1, 62, 0
2, 409120, Note_on_c, 1, 64, 127
2, 409120, Note_on_c, 1, 69, 127
2, 409120, Note_on_c, 1, 73, 127
2, 409120, Note_on_c, 1, 76, 127
2, 409480, Note_off_c, 1, 80, 0
2, 409520, Note_on_c, 1, 81, 127
2, 409880, Note_off_c, 1, 61, 0
2, 409880, Note_on_c, 1, 62, 127
2, 409880, Note_off_c, 1, 64, 0
2, 409880, Note_on_c, 1, 66, 127
2, 409880, Note_off_c, 1, 69, 0
2, 409880, Note_on_c, 1, 71, 127
2, 409880, Note_off_c, 1, 73, 0
2, 409880, Note_off_c, 1, 76, 0
2, 409880, Note_off_c, 1, 81, 0
2, 410080, Note_on_c, 1, 83, 127
2, 410200, Note_on_c, 1, 81, 127
2, 410200, Note_off_c, 1, 83, 0
2, 410280, Note_on_c, 1, 80, 127
2, 410280, Note_off_c, 1, 81, 0
2, 410400, Note_off_c, 1, 80, 0
2, 410400, Note_on_c, 1, 81, 127
2, 410480, Note_off_c, 1, 81, 0
2, 410480, Note_on_c, 1, 83, 127
2, 410680, Note_off_c, 1, 62, 0
2, 410680, Note_on_c, 1, 64, 127
2, 410680, Note_off_c, 1, 66, 0
2, 410680, Note_on_c, 1, 81, 127
2, 410680, Note_off_c, 1, 83, 0
2, 410840, Note_on_c, 1, 80, 127
2, 410840, Note_off_c, 1, 81, 0
2, 410880, Note_off_c, 1, 80, 0
2, 410880, Note_on_c, 1, 81, 127
2, 410960, Note_on_c, 1, 80, 127
2, 410960, Note_off_c, 1, 81, 0
2, 411000, Note_off_c, 1, 80, 0
2, 411040, Note_on_c, 1, 81, 127
2, 411080, Note_on_c, 1, 80, 127
2, 411080, Note_off_c, 1, 81, 0
2, 411160, Note_off_c, 1, 80, 0
2, 411160, Note_on_c, 1, 81, 127
2, 411200, Note_on_c, 1, 80, 127
2, 411200, Note_off_c, 1, 81, 0
2, 411280, Note_off_c, 1, 80, 0
2, 411280, Note_on_c, 1, 81, 127
2, 411360, Note_on_c, 1, 80, 127
2, 411360, Note_off_c, 1, 81, 0
2, 411480, Note_on_c, 1, 52, 127
2, 411880, Note_on_c, 1, 69, 127
2, 411880, Note_off_c, 1, 71, 0
2, 411880, Note_on_c, 1, 78, 127
2, 411880, Note_off_c, 1, 80, 0
2, 412280, Note_on_c, 1, 68, 127
2, 412280, Note_off_c, 1, 69, 0
2, 412280, Note_on_c, 1, 76, 127
2, 412280, Note_off_c, 1, 78, 0
2, 412680, Note_off_c, 1, 52, 0
2, 412680, Note_on_c, 1, 54, 127
2, 412680, Note_on_c, 1, 74, 127
2, 412680, Note_off_c, 1, 76, 0
2, 413080, Note_off_c, 1, 54, 0
2, 413080, Note_on_c, 1, 55, 127
2, 413080, Note_off_c, 1, 68, 0
2, 413080, Note_on_c, 1, 69, 127
2, 413080, Note_on_c, 1, 73, 127
2, 413080, Note_off_c, 1, 74, 0
2, 413680, Note_off_c, 1, 69, 0
2, 413680, Note_off_c, 1, 73, 0
2, 413680, Note_on_c, 1, 74, 127
2, 413760, Note_off_c, 1, 74, 0
2, 413760, Note_on_c, 1, 76, 127
2, 413880, Note_on_c, 1, 74, 127
2, 413880, Note_off_c, 1, 76, 0
2, 414280, Note_on_c, 1, 73, 127
2, 414280, Note_off_c, 1, 74, 0
2, 414720, Note_on_c, 1, 71, 127
2, 414720, Note_off_c, 1, 73, 0
2, 414800, Note_off_c, 1, 71, 0
2, 414800, Note_on_c, 1, 73, 127
2, 414840, Note_on_c, 1, 71, 127
2, 414840, Note_off_c, 1, 73, 0
2, 415040, Note_on_c, 1, 69, 127
2, 415040, Note_off_c, 1, 71, 0
2, 415440, Note_on_c, 1, 47, 127
2, 415440, Note_off_c, 1, 55, 0
2, 415440, Note_off_c, 1, 64, 0
2, 415440, Note_off_c, 1, 69, 0
2, 415440, Note_on_c, 1, 73, 127
2, 415440, Note_on_c, 1, 76, 127
2, 415520, Note_on_c, 1, 78, 127
2, 415560, Note_on_c, 1, 46, 127
2, 415560, Note_off_c, 1, 47, 0
2, 415600, Note_off_c, 1, 78, 0
2, 415600, Note_on_c, 1, 79, 127
2, 415680, Note_off_c, 1, 46, 0
2, 415680, Note_on_c, 1, 47, 127
2, 415800, Note_on_c, 1, 46, 127
2, 415800, Note_off_c, 1, 47, 0
2, 415840, Note_on_c, 1, 78, 127
2, 415840, Note_off_c, 1, 79, 0
2, 416240, Note_off_c, 1, 46, 0
2, 416240, Note_on_c, 1, 47, 127
2, 416240, Note_off_c, 1, 78, 0
2, 416360, Note_on_c, 1, 74, 127
2, 416360, Note_off_c, 1, 76, 0
2, 416440, Note_off_c, 1, 74, 0
2, 416440, Note_on_c, 1, 76, 127
2, 416520, Note_on_c, 1, 74, 127
2, 416520, Note_off_c, 1, 76, 0
2, 416560, Note_off_c, 1, 74, 0
2, 416560, Note_on_c, 1, 76, 127
2, 416640, Note_on_c, 1, 74, 127
2, 416640, Note_off_c, 1, 76, 0
2, 416720, Note_off_c, 1, 74, 0
2, 416720, Note_on_c, 1, 76, 127
2, 416760, Note_on_c, 1, 74, 127
2, 416760, Note_off_c, 1, 76, 0
2, 416840, Note_off_c, 1, 47, 0
2, 416840, Note_on_c, 1, 49, 127
2, 416920, Note_off_c, 1, 49, 0
2, 416960, Note_on_c, 1, 50, 127
2, 417040, Note_on_c, 1, 45, 127
2, 417040, Note_off_c, 1, 50, 0
2, 417040, Note_on_c, 1, 71, 127
2, 417040, Note_off_c, 1, 73, 0
2, 417120, Note_on_c, 1, 44, 127
2, 417120, Note_off_c, 1, 45, 0
2, 417240, Note_off_c, 1, 44, 0
2, 417240, Note_on_c, 1, 45, 127
2, 417320, Note_on_c, 1, 44, 127
2, 417320, Note_off_c, 1, 45, 0
2, 417440, Note_off_c, 1, 74, 0
2, 417440, Note_on_c, 1, 76, 127
2, 417840, Note_off_c, 1, 44, 0
2, 417840, Note_on_c, 1, 45, 127
2, 417840, Note_on_c, 1, 74, 127
2, 417840, Note_off_c, 1, 76, 0
2, 418040, Note_on_c, 1, 73, 127
2, 418040, Note_off_c, 1, 74, 0
2, 418240, Note_off_c, 1, 73, 0
2, 418240, Note_on_c, 1, 74, 127
2, 418440, Note_off_c, 1, 45, 0
2, 418440, Note_on_c, 1, 47, 127
2, 418440, Note_off_c, 1, 74, 0
2, 418440, Note_on_c, 1, 76, 127
2, 418520, Note_off_c, 1, 47, 0
2, 418520, Note_on_c, 1, 49, 127
2, 418640, Note_on_c, 1, 42, 127
2, 418640, Note_off_c, 1, 49, 0
2, 418880, Note_on_c, 1, 75, 127
2, 418880, Note_off_c, 1, 76, 0
2, 418960, Note_off_c, 1, 75, 0
2, 418960, Note_on_c, 1, 76, 127
2, 419040, Note_on_c, 1, 69, 127
2, 419040, Note_off_c, 1, 71, 0
2, 419040, Note_on_c, 1, 75, 127
2, 419040, Note_off_c, 1, 76, 0
2, 419080, Note_off_c, 1, 75, 0
2, 419080, Note_on_c, 1, 76, 127
2, 419160, Note_on_c, 1, 75, 127
2, 419160, Note_off_c, 1, 76, 0
2, 419240, Note_off_c, 1, 75, 0
2, 419240, Note_on_c, 1, 76, 127
2, 419280, Note_on_c, 1, 75, 127
2, 419280, Note_off_c, 1, 76, 0
2, 419360, Note_off_c, 1, 75, 0
2, 419360, Note_on_c, 1, 76, 127
2, 419400, Note_off_c, 1, 42, 0
2, 419400, Note_on_c, 1, 47, 127
2, 419400, Note_off_c, 1, 69, 0
2, 419400, Note_on_c, 1, 73, 127
2, 419400, Note_on_c, 1, 75, 127
2, 419400, Note_off_c, 1, 76, 0
2, 419440, Note_off_c, 1, 75, 0
2, 419440, Note_on_c, 1, 76, 127
2, 419520, Note_on_c, 1, 75, 127
2, 419520, Note_off_c, 1, 76, 0
2, 419760, Note_on_c, 1, 71, 127
2, 419760, Note_off_c, 1, 73, 0
2, 419920, Note_on_c, 1, 73, 127
2, 419920, Note_off_c, 1, 75, 0
2, 420040, Note_off_c, 1, 73, 0
2, 420040, Note_on_c, 1, 75, 127
2, 420160, Note_on_c, 1, 40, 127
2, 420160, Note_off_c, 1, 47, 0
2, 420160, Note_on_c, 1, 69, 127
2, 420160, Note_off_c, 1, 71, 0
2, 420160, Note_off_c, 1, 75, 0
2, 420160, Note_on_c, 1, 76, 127
2, 420560, Note_on_c, 1, 47, 127
2, 420760, Note_off_c, 1, 76, 0
2, 420760, Note_on_c, 1, 78, 127
2, 420880, Note_on_c, 1, 75, 127
2, 420880, Note_off_c, 1, 78, 0
2, 420960, Note_off_c, 1, 47, 0
2, 420960, Note_on_c, 1, 52, 127
2, 421760, Note_on_c, 1, 68, 127
2, 421760, Note_off_c, 1, 69, 0
2, 421760, Note_off_c, 1, 75, 0
2, 421760, Note_on_c, 1, 76, 127
2, 421840, Note_off_c, 1, 68, 0
2, 421840, Note_on_c, 1, 69, 127
2, 421920, Note_on_c, 1, 68, 127
2, 421920, Note_off_c, 1, 69, 0
2, 422000, Note_off_c, 1, 68, 0
2, 422000, Note_on_c, 1, 69, 127
2, 422120, Note_on_c, 1, 68, 127
2, 422120, Note_off_c, 1, 69, 0
2, 422560, Note_off_c, 1, 40, 0
2, 422600, Note_on_c, 1, 50, 127
2, 422600, Note_off_c, 1, 52, 0
2, 422600, Note_on_c, 1, 59, 127
2, 422600, Note_on_c, 1, 64, 127
2, 422600, Note_off_c, 1, 76, 0
2, 423200, Note_off_c, 1, 68, 0
2, 423200, Note_on_c, 1, 69, 127
2, 423280, Note_off_c, 1, 69, 0
2, 423280, Note_on_c, 1, 71, 127
2, 423400, Note_on_c, 1, 69, 127
2, 423400, Note_off_c, 1, 71, 0
2, 423760, Note_off_c, 1, 69, 0
2, 423800, Note_on_c, 1, 68, 127
2, 424240, Note_on_c, 1, 66, 127
2, 424240, Note_off_c, 1, 68, 0
2, 424320, Note_off_c, 1, 66, 0
2, 424320, Note_on_c, 1, 68, 127
2, 424360, Note_on_c, 1, 66, 127
2, 424360, Note_off_c, 1, 68, 0
2, 424560, Note_off_c, 1, 66, 0
2, 424960, Note_on_c, 1, 49, 127
2, 424960, Note_off_c, 1, 50, 0
2, 424960, Note_on_c, 1, 57, 127
2, 424960, Note_off_c, 1, 59, 0
2, 424960, Note_off_c, 1, 64, 0
2, 424960, Note_on_c, 1, 67, 127
2, 424960, Note_on_c, 1, 76, 127
2, 425360, Note_on_c, 1, 66, 127
2, 425360, Note_off_c, 1, 67, 0
2, 425360, Note_on_c, 1, 74, 127
2, 425360, Note_off_c, 1, 76, 0
2, 425960, Note_off_c, 1, 49, 0
2, 425960, Note_on_c, 1, 50, 127
2, 425960, Note_off_c, 1, 57, 0
2, 426160, Note_off_c, 1, 50, 0
2, 426160, Note_on_c, 1, 52, 127
2, 426360, Note_on_c, 1, 50, 127
2, 426360, Note_off_c, 1, 52, 0
2, 426560, Note_on_c, 1, 49, 127
2, 426560, Note_off_c, 1, 50, 0
2, 426560, Note_off_c, 1, 66, 0
2, 426560, Note_on_c, 1, 67, 127
2, 426560, Note_off_c, 1, 74, 0
2, 426560, Note_on_c, 1, 76, 127
2, 426760, Note_on_c, 1, 47, 127
2, 426760, Note_off_c, 1, 49, 0
2, 426960, Note_on_c, 1, 46, 127
2, 426960, Note_off_c, 1, 47, 0
2, 427160, Note_off_c, 1, 46, 0
2, 427160, Note_on_c, 1, 47, 127
2, 427360, Note_on_c, 1, 46, 127
2, 427360, Note_off_c, 1, 47, 0
2, 427360, Note_on_c, 1, 66, 127
2, 427360, Note_off_c, 1, 67, 0
2, 427960, Note_off_c, 1, 76, 0
2, 427960, Note_on_c, 1, 78, 127
2, 428040, Note_off_c, 1, 78, 0
2, 428040, Note_on_c, 1, 79, 127
2, 428160, Note_on_c, 1, 49, 127
2, 428160, Note_on_c, 1, 78, 127
2, 428160, Note_off_c, 1, 79, 0
2, 428560, Note_on_c, 1, 76, 127
2, 428560, Note_off_c, 1, 78, 0
2, 428960, Note_off_c, 1, 49, 0
2, 428960, Note_on_c, 1, 54, 127
2, 429000, Note_off_c, 1, 76, 0
2, 429040, Note_on_c, 1, 74, 127
2, 429080, Note_off_c, 1, 74, 0
2, 429080, Note_on_c, 1, 76, 127
2, 429160, Note_on_c, 1, 74, 127
2, 429160, Note_off_c, 1, 76, 0
2, 429320, Note_off_c, 1, 74, 0
2, 429360, Note_on_c, 1, 73, 127
2, 429720, Note_off_c, 1, 46, 0
2, 429720, Note_on_c, 1, 47, 127
2, 429720, Note_off_c, 1, 73, 0
2, 429720, Note_on_c, 1, 74, 127
2, 430120, Note_on_c, 1, 64, 127
2, 430120, Note_off_c, 1, 66, 0
2, 430120, Note_on_c, 1, 70, 127
2, 430120, Note_on_c, 1, 73, 127
2, 430120, Note_off_c, 1, 74, 0
2, 430520, Note_off_c, 1, 54, 0
2, 430520, Note_on_c, 1, 59, 127
2, 430520, Note_off_c, 1, 64, 0
2, 430520, Note_on_c, 1, 66, 127
2, 430720, Note_off_c, 1, 47, 0
2, 430720, Note_on_c, 1, 49, 127
2, 430920, Note_off_c, 1, 49, 0
2, 430920, Note_on_c, 1, 50, 127
2, 431120, Note_on_c, 1, 49, 127
2, 431120, Note_off_c, 1, 50, 0
2, 431320, Note_on_c, 1, 47, 127
2, 431320, Note_off_c, 1, 49, 0
2, 431320, Note_off_c, 1, 59, 0
2, 431320, Note_off_c, 1, 70, 0
2, 431320, Note_on_c, 1, 71, 127
2, 431320, Note_off_c, 1, 73, 0
2, 431320, Note_on_c, 1, 74, 127
2, 431520, Note_on_c, 1, 45, 127
2, 431520, Note_off_c, 1, 47, 0
2, 431720, Note_on_c, 1, 43, 127
2, 431720, Note_off_c, 1, 45, 0
2, 431920, Note_off_c, 1, 43, 0
2, 431920, Note_on_c, 1, 45, 127
2, 432040, Note_off_c, 1, 45, 0
2, 432040, Note_on_c, 1, 47, 127
2, 432120, Note_on_c, 1, 40, 127
2, 432120, Note_off_c, 1, 47, 0
2, 432120, Note_off_c, 1, 66, 0
2, 432120, Note_on_c, 1, 67, 127
2, 432120, Note_off_c, 1, 71, 0
2, 432120, Note_on_c, 1, 72, 127
2, 432120, Note_off_c, 1, 74, 0
2, 432720, Note_off_c, 1, 72, 0
2, 432720, Note_on_c, 1, 74, 127
2, 432840, Note_off_c, 1, 74, 0
2, 432840, Note_on_c, 1, 76, 127
2, 432920, Note_off_c, 1, 40, 0
2, 432920, Note_on_c, 1, 52, 127
2, 432920, Note_on_c, 1, 74, 127
2, 432920, Note_off_c, 1, 76, 0
2, 433320, Note_on_c, 1, 72, 127
2, 433320, Note_off_c, 1, 74, 0
2, 433720, Note_off_c, 1, 52, 0
2, 433720, Note_on_c, 1, 55, 127
2, 433720, Note_on_c, 1, 66, 127
2, 433720, Note_off_c, 1, 67, 0
2, 433840, Note_on_c, 1, 54, 127
2, 433840, Note_off_c, 1, 55, 0
2, 433920, Note_on_c, 1, 52, 127
2, 433920, Note_off_c, 1, 54, 0
2, 433920, Note_on_c, 1, 71, 127
2, 433920, Note_off_c, 1, 72, 0
2, 434040, Note_off_c, 1, 52, 0
2, 434040, Note_on_c, 1, 54, 127
2, 434120, Note_off_c, 1, 54, 0
2, 434120, Note_on_c, 1, 55, 127
2, 434120, Note_off_c, 1, 71, 0
2, 434120, Note_on_c, 1, 73, 127
2, 434240, Note_on_c, 1, 54, 127
2, 434240, Note_off_c, 1, 55, 0
2, 434320, Note_on_c, 1, 52, 127
2, 434320, Note_off_c, 1, 54, 0
2, 434320, Note_on_c, 1, 70, 127
2, 434320, Note_off_c, 1, 73, 0
2, 434440, Note_off_c, 1, 52, 0
2, 434440, Note_on_c, 1, 54, 127
2, 434520, Note_off_c, 1, 54, 0
2, 434520, Note_on_c, 1, 55, 127
2, 434520, Note_on_c, 1, 64, 127
2, 434520, Note_off_c, 1, 66, 0
2, 434520, Note_off_c, 1, 70, 0
2, 434520, Note_on_c, 1, 71, 127
2, 435120, Note_off_c, 1, 64, 0
2, 435120, Note_on_c, 1, 66, 127
2, 435200, Note_off_c, 1, 66, 0
2, 435200, Note_on_c, 1, 67, 127
2, 435320, Note_on_c, 1, 50, 127
2, 435320, Note_off_c, 1, 55, 0
2, 435320, Note_on_c, 1, 66, 127
2, 435320, Note_off_c, 1, 67, 0
2, 435720, Note_on_c, 1, 64, 127
2, 435720, Note_off_c, 1, 66, 0
2, 436120, Note_off_c, 1, 50, 0
2, 436120, Note_on_c, 1, 52, 127
2, 436120, Note_on_c, 1, 62, 127
2, 436120, Note_off_c, 1, 64, 0
2, 436520, Note_on_c, 1, 61, 127
2, 436520, Note_off_c, 1, 62, 0
2, 436920, Note_off_c, 1, 52, 0
2, 436920, Note_on_c, 1, 54, 127
2, 436920, Note_off_c, 1, 61, 0
2, 436920, Note_on_c, 1, 62, 127
2, 437480, Note_off_c, 1, 62, 0
2, 437480, Note_on_c, 1, 64, 127
2, 437480, Note_off_c, 1, 71, 0
2, 437480, Note_on_c, 1, 73, 127
2, 437600, Note_off_c, 1, 64, 0
2, 437600, Note_on_c, 1, 66, 127
2, 437600, Note_off_c, 1, 73, 0
2, 437600, Note_on_c, 1, 74, 127
2, 437680, Note_on_c, 1, 61, 127
2, 437680, Note_off_c, 1, 74, 0
2, 438080, Note_off_c, 1, 61, 0
2, 438080, Note_on_c, 1, 64, 127
2, 438280, Note_on_c, 1, 62, 127
2, 438280, Note_off_c, 1, 64, 0
2, 438280, Note_off_c, 1, 66, 0
2, 438280, Note_on_c, 1, 71, 127
2, 438480, Note_off_c, 1, 62, 0
2, 438480, Note_on_c, 1, 64, 127
2, 438640, Note_on_c, 1, 70, 127
2, 438640, Note_off_c, 1, 71, 0
2, 438680, Note_off_c, 1, 70, 0
2, 438680, Note_on_c, 1, 71, 127
2, 438760, Note_on_c, 1, 70, 127
2, 438760, Note_off_c, 1, 71, 0
2, 438800, Note_off_c, 1, 70, 0
2, 438840, Note_on_c, 1, 71, 127
2, 438880, Note_on_c, 1, 70, 127
2, 438880, Note_off_c, 1, 71, 0
2, 439080, Note_off_c, 1, 70, 0
2, 439080, Note_on_c, 1, 74, 127
2, 439280, Note_off_c, 1, 54, 0
2, 439280, Note_on_c, 1, 59, 127
2, 439280, Note_on_c, 1, 73, 127
2, 439280, Note_off_c, 1, 74, 0
2, 439680, Note_off_c, 1, 64, 0
2, 439680, Note_on_c, 1, 67, 127
2, 439680, Note_on_c, 1, 71, 127
2, 439680, Note_off_c, 1, 73, 0
2, 439880, Note_on_c, 1, 66, 127
2, 439880, Note_off_c, 1, 67, 0
2, 440080, Note_on_c, 1, 64, 127
2, 440080, Note_off_c, 1, 66, 0
2, 440280, Note_on_c, 1, 55, 127
2, 440480, Note_on_c, 1, 54, 127
2, 440480, Note_off_c, 1, 55, 0
2, 440480, Note_off_c, 1, 59, 0
2, 440680, Note_on_c, 1, 52, 127
2, 440680, Note_off_c, 1, 54, 0
2, 440880, Note_on_c, 1, 50, 127
2, 440880, Note_off_c, 1, 52, 0
2, 440880, Note_on_c, 1, 62, 127
2, 440880, Note_off_c, 1, 64, 0
2, 441080, Note_on_c, 1, 49, 127
2, 441080, Note_off_c, 1, 50, 0
2, 441280, Note_on_c, 1, 47, 127
2, 441280, Note_off_c, 1, 49, 0
2, 441480, Note_off_c, 1, 47, 0
2, 441480, Note_on_c, 1, 49, 127
2, 441600, Note_off_c, 1, 49, 0
2, 441600, Note_on_c, 1, 50, 127
2, 441680, Note_off_c, 1, 62, 0
2, 441680, Note_off_c, 1, 71, 0
2, 441720, Note_on_c, 1, 41, 127
2, 441720, Note_off_c, 1, 50, 0
2, 441720, Note_on_c, 1, 61, 127
2, 442280, Note_off_c, 1, 61, 0
2, 442280, Note_on_c, 1, 73, 127
2, 442400, Note_off_c, 1, 73, 0
2, 442400, Note_on_c, 1, 74, 127
2, 442480, Note_off_c, 1, 41, 0
2, 442480, Note_on_c, 1, 53, 127
2, 442480, Note_on_c, 1, 73, 127
2, 442480, Note_off_c, 1, 74, 0
2, 442880, Note_on_c, 1, 71, 127
2, 442880, Note_off_c, 1, 73, 0
2, 443280, Note_on_c, 1, 49, 127
2, 443280, Note_off_c, 1, 53, 0
2, 443360, Note_on_c, 1, 69, 127
2, 443360, Note_off_c, 1, 71, 0
2, 443400, Note_off_c, 1, 69, 0
2, 443440, Note_on_c, 1, 71, 127
2, 443480, Note_on_c, 1, 69, 127
2, 443480, Note_off_c, 1, 71, 0
2, 443560, Note_off_c, 1, 69, 0
2, 443560, Note_on_c, 1, 71, 127
2, 443600, Note_on_c, 1, 69, 127
2, 443600, Note_off_c, 1, 71, 0
2, 443760, Note_on_c, 1, 68, 127
2, 443760, Note_off_c, 1, 69, 0
2, 444080, Note_off_c, 1, 49, 0
2, 444080, Note_on_c, 1, 54, 127
2, 444080, Note_off_c, 1, 68, 0
2, 444080, Note_on_c, 1, 69, 127
2, 444280, Note_on_c, 1, 68, 127
2, 444280, Note_off_c, 1, 69, 0
2, 444480, Note_on_c, 1, 66, 127
2, 444480, Note_off_c, 1, 68, 0
2, 444680, Note_on_c, 1, 65, 127
2, 444680, Note_off_c, 1, 66, 0
2, 444880, Note_off_c, 1, 65, 0
2, 444880, Note_on_c, 1, 66, 127
2, 445080, Note_off_c, 1, 66, 0
2, 445080, Note_on_c, 1, 68, 127
2, 445280, Note_off_c, 1, 54, 0
2, 445280, Note_on_c, 1, 55, 127
2, 445280, Note_off_c, 1, 68, 0
2, 445280, Note_on_c, 1, 69, 127
2, 445480, Note_on_c, 1, 54, 127
2, 445480, Note_off_c, 1, 55, 0
2, 445480, Note_off_c, 1, 69, 0
2, 445480, Note_on_c, 1, 71, 127
2, 445680, Note_on_c, 1, 52, 127
2, 445680, Note_off_c, 1, 54, 0
2, 445680, Note_off_c, 1, 71, 0
2, 445680, Note_on_c, 1, 73, 127
2, 445880, Note_on_c, 1, 50, 127
2, 445880, Note_off_c, 1, 52, 0
2, 445880, Note_off_c, 1, 73, 0
2, 445880, Note_on_c, 1, 74, 127
2, 446080, Note_on_c, 1, 49, 127
2, 446080, Note_off_c, 1, 50, 0
2, 446080, Note_off_c, 1, 74, 0
2, 446080, Note_on_c, 1, 76, 127
2, 446280, Note_off_c, 1, 49, 0
2, 446280, Note_on_c, 1, 50, 127
2, 446280, Note_off_c, 1, 76, 0
2, 446280, Note_on_c, 1, 78, 127
2, 446480, Note_on_c, 1, 49, 127
2, 446480, Note_off_c, 1, 50, 0
2, 446480, Note_off_c, 1, 78, 0
2, 446480, Note_on_c, 1, 81, 127
2, 446840, Note_on_c, 1, 79, 127
2, 446840, Note_off_c, 1, 81, 0
2, 447080, Note_off_c, 1, 79, 0
2, 447080, Note_on_c, 1, 81, 127
2, 447160, Note_off_c, 1, 81, 0
2, 447160, Note_on_c, 1, 83, 127
2, 447280, Note_on_c, 1, 52, 127
2, 447280, Note_on_c, 1, 81, 127
2, 447280, Note_off_c, 1, 83, 0
2, 447640, Note_off_c, 1, 81, 0
2, 447680, Note_on_c, 1, 79, 127
2, 448040, Note_off_c, 1, 52, 0
2, 448040, Note_on_c, 1, 57, 127
2, 448120, Note_on_c, 1, 78, 127
2, 448120, Note_off_c, 1, 79, 0
2, 448200, Note_off_c, 1, 78, 0
2, 448200, Note_on_c, 1, 79, 127
2, 448240, Note_on_c, 1, 78, 127
2, 448240, Note_off_c, 1, 79, 0
2, 448440, Note_on_c, 1, 76, 127
2, 448440, Note_off_c, 1, 78, 0
2, 448440, Note_on_c, 1, 79, 127
2, 448840, Note_off_c, 1, 49, 0
2, 448840, Note_on_c, 1, 50, 127
2, 449240, Note_on_c, 1, 74, 127
2, 449240, Note_off_c, 1, 76, 0
2, 449240, Note_on_c, 1, 78, 127
2, 449240, Note_off_c, 1, 79, 0
2, 449640, Note_off_c, 1, 57, 0
2, 449640, Note_off_c, 1, 78, 0
2, 449640, Note_on_c, 1, 79, 127
2, 449760, Note_on_c, 1, 45, 127
2, 449760, Note_off_c, 1, 50, 0
2, 449760, Note_on_c, 1, 78, 127
2, 449760, Note_off_c, 1, 79, 0
2, 449840, Note_off_c, 1, 45, 0
2, 449840, Note_on_c, 1, 47, 127
2, 449840, Note_off_c, 1, 78, 0
2, 449840, Note_on_c, 1, 79, 127
2, 449920, Note_on_c, 1, 78, 127
2, 449920, Note_off_c, 1, 79, 0
2, 449960, Note_off_c, 1, 47, 0
2, 449960, Note_on_c, 1, 49, 127
2, 449960, Note_off_c, 1, 78, 0
2, 449960, Note_on_c, 1, 79, 127
2, 450040, Note_off_c, 1, 49, 0
2, 450040, Note_on_c, 1, 50, 127
2, 450040, Note_on_c, 1, 78, 127
2, 450040, Note_off_c, 1, 79, 0
2, 450120, Note_off_c, 1, 50, 0
2, 450120, Note_off_c, 1, 78, 0
2, 450120, Note_on_c, 1, 79, 127
2, 450160, Note_on_c, 1, 52, 127
2, 450160, Note_on_c, 1, 78, 127
2, 450160, Note_off_c, 1, 79, 0
2, 450240, Note_off_c, 1, 52, 0
2, 450240, Note_on_c, 1, 54, 127
2, 450240, Note_off_c, 1, 78, 0
2, 450240, Note_on_c, 1, 79, 127
2, 450320, Note_off_c, 1, 54, 0
2, 450320, Note_on_c, 1, 55, 127
2, 450320, Note_on_c, 1, 78, 127
2, 450320, Note_off_c, 1, 79, 0
2, 450440, Note_off_c, 1, 55, 0
2, 450440, Note_on_c, 1, 57, 127
2, 450520, Note_off_c, 1, 57, 0
2, 450520, Note_on_c, 1, 59, 127
2, 450640, Note_off_c, 1, 59, 0
2, 450640, Note_on_c, 1, 61, 127
2, 450720, Note_off_c, 1, 61, 0
2, 450720, Note_on_c, 1, 62, 127
2, 450840, Note_on_c, 1, 61, 127
2, 450840, Note_off_c, 1, 62, 0
2, 450920, Note_on_c, 1, 59, 127
2, 450920, Note_off_c, 1, 61, 0
2, 451040, Note_off_c, 1, 59, 0
2, 451040, Note_on_c, 1, 61, 127
2, 451120, Note_on_c, 1, 57, 127
2, 451120, Note_off_c, 1, 61, 0
2, 451240, Note_off_c, 1, 57, 0
2, 451240, Note_on_c, 1, 62, 127
2, 451240, Note_on_c, 1, 71, 127
2, 451240, Note_off_c, 1, 74, 0
2, 451240, Note_on_c, 1, 76, 127
2, 451240, Note_off_c, 1, 78, 0
2, 451240, Note_on_c, 1, 80, 127
2, 451840, Note_off_c, 1, 80, 0
2, 451840, Note_on_c, 1, 81, 127
2, 451920, Note_off_c, 1, 81, 0
2, 451920, Note_on_c, 1, 83, 127
2, 452000, Note_off_c, 1, 71, 0
2, 452040, Note_on_c, 1, 61, 127
2, 452040, Note_off_c, 1, 62, 0
2, 452040, Note_on_c, 1, 64, 127
2, 452040, Note_on_c, 1, 81, 127
2, 452040, Note_off_c, 1, 83, 0
2, 452400, Note_off_c, 1, 81, 0
2, 452440, Note_on_c, 1, 80, 127
2, 452800, Note_on_c, 1, 57, 127
2, 452800, Note_off_c, 1, 61, 0
2, 452800, Note_off_c, 1, 64, 0
2, 452800, Note_on_c, 1, 69, 127
2, 452800, Note_on_c, 1, 73, 127
2, 452800, Note_off_c, 1, 76, 0
2, 453000, Note_on_c, 1, 78, 127
2, 453000, Note_off_c, 1, 80, 0
2, 453200, Note_on_c, 1, 68, 127
2, 453200, Note_off_c, 1, 69, 0
2, 453200, Note_on_c, 1, 76, 127
2, 453200, Note_off_c, 1, 78, 0
2, 453600, Note_off_c, 1, 57, 0
2, 453600, Note_on_c, 1, 59, 127
2, 453600, Note_on_c, 1, 66, 127
2, 453600, Note_off_c, 1, 68, 0
2, 453600, Note_on_c, 1, 71, 127
2, 453600, Note_off_c, 1, 73, 0
2, 453600, Note_on_c, 1, 74, 127
2, 453600, Note_off_c, 1, 76, 0
2, 453720, Note_on_c, 1, 73, 127
2, 453720, Note_off_c, 1, 74, 0
2, 453800, Note_off_c, 1, 73, 0
2, 453800, Note_on_c, 1, 74, 127
2, 454200, Note_on_c, 1, 76, 127
2, 454240, Note_off_c, 1, 74, 0
2, 454320, Note_off_c, 1, 76, 0
2, 454320, Note_on_c, 1, 78, 127
2, 454400, Note_on_c, 1, 56, 127
2, 454400, Note_off_c, 1, 66, 0
2, 454400, Note_on_c, 1, 76, 127
2, 454400, Note_off_c, 1, 78, 0
2, 454800, Note_on_c, 1, 74, 127
2, 454800, Note_off_c, 1, 76, 0
2, 455200, Note_on_c, 1, 52, 127
2, 455200, Note_off_c, 1, 56, 0
2, 455200, Note_off_c, 1, 59, 0
2, 455200, Note_on_c, 1, 64, 127
2, 455200, Note_on_c, 1, 68, 127
2, 455200, Note_off_c, 1, 71, 0
2, 455280, Note_on_c, 1, 73, 127
2, 455280, Note_off_c, 1, 74, 0
2, 455320, Note_off_c, 1, 73, 0
2, 455320, Note_on_c, 1, 74, 127
2, 455400, Note_on_c, 1, 73, 127
2, 455400, Note_off_c, 1, 74, 0
2, 455600, Note_on_c, 1, 62, 127
2, 455600, Note_off_c, 1, 64, 0
2, 455600, Note_on_c, 1, 71, 127
2, 455600, Note_off_c, 1, 73, 0
2, 456000, Note_off_c, 1, 52, 0
2, 456000, Note_on_c, 1, 54, 127
2, 456000, Note_on_c, 1, 61, 127
2, 456000, Note_off_c, 1, 62, 0
2, 456000, Note_on_c, 1, 66, 127
2, 456000, Note_off_c, 1, 68, 0
2, 456000, Note_on_c, 1, 69, 127
2, 456000, Note_off_c, 1, 71, 0
2, 456600, Note_off_c, 1, 69, 0
2, 456600, Note_on_c, 1, 71, 127
2, 456680, Note_off_c, 1, 71, 0
2, 456680, Note_on_c, 1, 73, 127
2, 456800, Note_on_c, 1, 51, 127
2, 456800, Note_off_c, 1, 61, 0
2, 456800, Note_on_c, 1, 71, 127
2, 456800, Note_off_c, 1, 73, 0
2, 457200, Note_on_c, 1, 69, 127
2, 457200, Note_off_c, 1, 71, 0
2, 457600, Note_on_c, 1, 47, 127
2, 457600, Note_off_c, 1, 51, 0
2, 457600, Note_off_c, 1, 54, 0
2, 457600, Note_on_c, 1, 59, 127
2, 457600, Note_on_c, 1, 63, 127
2, 457600, Note_off_c, 1, 66, 0
2, 457600, Note_on_c, 1, 68, 127
2, 457600, Note_off_c, 1, 69, 0
2, 457760, Note_off_c, 1, 68, 0
2, 457800, Note_on_c, 1, 69, 127
2, 457960, Note_off_c, 1, 69, 0
2, 458000, Note_on_c, 1, 68, 127
2, 458160, Note_off_c, 1, 68, 0
2, 458160, Note_on_c, 1, 69, 127
2, 458360, Note_off_c, 1, 47, 0
2, 458360, Note_on_c, 1, 52, 127
2, 458360, Note_off_c, 1, 63, 0
2, 458360, Note_on_c, 1, 64, 127
2, 458480, Note_on_c, 1, 40, 127
2, 458480, Note_off_c, 1, 52, 0
2, 458520, Note_on_c, 1, 68, 127
2, 458520, Note_off_c, 1, 69, 0
2, 458560, Note_off_c, 1, 40, 0
2, 458560, Note_on_c, 1, 42, 127
2, 458600, Note_off_c, 1, 68, 0
2, 458600, Note_on_c, 1, 69, 127
2, 458680, Note_off_c, 1, 42, 0
2, 458680, Note_on_c, 1, 44, 127
2, 458680, Note_on_c, 1, 68, 127
2, 458680, Note_off_c, 1, 69, 0
2, 458760, Note_off_c, 1, 44, 0
2, 458760, Note_on_c, 1, 45, 127
2, 458880, Note_off_c, 1, 45, 0
2, 458880, Note_on_c, 1, 47, 127
2, 458960, Note_off_c, 1, 47, 0
2, 458960, Note_on_c, 1, 49, 127
2, 459080, Note_off_c, 1, 49, 0
2, 459080, Note_on_c, 1, 50, 127
2, 459160, Note_off_c, 1, 50, 0
2, 459160, Note_on_c, 1, 52, 127
2, 459280, Note_off_c, 1, 52, 0
2, 459280, Note_on_c, 1, 54, 127
2, 459360, Note_off_c, 1, 54, 0
2, 459360, Note_on_c, 1, 56, 127
2, 459480, Note_off_c, 1, 56, 0
2, 459480, Note_on_c, 1, 57, 127
2, 459520, Note_off_c, 1, 68, 0
2, 459560, Note_off_c, 1, 57, 0
2, 459560, Note_off_c, 1, 64, 0
2, 459560, Note_on_c, 1, 66, 127
2, 459680, Note_off_c, 1, 59, 0
2, 459680, Note_on_c, 1, 61, 127
2, 459760, Note_off_c, 1, 61, 0
2, 459760, Note_on_c, 1, 62, 127
2, 459880, Note_on_c, 1, 61, 127
2, 459880, Note_off_c, 1, 62, 0
2, 459960, Note_on_c, 1, 59, 127
2, 459960, Note_off_c, 1, 61, 0
2, 459960, Note_on_c, 1, 64, 127
2, 459960, Note_off_c, 1, 66, 0
2, 460040, Note_off_c, 1, 59, 0
2, 460080, Note_on_c, 1, 57, 127
2, 460160, Note_on_c, 1, 56, 127
2, 460160, Note_off_c, 1, 57, 0
2, 460240, Note_on_c, 1, 54, 127
2, 460240, Note_off_c, 1, 56, 0
2, 460360, Note_on_c, 1, 52, 127
2, 460360, Note_off_c, 1, 54, 0
2, 460440, Note_on_c, 1, 50, 127
2, 460440, Note_off_c, 1, 52, 0
2, 460560, Note_on_c, 1, 49, 127
2, 460560, Note_off_c, 1, 50, 0
2, 460640, Note_off_c, 1, 49, 0
2, 460680, Note_on_c, 1, 47, 127
2, 460760, Note_on_c, 1, 45, 127
2, 460760, Note_off_c, 1, 47, 0
2, 460760, Note_off_c, 1, 64, 0
2, 460760, Note_on_c, 1, 73, 127
2, 460840, Note_on_c, 1, 71, 127
2, 460840, Note_off_c, 1, 73, 0
2, 460920, Note_off_c, 1, 71, 0
2, 460920, Note_on_c, 1, 73, 127
2, 461360, Note_off_c, 1, 73, 0
2, 461360, Note_on_c, 1, 74, 127
2, 461480, Note_off_c, 1, 74, 0
2, 461480, Note_on_c, 1, 76, 127
2, 461560, Note_on_c, 1, 74, 127
2, 461560, Note_off_c, 1, 76, 0
2, 461960, Note_on_c, 1, 73, 127
2, 461960, Note_off_c, 1, 74, 0
2, 462360, Note_off_c, 1, 45, 0
2, 462440, Note_on_c, 1, 71, 127
2, 462440, Note_off_c, 1, 73, 0
2, 462480, Note_off_c, 1, 71, 0
2, 462480, Note_on_c, 1, 73, 127
2, 462560, Note_on_c, 1, 71, 127
2, 462560, Note_off_c, 1, 73, 0
2, 462760, Note_on_c, 1, 69, 127
2, 462760, Note_off_c, 1, 71, 0
2, 463160, Note_on_c, 1, 49, 127
2, 463160, Note_on_c, 1, 76, 127
2, 463160, Note_on_c, 1, 79, 127
2, 463560, Note_on_c, 1, 74, 127
2, 463560, Note_off_c, 1, 76, 0
2, 463560, Note_on_c, 1, 78, 127
2, 463560, Note_off_c, 1, 79, 0
2, 463760, Note_off_c, 1, 49, 0
2, 463760, Note_on_c, 1, 50, 127
2, 463840, Note_off_c, 1, 50, 0
2, 463840, Note_on_c, 1, 52, 127
2, 463920, Note_off_c, 1, 69, 0
2, 463960, Note_on_c, 1, 50, 127
2, 463960, Note_off_c, 1, 52, 0
2, 463960, Note_on_c, 1, 69, 127
2, 464360, Note_on_c, 1, 49, 127
2, 464360, Note_off_c, 1, 50, 0
2, 464720, Note_off_c, 1, 49, 0
2, 464720, Note_off_c, 1, 74, 0
2, 464720, Note_off_c, 1, 78, 0
2, 464760, Note_on_c, 1, 49, 127
2, 464760, Note_on_c, 1, 76, 127
2, 464760, Note_on_c, 1, 79, 127
2, 464840, Note_on_c, 1, 47, 127
2, 464840, Note_off_c, 1, 49, 0
2, 464920, Note_off_c, 1, 47, 0
2, 464920, Note_on_c, 1, 49, 127
2, 465040, Note_on_c, 1, 47, 127
2, 465040, Note_off_c, 1, 49, 0
2, 465120, Note_on_c, 1, 45, 127
2, 465120, Note_off_c, 1, 47, 0
2, 465560, Note_off_c, 1, 45, 0
2, 465560, Note_on_c, 1, 57, 127
2, 465560, Note_off_c, 1, 69, 0
2, 465560, Note_on_c, 1, 74, 127
2, 465560, Note_off_c, 1, 76, 0
2, 465560, Note_on_c, 1, 78, 127
2, 465560, Note_off_c, 1, 79, 0
2, 465960, Note_on_c, 1, 56, 127
2, 465960, Note_off_c, 1, 57, 0
2, 466160, Note_off_c, 1, 78, 0
2, 466160, Note_on_c, 1, 79, 127
2, 466240, Note_off_c, 1, 79, 0
2, 466240, Note_on_c, 1, 81, 127
2, 466320, Note_off_c, 1, 74, 0
2, 466360, Note_off_c, 1, 56, 0
2, 466360, Note_on_c, 1, 57, 127
2, 466360, Note_on_c, 1, 79, 127
2, 466360, Note_off_c, 1, 81, 0
2, 466720, Note_off_c, 1, 79, 0
2, 466760, Note_on_c, 1, 78, 127
2, 467200, Note_on_c, 1, 76, 127
2, 467200, Note_off_c, 1, 78, 0
2, 467280, Note_off_c, 1, 76, 0
2, 467280, Note_on_c, 1, 78, 127
2, 467320, Note_on_c, 1, 76, 127
2, 467320, Note_off_c, 1, 78, 0
2, 467520, Note_on_c, 1, 74, 127
2, 467520, Note_off_c, 1, 76, 0
2, 467920, Note_on_c, 1, 44, 127
2, 467920, Note_off_c, 1, 57, 0
2, 467920, Note_on_c, 1, 76, 127
2, 467920, Note_on_c, 1, 83, 127
2, 468320, Note_on_c, 1, 73, 127
2, 468320, Note_off_c, 1, 74, 0
2, 468320, Note_on_c, 1, 81, 127
2, 468320, Note_off_c, 1, 83, 0
2, 468520, Note_off_c, 1, 44, 0
2, 468520, Note_on_c, 1, 45, 127
2, 468640, Note_off_c, 1, 45, 0
2, 468640, Note_on_c, 1, 47, 127
2, 468720, Note_on_c, 1, 45, 127
2, 468720, Note_off_c, 1, 47, 0
2, 469120, Note_on_c, 1, 44, 127
2, 469120, Note_off_c, 1, 45, 0
2, 469520, Note_off_c, 1, 73, 0
2, 469520, Note_on_c, 1, 74, 127
2, 469520, Note_off_c, 1, 81, 0
2, 469520, Note_on_c, 1, 83, 127
2, 469600, Note_on_c, 1, 42, 127
2, 469600, Note_off_c, 1, 44, 0
2, 469720, Note_off_c, 1, 42, 0
2, 469720, Note_on_c, 1, 44, 127
2, 469800, Note_on_c, 1, 42, 127
2, 469800, Note_off_c, 1, 44, 0
2, 469920, Note_on_c, 1, 40, 127
2, 469920, Note_off_c, 1, 42, 0
2, 470320, Note_off_c, 1, 40, 0
2, 470320, Note_on_c, 1, 48, 127
2, 470320, Note_off_c, 1, 76, 0
2, 470720, Note_on_c, 1, 47, 127
2, 470720, Note_off_c, 1, 48, 0
2, 470720, Note_on_c, 1, 80, 127
2, 470720, Note_off_c, 1, 83, 0
2, 470920, Note_off_c, 1, 74, 0
2, 470920, Note_on_c, 1, 76, 127
2, 471040, Note_off_c, 1, 76, 0
2, 471040, Note_on_c, 1, 77, 127
2, 471120, Note_off_c, 1, 80, 0
2, 471160, Note_off_c, 1, 47, 0
2, 471160, Note_on_c, 1, 48, 127
2, 471160, Note_on_c, 1, 76, 127
2, 471160, Note_off_c, 1, 77, 0
2, 471160, Note_on_c, 1, 81, 127
2, 471560, Note_on_c, 1, 74, 127
2, 471560, Note_off_c, 1, 76, 0
2, 471960, Note_off_c, 1, 48, 0
2, 472000, Note_on_c, 1, 72, 127
2, 472000, Note_off_c, 1, 74, 0
2, 472080, Note_off_c, 1, 72, 0
2, 472080, Note_on_c, 1, 74, 127
2, 472160, Note_on_c, 1, 72, 127
2, 472160, Note_off_c, 1, 74, 0
2, 472360, Note_on_c, 1, 71, 127
2, 472360, Note_off_c, 1, 72, 0
2, 472760, Note_on_c, 1, 53, 127
2, 472760, Note_off_c, 1, 71, 0
2, 472760, Note_on_c, 1, 72, 127
2, 473160, Note_on_c, 1, 52, 127
2, 473160, Note_off_c, 1, 53, 0
2, 473160, Note_on_c, 1, 80, 127
2, 473160, Note_off_c, 1, 81, 0
2, 473360, Note_off_c, 1, 72, 0
2, 473360, Note_on_c, 1, 74, 127
2, 473440, Note_on_c, 1, 76, 127
2, 473480, Note_off_c, 1, 74, 0
2, 473560, Note_off_c, 1, 52, 0
2, 473560, Note_on_c, 1, 53, 127
2, 473560, Note_on_c, 1, 74, 127
2, 473560, Note_off_c, 1, 76, 0
2, 473960, Note_on_c, 1, 72, 127
2, 473960, Note_off_c, 1, 74, 0
2, 474360, Note_on_c, 1, 52, 127
2, 474360, Note_off_c, 1, 53, 0
2, 474360, Note_off_c, 1, 80, 0
2, 474360, Note_on_c, 1, 81, 127
2, 474440, Note_on_c, 1, 71, 127
2, 474440, Note_off_c, 1, 72, 0
2, 474480, Note_on_c, 1, 51, 127
2, 474480, Note_off_c, 1, 52, 0
2, 474520, Note_off_c, 1, 71, 0
2, 474520, Note_on_c, 1, 72, 127
2, 474560, Note_on_c, 1, 71, 127
2, 474560, Note_off_c, 1, 72, 0
2, 474600, Note_off_c, 1, 51, 0
2, 474600, Note_on_c, 1, 52, 127
2, 474720, Note_on_c, 1, 51, 127
2, 474720, Note_off_c, 1, 52, 0
2, 474760, Note_off_c, 1, 71, 0
2, 474800, Note_on_c, 1, 69, 127
2, 475160, Note_off_c, 1, 51, 0
2, 475200, Note_off_c, 1, 69, 0
2, 475200, Note_on_c, 1, 74, 127
2, 475280, Note_off_c, 1, 74, 0
2, 475280, Note_on_c, 1, 76, 127
2, 475320, Note_off_c, 1, 76, 0
2, 475320, Note_on_c, 1, 77, 127
2, 475600, Note_off_c, 1, 77, 0
2, 475640, Note_on_c, 1, 76, 127
2, 476040, Note_on_c, 1, 52, 127
2, 476040, Note_on_c, 1, 74, 127
2, 476040, Note_off_c, 1, 76, 0
2, 476120, Note_on_c, 1, 72, 127
2, 476120, Note_off_c, 1, 74, 0
2, 476160, Note_on_c, 1, 51, 127
2, 476160, Note_off_c, 1, 52, 0
2, 476200, Note_on_c, 1, 71, 127
2, 476200, Note_off_c, 1, 72, 0
2, 476280, Note_off_c, 1, 51, 0
2, 476280, Note_on_c, 1, 52, 127
2, 476320, Note_off_c, 1, 71, 0
2, 476320, Note_on_c, 1, 72, 127
2, 476400, Note_off_c, 1, 72, 0
2, 476400, Note_on_c, 1, 74, 127
2, 476480, Note_on_c, 1, 72, 127
2, 476480, Note_off_c, 1, 74, 0
2, 476600, Note_off_c, 1, 72, 0
2, 476600, Note_on_c, 1, 74, 127
2, 476680, Note_on_c, 1, 72, 127
2, 476680, Note_off_c, 1, 74, 0
2, 476880, Note_on_c, 1, 40, 127
2, 476880, Note_on_c, 1, 71, 127
2, 476880, Note_off_c, 1, 72, 0
2, 476880, Note_on_c, 1, 80, 127
2, 476880, Note_off_c, 1, 81, 0
2, 476920, Note_off_c, 1, 52, 0
2, 477320, Note_on_c, 1, 69, 127
2, 477320, Note_off_c, 1, 71, 0
2, 477760, Note_off_c, 1, 80, 0
2, 477800, Note_off_c, 1, 40, 0
2, 477800, Note_on_c, 1, 45, 127
2, 477800, Note_on_c, 1, 81, 127
2, 478280, Note_on_c, 1, 49, 127
2, 478480, Note_off_c, 1, 49, 0
2, 478480, Note_on_c, 1, 52, 127
2, 478720, Note_off_c, 1, 52, 0
2, 478720, Note_on_c, 1, 57, 127
2, 478720, Note_on_c, 1, 73, 127
2, 478720, Note_on_c, 1, 76, 127
2, 481040, Note_off_c, 1, 45, 0
2, 481040, Note_off_c, 1, 57, 0
2, 481040, Note_on_c, 1, 64, 127
2, 481040, Note_off_c, 1, 69, 0
2, 481040, Note_off_c, 1, 73, 0
2, 481040, Note_off_c, 1, 76, 0
2, 481040, Note_off_c, 1, 81, 0
2, 481360, Note_off_c, 1, 64, 0
2, 481360, Note_on_c, 1, 69, 127
2, 481520, Note_on_c, 1, 68, 127
2, 481520, Note_off_c, 1, 69, 0
2, 481680, Note_off_c, 1, 68, 0
2, 481680, Note_on_c, 1, 71, 127
2, 481840, Note_on_c, 1, 69, 127
2, 481840, Note_off_c, 1, 71, 0
2, 482000, Note_off_c, 1, 69, 0
2, 482000, Note_on_c, 1, 73, 127
2, 482160, Note_on_c, 1, 71, 127
2, 482160, Note_off_c, 1, 73, 0
2, 482320, Note_on_c, 1, 69, 127
2, 482320, Note_off_c, 1, 71, 0
2, 482480, Note_on_c, 1, 68, 127
2, 482480, Note_off_c, 1, 69, 0
2, 482640, Note_off_c, 1, 68, 0
2, 482640, Note_on_c, 1, 69, 127
2, 483000, Note_on_c, 1, 64, 127
2, 483000, Note_off_c, 1, 69, 0
2, 483360, Note_on_c, 1, 61, 127
2, 483360, Note_off_c, 1, 64, 0
2, 483520, Note_off_c, 1, 61, 0
2, 483520, Note_on_c, 1, 64, 127
2, 483680, Note_on_c, 1, 52, 127
2, 483680, Note_off_c, 1, 64, 0
2, 483680, Note_on_c, 1, 69, 127
2, 483840, Note_off_c, 1, 69, 0
2, 483880, Note_on_c, 1, 71, 127
2, 484040, Note_off_c, 1, 52, 0
2, 484040, Note_on_c, 1, 57, 127
2, 484040, Note_off_c, 1, 71, 0
2, 484040, Note_on_c, 1, 73, 127
2, 484200, Note_on_c, 1, 56, 127
2, 484200, Note_off_c, 1, 57, 0
2, 484200, Note_on_c, 1, 71, 127
2, 484200, Note_off_c, 1, 73, 0
2, 484360, Note_off_c, 1, 56, 0
2, 484360, Note_on_c, 1, 59, 127
2, 484360, Note_off_c, 1, 71, 0
2, 484360, Note_on_c, 1, 74, 127
2, 484520, Note_on_c, 1, 57, 127
2, 484520, Note_off_c, 1, 59, 0
2, 484520, Note_on_c, 1, 73, 127
2, 484520, Note_off_c, 1, 74, 0
2, 484680, Note_off_c, 1, 57, 0
2, 484680, Note_on_c, 1, 61, 127
2, 484680, Note_off_c, 1, 73, 0
2, 484680, Note_on_c, 1, 76, 127
2, 484840, Note_on_c, 1, 59, 127
2, 484840, Note_off_c, 1, 61, 0
2, 484840, Note_on_c, 1, 74, 127
2, 484840, Note_off_c, 1, 76, 0
2, 485000, Note_on_c, 1, 57, 127
2, 485000, Note_off_c, 1, 59, 0
2, 485000, Note_on_c, 1, 73, 127
2, 485000, Note_off_c, 1, 74, 0
2, 485160, Note_on_c, 1, 56, 127
2, 485160, Note_off_c, 1, 57, 0
2, 485160, Note_on_c, 1, 71, 127
2, 485160, Note_off_c, 1, 73, 0
2, 485320, Note_off_c, 1, 56, 0
2, 485320, Note_on_c, 1, 57, 127
2, 485320, Note_off_c, 1, 71, 0
2, 485320, Note_on_c, 1, 74, 127
2, 485480, Note_off_c, 1, 74, 0
2, 485520, Note_on_c, 1, 73, 127
2, 485680, Note_on_c, 1, 52, 127
2, 485680, Note_off_c, 1, 57, 0
2, 485680, Note_on_c, 1, 71, 127
2, 485680, Note_off_c, 1, 73, 0
2, 485840, Note_off_c, 1, 71, 0
2, 485880, Note_on_c, 1, 73, 127
2, 486040, Note_on_c, 1, 49, 127
2, 486040, Note_off_c, 1, 52, 0
2, 486040, Note_on_c, 1, 69, 127
2, 486040, Note_off_c, 1, 73, 0
2, 486200, Note_off_c, 1, 49, 0
2, 486200, Note_on_c, 1, 52, 127
2, 486200, Note_off_c, 1, 69, 0
2, 486200, Note_on_c, 1, 71, 127
2, 486360, Note_off_c, 1, 52, 0
2, 486360, Note_on_c, 1, 57, 127
2, 486360, Note_off_c, 1, 71, 0
2, 486360, Note_on_c, 1, 73, 127
2, 486520, Note_off_c, 1, 57, 0
2, 486520, Note_on_c, 1, 59, 127
2, 486520, Note_off_c, 1, 73, 0
2, 486520, Note_on_c, 1, 74, 127
2, 486680, Note_off_c, 1, 59, 0
2, 486680, Note_on_c, 1, 61, 127
2, 486680, Note_off_c, 1, 74, 0
2, 486680, Note_on_c, 1, 76, 127
2, 486840, Note_off_c, 1, 61, 0
2, 486880, Note_on_c, 1, 59, 127
2, 487000, Note_off_c, 1, 76, 0
2, 487040, Note_off_c, 1, 59, 0
2, 487040, Note_on_c, 1, 62, 127
2, 487040, Note_on_c, 1, 79, 127
2, 487200, Note_on_c, 1, 61, 127
2, 487200, Note_off_c, 1, 62, 0
2, 487200, Note_on_c, 1, 77, 127
2, 487200, Note_off_c, 1, 79, 0
2, 487360, Note_off_c, 1, 61, 0
2, 487360, Note_on_c, 1, 64, 127
2, 487360, Note_off_c, 1, 77, 0
2, 487360, Note_on_c, 1, 79, 127
2, 487440, Note_on_c, 1, 77, 127
2, 487440, Note_off_c, 1, 79, 0
2, 487520, Note_on_c, 1, 62, 127
2, 487520, Note_off_c, 1, 64, 0
2, 487520, Note_off_c, 1, 77, 0
2, 487520, Note_on_c, 1, 79, 127
2, 487680, Note_on_c, 1, 61, 127
2, 487680, Note_off_c, 1, 62, 0
2, 487840, Note_off_c, 1, 79, 0
2, 487880, Note_on_c, 1, 57, 127
2, 487880, Note_off_c, 1, 61, 0
2, 487880, Note_on_c, 1, 81, 127
2, 488040, Note_off_c, 1, 57, 0
2, 488040, Note_on_c, 1, 62, 127
2, 488040, Note_on_c, 1, 78, 127
2, 488040, Note_off_c, 1, 81, 0
2, 488240, Note_on_c, 1, 61, 127
2, 488240, Note_off_c, 1, 62, 0
2, 488360, Note_off_c, 1, 78, 0
2, 488400, Note_off_c, 1, 61, 0
2, 488400, Note_on_c, 1, 64, 127
2, 488400, Note_on_c, 1, 81, 127
2, 488600, Note_on_c, 1, 62, 127
2, 488600, Note_off_c, 1, 64, 0
2, 488600, Note_on_c, 1, 80, 127
2, 488600, Note_off_c, 1, 81, 0
2, 488760, Note_off_c, 1, 62, 0
2, 488760, Note_on_c, 1, 66, 127
2, 488760, Note_off_c, 1, 80, 0
2, 488760, Note_on_c, 1, 81, 127
2, 488840, Note_on_c, 1, 80, 127
2, 488840, Note_off_c, 1, 81, 0
2, 488960, Note_on_c, 1, 64, 127
2, 488960, Note_off_c, 1, 66, 0
2, 488960, Note_off_c, 1, 80, 0
2, 488960, Note_on_c, 1, 81, 127
2, 489120, Note_on_c, 1, 63, 127
2, 489120, Note_off_c, 1, 64, 0
2, 489280, Note_off_c, 1, 81, 0
2, 489320, Note_on_c, 1, 59, 127
2, 489320, Note_off_c, 1, 63, 0
2, 489320, Note_on_c, 1, 83, 127
2, 489480, Note_off_c, 1, 59, 0
2, 489480, Note_on_c, 1, 64, 127
2, 489480, Note_on_c, 1, 80, 127
2, 489480, Note_off_c, 1, 83, 0
2, 489680, Note_off_c, 1, 64, 0
2, 489680, Note_on_c, 1, 66, 127
2, 489680, Note_off_c, 1, 80, 0
2, 489680, Note_on_c, 1, 81, 127
2, 489840, Note_on_c, 1, 64, 127
2, 489840, Note_off_c, 1, 66, 0
2, 489840, Note_on_c, 1, 80, 127
2, 489840, Note_off_c, 1, 81, 0
2, 490040, Note_on_c, 1, 62, 127
2, 490040, Note_off_c, 1, 64, 0
2, 490040, Note_off_c, 1, 80, 0
2, 490040, Note_on_c, 1, 81, 127
2, 490200, Note_on_c, 1, 61, 127
2, 490200, Note_off_c, 1, 62, 0
2, 490200, Note_off_c, 1, 81, 0
2, 490200, Note_on_c, 1, 83, 127
2, 490360, Note_on_c, 1, 81, 127
2, 490360, Note_off_c, 1, 83, 0
2, 490400, Note_on_c, 1, 59, 127
2, 490400, Note_off_c, 1, 61, 0
2, 490440, Note_off_c, 1, 81, 0
2, 490440, Note_on_c, 1, 83, 127
2, 490520, Note_on_c, 1, 81, 127
2, 490520, Note_off_c, 1, 83, 0
2, 490560, Note_off_c, 1, 59, 0
2, 490560, Note_on_c, 1, 61, 127
2, 490600, Note_off_c, 1, 81, 0
2, 490600, Note_on_c, 1, 83, 127
2, 490680, Note_on_c, 1, 81, 127
2, 490680, Note_off_c, 1, 83, 0
2, 490760, Note_on_c, 1, 57, 127
2, 490760, Note_off_c, 1, 61, 0
2, 490760, Note_on_c, 1, 80, 127
2, 490760, Note_off_c, 1, 81, 0
2, 490840, Note_off_c, 1, 80, 0
2, 490840, Note_on_c, 1, 81, 127
2, 490920, Note_off_c, 1, 57, 0
2, 490920, Note_on_c, 1, 64, 127
2, 490920, Note_off_c, 1, 81, 0
2, 490920, Note_on_c, 1, 83, 127
2, 491120, Note_on_c, 1, 63, 127
2, 491120, Note_off_c, 1, 64, 0
2, 491280, Note_off_c, 1, 63, 0
2, 491280, Note_on_c, 1, 66, 127
2, 491480, Note_on_c, 1, 64, 127
2, 491480, Note_off_c, 1, 66, 0
2, 491480, Note_off_c, 1, 83, 0
2, 491640, Note_off_c, 1, 64, 0
2, 491640, Note_on_c, 1, 68, 127
2, 491840, Note_on_c, 1, 66, 127
2, 491840, Note_off_c, 1, 68, 0
2, 492000, Note_on_c, 1, 64, 127
2, 492000, Note_off_c, 1, 66, 0
2, 492200, Note_on_c, 1, 62, 127
2, 492360, Note_on_c, 1, 61, 127
2, 492360, Note_off_c, 1, 62, 0
2, 492360, Note_off_c, 1, 64, 0
2, 492360, Note_on_c, 1, 69, 127
2, 492560, Note_on_c, 1, 59, 127
2, 492560, Note_off_c, 1, 61, 0
2, 492560, Note_on_c, 1, 68, 127
2, 492560, Note_off_c, 1, 69, 0
2, 492720, Note_off_c, 1, 59, 0
2, 492720, Note_on_c, 1, 62, 127
2, 492720, Note_off_c, 1, 68, 0
2, 492720, Note_on_c, 1, 71, 127
2, 492920, Note_on_c, 1, 61, 127
2, 492920, Note_off_c, 1, 62, 0
2, 492920, Note_on_c, 1, 69, 127
2, 492920, Note_off_c, 1, 71, 0
2, 493080, Note_off_c, 1, 61, 0
2, 493080, Note_on_c, 1, 64, 127
2, 493080, Note_off_c, 1, 69, 0
2, 493080, Note_on_c, 1, 73, 127
2, 493280, Note_on_c, 1, 62, 127
2, 493280, Note_off_c, 1, 64, 0
2, 493280, Note_on_c, 1, 71, 127
2, 493280, Note_off_c, 1, 73, 0
2, 493440, Note_on_c, 1, 61, 127
2, 493440, Note_off_c, 1, 62, 0
2, 493440, Note_on_c, 1, 69, 127
2, 493440, Note_off_c, 1, 71, 0
2, 493640, Note_on_c, 1, 59, 127
2, 493640, Note_off_c, 1, 61, 0
2, 493640, Note_on_c, 1, 68, 127
2, 493640, Note_off_c, 1, 69, 0
2, 493800, Note_off_c, 1, 59, 0
2, 493800, Note_on_c, 1, 61, 127
2, 493800, Note_off_c, 1, 68, 0
2, 493800, Note_on_c, 1, 69, 127
2, 494000, Note_off_c, 1, 61, 0
2, 494000, Note_on_c, 1, 62, 127
2, 494160, Note_on_c, 1, 61, 127
2, 494160, Note_off_c, 1, 62, 0
2, 494160, Note_on_c, 1, 64, 127
2, 494160, Note_off_c, 1, 69, 0
2, 494360, Note_on_c, 1, 59, 127
2, 494360, Note_off_c, 1, 61, 0
2, 494520, Note_on_c, 1, 57, 127
2, 494520, Note_off_c, 1, 59, 0
2, 494520, Note_on_c, 1, 61, 127
2, 494520, Note_off_c, 1, 64, 0
2, 494720, Note_off_c, 1, 61, 0
2, 494720, Note_on_c, 1, 64, 127
2, 494880, Note_on_c, 1, 52, 127
2, 494880, Note_off_c, 1, 57, 0
2, 494880, Note_off_c, 1, 64, 0
2, 494880, Note_on_c, 1, 69, 127
2, 495080, Note_off_c, 1, 69, 0
2, 495080, Note_on_c, 1, 71, 127
2, 495240, Note_off_c, 1, 52, 0
2, 495240, Note_on_c, 1, 57, 127
2, 495240, Note_off_c, 1, 71, 0
2, 495240, Note_on_c, 1, 73, 127
2, 495440, Note_on_c, 1, 56, 127
2, 495440, Note_off_c, 1, 57, 0
2, 495440, Note_on_c, 1, 71, 127
2, 495440, Note_off_c, 1, 73, 0
2, 495600, Note_off_c, 1, 56, 0
2, 495600, Note_on_c, 1, 59, 127
2, 495600, Note_off_c, 1, 71, 0
2, 495600, Note_on_c, 1, 74, 127
2, 495800, Note_on_c, 1, 57, 127
2, 495800, Note_off_c, 1, 59, 0
2, 495800, Note_on_c, 1, 73, 127
2, 495800, Note_off_c, 1, 74, 0
2, 495960, Note_off_c, 1, 57, 0
2, 495960, Note_on_c, 1, 61, 127
2, 495960, Note_off_c, 1, 73, 0
2, 495960, Note_on_c, 1, 76, 127
2, 496160, Note_on_c, 1, 59, 127
2, 496160, Note_off_c, 1, 61, 0
2, 496160, Note_on_c, 1, 74, 127
2, 496160, Note_off_c, 1, 76, 0
2, 496320, Note_on_c, 1, 57, 127
2, 496320, Note_off_c, 1, 59, 0
2, 496320, Note_on_c, 1, 73, 127
2, 496320, Note_off_c, 1, 74, 0
2, 496520, Note_on_c, 1, 56, 127
2, 496520, Note_off_c, 1, 57, 0
2, 496520, Note_on_c, 1, 71, 127
2, 496520, Note_off_c, 1, 73, 0
2, 496680, Note_off_c, 1, 56, 0
2, 496680, Note_on_c, 1, 57, 127
2, 496680, Note_off_c, 1, 71, 0
2, 496680, Note_on_c, 1, 74, 127
2, 496880, Note_on_c, 1, 73, 127
2, 496880, Note_off_c, 1, 74, 0
2, 497040, Note_on_c, 1, 52, 127
2, 497040, Note_off_c, 1, 57, 0
2, 497040, Note_on_c, 1, 71, 127
2, 497040, Note_off_c, 1, 73, 0
2, 497240, Note_off_c, 1, 71, 0
2, 497240, Note_on_c, 1, 73, 127
2, 497400, Note_on_c, 1, 49, 127
2, 497400, Note_off_c, 1, 52, 0
2, 497400, Note_on_c, 1, 69, 127
2, 497400, Note_off_c, 1, 73, 0
2, 497600, Note_on_c, 1, 68, 127
2, 497600, Note_off_c, 1, 69, 0
2, 497760, Note_off_c, 1, 49, 0
2, 497760, Note_on_c, 1, 52, 127
2, 497760, Note_off_c, 1, 68, 0
2, 497760, Note_on_c, 1, 71, 127
2, 497960, Note_on_c, 1, 69, 127
2, 497960, Note_off_c, 1, 71, 0
2, 498120, Note_on_c, 1, 45, 127
2, 498120, Note_off_c, 1, 52, 0
2, 498120, Note_off_c, 1, 69, 0
2, 498120, Note_on_c, 1, 73, 127
2, 498320, Note_on_c, 1, 71, 127
2, 498320, Note_off_c, 1, 73, 0
2, 498480, Note_off_c, 1, 45, 0
2, 498480, Note_on_c, 1, 52, 127
2, 498480, Note_on_c, 1, 69, 127
2, 498480, Note_off_c, 1, 71, 0
2, 498680, Note_on_c, 1, 68, 127
2, 498680, Note_off_c, 1, 69, 0
2, 498840, Note_off_c, 1, 52, 0
2, 498840, Note_on_c, 1, 57, 127
2, 498840, Note_on_c, 1, 66, 127
2, 498840, Note_off_c, 1, 68, 0
2, 499040, Note_on_c, 1, 56, 127
2, 499040, Note_off_c, 1, 57, 0
2, 499040, Note_on_c, 1, 64, 127
2, 499040, Note_off_c, 1, 66, 0
2, 499200, Note_off_c, 1, 56, 0
2, 499200, Note_on_c, 1, 59, 127
2, 499200, Note_off_c, 1, 64, 0
2, 499200, Note_on_c, 1, 68, 127
2, 499400, Note_on_c, 1, 57, 127
2, 499400, Note_off_c, 1, 59, 0
2, 499400, Note_on_c, 1, 66, 127
2, 499400, Note_off_c, 1, 68, 0
2, 499560, Note_off_c, 1, 57, 0
2, 499560, Note_on_c, 1, 61, 127
2, 499560, Note_off_c, 1, 66, 0
2, 499560, Note_on_c, 1, 69, 127
2, 499760, Note_on_c, 1, 59, 127
2, 499760, Note_off_c, 1, 61, 0
2, 499760, Note_on_c, 1, 68, 127
2, 499760, Note_off_c, 1, 69, 0
2, 499920, Note_on_c, 1, 57, 127
2, 499920, Note_off_c, 1, 59, 0
2, 499920, Note_on_c, 1, 66, 127
2, 499920, Note_off_c, 1, 68, 0
2, 500120, Note_on_c, 1, 56, 127
2, 500120, Note_off_c, 1, 57, 0
2, 500120, Note_on_c, 1, 64, 127
2, 500120, Note_off_c, 1, 66, 0
2, 500280, Note_on_c, 1, 54, 127
2, 500280, Note_off_c, 1, 56, 0
2, 500280, Note_on_c, 1, 63, 127
2, 500280, Note_off_c, 1, 64, 0
2, 500480, Note_on_c, 1, 52, 127
2, 500480, Note_off_c, 1, 54, 0
2, 500480, Note_on_c, 1, 61, 127
2, 500480, Note_off_c, 1, 63, 0
2, 500640, Note_off_c, 1, 52, 0
2, 500640, Note_on_c, 1, 56, 127
2, 500640, Note_off_c, 1, 61, 0
2, 500640, Note_on_c, 1, 64, 127
2, 500840, Note_on_c, 1, 54, 127
2, 500840, Note_off_c, 1, 56, 0
2, 500840, Note_on_c, 1, 63, 127
2, 500840, Note_off_c, 1, 64, 0
2, 501000, Note_off_c, 1, 54, 0
2, 501000, Note_on_c, 1, 57, 127
2, 501000, Note_off_c, 1, 63, 0
2, 501000, Note_on_c, 1, 66, 127
2, 501200, Note_on_c, 1, 56, 127
2, 501200, Note_off_c, 1, 57, 0
2, 501200, Note_on_c, 1, 59, 127
2, 501200, Note_off_c, 1, 66, 0
2, 501360, Note_on_c, 1, 54, 127
2, 501360, Note_off_c, 1, 56, 0
2, 501360, Note_off_c, 1, 59, 0
2, 501360, Note_on_c, 1, 71, 127
2, 501560, Note_on_c, 1, 52, 127
2, 501560, Note_off_c, 1, 54, 0
2, 501720, Note_off_c, 1, 52, 0
2, 501720, Note_on_c, 1, 59, 127
2, 501720, Note_on_c, 1, 69, 127
2, 501720, Note_off_c, 1, 71, 0
2, 501800, Note_on_c, 1, 68, 127
2, 501800, Note_off_c, 1, 69, 0
2, 501920, Note_off_c, 1, 68, 0
2, 501920, Note_on_c, 1, 69, 127
2, 502000, Note_on_c, 1, 68, 127
2, 502000, Note_off_c, 1, 69, 0
2, 502080, Note_on_c, 1, 47, 127
2, 502080, Note_off_c, 1, 59, 0
2, 502080, Note_on_c, 1, 66, 127
2, 502080, Note_off_c, 1, 68, 0
2, 502280, Note_on_c, 1, 64, 127
2, 502280, Note_off_c, 1, 66, 0
2, 502440, Note_off_c, 1, 47, 0
2, 502440, Note_on_c, 1, 52, 127
2, 502800, Note_on_c, 1, 47, 127
2, 503160, Note_on_c, 1, 40, 127
2, 503160, Note_off_c, 1, 47, 0
2, 503520, Note_off_c, 1, 40, 0
2, 503520, Note_off_c, 1, 52, 0
2, 503880, Note_off_c, 1, 64, 0
2, 503880, Note_on_c, 1, 71, 127
2, 504080, Note_on_c, 1, 69, 127
2, 504080, Note_off_c, 1, 71, 0
2, 504240, Note_off_c, 1, 69, 0
2, 504240, Note_on_c, 1, 73, 127
2, 504440, Note_on_c, 1, 71, 127
2, 504440, Note_off_c, 1, 73, 0
2, 504600, Note_off_c, 1, 71, 0
2, 504600, Note_on_c, 1, 74, 127
2, 504800, Note_on_c, 1, 73, 127
2, 504800, Note_off_c, 1, 74, 0
2, 504960, Note_on_c, 1, 52, 127
2, 504960, Note_off_c, 1, 73, 0
2, 504960, Note_on_c, 1, 76, 127
2, 505320, Note_off_c, 1, 52, 0
2, 505320, Note_on_c, 1, 57, 127
2, 505320, Note_on_c, 1, 74, 127
2, 505320, Note_off_c, 1, 76, 0
2, 505440, Note_on_c, 1, 73, 127
2, 505480, Note_off_c, 1, 74, 0
2, 505520, Note_on_c, 1, 56, 127
2, 505520, Note_off_c, 1, 57, 0
2, 505520, Note_off_c, 1, 73, 0
2, 505520, Note_on_c, 1, 74, 127
2, 505600, Note_on_c, 1, 73, 127
2, 505600, Note_off_c, 1, 74, 0
2, 505680, Note_off_c, 1, 56, 0
2, 505680, Note_on_c, 1, 59, 127
2, 505680, Note_on_c, 1, 71, 127
2, 505680, Note_off_c, 1, 73, 0
2, 505880, Note_on_c, 1, 57, 127
2, 505880, Note_off_c, 1, 59, 0
2, 505880, Note_off_c, 1, 71, 0
2, 505880, Note_on_c, 1, 73, 127
2, 506040, Note_off_c, 1, 57, 0
2, 506040, Note_on_c, 1, 61, 127
2, 506040, Note_on_c, 1, 69, 127
2, 506040, Note_off_c, 1, 73, 0
2, 506240, Note_on_c, 1, 59, 127
2, 506240, Note_off_c, 1, 61, 0
2, 506240, Note_off_c, 1, 69, 0
2, 506240, Note_on_c, 1, 71, 127
2, 506400, Note_off_c, 1, 59, 0
2, 506400, Note_on_c, 1, 64, 127
2, 506400, Note_off_c, 1, 71, 0
2, 506400, Note_on_c, 1, 73, 127
2, 506600, Note_off_c, 1, 73, 0
2, 506600, Note_on_c, 1, 74, 127
2, 506760, Note_on_c, 1, 62, 127
2, 506760, Note_off_c, 1, 64, 0
2, 506760, Note_off_c, 1, 74, 0
2, 506760, Note_on_c, 1, 76, 127
2, 506840, Note_on_c, 1, 61, 127
2, 506840, Note_off_c, 1, 62, 0
2, 506920, Note_off_c, 1, 61, 0
2, 506920, Note_on_c, 1, 62, 127
2, 506960, Note_on_c, 1, 74, 127
2, 506960, Note_off_c, 1, 76, 0
2, 507000, Note_on_c, 1, 61, 127
2, 507000, Note_off_c, 1, 62, 0
2, 507120, Note_on_c, 1, 59, 127
2, 507120, Note_off_c, 1, 61, 0
2, 507120, Note_off_c, 1, 74, 0
2, 507120, Note_on_c, 1, 78, 127
2, 507320, Note_off_c, 1, 59, 0
2, 507320, Note_on_c, 1, 61, 127
2, 507320, Note_on_c, 1, 76, 127
2, 507320, Note_off_c, 1, 78, 0
2, 507480, Note_on_c, 1, 57, 127
2, 507480, Note_off_c, 1, 61, 0
2, 507480, Note_off_c, 1, 76, 0
2, 507480, Note_on_c, 1, 79, 127
2, 507680, Note_on_c, 1, 78, 127
2, 507680, Note_off_c, 1, 79, 0
2, 507840, Note_on_c, 1, 45, 127
2, 507840, Note_off_c, 1, 57, 0
2, 507840, Note_off_c, 1, 78, 0
2, 507840, Note_on_c, 1, 81, 127
2, 508200, Note_off_c, 1, 45, 0
2, 508200, Note_on_c, 1, 50, 127
2, 508200, Note_on_c, 1, 79, 127
2, 508200, Note_off_c, 1, 81, 0
2, 508280, Note_on_c, 1, 78, 127
2, 508280, Note_off_c, 1, 79, 0
2, 508360, Note_off_c, 1, 78, 0
2, 508360, Note_on_c, 1, 79, 127
2, 508400, Note_on_c, 1, 49, 127
2, 508400, Note_off_c, 1, 50, 0
2, 508400, Note_on_c, 1, 78, 127
2, 508440, Note_off_c, 1, 79, 0
2, 508560, Note_off_c, 1, 49, 0
2, 508560, Note_on_c, 1, 52, 127
2, 508560, Note_on_c, 1, 76, 127
2, 508560, Note_off_c, 1, 78, 0
2, 508760, Note_on_c, 1, 50, 127
2, 508760, Note_off_c, 1, 52, 0
2, 508760, Note_off_c, 1, 76, 0
2, 508760, Note_on_c, 1, 78, 127
2, 508920, Note_off_c, 1, 50, 0
2, 508920, Note_on_c, 1, 54, 127
2, 508920, Note_on_c, 1, 74, 127
2, 508920, Note_off_c, 1, 78, 0
2, 509120, Note_on_c, 1, 50, 127
2, 509120, Note_off_c, 1, 54, 0
2, 509280, Note_off_c, 1, 50, 0
2, 509280, Note_on_c, 1, 62, 127
2, 509280, Note_off_c, 1, 74, 0
2, 509280, Note_on_c, 1, 78, 127
2, 509640, Note_on_c, 1, 43, 127
2, 509640, Note_off_c, 1, 62, 0
2, 509840, Note_on_c, 1, 74, 127
2, 509840, Note_off_c, 1, 78, 0
2, 510000, Note_on_c, 1, 73, 127
2, 510000, Note_off_c, 1, 74, 0
2, 510200, Note_on_c, 1, 71, 127
2, 510200, Note_off_c, 1, 73, 0
2, 510360, Note_off_c, 1, 43, 0
2, 510360, Note_off_c, 1, 71, 0
2, 510360, Note_on_c, 1, 74, 127
2, 510560, Note_on_c, 1, 73, 127
2, 510560, Note_off_c, 1, 74, 0
2, 510720, Note_on_c, 1, 61, 127
2, 510720, Note_off_c, 1, 73, 0
2, 510720, Note_on_c, 1, 76, 127
2, 510920, Note_on_c, 1, 74, 127
2, 510920, Note_off_c, 1, 76, 0
2, 511080, Note_on_c, 1, 42, 127
2, 511080, Note_off_c, 1, 61, 0
2, 511080, Note_off_c, 1, 74, 0
2, 511080, Note_on_c, 1, 76, 127
2, 511280, Note_on_c, 1, 73, 127
2, 511280, Note_off_c, 1, 76, 0
2, 511440, Note_on_c, 1, 71, 127
2, 511440, Note_off_c, 1, 73, 0
2, 511640, Note_on_c, 1, 70, 127
2, 511640, Note_off_c, 1, 71, 0
2, 511800, Note_off_c, 1, 42, 0
2, 511800, Note_off_c, 1, 70, 0
2, 511800, Note_on_c, 1, 73, 127
2, 512000, Note_on_c, 1, 71, 127
2, 512000, Note_off_c, 1, 73, 0
2, 512160, Note_on_c, 1, 59, 127
2, 512160, Note_off_c, 1, 71, 0
2, 512160, Note_on_c, 1, 74, 127
2, 512360, Note_on_c, 1, 73, 127
2, 512360, Note_off_c, 1, 74, 0
2, 512520, Note_on_c, 1, 55, 127
2, 512520, Note_off_c, 1, 59, 0
2, 512520, Note_off_c, 1, 73, 0
2, 512520, Note_on_c, 1, 76, 127
2, 512720, Note_on_c, 1, 74, 127
2, 512720, Note_off_c, 1, 76, 0
2, 512880, Note_on_c, 1, 50, 127
2, 512880, Note_off_c, 1, 55, 0
2, 512880, Note_on_c, 1, 73, 127
2, 512880, Note_off_c, 1, 74, 0
2, 513080, Note_on_c, 1, 71, 127
2, 513080, Note_off_c, 1, 73, 0
2, 513240, Note_off_c, 1, 50, 0
2, 513240, Note_on_c, 1, 52, 127
2, 513240, Note_off_c, 1, 71, 0
2, 513240, Note_on_c, 1, 74, 127
2, 513440, Note_on_c, 1, 73, 127
2, 513440, Note_off_c, 1, 74, 0
2, 513600, Note_off_c, 1, 52, 0
2, 513600, Note_on_c, 1, 54, 127
2, 513600, Note_on_c, 1, 71, 127
2, 513600, Note_off_c, 1, 73, 0
2, 513800, Note_on_c, 1, 70, 127
2, 513800, Note_off_c, 1, 71, 0
2, 513960, Note_on_c, 1, 47, 127
2, 513960, Note_off_c, 1, 54, 0
2, 513960, Note_off_c, 1, 70, 0
2, 513960, Note_on_c, 1, 71, 127
2, 514160, Note_on_c, 1, 46, 127
2, 514160, Note_off_c, 1, 47, 0
2, 514320, Note_off_c, 1, 46, 0
2, 514320, Note_on_c, 1, 49, 127
2, 514520, Note_on_c, 1, 47, 127
2, 514520, Note_off_c, 1, 49, 0
2, 514680, Note_off_c, 1, 47, 0
2, 514680, Note_on_c, 1, 50, 127
2, 514880, Note_on_c, 1, 49, 127
2, 514880, Note_off_c, 1, 50, 0
2, 515040, Note_off_c, 1, 49, 0
2, 515040, Note_on_c, 1, 52, 127
2, 515400, Note_off_c, 1, 71, 0
2, 515400, Note_on_c, 1, 78, 127
2, 515480, Note_on_c, 1, 51, 127
2, 515480, Note_off_c, 1, 52, 0
2, 515560, Note_off_c, 1, 51, 0
2, 515560, Note_on_c, 1, 52, 127
2, 515600, Note_on_c, 1, 51, 127
2, 515600, Note_on_c, 1, 76, 127
2, 515600, Note_off_c, 1, 78, 0
2, 515640, Note_off_c, 1, 52, 0
2, 515760, Note_off_c, 1, 76, 0
2, 515760, Note_on_c, 1, 80, 127
2, 515960, Note_on_c, 1, 78, 127
2, 515960, Note_off_c, 1, 80, 0
2, 516080, Note_off_c, 1, 51, 0
2, 516120, Note_off_c, 1, 78, 0
2, 516120, Note_on_c, 1, 81, 127
2, 516320, Note_on_c, 1, 80, 127
2, 516320, Note_off_c, 1, 81, 0
2, 516480, Note_on_c, 1, 47, 127
2, 516480, Note_off_c, 1, 80, 0
2, 516480, Note_on_c, 1, 83, 127
2, 516840, Note_off_c, 1, 47, 0
2, 516840, Note_on_c, 1, 52, 127
2, 516840, Note_on_c, 1, 81, 127
2, 516840, Note_off_c, 1, 83, 0
2, 516960, Note_on_c, 1, 80, 127
2, 516960, Note_off_c, 1, 81, 0
2, 517040, Note_on_c, 1, 51, 127
2, 517040, Note_off_c, 1, 52, 0
2, 517040, Note_off_c, 1, 80, 0
2, 517040, Note_on_c, 1, 81, 127
2, 517120, Note_on_c, 1, 80, 127
2, 517120, Note_off_c, 1, 81, 0
2, 517200, Note_off_c, 1, 51, 0
2, 517200, Note_on_c, 1, 54, 127
2, 517200, Note_on_c, 1, 78, 127
2, 517200, Note_off_c, 1, 80, 0
2, 517400, Note_on_c, 1, 52, 127
2, 517400, Note_off_c, 1, 54, 0
2, 517400, Note_off_c, 1, 78, 0
2, 517400, Note_on_c, 1, 80, 127
2, 517560, Note_off_c, 1, 52, 0
2, 517560, Note_on_c, 1, 56, 127
2, 517560, Note_on_c, 1, 76, 127
2, 517560, Note_off_c, 1, 80, 0
2, 517760, Note_on_c, 1, 54, 127
2, 517760, Note_off_c, 1, 56, 0
2, 517920, Note_off_c, 1, 54, 0
2, 517920, Note_on_c, 1, 57, 127
2, 517920, Note_on_c, 1, 64, 127
2, 517920, Note_off_c, 1, 76, 0
2, 518280, Note_off_c, 1, 64, 0
2, 518280, Note_on_c, 1, 71, 127
2, 518360, Note_on_c, 1, 56, 127
2, 518360, Note_off_c, 1, 57, 0
2, 518440, Note_off_c, 1, 56, 0
2, 518440, Note_on_c, 1, 57, 127
2, 518480, Note_on_c, 1, 69, 127
2, 518480, Note_off_c, 1, 71, 0
2, 518520, Note_on_c, 1, 56, 127
2, 518520, Note_off_c, 1, 57, 0
2, 518640, Note_off_c, 1, 69, 0
2, 518640, Note_on_c, 1, 73, 127
2, 518840, Note_on_c, 1, 71, 127
2, 518840, Note_off_c, 1, 73, 0
2, 518960, Note_off_c, 1, 56, 0
2, 519000, Note_off_c, 1, 71, 0
2, 519000, Note_on_c, 1, 74, 127
2, 519200, Note_on_c, 1, 73, 127
2, 519200, Note_off_c, 1, 74, 0
2, 519360, Note_on_c, 1, 52, 127
2, 519360, Note_off_c, 1, 73, 0
2, 519360, Note_on_c, 1, 76, 127
2, 519720, Note_off_c, 1, 52, 0
2, 519720, Note_on_c, 1, 57, 127
2, 519720, Note_on_c, 1, 74, 127
2, 519720, Note_off_c, 1, 76, 0
2, 519800, Note_on_c, 1, 73, 127
2, 519800, Note_off_c, 1, 74, 0
2, 519880, Note_off_c, 1, 73, 0
2, 519880, Note_on_c, 1, 74, 127
2, 519920, Note_on_c, 1, 56, 127
2, 519920, Note_off_c, 1, 57, 0
2, 519920, Note_on_c, 1, 73, 127
2, 519960, Note_off_c, 1, 74, 0
2, 520080, Note_off_c, 1, 56, 0
2, 520080, Note_on_c, 1, 59, 127
2, 520080, Note_on_c, 1, 71, 127
2, 520080, Note_off_c, 1, 73, 0
2, 520280, Note_on_c, 1, 57, 127
2, 520280, Note_off_c, 1, 59, 0
2, 520280, Note_off_c, 1, 71, 0
2, 520280, Note_on_c, 1, 73, 127
2, 520440, Note_off_c, 1, 57, 0
2, 520440, Note_on_c, 1, 61, 127
2, 520440, Note_on_c, 1, 69, 127
2, 520440, Note_off_c, 1, 73, 0
2, 520640, Note_on_c, 1, 59, 127
2, 520640, Note_off_c, 1, 61, 0
2, 520640, Note_off_c, 1, 69, 0
2, 520640, Note_on_c, 1, 71, 127
2, 520800, Note_off_c, 1, 59, 0
2, 520800, Note_on_c, 1, 64, 127
2, 520800, Note_off_c, 1, 71, 0
2, 520800, Note_on_c, 1, 73, 127
2, 521000, Note_off_c, 1, 73, 0
2, 521000, Note_on_c, 1, 74, 127
2, 521160, Note_on_c, 1, 62, 127
2, 521160, Note_off_c, 1, 64, 0
2, 521160, Note_off_c, 1, 74, 0
2, 521160, Note_on_c, 1, 76, 127
2, 521240, Note_on_c, 1, 61, 127
2, 521240, Note_off_c, 1, 62, 0
2, 521320, Note_off_c, 1, 61, 0
2, 521320, Note_on_c, 1, 62, 127
2, 521360, Note_on_c, 1, 73, 127
2, 521360, Note_off_c, 1, 76, 0
2, 521400, Note_on_c, 1, 61, 127
2, 521400, Note_off_c, 1, 62, 0
2, 521520, Note_off_c, 1, 61, 0
2, 521520, Note_on_c, 1, 62, 127
2, 521520, Note_on_c, 1, 71, 127
2, 521520, Note_off_c, 1, 73, 0
2, 521720, Note_on_c, 1, 69, 127
2, 521720, Note_off_c, 1, 71, 0
2, 521880, Note_on_c, 1, 61, 127
2, 521880, Note_off_c, 1, 62, 0
2, 521880, Note_off_c, 1, 69, 0
2, 521880, Note_on_c, 1, 76, 127
2, 522080, Note_on_c, 1, 74, 127
2, 522080, Note_off_c, 1, 76, 0
2, 522240, Note_on_c, 1, 59, 127
2, 522240, Note_off_c, 1, 61, 0
2, 522240, Note_off_c, 1, 74, 0
2, 522240, Note_on_c, 1, 78, 127
2, 522440, Note_on_c, 1, 76, 127
2, 522440, Note_off_c, 1, 78, 0
2, 522600, Note_on_c, 1, 57, 127
2, 522600, Note_off_c, 1, 59, 0
2, 522600, Note_off_c, 1, 76, 0
2, 522600, Note_on_c, 1, 79, 127
2, 522800, Note_on_c, 1, 73, 127
2, 522960, Note_on_c, 1, 71, 127
2, 522960, Note_off_c, 1, 73, 0
2, 522960, Note_off_c, 1, 79, 0
2, 523160, Note_on_c, 1, 69, 127
2, 523160, Note_off_c, 1, 71, 0
2, 523320, Note_off_c, 1, 69, 0
2, 523320, Note_on_c, 1, 74, 127
2, 523520, Note_on_c, 1, 73, 127
2, 523520, Note_off_c, 1, 74, 0
2, 523680, Note_off_c, 1, 73, 0
2, 523680, Note_on_c, 1, 76, 127
2, 523880, Note_on_c, 1, 74, 127
2, 523880, Note_off_c, 1, 76, 0
2, 524040, Note_off_c, 1, 74, 0
2, 524040, Note_on_c, 1, 78, 127
2, 524240, Note_on_c, 1, 73, 127
2, 524400, Note_on_c, 1, 71, 127
2, 524400, Note_off_c, 1, 73, 0
2, 524400, Note_off_c, 1, 78, 0
2, 524600, Note_on_c, 1, 69, 127
2, 524600, Note_off_c, 1, 71, 0
2, 524760, Note_off_c, 1, 69, 0
2, 524760, Note_on_c, 1, 76, 127
2, 524960, Note_on_c, 1, 74, 127
2, 524960, Note_off_c, 1, 76, 0
2, 525120, Note_off_c, 1, 74, 0
2, 525120, Note_on_c, 1, 78, 127
2, 525320, Note_on_c, 1, 76, 127
2, 525320, Note_off_c, 1, 78, 0
2, 525480, Note_off_c, 1, 76, 0
2, 525480, Note_on_c, 1, 79, 127
2, 525680, Note_on_c, 1, 73, 127
2, 525840, Note_on_c, 1, 55, 127
2, 525840, Note_off_c, 1, 57, 0
2, 525840, Note_on_c, 1, 71, 127
2, 525840, Note_off_c, 1, 73, 0
2, 525840, Note_off_c, 1, 79, 0
2, 526040, Note_on_c, 1, 69, 127
2, 526040, Note_off_c, 1, 71, 0
2, 526200, Note_on_c, 1, 54, 127
2, 526200, Note_off_c, 1, 55, 0
2, 526200, Note_off_c, 1, 69, 0
2, 526200, Note_on_c, 1, 74, 127
2, 526400, Note_on_c, 1, 73, 127
2, 526400, Note_off_c, 1, 74, 0
2, 526560, Note_on_c, 1, 52, 127
2, 526560, Note_off_c, 1, 54, 0
2, 526560, Note_off_c, 1, 73, 0
2, 526560, Note_on_c, 1, 76, 127
2, 526760, Note_on_c, 1, 74, 127
2, 526760, Note_off_c, 1, 76, 0
2, 526920, Note_on_c, 1, 50, 127
2, 526920, Note_off_c, 1, 52, 0
2, 526920, Note_off_c, 1, 74, 0
2, 526920, Note_on_c, 1, 78, 127
2, 527120, Note_on_c, 1, 74, 127
2, 527120, Note_off_c, 1, 78, 0
2, 527280, Note_off_c, 1, 50, 0
2, 527280, Note_on_c, 1, 52, 127
2, 527280, Note_on_c, 1, 73, 127
2, 527280, Note_off_c, 1, 74, 0
2, 527480, Note_on_c, 1, 71, 127
2, 527480, Note_off_c, 1, 73, 0
2, 527640, Note_on_c, 1, 50, 127
2, 527640, Note_off_c, 1, 52, 0
2, 527640, Note_off_c, 1, 71, 0
2, 527640, Note_on_c, 1, 78, 127
2, 527840, Note_on_c, 1, 76, 127
2, 527840, Note_off_c, 1, 78, 0
2, 528000, Note_on_c, 1, 49, 127
2, 528000, Note_off_c, 1, 50, 0
2, 528000, Note_off_c, 1, 76, 0
2, 528000, Note_on_c, 1, 80, 127
2, 528200, Note_on_c, 1, 78, 127
2, 528200, Note_off_c, 1, 80, 0
2, 528360, Note_on_c, 1, 47, 127
2, 528360, Note_off_c, 1, 49, 0
2, 528360, Note_off_c, 1, 78, 0
2, 528360, Note_on_c, 1, 81, 127
2, 528560, Note_on_c, 1, 75, 127
2, 528720, Note_on_c, 1, 73, 127
2, 528720, Note_off_c, 1, 75, 0
2, 528760, Note_off_c, 1, 81, 0
2, 528920, Note_on_c, 1, 71, 127
2, 528920, Note_off_c, 1, 73, 0
2, 529080, Note_off_c, 1, 71, 0
2, 529080, Note_on_c, 1, 76, 127
2, 529280, Note_on_c, 1, 75, 127
2, 529280, Note_off_c, 1, 76, 0
2, 529440, Note_off_c, 1, 75, 0
2, 529440, Note_on_c, 1, 78, 127
2, 529640, Note_on_c, 1, 76, 127
2, 529640, Note_off_c, 1, 78, 0
2, 529800, Note_off_c, 1, 76, 0
2, 529800, Note_on_c, 1, 80, 127
2, 530000, Note_on_c, 1, 75, 127
2, 530160, Note_on_c, 1, 73, 127
2, 530160, Note_off_c, 1, 75, 0
2, 530200, Note_off_c, 1, 80, 0
2, 530360, Note_on_c, 1, 71, 127
2, 530360, Note_off_c, 1, 73, 0
2, 530520, Note_off_c, 1, 71, 0
2, 530520, Note_on_c, 1, 78, 127
2, 530720, Note_on_c, 1, 76, 127
2, 530720, Note_off_c, 1, 78, 0
2, 530880, Note_off_c, 1, 76, 0
2, 530880, Note_on_c, 1, 80, 127
2, 531080, Note_on_c, 1, 78, 127
2, 531080, Note_off_c, 1, 80, 0
2, 531240, Note_off_c, 1, 78, 0
2, 531240, Note_on_c, 1, 81, 127
2, 531440, Note_on_c, 1, 75, 127
2, 531600, Note_on_c, 1, 45, 127
2, 531600, Note_off_c, 1, 47, 0
2, 531600, Note_on_c, 1, 73, 127
2, 531600, Note_off_c, 1, 75, 0
2, 531640, Note_off_c, 1, 81, 0
2, 531800, Note_on_c, 1, 71, 127
2, 531800, Note_off_c, 1, 73, 0
2, 531960, Note_on_c, 1, 44, 127
2, 531960, Note_off_c, 1, 45, 0
2, 531960, Note_off_c, 1, 71, 0
2, 531960, Note_on_c, 1, 76, 127
2, 532160, Note_on_c, 1, 75, 127
2, 532160, Note_off_c, 1, 76, 0
2, 532320, Note_on_c, 1, 42, 127
2, 532320, Note_off_c, 1, 44, 0
2, 532320, Note_off_c, 1, 75, 0
2, 532320, Note_on_c, 1, 78, 127
2, 532520, Note_on_c, 1, 76, 127
2, 532520, Note_off_c, 1, 78, 0
2, 532680, Note_on_c, 1, 40, 127
2, 532680, Note_off_c, 1, 42, 0
2, 532680, Note_off_c, 1, 76, 0
2, 532680, Note_on_c, 1, 80, 127
2, 532880, Note_on_c, 1, 78, 127
2, 532880, Note_off_c, 1, 80, 0
2, 533040, Note_on_c, 1, 76, 127
2, 533040, Note_off_c, 1, 78, 0
2, 533240, Note_off_c, 1, 76, 0
2, 533240, Note_on_c, 1, 78, 127
2, 533400, Note_off_c, 1, 78, 0
2, 533400, Note_on_c, 1, 80, 127
2, 533600, Note_on_c, 1, 78, 127
2, 533600, Note_off_c, 1, 80, 0
2, 533760, Note_off_c, 1, 78, 0
2, 533760, Note_on_c, 1, 81, 127
2, 533960, Note_on_c, 1, 80, 127
2, 533960, Note_off_c, 1, 81, 0
2, 534120, Note_on_c, 1, 38, 127
2, 534120, Note_off_c, 1, 40, 0
2, 534120, Note_off_c, 1, 80, 0
2, 534120, Note_on_c, 1, 83, 127
2, 534320, Note_on_c, 1, 81, 127
2, 534320, Note_off_c, 1, 83, 0
2, 534480, Note_on_c, 1, 80, 127
2, 534480, Note_off_c, 1, 81, 0
2, 534680, Note_on_c, 1, 78, 127
2, 534680, Note_off_c, 1, 80, 0
2, 534840, Note_off_c, 1, 78, 0
2, 534840, Note_on_c, 1, 81, 127
2, 535040, Note_on_c, 1, 80, 127
2, 535040, Note_off_c, 1, 81, 0
2, 535200, Note_off_c, 1, 38, 0
2, 535200, Note_on_c, 1, 50, 127
2, 535200, Note_on_c, 1, 78, 127
2, 535200, Note_off_c, 1, 80, 0
2, 535400, Note_on_c, 1, 76, 127
2, 535400, Note_off_c, 1, 78, 0
2, 535560, Note_on_c, 1, 49, 127
2, 535560, Note_off_c, 1, 50, 0
2, 535560, Note_off_c, 1, 76, 0
2, 535560, Note_on_c, 1, 81, 127
2, 535920, Note_off_c, 1, 49, 0
2, 535920, Note_on_c, 1, 52, 127
2, 536000, Note_on_c, 1, 50, 127
2, 536000, Note_off_c, 1, 52, 0
2, 536120, Note_on_c, 1, 49, 127
2, 536120, Note_off_c, 1, 50, 0
2, 536120, Note_off_c, 1, 81, 0
2, 536120, Note_on_c, 1, 83, 127
2, 536200, Note_off_c, 1, 49, 0
2, 536200, Note_on_c, 1, 50, 127
2, 536280, Note_off_c, 1, 50, 0
2, 536280, Note_on_c, 1, 52, 127
2, 536280, Note_on_c, 1, 81, 127
2, 536280, Note_off_c, 1, 83, 0
2, 536360, Note_on_c, 1, 80, 127
2, 536360, Note_off_c, 1, 81, 0
2, 536440, Note_off_c, 1, 80, 0
2, 536440, Note_on_c, 1, 81, 127
2, 536520, Note_on_c, 1, 80, 127
2, 536520, Note_off_c, 1, 81, 0
2, 536560, Note_on_c, 1, 81, 127
2, 536600, Note_off_c, 1, 80, 0
2, 536640, Note_on_c, 1, 40, 127
2, 536640, Note_off_c, 1, 52, 0
2, 536640, Note_on_c, 1, 80, 127
2, 536680, Note_off_c, 1, 81, 0
2, 536720, Note_on_c, 1, 81, 127
2, 536760, Note_off_c, 1, 80, 0
2, 536800, Note_on_c, 1, 80, 127
2, 536800, Note_off_c, 1, 81, 0
2, 536880, Note_on_c, 1, 78, 127
2, 536880, Note_off_c, 1, 80, 0
2, 536920, Note_on_c, 1, 80, 127
2, 536960, Note_off_c, 1, 78, 0
2, 537000, Note_off_c, 1, 40, 0
2, 537000, Note_on_c, 1, 45, 127
2, 537000, Note_on_c, 1, 81, 127
2, 537040, Note_off_c, 1, 80, 0
2, 537200, Note_off_c, 1, 45, 0
2, 537200, Note_on_c, 1, 52, 127
2, 537360, Note_off_c, 1, 52, 0
2, 537360, Note_on_c, 1, 54, 127
2, 537560, Note_off_c, 1, 54, 0
2, 537560, Note_on_c, 1, 56, 127
2, 537720, Note_off_c, 1, 56, 0
2, 537720, Note_on_c, 1, 57, 127
2, 537720, Note_off_c, 1, 81, 0
2, 537920, Note_off_c, 1, 57, 0
2, 537920, Note_on_c, 1, 59, 127
2, 538080, Note_off_c, 1, 59, 0
2, 538080, Note_on_c, 1, 61, 127
2, 538080, Note_on_c, 1, 76, 127
2, 538440, Note_on_c, 1, 42, 127
2, 538440, Note_off_c, 1, 61, 0
2, 538640, Note_on_c, 1, 73, 127
2, 538640, Note_off_c, 1, 76, 0
2, 538800, Note_on_c, 1, 71, 127
2, 538800, Note_off_c, 1, 73, 0
2, 539000, Note_on_c, 1, 69, 127
2, 539000, Note_off_c, 1, 71, 0
2, 539160, Note_off_c, 1, 42, 0
2, 539160, Note_off_c, 1, 69, 0
2, 539160, Note_on_c, 1, 73, 127
2, 539360, Note_on_c, 1, 71, 127
2, 539360, Note_off_c, 1, 73, 0
2, 539520, Note_on_c, 1, 59, 127
2, 539520, Note_off_c, 1, 71, 0
2, 539520, Note_on_c, 1, 74, 127
2, 539720, Note_on_c, 1, 73, 127
2, 539720, Note_off_c, 1, 74, 0
2, 539880, Note_on_c, 1, 40, 127
2, 539880, Note_off_c, 1, 59, 0
2, 539880, Note_off_c, 1, 73, 0
2, 539880, Note_on_c, 1, 74, 127
2, 540080, Note_on_c, 1, 71, 127
2, 540080, Note_off_c, 1, 74, 0
2, 540240, Note_on_c, 1, 69, 127
2, 540240, Note_off_c, 1, 71, 0
2, 540440, Note_on_c, 1, 68, 127
2, 540440, Note_off_c, 1, 69, 0
2, 540600, Note_off_c, 1, 40, 0
2, 540600, Note_off_c, 1, 68, 0
2, 540600, Note_on_c, 1, 71, 127
2, 540800, Note_on_c, 1, 69, 127
2, 540800, Note_off_c, 1, 71, 0
2, 540960, Note_on_c, 1, 57, 127
2, 540960, Note_off_c, 1, 69, 0
2, 540960, Note_on_c, 1, 73, 127
2, 541160, Note_on_c, 1, 71, 127
2, 541160, Note_off_c, 1, 73, 0
2, 541320, Note_on_c, 1, 54, 127
2, 541320, Note_off_c, 1, 57, 0
2, 541320, Note_off_c, 1, 71, 0
2, 541320, Note_on_c, 1, 74, 127
2, 541520, Note_on_c, 1, 73, 127
2, 541520, Note_off_c, 1, 74, 0
2, 541680, Note_on_c, 1, 49, 127
2, 541680, Note_off_c, 1, 54, 0
2, 541680, Note_on_c, 1, 71, 127
2, 541680, Note_off_c, 1, 73, 0
2, 541880, Note_on_c, 1, 69, 127
2, 541880, Note_off_c, 1, 71, 0
2, 542040, Note_off_c, 1, 49, 0
2, 542040, Note_on_c, 1, 50, 127
2, 542040, Note_off_c, 1, 69, 0
2, 542040, Note_on_c, 1, 73, 127
2, 542240, Note_on_c, 1, 71, 127
2, 542240, Note_off_c, 1, 73, 0
2, 542400, Note_off_c, 1, 50, 0
2, 542400, Note_on_c, 1, 52, 127
2, 542400, Note_on_c, 1, 69, 127
2, 542400, Note_off_c, 1, 71, 0
2, 542600, Note_on_c, 1, 68, 127
2, 542600, Note_off_c, 1, 69, 0
2, 542760, Note_on_c, 1, 45, 127
2, 542760, Note_off_c, 1, 52, 0
2, 542760, Note_off_c, 1, 68, 0
2, 542760, Note_on_c, 1, 69, 127
2, 542960, Note_on_c, 1, 44, 127
2, 542960, Note_off_c, 1, 45, 0
2, 542960, Note_on_c, 1, 64, 127
2, 542960, Note_off_c, 1, 69, 0
2, 543120, Note_off_c, 1, 44, 0
2, 543120, Note_on_c, 1, 45, 127
2, 543120, Note_off_c, 1, 64, 0
2, 543120, Note_on_c, 1, 66, 127
2, 543320, Note_off_c, 1, 45, 0
2, 543320, Note_on_c, 1, 47, 127
2, 543320, Note_off_c, 1, 66, 0
2, 543320, Note_on_c, 1, 68, 127
2, 543480, Note_off_c, 1, 47, 0
2, 543480, Note_on_c, 1, 49, 127
2, 543480, Note_off_c, 1, 68, 0
2, 543480, Note_on_c, 1, 69, 127
2, 543680, Note_off_c, 1, 49, 0
2, 543680, Note_on_c, 1, 50, 127
2, 543680, Note_off_c, 1, 69, 0
2, 543680, Note_on_c, 1, 71, 127
2, 543840, Note_off_c, 1, 50, 0
2, 543840, Note_on_c, 1, 52, 127
2, 543840, Note_off_c, 1, 71, 0
2, 543840, Note_on_c, 1, 73, 127
2, 544040, Note_on_c, 1, 49, 127
2, 544040, Note_off_c, 1, 52, 0
2, 544040, Note_off_c, 1, 73, 0
2, 544040, Note_on_c, 1, 74, 127
2, 544200, Note_off_c, 1, 49, 0
2, 544200, Note_on_c, 1, 54, 127
2, 544200, Note_off_c, 1, 74, 0
2, 544200, Note_on_c, 1, 76, 127
2, 544280, Note_on_c, 1, 52, 127
2, 544280, Note_off_c, 1, 54, 0
2, 544360, Note_off_c, 1, 52, 0
2, 544360, Note_on_c, 1, 54, 127
2, 544400, Note_on_c, 1, 73, 127
2, 544400, Note_off_c, 1, 76, 0
2, 544560, Note_on_c, 1, 71, 127
2, 544560, Note_off_c, 1, 73, 0
2, 544760, Note_on_c, 1, 69, 127
2, 544760, Note_off_c, 1, 71, 0
2, 544920, Note_off_c, 1, 69, 0
2, 544920, Note_on_c, 1, 73, 127
2, 544960, Note_off_c, 1, 54, 0
2, 545120, Note_on_c, 1, 71, 127
2, 545120, Note_off_c, 1, 73, 0
2, 545280, Note_on_c, 1, 47, 127
2, 545280, Note_off_c, 1, 71, 0
2, 545280, Note_on_c, 1, 74, 127
2, 545480, Note_on_c, 1, 73, 127
2, 545480, Note_off_c, 1, 74, 0
2, 545640, Note_off_c, 1, 47, 0
2, 545640, Note_on_c, 1, 52, 127
2, 545640, Note_off_c, 1, 73, 0
2, 545640, Note_on_c, 1, 74, 127
2, 545720, Note_on_c, 1, 50, 127
2, 545720, Note_off_c, 1, 52, 0
2, 545800, Note_off_c, 1, 50, 0
2, 545800, Note_on_c, 1, 52, 127
2, 545840, Note_on_c, 1, 71, 127
2, 545840, Note_off_c, 1, 74, 0
2, 546000, Note_on_c, 1, 69, 127
2, 546000, Note_off_c, 1, 71, 0
2, 546200, Note_on_c, 1, 68, 127
2, 546200, Note_off_c, 1, 69, 0
2, 546360, Note_off_c, 1, 68, 0
2, 546360, Note_on_c, 1, 71, 127
2, 546440, Note_off_c, 1, 52, 0
2, 546560, Note_on_c, 1, 69, 127
2, 546560, Note_off_c, 1, 71, 0
2, 546720, Note_on_c, 1, 45, 127
2, 546720, Note_off_c, 1, 69, 0
2, 546720, Note_on_c, 1, 73, 127
2, 546920, Note_on_c, 1, 71, 127
2, 546920, Note_off_c, 1, 73, 0
2, 547080, Note_on_c, 1, 42, 127
2, 547080, Note_off_c, 1, 45, 0
2, 547080, Note_off_c, 1, 71, 0
2, 547080, Note_on_c, 1, 74, 127
2, 547280, Note_on_c, 1, 73, 127
2, 547280, Note_off_c, 1, 74, 0
2, 547440, Note_on_c, 1, 37, 127
2, 547440, Note_off_c, 1, 42, 0
2, 547440, Note_on_c, 1, 71, 127
2, 547440, Note_off_c, 1, 73, 0
2, 547640, Note_on_c, 1, 69, 127
2, 547640, Note_off_c, 1, 71, 0
2, 547800, Note_off_c, 1, 37, 0
2, 547800, Note_on_c, 1, 38, 127
2, 547800, Note_off_c, 1, 69, 0
2, 547800, Note_on_c, 1, 73, 127
2, 548000, Note_on_c, 1, 71, 127
2, 548000, Note_off_c, 1, 73, 0
2, 548160, Note_off_c, 1, 38, 0
2, 548160, Note_on_c, 1, 40, 127
2, 548160, Note_on_c, 1, 69, 127
2, 548160, Note_off_c, 1, 71, 0
2, 548360, Note_on_c, 1, 68, 127
2, 548360, Note_off_c, 1, 69, 0
2, 548520, Note_on_c, 1, 33, 127
2, 548520, Note_off_c, 1, 40, 0
2, 548520, Note_off_c, 1, 68, 0
2, 548520, Note_on_c, 1, 69, 127
2, 548600, Note_on_c, 1, 68, 127
2, 548600, Note_off_c, 1, 69, 0
2, 548720, Note_off_c, 1, 68, 0
2, 548720, Note_on_c, 1, 69, 127
2, 548880, Note_on_c, 1, 40, 127
2, 549240, Note_off_c, 1, 40, 0
2, 549240, Note_on_c, 1, 45, 127
2, 549440, Note_off_c, 1, 69, 0
2, 549600, Note_off_c, 1, 33, 0
2, 549600, Note_on_c, 1, 52, 127
2, 549600, Note_on_c, 1, 60, 127
2, 549800, Note_on_c, 1, 50, 127
2, 549800, Note_off_c, 1, 52, 0
2, 549800, Note_off_c, 1, 60, 0
2, 549800, Note_on_c, 1, 62, 127
2, 549960, Note_off_c, 1, 45, 0
2, 549960, Note_on_c, 1, 48, 127
2, 549960, Note_off_c, 1, 50, 0
2, 549960, Note_off_c, 1, 62, 0
2, 549960, Note_on_c, 1, 64, 127
2, 550160, Note_on_c, 1, 47, 127
2, 550160, Note_off_c, 1, 48, 0
2, 550320, Note_on_c, 1, 45, 127
2, 550320, Note_off_c, 1, 47, 0
2, 550320, Note_off_c, 1, 64, 0
2, 550320, Note_on_c, 1, 65, 127
2, 550520, Note_off_c, 1, 45, 0
2, 550520, Note_on_c, 1, 47, 127
2, 550680, Note_off_c, 1, 47, 0
2, 550680, Note_on_c, 1, 48, 127
2, 550680, Note_on_c, 1, 64, 127
2, 550680, Note_off_c, 1, 65, 0
2, 550880, Note_on_c, 1, 47, 127
2, 550880, Note_off_c, 1, 48, 0
2, 551040, Note_on_c, 1, 45, 127
2, 551040, Note_off_c, 1, 47, 0
2, 551040, Note_on_c, 1, 62, 127
2, 551040, Note_off_c, 1, 64, 0
2, 551240, Note_off_c, 1, 45, 0
2, 551240, Note_on_c, 1, 47, 127
2, 551400, Note_off_c, 1, 47, 0
2, 551400, Note_on_c, 1, 48, 127
2, 551400, Note_off_c, 1, 62, 0
2, 551400, Note_on_c, 1, 64, 127
2, 551480, Note_on_c, 1, 62, 127
2, 551480, Note_off_c, 1, 64, 0
2, 551560, Note_off_c, 1, 62, 0
2, 551560, Note_on_c, 1, 64, 127
2, 551600, Note_on_c, 1, 47, 127
2, 551600, Note_off_c, 1, 48, 0
2, 551760, Note_on_c, 1, 45, 127
2, 551760, Note_off_c, 1, 47, 0
2, 551760, Note_on_c, 1, 57, 127
2, 551800, Note_off_c, 1, 64, 0
2, 551960, Note_off_c, 1, 45, 0
2, 551960, Note_on_c, 1, 47, 127
2, 552120, Note_off_c, 1, 47, 0
2, 552120, Note_on_c, 1, 48, 127
2, 552320, Note_off_c, 1, 48, 0
2, 552320, Note_on_c, 1, 50, 127
2, 552400, Note_off_c, 1, 57, 0
2, 552480, Note_off_c, 1, 50, 0
2, 552480, Note_on_c, 1, 52, 127
2, 552480, Note_on_c, 1, 56, 127
2, 552680, Note_on_c, 1, 50, 127
2, 552680, Note_off_c, 1, 52, 0
2, 552840, Note_on_c, 1, 48, 127
2, 552840, Note_off_c, 1, 50, 0
2, 552840, Note_off_c, 1, 56, 0
2, 552840, Note_on_c, 1, 57, 127
2, 553040, Note_on_c, 1, 47, 127
2, 553040, Note_off_c, 1, 48, 0
2, 553200, Note_on_c, 1, 45, 127
2, 553200, Note_off_c, 1, 47, 0
2, 553200, Note_off_c, 1, 57, 0
2, 553200, Note_on_c, 1, 65, 127
2, 553400, Note_off_c, 1, 45, 0
2, 553400, Note_on_c, 1, 47, 127
2, 553560, Note_off_c, 1, 47, 0
2, 553560, Note_on_c, 1, 48, 127
2, 553560, Note_on_c, 1, 64, 127
2, 553560, Note_off_c, 1, 65, 0
2, 553760, Note_on_c, 1, 47, 127
2, 553760, Note_off_c, 1, 48, 0
2, 553920, Note_on_c, 1, 45, 127
2, 553920, Note_off_c, 1, 47, 0
2, 553920, Note_on_c, 1, 62, 127
2, 553920, Note_off_c, 1, 64, 0
2, 554120, Note_off_c, 1, 45, 0
2, 554120, Note_on_c, 1, 47, 127
2, 554280, Note_off_c, 1, 47, 0
2, 554280, Note_on_c, 1, 48, 127
2, 554280, Note_off_c, 1, 62, 0
2, 554280, Note_on_c, 1, 64, 127
2, 554360, Note_on_c, 1, 62, 127
2, 554360, Note_off_c, 1, 64, 0
2, 554440, Note_off_c, 1, 62, 0
2, 554440, Note_on_c, 1, 64, 127
2, 554480, Note_on_c, 1, 47, 127
2, 554480, Note_off_c, 1, 48, 0
2, 554640, Note_on_c, 1, 45, 127
2, 554640, Note_off_c, 1, 47, 0
2, 554640, Note_on_c, 1, 57, 127
2, 554680, Note_off_c, 1, 64, 0
2, 554840, Note_off_c, 1, 45, 0
2, 554840, Note_on_c, 1, 47, 127
2, 555000, Note_off_c, 1, 47, 0
2, 555000, Note_on_c, 1, 48, 127
2, 555200, Note_off_c, 1, 48, 0
2, 555200, Note_on_c, 1, 50, 127
2, 555280, Note_off_c, 1, 57, 0
2, 555360, Note_off_c, 1, 50, 0
2, 555360, Note_on_c, 1, 52, 127
2, 555360, Note_on_c, 1, 56, 127
2, 555560, Note_on_c, 1, 50, 127
2, 555560, Note_off_c, 1, 52, 0
2, 555720, Note_on_c, 1, 48, 127
2, 555720, Note_off_c, 1, 50, 0
2, 555720, Note_off_c, 1, 56, 0
2, 555720, Note_on_c, 1, 57, 127
2, 555920, Note_on_c, 1, 47, 127
2, 555920, Note_off_c, 1, 48, 0
2, 556080, Note_on_c, 1, 45, 127
2, 556080, Note_off_c, 1, 47, 0
2, 556080, Note_off_c, 1, 57, 0
2, 556080, Note_on_c, 1, 65, 127
2, 556280, Note_off_c, 1, 45, 0
2, 556280, Note_on_c, 1, 47, 127
2, 556440, Note_off_c, 1, 47, 0
2, 556440, Note_on_c, 1, 48, 127
2, 556440, Note_on_c, 1, 64, 127
2, 556440, Note_off_c, 1, 65, 0
2, 556640, Note_on_c, 1, 47, 127
2, 556640, Note_off_c, 1, 48, 0
2, 556800, Note_on_c, 1, 45, 127
2, 556800, Note_off_c, 1, 47, 0
2, 556800, Note_on_c, 1, 62, 127
2, 556800, Note_off_c, 1, 64, 0
2, 557000, Note_off_c, 1, 45, 0
2, 557000, Note_on_c, 1, 47, 127
2, 557160, Note_off_c, 1, 47, 0
2, 557160, Note_on_c, 1, 48, 127
2, 557160, Note_off_c, 1, 62, 0
2, 557160, Note_on_c, 1, 69, 127
2, 557360, Note_on_c, 1, 47, 127
2, 557360, Note_off_c, 1, 48, 0
2, 557520, Note_on_c, 1, 45, 127
2, 557520, Note_off_c, 1, 47, 0
2, 557520, Note_on_c, 1, 67, 127
2, 557520, Note_off_c, 1, 69, 0
2, 557720, Note_off_c, 1, 45, 0
2, 557720, Note_on_c, 1, 47, 127
2, 557720, Note_on_c, 1, 65, 127
2, 557720, Note_off_c, 1, 67, 0
2, 557880, Note_off_c, 1, 47, 0
2, 557880, Note_on_c, 1, 48, 127
2, 557880, Note_on_c, 1, 64, 127
2, 557880, Note_off_c, 1, 65, 0
2, 558080, Note_off_c, 1, 48, 0
2, 558080, Note_on_c, 1, 50, 127
2, 558240, Note_off_c, 1, 50, 0
2, 558240, Note_on_c, 1, 52, 127
2, 558240, Note_on_c, 1, 62, 127
2, 558240, Note_off_c, 1, 64, 0
2, 558440, Note_off_c, 1, 52, 0
2, 558440, Note_on_c, 1, 53, 127
2, 558600, Note_on_c, 1, 52, 127
2, 558600, Note_off_c, 1, 53, 0
2, 558760, Note_on_c, 1, 60, 127
2, 558760, Note_off_c, 1, 62, 0
2, 558800, Note_on_c, 1, 50, 127
2, 558800, Note_off_c, 1, 52, 0
2, 558840, Note_off_c, 1, 60, 0
2, 558840, Note_on_c, 1, 62, 127
2, 558880, Note_on_c, 1, 60, 127
2, 558880, Note_off_c, 1, 62, 0
2, 558960, Note_on_c, 1, 48, 127
2, 558960, Note_off_c, 1, 50, 0
2, 558960, Note_on_c, 1, 59, 127
2, 558960, Note_off_c, 1, 60, 0
2, 559160, Note_on_c, 1, 47, 127
2, 559160, Note_off_c, 1, 48, 0
2, 559160, Note_off_c, 1, 59, 0
2, 559160, Note_on_c, 1, 60, 127
2, 559320, Note_on_c, 1, 45, 127
2, 559320, Note_off_c, 1, 47, 0
2, 559320, Note_off_c, 1, 60, 0
2, 559320, Note_on_c, 1, 62, 127
2, 559520, Note_on_c, 1, 44, 127
2, 559520, Note_off_c, 1, 45, 0
2, 559520, Note_on_c, 1, 59, 127
2, 559520, Note_off_c, 1, 62, 0
2, 559680, Note_off_c, 1, 44, 0
2, 559680, Note_on_c, 1, 45, 127
2, 559680, Note_off_c, 1, 59, 0
2, 559680, Note_on_c, 1, 60, 127
2, 559880, Note_on_c, 1, 57, 127
2, 559880, Note_off_c, 1, 60, 0
2, 560040, Note_on_c, 1, 40, 127
2, 560040, Note_off_c, 1, 45, 0
2, 560040, Note_off_c, 1, 57, 0
2, 560040, Note_on_c, 1, 59, 127
2, 560240, Note_on_c, 1, 57, 127
2, 560240, Note_off_c, 1, 59, 0
2, 560400, Note_on_c, 1, 56, 127
2, 560400, Note_off_c, 1, 57, 0
2, 560600, Note_off_c, 1, 56, 0
2, 560600, Note_on_c, 1, 57, 127
2, 560760, Note_off_c, 1, 40, 0
2, 560760, Note_off_c, 1, 57, 0
2, 560760, Note_on_c, 1, 59, 127
2, 560960, Note_off_c, 1, 59, 0
2, 560960, Note_on_c, 1, 60, 127
2, 561120, Note_on_c, 1, 52, 127
2, 561120, Note_off_c, 1, 60, 0
2, 561120, Note_on_c, 1, 62, 127
2, 561320, Note_off_c, 1, 52, 0
2, 561320, Note_on_c, 1, 53, 127
2, 561320, Note_on_c, 1, 59, 127
2, 561320, Note_off_c, 1, 62, 0
2, 561480, Note_on_c, 1, 52, 127
2, 561480, Note_off_c, 1, 53, 0
2, 561480, Note_off_c, 1, 59, 0
2, 561480, Note_on_c, 1, 60, 127
2, 561680, Note_off_c, 1, 60, 0
2, 561680, Note_on_c, 1, 62, 127
2, 561840, Note_on_c, 1, 50, 127
2, 561840, Note_off_c, 1, 52, 0
2, 561840, Note_off_c, 1, 62, 0
2, 561840, Note_on_c, 1, 64, 127
2, 562040, Note_off_c, 1, 64, 0
2, 562040, Note_on_c, 1, 65, 127
2, 562200, Note_on_c, 1, 48, 127
2, 562200, Note_off_c, 1, 50, 0
2, 562200, Note_on_c, 1, 64, 127
2, 562200, Note_off_c, 1, 65, 0
2, 562400, Note_on_c, 1, 62, 127
2, 562400, Note_off_c, 1, 64, 0
2, 562560, Note_on_c, 1, 47, 127
2, 562560, Note_off_c, 1, 48, 0
2, 562560, Note_on_c, 1, 60, 127
2, 562560, Note_off_c, 1, 62, 0
2, 562760, Note_off_c, 1, 60, 0
2, 562760, Note_on_c, 1, 62, 127
2, 562920, Note_off_c, 1, 47, 0
2, 562920, Note_on_c, 1, 48, 127
2, 562920, Note_off_c, 1, 62, 0
2, 562920, Note_on_c, 1, 64, 127
2, 563120, Note_on_c, 1, 62, 127
2, 563120, Note_off_c, 1, 64, 0
2, 563200, Note_off_c, 1, 48, 0
2, 563280, Note_on_c, 1, 45, 127
2, 563280, Note_on_c, 1, 60, 127
2, 563280, Note_off_c, 1, 62, 0
2, 563480, Note_off_c, 1, 45, 0
2, 563480, Note_on_c, 1, 47, 127
2, 563480, Note_on_c, 1, 59, 127
2, 563480, Note_off_c, 1, 60, 0
2, 563640, Note_off_c, 1, 47, 0
2, 563640, Note_on_c, 1, 48, 127
2, 563640, Note_on_c, 1, 57, 127
2, 563640, Note_off_c, 1, 59, 0
2, 563840, Note_off_c, 1, 48, 0
2, 563840, Note_on_c, 1, 50, 127
2, 563840, Note_off_c, 1, 57, 0
2, 563840, Note_on_c, 1, 59, 127
2, 564000, Note_off_c, 1, 50, 0
2, 564000, Note_on_c, 1, 52, 127
2, 564000, Note_off_c, 1, 59, 0
2, 564000, Note_on_c, 1, 60, 127
2, 564200, Note_off_c, 1, 52, 0
2, 564200, Note_on_c, 1, 53, 127
2, 564200, Note_off_c, 1, 60, 0
2, 564200, Note_on_c, 1, 62, 127
2, 564360, Note_off_c, 1, 53, 0
2, 564360, Note_on_c, 1, 55, 127
2, 564360, Note_off_c, 1, 62, 0
2, 564360, Note_on_c, 1, 64, 127
2, 564560, Note_off_c, 1, 64, 0
2, 564560, Note_on_c, 1, 65, 127
2, 564720, Note_on_c, 1, 53, 127
2, 564720, Note_off_c, 1, 55, 0
2, 564720, Note_off_c, 1, 65, 0
2, 564720, Note_on_c, 1, 67, 127
2, 564920, Note_off_c, 1, 67, 0
2, 564920, Note_on_c, 1, 69, 127
2, 565080, Note_on_c, 1, 52, 127
2, 565080, Note_off_c, 1, 53, 0
2, 565080, Note_on_c, 1, 67, 127
2, 565080, Note_off_c, 1, 69, 0
2, 565280, Note_on_c, 1, 65, 127
2, 565280, Note_off_c, 1, 67, 0
2, 565440, Note_on_c, 1, 50, 127
2, 565440, Note_off_c, 1, 52, 0
2, 565440, Note_on_c, 1, 64, 127
2, 565440, Note_off_c, 1, 65, 0
2, 565640, Note_off_c, 1, 64, 0
2, 565640, Note_on_c, 1, 65, 127
2, 565800, Note_off_c, 1, 50, 0
2, 565800, Note_on_c, 1, 52, 127
2, 565800, Note_off_c, 1, 65, 0
2, 565800, Note_on_c, 1, 67, 127
2, 566000, Note_on_c, 1, 65, 127
2, 566000, Note_off_c, 1, 67, 0
2, 566120, Note_off_c, 1, 52, 0
2, 566160, Note_on_c, 1, 48, 127
2, 566160, Note_on_c, 1, 64, 127
2, 566160, Note_off_c, 1, 65, 0
2, 566360, Note_off_c, 1, 48, 0
2, 566360, Note_on_c, 1, 50, 127
2, 566360, Note_on_c, 1, 62, 127
2, 566360, Note_off_c, 1, 64, 0
2, 566520, Note_off_c, 1, 50, 0
2, 566520, Note_on_c, 1, 52, 127
2, 566520, Note_on_c, 1, 60, 127
2, 566520, Note_off_c, 1, 62, 0
2, 566720, Note_off_c, 1, 52, 0
2, 566720, Note_on_c, 1, 54, 127
2, 566720, Note_off_c, 1, 60, 0
2, 566720, Note_on_c, 1, 62, 127
2, 566880, Note_off_c, 1, 54, 0
2, 566880, Note_on_c, 1, 55, 127
2, 566880, Note_off_c, 1, 62, 0
2, 566880, Note_on_c, 1, 64, 127
2, 567080, Note_off_c, 1, 55, 0
2, 567080, Note_on_c, 1, 57, 127
2, 567080, Note_off_c, 1, 64, 0
2, 567080, Note_on_c, 1, 66, 127
2, 567240, Note_off_c, 1, 57, 0
2, 567240, Note_on_c, 1, 59, 127
2, 567240, Note_off_c, 1, 66, 0
2, 567240, Note_on_c, 1, 67, 127
2, 567440, Note_off_c, 1, 67, 0
2, 567440, Note_on_c, 1, 69, 127
2, 567600, Note_on_c, 1, 57, 127
2, 567600, Note_off_c, 1, 59, 0
2, 567600, Note_off_c, 1, 69, 0
2, 567600, Note_on_c, 1, 71, 127
2, 567800, Note_off_c, 1, 71, 0
2, 567800, Note_on_c, 1, 72, 127
2, 567960, Note_on_c, 1, 55, 127
2, 567960, Note_off_c, 1, 57, 0
2, 567960, Note_on_c, 1, 71, 127
2, 567960, Note_off_c, 1, 72, 0
2, 568160, Note_on_c, 1, 69, 127
2, 568160, Note_off_c, 1, 71, 0
2, 568320, Note_on_c, 1, 54, 127
2, 568320, Note_off_c, 1, 55, 0
2, 568320, Note_on_c, 1, 67, 127
2, 568320, Note_off_c, 1, 69, 0
2, 568520, Note_off_c, 1, 67, 0
2, 568520, Note_on_c, 1, 69, 127
2, 568680, Note_off_c, 1, 54, 0
2, 568680, Note_on_c, 1, 55, 127
2, 568680, Note_off_c, 1, 69, 0
2, 568680, Note_on_c, 1, 71, 127
2, 568880, Note_on_c, 1, 69, 127
2, 568880, Note_off_c, 1, 71, 0
2, 569000, Note_off_c, 1, 55, 0
2, 569040, Note_on_c, 1, 52, 127
2, 569040, Note_on_c, 1, 67, 127
2, 569040, Note_off_c, 1, 69, 0
2, 569240, Note_on_c, 1, 66, 127
2, 569240, Note_off_c, 1, 67, 0
2, 569400, Note_off_c, 1, 52, 0
2, 569400, Note_on_c, 1, 60, 127
2, 569400, Note_on_c, 1, 64, 127
2, 569400, Note_off_c, 1, 66, 0
2, 569600, Note_on_c, 1, 63, 127
2, 569600, Note_off_c, 1, 64, 0
2, 569760, Note_on_c, 1, 57, 127
2, 569760, Note_off_c, 1, 60, 0
2, 569760, Note_off_c, 1, 63, 0
2, 569760, Note_on_c, 1, 64, 127
2, 569960, Note_off_c, 1, 64, 0
2, 569960, Note_on_c, 1, 66, 127
2, 570120, Note_on_c, 1, 59, 127
2, 570120, Note_off_c, 1, 66, 0
2, 570320, Note_on_c, 1, 55, 127
2, 570320, Note_off_c, 1, 57, 0
2, 570480, Note_on_c, 1, 54, 127
2, 570480, Note_off_c, 1, 55, 0
2, 570480, Note_off_c, 1, 59, 0
2, 570480, Note_on_c, 1, 67, 127
2, 570680, Note_on_c, 1, 52, 127
2, 570680, Note_off_c, 1, 54, 0
2, 570840, Note_off_c, 1, 52, 0
2, 570840, Note_on_c, 1, 59, 127
2, 571040, Note_on_c, 1, 66, 127
2, 571040, Note_off_c, 1, 67, 0
2, 571200, Note_on_c, 1, 47, 127
2, 571200, Note_off_c, 1, 59, 0
2, 571200, Note_on_c, 1, 64, 127
2, 571200, Note_off_c, 1, 66, 0
2, 571400, Note_on_c, 1, 63, 127
2, 571400, Note_off_c, 1, 64, 0
2, 571560, Note_off_c, 1, 47, 0
2, 571560, Note_on_c, 1, 52, 127
2, 571560, Note_off_c, 1, 63, 0
2, 571560, Note_on_c, 1, 64, 127
2, 571920, Note_on_c, 1, 47, 127
2, 571920, Note_off_c, 1, 52, 0
2, 572280, Note_on_c, 1, 40, 127
2, 572280, Note_off_c, 1, 47, 0
2, 572640, Note_off_c, 1, 40, 0
2, 572640, Note_on_c, 1, 52, 127
2, 572840, Note_off_c, 1, 52, 0
2, 572840, Note_on_c, 1, 53, 127
2, 572840, Note_on_c, 1, 62, 127
2, 572840, Note_off_c, 1, 64, 0
2, 573000, Note_off_c, 1, 53, 0
2, 573000, Note_on_c, 1, 55, 127
2, 573000, Note_on_c, 1, 61, 127
2, 573000, Note_off_c, 1, 62, 0
2, 573200, Note_on_c, 1, 53, 127
2, 573200, Note_off_c, 1, 55, 0
2, 573360, Note_on_c, 1, 52, 127
2, 573360, Note_off_c, 1, 53, 0
2, 573360, Note_on_c, 1, 59, 127
2, 573360, Note_off_c, 1, 61, 0
2, 573560, Note_off_c, 1, 52, 0
2, 573560, Note_on_c, 1, 53, 127
2, 573720, Note_off_c, 1, 53, 0
2, 573720, Note_on_c, 1, 55, 127
2, 573720, Note_off_c, 1, 59, 0
2, 573720, Note_on_c, 1, 61, 127
2, 573920, Note_on_c, 1, 53, 127
2, 573920, Note_off_c, 1, 55, 0
2, 574080, Note_on_c, 1, 52, 127
2, 574080, Note_off_c, 1, 53, 0
2, 574080, Note_off_c, 1, 61, 0
2, 574080, Note_on_c, 1, 62, 127
2, 574280, Note_off_c, 1, 52, 0
2, 574280, Note_on_c, 1, 53, 127
2, 574440, Note_off_c, 1, 53, 0
2, 574440, Note_on_c, 1, 55, 127
2, 574440, Note_off_c, 1, 62, 0
2, 574440, Note_on_c, 1, 64, 127
2, 574640, Note_on_c, 1, 53, 127
2, 574640, Note_off_c, 1, 55, 0
2, 574640, Note_off_c, 1, 64, 0
2, 574640, Note_on_c, 1, 67, 127
2, 574800, Note_on_c, 1, 52, 127
2, 574800, Note_off_c, 1, 53, 0
2, 574800, Note_off_c, 1, 67, 0
2, 574800, Note_on_c, 1, 70, 127
2, 575000, Note_off_c, 1, 52, 0
2, 575000, Note_on_c, 1, 53, 127
2, 575160, Note_off_c, 1, 53, 0
2, 575160, Note_on_c, 1, 55, 127
2, 575520, Note_on_c, 1, 49, 127
2, 575520, Note_off_c, 1, 55, 0
2, 575520, Note_on_c, 1, 69, 127
2, 575520, Note_off_c, 1, 70, 0
2, 575720, Note_on_c, 1, 67, 127
2, 575720, Note_off_c, 1, 69, 0
2, 575880, Note_off_c, 1, 49, 0
2, 575880, Note_on_c, 1, 50, 127
2, 575880, Note_on_c, 1, 65, 127
2, 575880, Note_off_c, 1, 67, 0
2, 576080, Note_on_c, 1, 64, 127
2, 576080, Note_off_c, 1, 65, 0
2, 576240, Note_on_c, 1, 46, 127
2, 576240, Note_off_c, 1, 50, 0
2, 576240, Note_off_c, 1, 64, 0
2, 576240, Note_on_c, 1, 65, 127
2, 576440, Note_off_c, 1, 65, 0
2, 576440, Note_on_c, 1, 74, 127
2, 576600, Note_on_c, 1, 43, 127
2, 576600, Note_off_c, 1, 46, 0
2, 576600, Note_on_c, 1, 73, 127
2, 576600, Note_off_c, 1, 74, 0
2, 576800, Note_on_c, 1, 71, 127
2, 576800, Note_off_c, 1, 73, 0
2, 576960, Note_off_c, 1, 43, 0
2, 576960, Note_on_c, 1, 45, 127
2, 576960, Note_on_c, 1, 69, 127
2, 576960, Note_off_c, 1, 71, 0
2, 577160, Note_on_c, 1, 67, 127
2, 577160, Note_off_c, 1, 69, 0
2, 577320, Note_on_c, 1, 38, 127
2, 577320, Note_off_c, 1, 45, 0
2, 577320, Note_on_c, 1, 65, 127
2, 577320, Note_off_c, 1, 67, 0
2, 577520, Note_off_c, 1, 65, 0
2, 577520, Note_on_c, 1, 67, 127
2, 577680, Note_off_c, 1, 67, 0
2, 577680, Note_on_c, 1, 69, 127
2, 577880, Note_on_c, 1, 67, 127
2, 577880, Note_off_c, 1, 69, 0
2, 578040, Note_off_c, 1, 38, 0
2, 578040, Note_on_c, 1, 65, 127
2, 578040, Note_off_c, 1, 67, 0
2, 578240, Note_on_c, 1, 64, 127
2, 578240, Note_off_c, 1, 65, 0
2, 578400, Note_on_c, 1, 50, 127
2, 578400, Note_on_c, 1, 62, 127
2, 578400, Note_off_c, 1, 64, 0
2, 578600, Note_off_c, 1, 50, 0
2, 578600, Note_on_c, 1, 52, 127
2, 578600, Note_on_c, 1, 60, 127
2, 578600, Note_off_c, 1, 62, 0
2, 578760, Note_off_c, 1, 52, 0
2, 578760, Note_on_c, 1, 53, 127
2, 578760, Note_on_c, 1, 59, 127
2, 578760, Note_off_c, 1, 60, 0
2, 578960, Note_on_c, 1, 52, 127
2, 578960, Note_off_c, 1, 53, 0
2, 579120, Note_on_c, 1, 50, 127
2, 579120, Note_off_c, 1, 52, 0
2, 579320, Note_off_c, 1, 50, 0
2, 579320, Note_on_c, 1, 52, 127
2, 579320, Note_on_c, 1, 57, 127
2, 579320, Note_off_c, 1, 59, 0
2, 579480, Note_off_c, 1, 52, 0
2, 579480, Note_on_c, 1, 53, 127
2, 579480, Note_off_c, 1, 57, 0
2, 579480, Note_on_c, 1, 59, 127
2, 579680, Note_on_c, 1, 52, 127
2, 579680, Note_off_c, 1, 53, 0
2, 579840, Note_on_c, 1, 50, 127
2, 579840, Note_off_c, 1, 52, 0
2, 580040, Note_off_c, 1, 50, 0
2, 580040, Note_on_c, 1, 52, 127
2, 580040, Note_off_c, 1, 59, 0
2, 580040, Note_on_c, 1, 60, 127
2, 580200, Note_off_c, 1, 52, 0
2, 580200, Note_on_c, 1, 53, 127
2, 580200, Note_off_c, 1, 60, 0
2, 580200, Note_on_c, 1, 62, 127
2, 580400, Note_on_c, 1, 52, 127
2, 580400, Note_off_c, 1, 53, 0
2, 580400, Note_off_c, 1, 62, 0
2, 580400, Note_on_c, 1, 65, 127
2, 580560, Note_on_c, 1, 50, 127
2, 580560, Note_off_c, 1, 52, 0
2, 580560, Note_off_c, 1, 65, 0
2, 580560, Note_on_c, 1, 69, 127
2, 580760, Note_off_c, 1, 50, 0
2, 580760, Note_on_c, 1, 52, 127
2, 580920, Note_off_c, 1, 52, 0
2, 580920, Note_on_c, 1, 53, 127
2, 581120, Note_off_c, 1, 53, 0
2, 581120, Note_on_c, 1, 55, 127
2, 581280, Note_off_c, 1, 55, 0
2, 581280, Note_on_c, 1, 57, 127
2, 581280, Note_on_c, 1, 67, 127
2, 581280, Note_off_c, 1, 69, 0
2, 581480, Note_off_c, 1, 57, 0
2, 581480, Note_on_c, 1, 59, 127
2, 581480, Note_on_c, 1, 65, 127
2, 581480, Note_off_c, 1, 67, 0
2, 581640, Note_off_c, 1, 59, 0
2, 581640, Note_on_c, 1, 60, 127
2, 581640, Note_on_c, 1, 64, 127
2, 581640, Note_off_c, 1, 65, 0
2, 581840, Note_on_c, 1, 62, 127
2, 581840, Note_off_c, 1, 64, 0
2, 582000, Note_on_c, 1, 57, 127
2, 582000, Note_off_c, 1, 60, 0
2, 582000, Note_off_c, 1, 62, 0
2, 582000, Note_on_c, 1, 64, 127
2, 582200, Note_off_c, 1, 64, 0
2, 582200, Note_on_c, 1, 72, 127
2, 582360, Note_on_c, 1, 53, 127
2, 582360, Note_off_c, 1, 57, 0
2, 582360, Note_on_c, 1, 71, 127
2, 582360, Note_off_c, 1, 72, 0
2, 582560, Note_on_c, 1, 69, 127
2, 582560, Note_off_c, 1, 71, 0
2, 582720, Note_off_c, 1, 53, 0
2, 582720, Note_on_c, 1, 55, 127
2, 582720, Note_on_c, 1, 67, 127
2, 582720, Note_off_c, 1, 69, 0
2, 582920, Note_on_c, 1, 65, 127
2, 582920, Note_off_c, 1, 67, 0
2, 583080, Note_on_c, 1, 48, 127
2, 583080, Note_off_c, 1, 55, 0
2, 583080, Note_on_c, 1, 64, 127
2, 583080, Note_off_c, 1, 65, 0
2, 583280, Note_off_c, 1, 64, 0
2, 583280, Note_on_c, 1, 65, 127
2, 583440, Note_off_c, 1, 65, 0
2, 583440, Note_on_c, 1, 67, 127
2, 583640, Note_on_c, 1, 65, 127
2, 583640, Note_off_c, 1, 67, 0
2, 583720, Note_off_c, 1, 48, 0
2, 583800, Note_on_c, 1, 64, 127
2, 583800, Note_off_c, 1, 65, 0
2, 584000, Note_on_c, 1, 53, 127
2, 584000, Note_on_c, 1, 62, 127
2, 584000, Note_off_c, 1, 64, 0
2, 584160, Note_on_c, 1, 52, 127
2, 584160, Note_off_c, 1, 53, 0
2, 584160, Note_on_c, 1, 60, 127
2, 584160, Note_off_c, 1, 62, 0
2, 584360, Note_on_c, 1, 50, 127
2, 584360, Note_off_c, 1, 52, 0
2, 584360, Note_on_c, 1, 59, 127
2, 584360, Note_off_c, 1, 60, 0
2, 584520, Note_on_c, 1, 48, 127
2, 584520, Note_off_c, 1, 50, 0
2, 584520, Note_on_c, 1, 57, 127
2, 584520, Note_off_c, 1, 59, 0
2, 584720, Note_on_c, 1, 47, 127
2, 584720, Note_off_c, 1, 48, 0
2, 584720, Note_off_c, 1, 57, 0
2, 584720, Note_on_c, 1, 67, 127
2, 584880, Note_off_c, 1, 47, 0
2, 584880, Note_on_c, 1, 48, 127
2, 584880, Note_on_c, 1, 65, 127
2, 584880, Note_off_c, 1, 67, 0
2, 585080, Note_on_c, 1, 64, 127
2, 585080, Note_off_c, 1, 65, 0
2, 585240, Note_off_c, 1, 64, 0
2, 585240, Note_on_c, 1, 65, 127
2, 585400, Note_off_c, 1, 48, 0
2, 585440, Note_on_c, 1, 52, 127
2, 585600, Note_on_c, 1, 50, 127
2, 585600, Note_off_c, 1, 52, 0
2, 585600, Note_on_c, 1, 57, 127
2, 585600, Note_off_c, 1, 65, 0
2, 585800, Note_on_c, 1, 48, 127
2, 585800, Note_off_c, 1, 50, 0
2, 585960, Note_on_c, 1, 47, 127
2, 585960, Note_off_c, 1, 48, 0
2, 585960, Note_on_c, 1, 56, 127
2, 585960, Note_off_c, 1, 57, 0
2, 586160, Note_on_c, 1, 45, 127
2, 586160, Note_off_c, 1, 47, 0
2, 586160, Note_on_c, 1, 54, 127
2, 586160, Note_off_c, 1, 56, 0
2, 586320, Note_off_c, 1, 45, 0
2, 586320, Note_on_c, 1, 47, 127
2, 586320, Note_off_c, 1, 54, 0
2, 586320, Note_on_c, 1, 56, 127
2, 586520, Note_off_c, 1, 56, 0
2, 586520, Note_on_c, 1, 65, 127
2, 586680, Note_on_c, 1, 64, 127
2, 586680, Note_off_c, 1, 65, 0
2, 586840, Note_off_c, 1, 47, 0
2, 586880, Note_on_c, 1, 50, 127
2, 587040, Note_on_c, 1, 48, 127
2, 587040, Note_off_c, 1, 50, 0
2, 587040, Note_on_c, 1, 55, 127
2, 587040, Note_off_c, 1, 64, 0
2, 587240, Note_on_c, 1, 47, 127
2, 587240, Note_off_c, 1, 48, 0
2, 587400, Note_on_c, 1, 45, 127
2, 587400, Note_off_c, 1, 47, 0
2, 587400, Note_on_c, 1, 54, 127
2, 587400, Note_off_c, 1, 55, 0
2, 587600, Note_on_c, 1, 44, 127
2, 587600, Note_off_c, 1, 45, 0
2, 587600, Note_on_c, 1, 52, 127
2, 587600, Note_off_c, 1, 54, 0
2, 587760, Note_off_c, 1, 44, 0
2, 587760, Note_on_c, 1, 45, 127
2, 587760, Note_off_c, 1, 52, 0
2, 587760, Note_on_c, 1, 53, 127
2, 587960, Note_off_c, 1, 53, 0
2, 587960, Note_on_c, 1, 64, 127
2, 588120, Note_on_c, 1, 62, 127
2, 588120, Note_off_c, 1, 64, 0
2, 588280, Note_off_c, 1, 45, 0
2, 588320, Note_on_c, 1, 47, 127
2, 588320, Note_on_c, 1, 60, 127
2, 588320, Note_off_c, 1, 62, 0
2, 588480, Note_off_c, 1, 47, 0
2, 588480, Note_on_c, 1, 48, 127
2, 588480, Note_on_c, 1, 59, 127
2, 588480, Note_off_c, 1, 60, 0
2, 588680, Note_off_c, 1, 48, 0
2, 588680, Note_on_c, 1, 50, 127
2, 588680, Note_on_c, 1, 57, 127
2, 588680, Note_off_c, 1, 59, 0
2, 588840, Note_off_c, 1, 50, 0
2, 588840, Note_on_c, 1, 52, 127
2, 588840, Note_off_c, 1, 57, 0
2, 588840, Note_on_c, 1, 69, 127
2, 589040, Note_on_c, 1, 51, 127
2, 589040, Note_off_c, 1, 52, 0
2, 589040, Note_on_c, 1, 68, 127
2, 589040, Note_off_c, 1, 69, 0
2, 589200, Note_off_c, 1, 51, 0
2, 589200, Note_on_c, 1, 52, 127
2, 589200, Note_on_c, 1, 66, 127
2, 589200, Note_off_c, 1, 68, 0
2, 589400, Note_on_c, 1, 64, 127
2, 589400, Note_off_c, 1, 66, 0
2, 589560, Note_off_c, 1, 64, 0
2, 589560, Note_on_c, 1, 71, 127
2, 589760, Note_on_c, 1, 50, 127
2, 589760, Note_off_c, 1, 52, 0
2, 589920, Note_on_c, 1, 48, 127
2, 589920, Note_off_c, 1, 50, 0
2, 589920, Note_on_c, 1, 64, 127
2, 589920, Note_off_c, 1, 71, 0
2, 590120, Note_on_c, 1, 47, 127
2, 590120, Note_off_c, 1, 48, 0
2, 590120, Note_on_c, 1, 62, 127
2, 590120, Note_off_c, 1, 64, 0
2, 590280, Note_on_c, 1, 45, 127
2, 590280, Note_off_c, 1, 47, 0
2, 590280, Note_off_c, 1, 62, 0
2, 590280, Note_on_c, 1, 64, 127
2, 590480, Note_on_c, 1, 44, 127
2, 590480, Note_off_c, 1, 45, 0
2, 590640, Note_on_c, 1, 42, 127
2, 590640, Note_off_c, 1, 44, 0
2, 590640, Note_off_c, 1, 64, 0
2, 590640, Note_on_c, 1, 74, 127
2, 590840, Note_off_c, 1, 42, 0
2, 590840, Note_on_c, 1, 44, 127
2, 591000, Note_off_c, 1, 44, 0
2, 591000, Note_on_c, 1, 45, 127
2, 591000, Note_on_c, 1, 72, 127
2, 591000, Note_off_c, 1, 74, 0
2, 591200, Note_on_c, 1, 44, 127
2, 591200, Note_off_c, 1, 45, 0
2, 591360, Note_on_c, 1, 42, 127
2, 591360, Note_off_c, 1, 44, 0
2, 591360, Note_on_c, 1, 71, 127
2, 591360, Note_off_c, 1, 72, 0
2, 591560, Note_off_c, 1, 42, 0
2, 591560, Note_on_c, 1, 44, 127
2, 591720, Note_off_c, 1, 44, 0
2, 591720, Note_on_c, 1, 45, 127
2, 591720, Note_off_c, 1, 71, 0
2, 591720, Note_on_c, 1, 72, 127
2, 591920, Note_off_c, 1, 45, 0
2, 591920, Note_on_c, 1, 47, 127
2, 592080, Note_off_c, 1, 47, 0
2, 592080, Note_on_c, 1, 48, 127
2, 592080, Note_on_c, 1, 64, 127
2, 592080, Note_off_c, 1, 72, 0
2, 592280, Note_off_c, 1, 48, 0
2, 592280, Note_on_c, 1, 50, 127
2, 592440, Note_off_c, 1, 50, 0
2, 592440, Note_on_c, 1, 52, 127
2, 592640, Note_off_c, 1, 52, 0
2, 592640, Note_on_c, 1, 54, 127
2, 592720, Note_off_c, 1, 64, 0
2, 592800, Note_off_c, 1, 54, 0
2, 592800, Note_on_c, 1, 56, 127
2, 592800, Note_on_c, 1, 62, 127
2, 593000, Note_off_c, 1, 56, 0
2, 593000, Note_on_c, 1, 57, 127
2, 593000, Note_on_c, 1, 60, 127
2, 593000, Note_off_c, 1, 62, 0
2, 593160, Note_on_c, 1, 56, 127
2, 593160, Note_off_c, 1, 57, 0
2, 593160, Note_off_c, 1, 60, 0
2, 593160, Note_on_c, 1, 62, 127
2, 593360, Note_off_c, 1, 56, 0
2, 593360, Note_on_c, 1, 57, 127
2, 593520, Note_off_c, 1, 57, 0
2, 593520, Note_on_c, 1, 59, 127
2, 593520, Note_off_c, 1, 62, 0
2, 593520, Note_on_c, 1, 72, 127
2, 593720, Note_on_c, 1, 57, 127
2, 593720, Note_off_c, 1, 59, 0
2, 593880, Note_on_c, 1, 56, 127
2, 593880, Note_off_c, 1, 57, 0
2, 593880, Note_on_c, 1, 71, 127
2, 593880, Note_off_c, 1, 72, 0
2, 594080, Note_off_c, 1, 56, 0
2, 594080, Note_on_c, 1, 57, 127
2, 594080, Note_on_c, 1, 69, 127
2, 594080, Note_off_c, 1, 71, 0
2, 594240, Note_off_c, 1, 57, 0
2, 594240, Note_on_c, 1, 59, 127
2, 594240, Note_on_c, 1, 68, 127
2, 594240, Note_off_c, 1, 69, 0
2, 594440, Note_on_c, 1, 57, 127
2, 594440, Note_off_c, 1, 59, 0
2, 594440, Note_off_c, 1, 68, 0
2, 594440, Note_on_c, 1, 69, 127
2, 594600, Note_on_c, 1, 56, 127
2, 594600, Note_off_c, 1, 57, 0
2, 594600, Note_off_c, 1, 69, 0
2, 594600, Note_on_c, 1, 71, 127
2, 594800, Note_on_c, 1, 54, 127
2, 594800, Note_off_c, 1, 56, 0
2, 594920, Note_off_c, 1, 71, 0
2, 594960, Note_on_c, 1, 52, 127
2, 594960, Note_off_c, 1, 54, 0
2, 594960, Note_on_c, 1, 62, 127
2, 595160, Note_on_c, 1, 50, 127
2, 595160, Note_off_c, 1, 52, 0
2, 595320, Note_on_c, 1, 48, 127
2, 595320, Note_off_c, 1, 50, 0
2, 595520, Note_on_c, 1, 47, 127
2, 595520, Note_off_c, 1, 48, 0
2, 595600, Note_off_c, 1, 62, 0
2, 595680, Note_on_c, 1, 45, 127
2, 595680, Note_off_c, 1, 47, 0
2, 595680, Note_on_c, 1, 60, 127
2, 595880, Note_on_c, 1, 44, 127
2, 595880, Note_off_c, 1, 45, 0
2, 595880, Note_on_c, 1, 59, 127
2, 595880, Note_off_c, 1, 60, 0
2, 596040, Note_off_c, 1, 44, 0
2, 596040, Note_on_c, 1, 45, 127
2, 596040, Note_off_c, 1, 59, 0
2, 596040, Note_on_c, 1, 60, 127
2, 596240, Note_off_c, 1, 60, 0
2, 596240, Note_on_c, 1, 69, 127
2, 596400, Note_off_c, 1, 45, 0
2, 596400, Note_on_c, 1, 48, 127
2, 596400, Note_on_c, 1, 67, 127
2, 596400, Note_off_c, 1, 69, 0
2, 596600, Note_on_c, 1, 64, 127
2, 596600, Note_off_c, 1, 67, 0
2, 596760, Note_on_c, 1, 47, 127
2, 596760, Note_off_c, 1, 48, 0
2, 596760, Note_off_c, 1, 64, 0
2, 596760, Note_on_c, 1, 65, 127
2, 596960, Note_on_c, 1, 64, 127
2, 596960, Note_off_c, 1, 65, 0
2, 597160, Note_on_c, 1, 45, 127
2, 597160, Note_off_c, 1, 47, 0
2, 597160, Note_on_c, 1, 62, 127
2, 597160, Note_off_c, 1, 64, 0
2, 597320, Note_on_c, 1, 60, 127
2, 597320, Note_off_c, 1, 62, 0
2, 597520, Note_on_c, 1, 44, 127
2, 597520, Note_off_c, 1, 45, 0
2, 597520, Note_on_c, 1, 59, 127
2, 597520, Note_off_c, 1, 60, 0
2, 597680, Note_off_c, 1, 59, 0
2, 597680, Note_on_c, 1, 65, 127
2, 597880, Note_off_c, 1, 44, 0
2, 597880, Note_on_c, 1, 45, 127
2, 597880, Note_on_c, 1, 64, 127
2, 597880, Note_off_c, 1, 65, 0
2, 598040, Note_on_c, 1, 60, 127
2, 598040, Note_off_c, 1, 64, 0
2, 598240, Note_on_c, 1, 41, 127
2, 598240, Note_off_c, 1, 45, 0
2, 598240, Note_off_c, 1, 60, 0
2, 598240, Note_on_c, 1, 62, 127
2, 598440, Note_on_c, 1, 60, 127
2, 598440, Note_off_c, 1, 62, 0
2, 598600, Note_on_c, 1, 38, 127
2, 598600, Note_off_c, 1, 41, 0
2, 598600, Note_on_c, 1, 59, 127
2, 598600, Note_off_c, 1, 60, 0
2, 598800, Note_on_c, 1, 57, 127
2, 598800, Note_off_c, 1, 59, 0
2, 598960, Note_off_c, 1, 38, 0
2, 598960, Note_on_c, 1, 40, 127
2, 598960, Note_on_c, 1, 56, 127
2, 598960, Note_off_c, 1, 57, 0
2, 599160, Note_off_c, 1, 56, 0
2, 599160, Note_on_c, 1, 62, 127
2, 599360, Note_off_c, 1, 40, 0
2, 599360, Note_on_c, 1, 45, 127
2, 599360, Note_on_c, 1, 60, 127
2, 599360, Note_off_c, 1, 62, 0
2, 599520, Note_on_c, 1, 57, 127
2, 599520, Note_off_c, 1, 60, 0
2, 599720, Note_off_c, 1, 45, 0
2, 599720, Note_on_c, 1, 52, 127
2, 599720, Note_off_c, 1, 57, 0
2, 599720, Note_on_c, 1, 60, 127
2, 599920, Note_on_c, 1, 59, 127
2, 599920, Note_off_c, 1, 60, 0
2, 600080, Note_on_c, 1, 40, 127
2, 600080, Note_off_c, 1, 52, 0
2, 600080, Note_on_c, 1, 57, 127
2, 600080, Note_off_c, 1, 59, 0
2, 600280, Note_on_c, 1, 56, 127
2, 600280, Note_off_c, 1, 57, 0
2, 600520, Note_on_c, 1, 33, 127
2, 600520, Note_off_c, 1, 40, 0
2, 600520, Note_off_c, 1, 56, 0
2, 600520, Note_on_c, 1, 57, 127
2, 601000, Note_on_c, 1, 40, 127
2, 601480, Note_off_c, 1, 40, 0
2, 601520, Note_on_c, 1, 45, 127
2, 603520, Note_off_c, 1, 33, 0
2, 603520, Note_off_c, 1, 45, 0
2, 603520, Note_off_c, 1, 57, 0
2, 603520, Note_on_c, 1, 76, 127
2, 603760, Note_off_c, 1, 76, 0
2, 603760, Note_on_c, 1, 81, 127
2, 604080, Note_on_c, 1, 80, 127
2, 604080, Note_off_c, 1, 81, 0
2, 604240, Note_on_c, 1, 78, 127
2, 604240, Note_off_c, 1, 80, 0
2, 604400, Note_on_c, 1, 64, 127
2, 604400, Note_on_c, 1, 76, 127
2, 604400, Note_off_c, 1, 78, 0
2, 604560, Note_on_c, 1, 74, 127
2, 604560, Note_off_c, 1, 76, 0
2, 604680, Note_off_c, 1, 64, 0
2, 604720, Note_on_c, 1, 69, 127
2, 604720, Note_on_c, 1, 73, 127
2, 604720, Note_off_c, 1, 74, 0
2, 604920, Note_off_c, 1, 73, 0
2, 604920, Note_on_c, 1, 74, 127
2, 605080, Note_on_c, 1, 68, 127
2, 605080, Note_off_c, 1, 69, 0
2, 605080, Note_off_c, 1, 74, 0
2, 605080, Note_on_c, 1, 76, 127
2, 605160, Note_off_c, 1, 76, 0
2, 605200, Note_on_c, 1, 74, 127
2, 605280, Note_on_c, 1, 66, 127
2, 605280, Note_off_c, 1, 68, 0
2, 605280, Note_off_c, 1, 74, 0
2, 605280, Note_on_c, 1, 76, 127
2, 605360, Note_on_c, 1, 74, 127
2, 605360, Note_off_c, 1, 76, 0
2, 605440, Note_on_c, 1, 64, 127
2, 605440, Note_off_c, 1, 66, 0
2, 605440, Note_off_c, 1, 74, 0
2, 605440, Note_on_c, 1, 76, 127
2, 605520, Note_off_c, 1, 76, 0
2, 605560, Note_on_c, 1, 74, 127
2, 605640, Note_on_c, 1, 62, 127
2, 605640, Note_off_c, 1, 64, 0
2, 605640, Note_on_c, 1, 73, 127
2, 605640, Note_off_c, 1, 74, 0
2, 605720, Note_off_c, 1, 73, 0
2, 605720, Note_on_c, 1, 74, 127
2, 605800, Note_on_c, 1, 61, 127
2, 605800, Note_off_c, 1, 62, 0
2, 605800, Note_off_c, 1, 74, 0
2, 605800, Note_on_c, 1, 76, 127
2, 605960, Note_off_c, 1, 61, 0
2, 606000, Note_on_c, 1, 62, 127
2, 606160, Note_off_c, 1, 62, 0
2, 606160, Note_on_c, 1, 64, 127
2, 606160, Note_on_c, 1, 74, 127
2, 606160, Note_off_c, 1, 76, 0
2, 606240, Note_on_c, 1, 62, 127
2, 606240, Note_off_c, 1, 64, 0
2, 606320, Note_off_c, 1, 62, 0
2, 606320, Note_on_c, 1, 64, 127
2, 606320, Note_on_c, 1, 73, 127
2, 606320, Note_off_c, 1, 74, 0
2, 606400, Note_on_c, 1, 62, 127
2, 606400, Note_off_c, 1, 64, 0
2, 606480, Note_off_c, 1, 62, 0
2, 606480, Note_on_c, 1, 64, 127
2, 606480, Note_on_c, 1, 71, 127
2, 606480, Note_off_c, 1, 73, 0
2, 606560, Note_on_c, 1, 62, 127
2, 606560, Note_off_c, 1, 64, 0
2, 606640, Note_on_c, 1, 61, 127
2, 606640, Note_off_c, 1, 62, 0
2, 606640, Note_on_c, 1, 69, 127
2, 606640, Note_off_c, 1, 71, 0
2, 606720, Note_off_c, 1, 61, 0
2, 606720, Note_on_c, 1, 62, 127
2, 606800, Note_off_c, 1, 62, 0
2, 606800, Note_on_c, 1, 64, 127
2, 606800, Note_on_c, 1, 68, 127
2, 606800, Note_off_c, 1, 69, 0
2, 606960, Note_off_c, 1, 68, 0
2, 607000, Note_on_c, 1, 69, 127
2, 607160, Note_on_c, 1, 62, 127
2, 607160, Note_off_c, 1, 64, 0
2, 607160, Note_off_c, 1, 69, 0
2, 607160, Note_on_c, 1, 71, 127
2, 607240, Note_on_c, 1, 69, 127
2, 607240, Note_off_c, 1, 71, 0
2, 607320, Note_on_c, 1, 61, 127
2, 607320, Note_off_c, 1, 62, 0
2, 607320, Note_off_c, 1, 69, 0
2, 607320, Note_on_c, 1, 71, 127
2, 607400, Note_off_c, 1, 71, 0
2, 607440, Note_on_c, 1, 69, 127
2, 607520, Note_on_c, 1, 59, 127
2, 607520, Note_off_c, 1, 61, 0
2, 607520, Note_off_c, 1, 69, 0
2, 607520, Note_on_c, 1, 71, 127
2, 607600, Note_on_c, 1, 69, 127
2, 607600, Note_off_c, 1, 71, 0
2, 607680, Note_on_c, 1, 57, 127
2, 607680, Note_off_c, 1, 59, 0
2, 607680, Note_on_c, 1, 68, 127
2, 607680, Note_off_c, 1, 69, 0
2, 607760, Note_off_c, 1, 68, 0
2, 607800, Note_on_c, 1, 69, 127
2, 607880, Note_on_c, 1, 56, 127
2, 607880, Note_off_c, 1, 57, 0
2, 607880, Note_off_c, 1, 69, 0
2, 607880, Note_on_c, 1, 71, 127
2, 608040, Note_off_c, 1, 56, 0
2, 608040, Note_on_c, 1, 57, 127
2, 608040, Note_off_c, 1, 71, 0
2, 608040, Note_on_c, 1, 73, 127
2, 608200, Note_off_c, 1, 57, 0
2, 608200, Note_on_c, 1, 59, 127
2, 608200, Note_off_c, 1, 73, 0
2, 608200, Note_on_c, 1, 74, 127
2, 608280, Note_on_c, 1, 57, 127
2, 608280, Note_off_c, 1, 59, 0
2, 608280, Note_on_c, 1, 73, 127
2, 608280, Note_off_c, 1, 74, 0
2, 608360, Note_off_c, 1, 57, 0
2, 608360, Note_on_c, 1, 59, 127
2, 608360, Note_off_c, 1, 73, 0
2, 608360, Note_on_c, 1, 74, 127
2, 608440, Note_on_c, 1, 57, 127
2, 608440, Note_off_c, 1, 59, 0
2, 608440, Note_on_c, 1, 73, 127
2, 608440, Note_off_c, 1, 74, 0
2, 608520, Note_off_c, 1, 57, 0
2, 608520, Note_on_c, 1, 59, 127
2, 608520, Note_off_c, 1, 73, 0
2, 608520, Note_on_c, 1, 74, 127
2, 608600, Note_on_c, 1, 57, 127
2, 608600, Note_off_c, 1, 59, 0
2, 608600, Note_on_c, 1, 73, 127
2, 608600, Note_off_c, 1, 74, 0
2, 608680, Note_on_c, 1, 56, 127
2, 608680, Note_off_c, 1, 57, 0
2, 608680, Note_on_c, 1, 71, 127
2, 608680, Note_off_c, 1, 73, 0
2, 608760, Note_off_c, 1, 56, 0
2, 608760, Note_on_c, 1, 57, 127
2, 608760, Note_off_c, 1, 71, 0
2, 608760, Note_on_c, 1, 73, 127
2, 608800, Note_off_c, 1, 57, 0
2, 608800, Note_on_c, 1, 59, 127
2, 608800, Note_off_c, 1, 73, 0
2, 608800, Note_on_c, 1, 74, 127
2, 608960, Note_on_c, 1, 57, 127
2, 608960, Note_off_c, 1, 59, 0
2, 609120, Note_off_c, 1, 57, 0
2, 609160, Note_on_c, 1, 56, 127
2, 609320, Note_on_c, 1, 52, 127
2, 609320, Note_off_c, 1, 56, 0
2, 609320, Note_off_c, 1, 74, 0
2, 609320, Note_on_c, 1, 76, 127
2, 609480, Note_off_c, 1, 52, 0
2, 609480, Note_on_c, 1, 57, 127
2, 609480, Note_on_c, 1, 74, 127
2, 609480, Note_off_c, 1, 76, 0
2, 609640, Note_on_c, 1, 56, 127
2, 609640, Note_off_c, 1, 57, 0
2, 609640, Note_on_c, 1, 73, 127
2, 609640, Note_off_c, 1, 74, 0
2, 609800, Note_off_c, 1, 56, 0
2, 609840, Note_on_c, 1, 54, 127
2, 610000, Note_on_c, 1, 50, 127
2, 610000, Note_off_c, 1, 54, 0
2, 610000, Note_off_c, 1, 73, 0
2, 610000, Note_on_c, 1, 74, 127
2, 610160, Note_off_c, 1, 50, 0
2, 610160, Note_on_c, 1, 52, 127
2, 610160, Note_on_c, 1, 73, 127
2, 610160, Note_off_c, 1, 74, 0
2, 610360, Note_on_c, 1, 71, 127
2, 610360, Note_off_c, 1, 73, 0
2, 610440, Note_off_c, 1, 71, 0
2, 610440, Note_on_c, 1, 73, 127
2, 610480, Note_on_c, 1, 71, 127
2, 610480, Note_off_c, 1, 73, 0
2, 610520, Note_on_c, 1, 40, 127
2, 610520, Note_off_c, 1, 52, 0
2, 610680, Note_off_c, 1, 40, 0
2, 610720, Note_on_c, 1, 52, 127
2, 610720, Note_off_c, 1, 71, 0
2, 610720, Note_on_c, 1, 76, 127
2, 610880, Note_off_c, 1, 52, 0
2, 610880, Note_on_c, 1, 57, 127
2, 610880, Note_on_c, 1, 73, 127
2, 610880, Note_off_c, 1, 76, 0
2, 611040, Note_off_c, 1, 73, 0
2, 611080, Note_on_c, 1, 71, 127
2, 611240, Note_on_c, 1, 56, 127
2, 611240, Note_off_c, 1, 57, 0
2, 611240, Note_on_c, 1, 69, 127
2, 611240, Note_off_c, 1, 71, 0
2, 611400, Note_on_c, 1, 54, 127
2, 611400, Note_off_c, 1, 56, 0
2, 611400, Note_off_c, 1, 69, 0
2, 611400, Note_on_c, 1, 71, 127
2, 611560, Note_on_c, 1, 52, 127
2, 611560, Note_off_c, 1, 54, 0
2, 611560, Note_off_c, 1, 71, 0
2, 611560, Note_on_c, 1, 73, 127
2, 611720, Note_on_c, 1, 50, 127
2, 611720, Note_off_c, 1, 52, 0
2, 611720, Note_off_c, 1, 73, 0
2, 611720, Note_on_c, 1, 74, 127
2, 611920, Note_on_c, 1, 49, 127
2, 611920, Note_off_c, 1, 50, 0
2, 611920, Note_off_c, 1, 74, 0
2, 611920, Note_on_c, 1, 76, 127
2, 612080, Note_off_c, 1, 49, 0
2, 612080, Note_on_c, 1, 50, 127
2, 612080, Note_on_c, 1, 74, 127
2, 612080, Note_off_c, 1, 76, 0
2, 612280, Note_off_c, 1, 50, 0
2, 612280, Note_on_c, 1, 52, 127
2, 612280, Note_on_c, 1, 73, 127
2, 612280, Note_off_c, 1, 74, 0
2, 612360, Note_on_c, 1, 50, 127
2, 612360, Note_off_c, 1, 52, 0
2, 612440, Note_off_c, 1, 50, 0
2, 612440, Note_on_c, 1, 52, 127
2, 612440, Note_off_c, 1, 73, 0
2, 612440, Note_on_c, 1, 74, 127
2, 612520, Note_off_c, 1, 52, 0
2, 612560, Note_on_c, 1, 50, 127
2, 612640, Note_off_c, 1, 50, 0
2, 612640, Note_on_c, 1, 52, 127
2, 612640, Note_off_c, 1, 74, 0
2, 612640, Note_on_c, 1, 76, 127
2, 612720, Note_on_c, 1, 50, 127
2, 612720, Note_off_c, 1, 52, 0
2, 612800, Note_on_c, 1, 49, 127
2, 612800, Note_off_c, 1, 50, 0
2, 612800, Note_off_c, 1, 76, 0
2, 612800, Note_on_c, 1, 78, 127
2, 612880, Note_off_c, 1, 49, 0
2, 612920, Note_on_c, 1, 50, 127
2, 612960, Note_off_c, 1, 50, 0
2, 612960, Note_on_c, 1, 52, 127
2, 612960, Note_off_c, 1, 78, 0
2, 612960, Note_on_c, 1, 79, 127
2, 613120, Note_on_c, 1, 45, 127
2, 613120, Note_off_c, 1, 52, 0
2, 613120, Note_on_c, 1, 78, 127
2, 613120, Note_off_c, 1, 79, 0
2, 613280, Note_off_c, 1, 45, 0
2, 613280, Note_on_c, 1, 57, 127
2, 613280, Note_on_c, 1, 76, 127
2, 613280, Note_off_c, 1, 78, 0
2, 613440, Note_on_c, 1, 55, 127
2, 613440, Note_off_c, 1, 57, 0
2, 613440, Note_off_c, 1, 76, 0
2, 613440, Note_on_c, 1, 78, 127
2, 613600, Note_on_c, 1, 54, 127
2, 613600, Note_off_c, 1, 55, 0
2, 613600, Note_off_c, 1, 78, 0
2, 613600, Note_on_c, 1, 79, 127
2, 613760, Note_on_c, 1, 52, 127
2, 613760, Note_off_c, 1, 54, 0
2, 613760, Note_off_c, 1, 79, 0
2, 613760, Note_on_c, 1, 81, 127
2, 613920, Note_on_c, 1, 50, 127
2, 613920, Note_off_c, 1, 52, 0
2, 613920, Note_on_c, 1, 78, 127
2, 613920, Note_off_c, 1, 81, 0
2, 614120, Note_off_c, 1, 50, 0
2, 614120, Note_on_c, 1, 52, 127
2, 614120, Note_on_c, 1, 76, 127
2, 614120, Note_off_c, 1, 78, 0
2, 614280, Note_off_c, 1, 52, 0
2, 614280, Note_on_c, 1, 54, 127
2, 614280, Note_on_c, 1, 74, 127
2, 614280, Note_off_c, 1, 76, 0
2, 614360, Note_off_c, 1, 54, 0
2, 614400, Note_on_c, 1, 52, 127
2, 614480, Note_off_c, 1, 52, 0
2, 614480, Note_on_c, 1, 54, 127
2, 614480, Note_off_c, 1, 74, 0
2, 614480, Note_on_c, 1, 76, 127
2, 614560, Note_on_c, 1, 52, 127
2, 614560, Note_off_c, 1, 54, 0
2, 614640, Note_off_c, 1, 52, 0
2, 614640, Note_on_c, 1, 54, 127
2, 614640, Note_off_c, 1, 76, 0
2, 614640, Note_on_c, 1, 78, 127
2, 614720, Note_off_c, 1, 54, 0
2, 614760, Note_on_c, 1, 52, 127
2, 614840, Note_on_c, 1, 50, 127
2, 614840, Note_off_c, 1, 52, 0
2, 614840, Note_off_c, 1, 78, 0
2, 614840, Note_on_c, 1, 80, 127
2, 614920, Note_off_c, 1, 50, 0
2, 614920, Note_on_c, 1, 52, 127
2, 615000, Note_off_c, 1, 52, 0
2, 615000, Note_on_c, 1, 54, 127
2, 615000, Note_off_c, 1, 80, 0
2, 615000, Note_on_c, 1, 81, 127
2, 615200, Note_on_c, 1, 47, 127
2, 615200, Note_off_c, 1, 54, 0
2, 615200, Note_on_c, 1, 80, 127
2, 615200, Note_off_c, 1, 81, 0
2, 615360, Note_off_c, 1, 47, 0
2, 615360, Note_on_c, 1, 59, 127
2, 615360, Note_on_c, 1, 78, 127
2, 615360, Note_off_c, 1, 80, 0
2, 615520, Note_on_c, 1, 57, 127
2, 615520, Note_off_c, 1, 59, 0
2, 615520, Note_off_c, 1, 78, 0
2, 615520, Note_on_c, 1, 80, 127
2, 615680, Note_on_c, 1, 56, 127
2, 615680, Note_off_c, 1, 57, 0
2, 615680, Note_off_c, 1, 80, 0
2, 615680, Note_on_c, 1, 81, 127
2, 615840, Note_on_c, 1, 54, 127
2, 615840, Note_off_c, 1, 56, 0
2, 615840, Note_off_c, 1, 81, 0
2, 615840, Note_on_c, 1, 83, 127
2, 616000, Note_on_c, 1, 52, 127
2, 616000, Note_off_c, 1, 54, 0
2, 616000, Note_on_c, 1, 80, 127
2, 616000, Note_off_c, 1, 83, 0
2, 616160, Note_off_c, 1, 52, 0
2, 616160, Note_on_c, 1, 54, 127
2, 616160, Note_on_c, 1, 78, 127
2, 616160, Note_off_c, 1, 80, 0
2, 616360, Note_off_c, 1, 54, 0
2, 616360, Note_on_c, 1, 56, 127
2, 616360, Note_on_c, 1, 76, 127
2, 616360, Note_off_c, 1, 78, 0
2, 616440, Note_on_c, 1, 54, 127
2, 616440, Note_off_c, 1, 56, 0
2, 616520, Note_off_c, 1, 54, 0
2, 616520, Note_on_c, 1, 56, 127
2, 616520, Note_off_c, 1, 76, 0
2, 616520, Note_on_c, 1, 78, 127
2, 616600, Note_off_c, 1, 56, 0
2, 616640, Note_on_c, 1, 54, 127
2, 616720, Note_off_c, 1, 54, 0
2, 616720, Note_on_c, 1, 56, 127
2, 616720, Note_off_c, 1, 78, 0
2, 616720, Note_on_c, 1, 80, 127
2, 616800, Note_on_c, 1, 54, 127
2, 616800, Note_off_c, 1, 56, 0
2, 616880, Note_on_c, 1, 52, 127
2, 616880, Note_off_c, 1, 54, 0
2, 616880, Note_off_c, 1, 80, 0
2, 616880, Note_on_c, 1, 81, 127
2, 616960, Note_off_c, 1, 52, 0
2, 617000, Note_on_c, 1, 54, 127
2, 617080, Note_off_c, 1, 54, 0
2, 617080, Note_on_c, 1, 56, 127
2, 617080, Note_off_c, 1, 81, 0
2, 617080, Note_on_c, 1, 83, 127
2, 617240, Note_on_c, 1, 54, 127
2, 617240, Note_off_c, 1, 56, 0
2, 617240, Note_on_c, 1, 81, 127
2, 617240, Note_off_c, 1, 83, 0
2, 617440, Note_on_c, 1, 52, 127
2, 617440, Note_off_c, 1, 54, 0
2, 617440, Note_on_c, 1, 80, 127
2, 617440, Note_off_c, 1, 81, 0
2, 617600, Note_off_c, 1, 52, 0
2, 617600, Note_on_c, 1, 54, 127
2, 617600, Note_on_c, 1, 78, 127
2, 617600, Note_off_c, 1, 80, 0
2, 617760, Note_off_c, 1, 54, 0
2, 617760, Note_on_c, 1, 56, 127
2, 617760, Note_on_c, 1, 76, 127
2, 617760, Note_off_c, 1, 78, 0
2, 617920, Note_on_c, 1, 52, 127
2, 617920, Note_off_c, 1, 56, 0
2, 617920, Note_on_c, 1, 74, 127
2, 617920, Note_off_c, 1, 76, 0
2, 618080, Note_off_c, 1, 52, 0
2, 618080, Note_on_c, 1, 57, 127
2, 618080, Note_on_c, 1, 73, 127
2, 618080, Note_off_c, 1, 74, 0
2, 618240, Note_off_c, 1, 57, 0
2, 618240, Note_on_c, 1, 59, 127
2, 618240, Note_off_c, 1, 73, 0
2, 618240, Note_on_c, 1, 75, 127
2, 618400, Note_off_c, 1, 59, 0
2, 618400, Note_on_c, 1, 61, 127
2, 618400, Note_off_c, 1, 75, 0
2, 618400, Note_on_c, 1, 76, 127
2, 618560, Note_on_c, 1, 59, 127
2, 618560, Note_off_c, 1, 61, 0
2, 618560, Note_off_c, 1, 76, 0
2, 618560, Note_on_c, 1, 78, 127
2, 618720, Note_on_c, 1, 57, 127
2, 618720, Note_off_c, 1, 59, 0
2, 618720, Note_off_c, 1, 78, 0
2, 618720, Note_on_c, 1, 80, 127
2, 618920, Note_on_c, 1, 56, 127
2, 618920, Note_off_c, 1, 57, 0
2, 618920, Note_on_c, 1, 76, 127
2, 618920, Note_off_c, 1, 80, 0
2, 619080, Note_on_c, 1, 54, 127
2, 619080, Note_off_c, 1, 56, 0
2, 619080, Note_off_c, 1, 76, 0
2, 619080, Note_on_c, 1, 81, 127
2, 619240, Note_off_c, 1, 54, 0
2, 619240, Note_on_c, 1, 56, 127
2, 619240, Note_on_c, 1, 80, 127
2, 619240, Note_off_c, 1, 81, 0
2, 619400, Note_off_c, 1, 56, 0
2, 619400, Note_on_c, 1, 57, 127
2, 619400, Note_on_c, 1, 78, 127
2, 619400, Note_off_c, 1, 80, 0
2, 619560, Note_on_c, 1, 56, 127
2, 619560, Note_off_c, 1, 57, 0
2, 619560, Note_on_c, 1, 76, 127
2, 619560, Note_off_c, 1, 78, 0
2, 619720, Note_off_c, 1, 56, 0
2, 619720, Note_on_c, 1, 57, 127
2, 619720, Note_on_c, 1, 75, 127
2, 619720, Note_off_c, 1, 76, 0
2, 619880, Note_on_c, 1, 54, 127
2, 619880, Note_off_c, 1, 57, 0
2, 619880, Note_on_c, 1, 73, 127
2, 619880, Note_off_c, 1, 75, 0
2, 620040, Note_off_c, 1, 54, 0
2, 620040, Note_on_c, 1, 56, 127
2, 620040, Note_on_c, 1, 71, 127
2, 620040, Note_off_c, 1, 73, 0
2, 620200, Note_off_c, 1, 56, 0
2, 620200, Note_on_c, 1, 57, 127
2, 620200, Note_off_c, 1, 71, 0
2, 620200, Note_on_c, 1, 73, 127
2, 620360, Note_off_c, 1, 57, 0
2, 620360, Note_on_c, 1, 59, 127
2, 620360, Note_off_c, 1, 73, 0
2, 620360, Note_on_c, 1, 75, 127
2, 620520, Note_on_c, 1, 57, 127
2, 620520, Note_off_c, 1, 59, 0
2, 620520, Note_off_c, 1, 75, 0
2, 620520, Note_on_c, 1, 76, 127
2, 620720, Note_on_c, 1, 56, 127
2, 620720, Note_off_c, 1, 57, 0
2, 620720, Note_off_c, 1, 76, 0
2, 620720, Note_on_c, 1, 78, 127
2, 620880, Note_on_c, 1, 54, 127
2, 620880, Note_off_c, 1, 56, 0
2, 620880, Note_on_c, 1, 75, 127
2, 620880, Note_off_c, 1, 78, 0
2, 621080, Note_on_c, 1, 52, 127
2, 621080, Note_off_c, 1, 54, 0
2, 621080, Note_off_c, 1, 75, 0
2, 621080, Note_on_c, 1, 80, 127
2, 621240, Note_off_c, 1, 52, 0
2, 621240, Note_on_c, 1, 54, 127
2, 621240, Note_on_c, 1, 78, 127
2, 621240, Note_off_c, 1, 80, 0
2, 621400, Note_off_c, 1, 54, 0
2, 621400, Note_on_c, 1, 56, 127
2, 621400, Note_on_c, 1, 76, 127
2, 621400, Note_off_c, 1, 78, 0
2, 621560, Note_on_c, 1, 54, 127
2, 621560, Note_off_c, 1, 56, 0
2, 621560, Note_on_c, 1, 75, 127
2, 621560, Note_off_c, 1, 76, 0
2, 621720, Note_off_c, 1, 54, 0
2, 621720, Note_on_c, 1, 56, 127
2, 621720, Note_on_c, 1, 73, 127
2, 621720, Note_off_c, 1, 75, 0
2, 621880, Note_on_c, 1, 52, 127
2, 621880, Note_off_c, 1, 56, 0
2, 621880, Note_on_c, 1, 71, 127
2, 621880, Note_off_c, 1, 73, 0
2, 622040, Note_off_c, 1, 52, 0
2, 622040, Note_on_c, 1, 54, 127
2, 622040, Note_on_c, 1, 69, 127
2, 622040, Note_off_c, 1, 71, 0
2, 622200, Note_off_c, 1, 54, 0
2, 622200, Note_on_c, 1, 56, 127
2, 622200, Note_off_c, 1, 69, 0
2, 622200, Note_on_c, 1, 71, 127
2, 622360, Note_off_c, 1, 56, 0
2, 622360, Note_on_c, 1, 57, 127
2, 622360, Note_off_c, 1, 71, 0
2, 622360, Note_on_c, 1, 73, 127
2, 622560, Note_on_c, 1, 56, 127
2, 622560, Note_off_c, 1, 57, 0
2, 622560, Note_off_c, 1, 73, 0
2, 622560, Note_on_c, 1, 75, 127
2, 622720, Note_on_c, 1, 54, 127
2, 622720, Note_off_c, 1, 56, 0
2, 622720, Note_off_c, 1, 75, 0
2, 622720, Note_on_c, 1, 76, 127
2, 622880, Note_on_c, 1, 52, 127
2, 622880, Note_off_c, 1, 54, 0
2, 622880, Note_on_c, 1, 73, 127
2, 622880, Note_off_c, 1, 76, 0
2, 623040, Note_on_c, 1, 51, 127
2, 623040, Note_off_c, 1, 52, 0
2, 623040, Note_off_c, 1, 73, 0
2, 623040, Note_on_c, 1, 78, 127
2, 623200, Note_off_c, 1, 51, 0
2, 623200, Note_on_c, 1, 52, 127
2, 623200, Note_on_c, 1, 76, 127
2, 623200, Note_off_c, 1, 78, 0
2, 623360, Note_off_c, 1, 52, 0
2, 623360, Note_on_c, 1, 54, 127
2, 623360, Note_on_c, 1, 75, 127
2, 623360, Note_off_c, 1, 76, 0
2, 623520, Note_on_c, 1, 52, 127
2, 623520, Note_off_c, 1, 54, 0
2, 623520, Note_on_c, 1, 73, 127
2, 623520, Note_off_c, 1, 75, 0
2, 623680, Note_off_c, 1, 52, 0
2, 623680, Note_on_c, 1, 54, 127
2, 623680, Note_on_c, 1, 71, 127
2, 623680, Note_off_c, 1, 73, 0
2, 623840, Note_on_c, 1, 51, 127
2, 623840, Note_off_c, 1, 54, 0
2, 623840, Note_on_c, 1, 69, 127
2, 623840, Note_off_c, 1, 71, 0
2, 624040, Note_off_c, 1, 51, 0
2, 624040, Note_on_c, 1, 52, 127
2, 624040, Note_on_c, 1, 68, 127
2, 624040, Note_off_c, 1, 69, 0
2, 624200, Note_off_c, 1, 52, 0
2, 624200, Note_on_c, 1, 54, 127
2, 624200, Note_off_c, 1, 68, 0
2, 624200, Note_on_c, 1, 76, 127
2, 624400, Note_off_c, 1, 54, 0
2, 624400, Note_on_c, 1, 56, 127
2, 624400, Note_on_c, 1, 75, 127
2, 624400, Note_off_c, 1, 76, 0
2, 624480, Note_on_c, 1, 54, 127
2, 624480, Note_off_c, 1, 56, 0
2, 624560, Note_on_c, 1, 52, 127
2, 624560, Note_off_c, 1, 54, 0
2, 624560, Note_on_c, 1, 73, 127
2, 624560, Note_off_c, 1, 75, 0
2, 624640, Note_off_c, 1, 52, 0
2, 624680, Note_on_c, 1, 54, 127
2, 624760, Note_off_c, 1, 54, 0
2, 624760, Note_on_c, 1, 56, 127
2, 624760, Note_on_c, 1, 71, 127
2, 624760, Note_off_c, 1, 73, 0
2, 624920, Note_off_c, 1, 56, 0
2, 624920, Note_on_c, 1, 57, 127
2, 624920, Note_on_c, 1, 69, 127
2, 624920, Note_off_c, 1, 71, 0
2, 625080, Note_off_c, 1, 57, 0
2, 625080, Note_on_c, 1, 59, 127
2, 625080, Note_on_c, 1, 68, 127
2, 625080, Note_off_c, 1, 69, 0
2, 625160, Note_on_c, 1, 57, 127
2, 625160, Note_off_c, 1, 59, 0
2, 625240, Note_on_c, 1, 56, 127
2, 625240, Note_off_c, 1, 57, 0
2, 625240, Note_off_c, 1, 68, 0
2, 625240, Note_on_c, 1, 69, 127
2, 625320, Note_off_c, 1, 56, 0
2, 625320, Note_on_c, 1, 57, 127
2, 625320, Note_off_c, 1, 69, 0
2, 625320, Note_on_c, 1, 71, 127
2, 625400, Note_off_c, 1, 57, 0
2, 625400, Note_on_c, 1, 59, 127
2, 625400, Note_on_c, 1, 68, 127
2, 625400, Note_off_c, 1, 71, 0
2, 625440, Note_on_c, 1, 66, 127
2, 625440, Note_off_c, 1, 68, 0
2, 625520, Note_off_c, 1, 66, 0
2, 625520, Note_on_c, 1, 68, 127
2, 625560, Note_on_c, 1, 66, 127
2, 625560, Note_off_c, 1, 68, 0
2, 625640, Note_off_c, 1, 66, 0
2, 625640, Note_on_c, 1, 68, 127
2, 625680, Note_on_c, 1, 66, 127
2, 625680, Note_off_c, 1, 68, 0
2, 625720, Note_off_c, 1, 59, 0
2, 625760, Note_on_c, 1, 47, 127
2, 625920, Note_on_c, 1, 64, 127
2, 625920, Note_off_c, 1, 66, 0
2, 626080, Note_on_c, 1, 40, 127
2, 626080, Note_off_c, 1, 47, 0
2, 626240, Note_off_c, 1, 64, 0
2, 626240, Note_on_c, 1, 66, 127
2, 626400, Note_off_c, 1, 40, 0
2, 626400, Note_on_c, 1, 52, 127
2, 626400, Note_off_c, 1, 66, 0
2, 626400, Note_on_c, 1, 68, 127
2, 626600, Note_on_c, 1, 50, 127
2, 626600, Note_off_c, 1, 52, 0
2, 626600, Note_off_c, 1, 68, 0
2, 626600, Note_on_c, 1, 69, 127
2, 626760, Note_on_c, 1, 49, 127
2, 626760, Note_off_c, 1, 50, 0
2, 626760, Note_off_c, 1, 69, 0
2, 626760, Note_on_c, 1, 71, 127
2, 626960, Note_on_c, 1, 47, 127
2, 626960, Note_off_c, 1, 49, 0
2, 626960, Note_on_c, 1, 68, 127
2, 626960, Note_off_c, 1, 71, 0
2, 627120, Note_on_c, 1, 45, 127
2, 627120, Note_off_c, 1, 47, 0
2, 627120, Note_off_c, 1, 68, 0
2, 627120, Note_on_c, 1, 73, 127
2, 627280, Note_off_c, 1, 73, 0
2, 627320, Note_on_c, 1, 71, 127
2, 627480, Note_off_c, 1, 45, 0
2, 627480, Note_on_c, 1, 47, 127
2, 627480, Note_on_c, 1, 69, 127
2, 627480, Note_off_c, 1, 71, 0
2, 627560, Note_on_c, 1, 45, 127
2, 627560, Note_off_c, 1, 47, 0
2, 627640, Note_off_c, 1, 45, 0
2, 627640, Note_on_c, 1, 47, 127
2, 627640, Note_on_c, 1, 68, 127
2, 627640, Note_off_c, 1, 69, 0
2, 627720, Note_on_c, 1, 45, 127
2, 627720, Note_off_c, 1, 47, 0
2, 627800, Note_off_c, 1, 45, 0
2, 627800, Note_on_c, 1, 47, 127
2, 627800, Note_on_c, 1, 66, 127
2, 627800, Note_off_c, 1, 68, 0
2, 627880, Note_on_c, 1, 45, 127
2, 627880, Note_off_c, 1, 47, 0
2, 627960, Note_on_c, 1, 44, 127
2, 627960, Note_off_c, 1, 45, 0
2, 627960, Note_on_c, 1, 64, 127
2, 627960, Note_off_c, 1, 66, 0
2, 628040, Note_off_c, 1, 44, 0
2, 628040, Note_on_c, 1, 45, 127
2, 628120, Note_off_c, 1, 45, 0
2, 628120, Note_on_c, 1, 47, 127
2, 628120, Note_on_c, 1, 63, 127
2, 628120, Note_off_c, 1, 64, 0
2, 628280, Note_off_c, 1, 47, 0
2, 628280, Note_on_c, 1, 49, 127
2, 628280, Note_off_c, 1, 63, 0
2, 628280, Note_on_c, 1, 64, 127
2, 628440, Note_off_c, 1, 49, 0
2, 628440, Note_on_c, 1, 51, 127
2, 628440, Note_off_c, 1, 64, 0
2, 628440, Note_on_c, 1, 66, 127
2, 628600, Note_on_c, 1, 49, 127
2, 628600, Note_off_c, 1, 51, 0
2, 628600, Note_off_c, 1, 66, 0
2, 628600, Note_on_c, 1, 68, 127
2, 628800, Note_on_c, 1, 47, 127
2, 628800, Note_off_c, 1, 49, 0
2, 628800, Note_off_c, 1, 68, 0
2, 628800, Note_on_c, 1, 69, 127
2, 628960, Note_on_c, 1, 45, 127
2, 628960, Note_off_c, 1, 47, 0
2, 628960, Note_on_c, 1, 66, 127
2, 628960, Note_off_c, 1, 69, 0
2, 629160, Note_on_c, 1, 44, 127
2, 629160, Note_off_c, 1, 45, 0
2, 629160, Note_off_c, 1, 66, 0
2, 629160, Note_on_c, 1, 71, 127
2, 629320, Note_on_c, 1, 69, 127
2, 629320, Note_off_c, 1, 71, 0
2, 629480, Note_off_c, 1, 44, 0
2, 629480, Note_on_c, 1, 45, 127
2, 629480, Note_on_c, 1, 68, 127
2, 629480, Note_off_c, 1, 69, 0
2, 629560, Note_on_c, 1, 44, 127
2, 629560, Note_off_c, 1, 45, 0
2, 629640, Note_off_c, 1, 44, 0
2, 629640, Note_on_c, 1, 45, 127
2, 629640, Note_on_c, 1, 66, 127
2, 629640, Note_off_c, 1, 68, 0
2, 629720, Note_on_c, 1, 44, 127
2, 629720, Note_off_c, 1, 45, 0
2, 629800, Note_off_c, 1, 44, 0
2, 629800, Note_on_c, 1, 45, 127
2, 629800, Note_on_c, 1, 64, 127
2, 629800, Note_off_c, 1, 66, 0
2, 629880, Note_on_c, 1, 44, 127
2, 629880, Note_off_c, 1, 45, 0
2, 629960, Note_on_c, 1, 42, 127
2, 629960, Note_off_c, 1, 44, 0
2, 629960, Note_on_c, 1, 63, 127
2, 629960, Note_off_c, 1, 64, 0
2, 630040, Note_off_c, 1, 42, 0
2, 630040, Note_on_c, 1, 44, 127
2, 630120, Note_off_c, 1, 44, 0
2, 630120, Note_on_c, 1, 45, 127
2, 630120, Note_on_c, 1, 61, 127
2, 630120, Note_off_c, 1, 63, 0
2, 630280, Note_off_c, 1, 45, 0
2, 630280, Note_on_c, 1, 47, 127
2, 630280, Note_off_c, 1, 61, 0
2, 630280, Note_on_c, 1, 63, 127
2, 630440, Note_off_c, 1, 47, 0
2, 630440, Note_on_c, 1, 49, 127
2, 630440, Note_off_c, 1, 63, 0
2, 630440, Note_on_c, 1, 64, 127
2, 630600, Note_on_c, 1, 47, 127
2, 630600, Note_off_c, 1, 49, 0
2, 630600, Note_off_c, 1, 64, 0
2, 630600, Note_on_c, 1, 66, 127
2, 630760, Note_on_c, 1, 45, 127
2, 630760, Note_off_c, 1, 47, 0
2, 630760, Note_off_c, 1, 66, 0
2, 630760, Note_on_c, 1, 68, 127
2, 630960, Note_on_c, 1, 44, 127
2, 630960, Note_off_c, 1, 45, 0
2, 630960, Note_on_c, 1, 64, 127
2, 630960, Note_off_c, 1, 68, 0
2, 631120, Note_on_c, 1, 42, 127
2, 631120, Note_off_c, 1, 44, 0
2, 631120, Note_off_c, 1, 64, 0
2, 631120, Note_on_c, 1, 69, 127
2, 631320, Note_off_c, 1, 42, 0
2, 631320, Note_on_c, 1, 44, 127
2, 631320, Note_on_c, 1, 68, 127
2, 631320, Note_off_c, 1, 69, 0
2, 631480, Note_off_c, 1, 44, 0
2, 631480, Note_on_c, 1, 45, 127
2, 631480, Note_on_c, 1, 66, 127
2, 631480, Note_off_c, 1, 68, 0
2, 631640, Note_on_c, 1, 44, 127
2, 631640, Note_off_c, 1, 45, 0
2, 631640, Note_on_c, 1, 64, 127
2, 631640, Note_off_c, 1, 66, 0
2, 631800, Note_on_c, 1, 42, 127
2, 631800, Note_off_c, 1, 44, 0
2, 631800, Note_on_c, 1, 63, 127
2, 631800, Note_off_c, 1, 64, 0
2, 631960, Note_on_c, 1, 40, 127
2, 631960, Note_off_c, 1, 42, 0
2, 631960, Note_on_c, 1, 61, 127
2, 631960, Note_off_c, 1, 63, 0
2, 632120, Note_on_c, 1, 39, 127
2, 632120, Note_off_c, 1, 40, 0
2, 632120, Note_on_c, 1, 59, 127
2, 632120, Note_off_c, 1, 61, 0
2, 632280, Note_off_c, 1, 59, 0
2, 632320, Note_on_c, 1, 69, 127
2, 632480, Note_off_c, 1, 39, 0
2, 632480, Note_on_c, 1, 47, 127
2, 632480, Note_on_c, 1, 68, 127
2, 632480, Note_off_c, 1, 69, 0
2, 632640, Note_on_c, 1, 66, 127
2, 632640, Note_off_c, 1, 68, 0
2, 632840, Note_off_c, 1, 47, 0
2, 632840, Note_on_c, 1, 49, 127
2, 632840, Note_on_c, 1, 64, 127
2, 632840, Note_off_c, 1, 66, 0
2, 633000, Note_on_c, 1, 63, 127
2, 633000, Note_off_c, 1, 64, 0
2, 633200, Note_on_c, 1, 45, 127
2, 633200, Note_off_c, 1, 49, 0
2, 633200, Note_off_c, 1, 63, 0
2, 633200, Note_on_c, 1, 64, 127
2, 633360, Note_off_c, 1, 64, 0
2, 633360, Note_on_c, 1, 66, 127
2, 633520, Note_off_c, 1, 45, 0
2, 633520, Note_on_c, 1, 47, 127
2, 633520, Note_off_c, 1, 66, 0
2, 633520, Note_on_c, 1, 68, 127
2, 633600, Note_on_c, 1, 66, 127
2, 633600, Note_off_c, 1, 68, 0
2, 633680, Note_off_c, 1, 66, 0
2, 633680, Note_on_c, 1, 68, 127
2, 633720, Note_on_c, 1, 66, 127
2, 633720, Note_off_c, 1, 68, 0
2, 633800, Note_off_c, 1, 66, 0
2, 633800, Note_on_c, 1, 68, 127
2, 633840, Note_off_c, 1, 47, 0
2, 633840, Note_on_c, 1, 66, 127
2, 633840, Note_off_c, 1, 68, 0
2, 633880, Note_on_c, 1, 35, 127
2, 634040, Note_on_c, 1, 64, 127
2, 634040, Note_off_c, 1, 66, 0
2, 634200, Note_off_c, 1, 35, 0
2, 634200, Note_on_c, 1, 40, 127
2, 634560, Note_on_c, 1, 44, 127
2, 634880, Note_off_c, 1, 44, 0
2, 634920, Note_on_c, 1, 47, 127
2, 635240, Note_off_c, 1, 47, 0
2, 635240, Note_on_c, 1, 52, 127
2, 635960, Note_off_c, 1, 40, 0
2, 635960, Note_off_c, 1, 52, 0
2, 635960, Note_off_c, 1, 64, 0
2, 635960, Note_on_c, 1, 71, 127
2, 636320, Note_on_c, 1, 64, 127
2, 636320, Note_off_c, 1, 71, 0
2, 636680, Note_off_c, 1, 64, 0
2, 636680, Note_on_c, 1, 66, 127
2, 636840, Note_off_c, 1, 66, 0
2, 636840, Note_on_c, 1, 68, 127
2, 637000, Note_off_c, 1, 68, 0
2, 637000, Note_on_c, 1, 69, 127
2, 637160, Note_off_c, 1, 69, 0
2, 637160, Note_on_c, 1, 71, 127
2, 637320, Note_on_c, 1, 69, 127
2, 637320, Note_off_c, 1, 71, 0
2, 637480, Note_off_c, 1, 69, 0
2, 637480, Note_on_c, 1, 71, 127
2, 637680, Note_off_c, 1, 71, 0
2, 637680, Note_on_c, 1, 73, 127
2, 637760, Note_on_c, 1, 71, 127
2, 637760, Note_off_c, 1, 73, 0
2, 637840, Note_off_c, 1, 71, 0
2, 637840, Note_on_c, 1, 73, 127
2, 637920, Note_on_c, 1, 71, 127
2, 637920, Note_off_c, 1, 73, 0
2, 638000, Note_on_c, 1, 52, 127
2, 638000, Note_off_c, 1, 71, 0
2, 638000, Note_on_c, 1, 73, 127
2, 638080, Note_on_c, 1, 71, 127
2, 638080, Note_off_c, 1, 73, 0
2, 638160, Note_on_c, 1, 69, 127
2, 638160, Note_off_c, 1, 71, 0
2, 638240, Note_off_c, 1, 69, 0
2, 638280, Note_on_c, 1, 71, 127
2, 638360, Note_on_c, 1, 45, 127
2, 638360, Note_off_c, 1, 52, 0
2, 638360, Note_off_c, 1, 71, 0
2, 638360, Note_on_c, 1, 73, 127
2, 638520, Note_off_c, 1, 73, 0
2, 638520, Note_on_c, 1, 74, 127
2, 638680, Note_off_c, 1, 45, 0
2, 638680, Note_on_c, 1, 47, 127
2, 638680, Note_on_c, 1, 73, 127
2, 638680, Note_off_c, 1, 74, 0
2, 638840, Note_off_c, 1, 47, 0
2, 638840, Note_on_c, 1, 49, 127
2, 638840, Note_on_c, 1, 71, 127
2, 638840, Note_off_c, 1, 73, 0
2, 639000, Note_off_c, 1, 49, 0
2, 639000, Note_on_c, 1, 50, 127
2, 639000, Note_on_c, 1, 69, 127
2, 639000, Note_off_c, 1, 71, 0
2, 639160, Note_off_c, 1, 50, 0
2, 639160, Note_on_c, 1, 52, 127
2, 639160, Note_on_c, 1, 67, 127
2, 639160, Note_off_c, 1, 69, 0
2, 639320, Note_on_c, 1, 50, 127
2, 639320, Note_off_c, 1, 52, 0
2, 639320, Note_on_c, 1, 66, 127
2, 639320, Note_off_c, 1, 67, 0
2, 639480, Note_off_c, 1, 50, 0
2, 639480, Note_on_c, 1, 52, 127
2, 639480, Note_off_c, 1, 66, 0
2, 639480, Note_on_c, 1, 78, 127
2, 639640, Note_off_c, 1, 52, 0
2, 639640, Note_on_c, 1, 54, 127
2, 639640, Note_on_c, 1, 76, 127
2, 639640, Note_off_c, 1, 78, 0
2, 639720, Note_off_c, 1, 54, 0
2, 639760, Note_on_c, 1, 52, 127
2, 639840, Note_off_c, 1, 52, 0
2, 639840, Note_on_c, 1, 54, 127
2, 639840, Note_on_c, 1, 74, 127
2, 639840, Note_off_c, 1, 76, 0
2, 639920, Note_on_c, 1, 52, 127
2, 639920, Note_off_c, 1, 54, 0
2, 640000, Note_off_c, 1, 52, 0
2, 640000, Note_on_c, 1, 54, 127
2, 640000, Note_on_c, 1, 73, 127
2, 640000, Note_off_c, 1, 74, 0
2, 640080, Note_off_c, 1, 54, 0
2, 640120, Note_on_c, 1, 52, 127
2, 640200, Note_on_c, 1, 50, 127
2, 640200, Note_off_c, 1, 52, 0
2, 640200, Note_on_c, 1, 71, 127
2, 640200, Note_off_c, 1, 73, 0
2, 640280, Note_off_c, 1, 50, 0
2, 640280, Note_on_c, 1, 52, 127
2, 640360, Note_off_c, 1, 52, 0
2, 640360, Note_on_c, 1, 54, 127
2, 640360, Note_on_c, 1, 70, 127
2, 640360, Note_off_c, 1, 71, 0
2, 640560, Note_off_c, 1, 70, 0
2, 640560, Note_on_c, 1, 71, 127
2, 640720, Note_on_c, 1, 52, 127
2, 640720, Note_off_c, 1, 54, 0
2, 640720, Note_off_c, 1, 71, 0
2, 640720, Note_on_c, 1, 73, 127
2, 640800, Note_off_c, 1, 73, 0
2, 640840, Note_on_c, 1, 71, 127
2, 640880, Note_on_c, 1, 50, 127
2, 640880, Note_off_c, 1, 52, 0
2, 640880, Note_off_c, 1, 71, 0
2, 640880, Note_on_c, 1, 73, 127
2, 640960, Note_on_c, 1, 71, 127
2, 640960, Note_off_c, 1, 73, 0
2, 641040, Note_on_c, 1, 49, 127
2, 641040, Note_off_c, 1, 50, 0
2, 641040, Note_off_c, 1, 71, 0
2, 641040, Note_on_c, 1, 73, 127
2, 641120, Note_on_c, 1, 71, 127
2, 641120, Note_off_c, 1, 73, 0
2, 641200, Note_on_c, 1, 47, 127
2, 641200, Note_off_c, 1, 49, 0
2, 641200, Note_on_c, 1, 70, 127
2, 641200, Note_off_c, 1, 71, 0
2, 641280, Note_off_c, 1, 70, 0
2, 641280, Note_on_c, 1, 71, 127
2, 641360, Note_on_c, 1, 46, 127
2, 641360, Note_off_c, 1, 47, 0
2, 641360, Note_off_c, 1, 71, 0
2, 641360, Note_on_c, 1, 73, 127
2, 641520, Note_off_c, 1, 46, 0
2, 641520, Note_on_c, 1, 47, 127
2, 641520, Note_off_c, 1, 73, 0
2, 641520, Note_on_c, 1, 74, 127
2, 641680, Note_off_c, 1, 47, 0
2, 641680, Note_on_c, 1, 49, 127
2, 641680, Note_off_c, 1, 74, 0
2, 641680, Note_on_c, 1, 76, 127
2, 641760, Note_on_c, 1, 47, 127
2, 641760, Note_off_c, 1, 49, 0
2, 641760, Note_on_c, 1, 74, 127
2, 641760, Note_off_c, 1, 76, 0
2, 641840, Note_off_c, 1, 47, 0
2, 641840, Note_on_c, 1, 49, 127
2, 641840, Note_off_c, 1, 74, 0
2, 641840, Note_on_c, 1, 76, 127
2, 641920, Note_on_c, 1, 47, 127
2, 641920, Note_off_c, 1, 49, 0
2, 641920, Note_on_c, 1, 74, 127
2, 641920, Note_off_c, 1, 76, 0
2, 642000, Note_off_c, 1, 47, 0
2, 642000, Note_on_c, 1, 49, 127
2, 642000, Note_off_c, 1, 74, 0
2, 642000, Note_on_c, 1, 76, 127
2, 642080, Note_on_c, 1, 47, 127
2, 642080, Note_off_c, 1, 49, 0
2, 642080, Note_on_c, 1, 74, 127
2, 642080, Note_off_c, 1, 76, 0
2, 642160, Note_on_c, 1, 46, 127
2, 642160, Note_off_c, 1, 47, 0
2, 642160, Note_on_c, 1, 73, 127
2, 642160, Note_off_c, 1, 74, 0
2, 642200, Note_off_c, 1, 46, 0
2, 642200, Note_on_c, 1, 47, 127
2, 642200, Note_off_c, 1, 73, 0
2, 642200, Note_on_c, 1, 74, 127
2, 642280, Note_off_c, 1, 47, 0
2, 642280, Note_on_c, 1, 49, 127
2, 642280, Note_off_c, 1, 74, 0
2, 642280, Note_on_c, 1, 76, 127
2, 642440, Note_on_c, 1, 42, 127
2, 642440, Note_off_c, 1, 49, 0
2, 642640, Note_off_c, 1, 42, 0
2, 642640, Note_on_c, 1, 44, 127
2, 642800, Note_off_c, 1, 44, 0
2, 642800, Note_on_c, 1, 46, 127
2, 642800, Note_off_c, 1, 76, 0
2, 642800, Note_on_c, 1, 78, 127
2, 643000, Note_off_c, 1, 46, 0
2, 643000, Note_on_c, 1, 47, 127
2, 643000, Note_on_c, 1, 76, 127
2, 643000, Note_off_c, 1, 78, 0
2, 643160, Note_off_c, 1, 47, 0
2, 643160, Note_on_c, 1, 49, 127
2, 643160, Note_on_c, 1, 74, 127
2, 643160, Note_off_c, 1, 76, 0
2, 643320, Note_off_c, 1, 49, 0
2, 643360, Note_on_c, 1, 50, 127
2, 643520, Note_on_c, 1, 47, 127
2, 643520, Note_off_c, 1, 50, 0
2, 643520, Note_off_c, 1, 74, 0
2, 643520, Note_on_c, 1, 76, 127
2, 643680, Note_off_c, 1, 47, 0
2, 643680, Note_on_c, 1, 54, 127
2, 643680, Note_on_c, 1, 74, 127
2, 643680, Note_off_c, 1, 76, 0
2, 643720, Note_on_c, 1, 73, 127
2, 643720, Note_off_c, 1, 74, 0
2, 643800, Note_off_c, 1, 73, 0
2, 643800, Note_on_c, 1, 74, 127
2, 643840, Note_on_c, 1, 73, 127
2, 643840, Note_off_c, 1, 74, 0
2, 643920, Note_off_c, 1, 73, 0
2, 643920, Note_on_c, 1, 74, 127
2, 643960, Note_on_c, 1, 73, 127
2, 643960, Note_off_c, 1, 74, 0
2, 644000, Note_off_c, 1, 54, 0
2, 644040, Note_on_c, 1, 42, 127
2, 644200, Note_off_c, 1, 73, 0
2, 644200, Note_on_c, 1, 78, 127
2, 644360, Note_off_c, 1, 42, 0
2, 644360, Note_on_c, 1, 47, 127
2, 644360, Note_on_c, 1, 75, 127
2, 644360, Note_off_c, 1, 78, 0
2, 644520, Note_on_c, 1, 71, 127
2, 644520, Note_off_c, 1, 75, 0
2, 644680, Note_off_c, 1, 71, 0
2, 644680, Note_on_c, 1, 73, 127
2, 644880, Note_off_c, 1, 73, 0
2, 644880, Note_on_c, 1, 75, 127
2, 645040, Note_off_c, 1, 47, 0
2, 645040, Note_off_c, 1, 75, 0
2, 645040, Note_on_c, 1, 76, 127
2, 645240, Note_off_c, 1, 76, 0
2, 645240, Note_on_c, 1, 78, 127
2, 645400, Note_on_c, 1, 76, 127
2, 645400, Note_off_c, 1, 78, 0
2, 645560, Note_off_c, 1, 76, 0
2, 645560, Note_on_c, 1, 78, 127
2, 645720, Note_off_c, 1, 78, 0
2, 645720, Note_on_c, 1, 79, 127
2, 645800, Note_on_c, 1, 78, 127
2, 645800, Note_off_c, 1, 79, 0
2, 645880, Note_off_c, 1, 78, 0
2, 645880, Note_on_c, 1, 79, 127
2, 645960, Note_on_c, 1, 78, 127
2, 645960, Note_off_c, 1, 79, 0
2, 646040, Note_on_c, 1, 59, 127
2, 646040, Note_off_c, 1, 78, 0
2, 646040, Note_on_c, 1, 79, 127
2, 646120, Note_on_c, 1, 78, 127
2, 646120, Note_off_c, 1, 79, 0
2, 646200, Note_off_c, 1, 78, 0
2, 646240, Note_on_c, 1, 76, 127
2, 646320, Note_off_c, 1, 76, 0
2, 646320, Note_on_c, 1, 78, 127
2, 646400, Note_on_c, 1, 52, 127
2, 646400, Note_off_c, 1, 59, 0
2, 646400, Note_off_c, 1, 78, 0
2, 646400, Note_on_c, 1, 79, 127
2, 646560, Note_off_c, 1, 79, 0
2, 646600, Note_on_c, 1, 81, 127
2, 646760, Note_off_c, 1, 52, 0
2, 646760, Note_on_c, 1, 54, 127
2, 646760, Note_on_c, 1, 79, 127
2, 646760, Note_off_c, 1, 81, 0
2, 646920, Note_off_c, 1, 54, 0
2, 646920, Note_on_c, 1, 55, 127
2, 646920, Note_on_c, 1, 78, 127
2, 646920, Note_off_c, 1, 79, 0
2, 647120, Note_off_c, 1, 55, 0
2, 647120, Note_on_c, 1, 57, 127
2, 647120, Note_on_c, 1, 76, 127
2, 647120, Note_off_c, 1, 78, 0
2, 647280, Note_off_c, 1, 57, 0
2, 647280, Note_on_c, 1, 59, 127
2, 647280, Note_on_c, 1, 74, 127
2, 647280, Note_off_c, 1, 76, 0
2, 647480, Note_on_c, 1, 57, 127
2, 647480, Note_off_c, 1, 59, 0
2, 647480, Note_on_c, 1, 72, 127
2, 647480, Note_off_c, 1, 74, 0
2, 647640, Note_off_c, 1, 57, 0
2, 647640, Note_on_c, 1, 59, 127
2, 647640, Note_off_c, 1, 72, 0
2, 647640, Note_on_c, 1, 83, 127
2, 647800, Note_off_c, 1, 59, 0
2, 647800, Note_on_c, 1, 60, 127
2, 647800, Note_on_c, 1, 81, 127
2, 647800, Note_off_c, 1, 83, 0
2, 647880, Note_on_c, 1, 59, 127
2, 647880, Note_off_c, 1, 60, 0
2, 647960, Note_off_c, 1, 59, 0
2, 647960, Note_on_c, 1, 60, 127
2, 647960, Note_on_c, 1, 79, 127
2, 647960, Note_off_c, 1, 81, 0
2, 648040, Note_on_c, 1, 59, 127
2, 648040, Note_off_c, 1, 60, 0
2, 648120, Note_off_c, 1, 59, 0
2, 648120, Note_on_c, 1, 60, 127
2, 648120, Note_on_c, 1, 78, 127
2, 648120, Note_off_c, 1, 79, 0
2, 648200, Note_on_c, 1, 59, 127
2, 648200, Note_off_c, 1, 60, 0
2, 648280, Note_on_c, 1, 57, 127
2, 648280, Note_off_c, 1, 59, 0
2, 648280, Note_on_c, 1, 76, 127
2, 648280, Note_off_c, 1, 78, 0
2, 648360, Note_off_c, 1, 57, 0
2, 648360, Note_on_c, 1, 59, 127
2, 648440, Note_off_c, 1, 59, 0
2, 648440, Note_on_c, 1, 60, 127
2, 648440, Note_on_c, 1, 75, 127
2, 648440, Note_off_c, 1, 76, 0
2, 648600, Note_on_c, 1, 59, 127
2, 648600, Note_off_c, 1, 60, 0
2, 648600, Note_off_c, 1, 75, 0
2, 648600, Note_on_c, 1, 76, 127
2, 648760, Note_on_c, 1, 57, 127
2, 648760, Note_off_c, 1, 59, 0
2, 648760, Note_off_c, 1, 76, 0
2, 648760, Note_on_c, 1, 78, 127
2, 648840, Note_on_c, 1, 76, 127
2, 648840, Note_off_c, 1, 78, 0
2, 648920, Note_on_c, 1, 55, 127
2, 648920, Note_off_c, 1, 57, 0
2, 648920, Note_off_c, 1, 76, 0
2, 648920, Note_on_c, 1, 78, 127
2, 649000, Note_on_c, 1, 76, 127
2, 649000, Note_off_c, 1, 78, 0
2, 649080, Note_on_c, 1, 54, 127
2, 649080, Note_off_c, 1, 55, 0
2, 649080, Note_off_c, 1, 76, 0
2, 649080, Note_on_c, 1, 78, 127
2, 649120, Note_off_c, 1, 78, 0
2, 649160, Note_on_c, 1, 76, 127
2, 649240, Note_on_c, 1, 52, 127
2, 649240, Note_off_c, 1, 54, 0
2, 649240, Note_on_c, 1, 75, 127
2, 649240, Note_off_c, 1, 76, 0
2, 649320, Note_off_c, 1, 75, 0
2, 649320, Note_on_c, 1, 76, 127
2, 649400, Note_on_c, 1, 51, 127
2, 649400, Note_off_c, 1, 52, 0
2, 649400, Note_off_c, 1, 76, 0
2, 649400, Note_on_c, 1, 78, 127
2, 649600, Note_off_c, 1, 51, 0
2, 649600, Note_on_c, 1, 52, 127
2, 649600, Note_off_c, 1, 78, 0
2, 649600, Note_on_c, 1, 79, 127
2, 649760, Note_off_c, 1, 52, 0
2, 649760, Note_on_c, 1, 54, 127
2, 649760, Note_off_c, 1, 79, 0
2, 649760, Note_on_c, 1, 81, 127
2, 649840, Note_on_c, 1, 52, 127
2, 649840, Note_off_c, 1, 54, 0
2, 649840, Note_on_c, 1, 79, 127
2, 649840, Note_off_c, 1, 81, 0
2, 649920, Note_off_c, 1, 52, 0
2, 649920, Note_on_c, 1, 54, 127
2, 649920, Note_off_c, 1, 79, 0
2, 649920, Note_on_c, 1, 81, 127
2, 650000, Note_on_c, 1, 52, 127
2, 650000, Note_off_c, 1, 54, 0
2, 650000, Note_on_c, 1, 79, 127
2, 650000, Note_off_c, 1, 81, 0
2, 650080, Note_off_c, 1, 52, 0
2, 650080, Note_on_c, 1, 54, 127
2, 650080, Note_off_c, 1, 79, 0
2, 650080, Note_on_c, 1, 81, 127
2, 650160, Note_on_c, 1, 52, 127
2, 650160, Note_off_c, 1, 54, 0
2, 650160, Note_on_c, 1, 79, 127
2, 650160, Note_off_c, 1, 81, 0
2, 650240, Note_on_c, 1, 51, 127
2, 650240, Note_off_c, 1, 52, 0
2, 650240, Note_on_c, 1, 78, 127
2, 650240, Note_off_c, 1, 79, 0
2, 650320, Note_off_c, 1, 51, 0
2, 650320, Note_on_c, 1, 52, 127
2, 650320, Note_off_c, 1, 78, 0
2, 650320, Note_on_c, 1, 79, 127
2, 650400, Note_off_c, 1, 52, 0
2, 650400, Note_on_c, 1, 54, 127
2, 650400, Note_off_c, 1, 79, 0
2, 650400, Note_on_c, 1, 81, 127
2, 650600, Note_on_c, 1, 47, 127
2, 650600, Note_off_c, 1, 54, 0
2, 650760, Note_off_c, 1, 47, 0
2, 650760, Note_on_c, 1, 49, 127
2, 650920, Note_off_c, 1, 49, 0
2, 650920, Note_on_c, 1, 51, 127
2, 650920, Note_off_c, 1, 81, 0
2, 650920, Note_on_c, 1, 83, 127
2, 651080, Note_off_c, 1, 51, 0
2, 651080, Note_on_c, 1, 52, 127
2, 651080, Note_on_c, 1, 81, 127
2, 651080, Note_off_c, 1, 83, 0
2, 651240, Note_off_c, 1, 52, 0
2, 651240, Note_on_c, 1, 54, 127
2, 651240, Note_on_c, 1, 79, 127
2, 651240, Note_off_c, 1, 81, 0
2, 651400, Note_off_c, 1, 54, 0
2, 651400, Note_on_c, 1, 55, 127
2, 651560, Note_on_c, 1, 52, 127
2, 651560, Note_off_c, 1, 55, 0
2, 651560, Note_off_c, 1, 79, 0
2, 651560, Note_on_c, 1, 81, 127
2, 651720, Note_off_c, 1, 52, 0
2, 651720, Note_on_c, 1, 59, 127
2, 651720, Note_on_c, 1, 79, 127
2, 651720, Note_off_c, 1, 81, 0
2, 651760, Note_on_c, 1, 78, 127
2, 651760, Note_off_c, 1, 79, 0
2, 651840, Note_off_c, 1, 78, 0
2, 651840, Note_on_c, 1, 79, 127
2, 651880, Note_on_c, 1, 78, 127
2, 651880, Note_off_c, 1, 79, 0
2, 651960, Note_off_c, 1, 78, 0
2, 651960, Note_on_c, 1, 79, 127
2, 652000, Note_on_c, 1, 78, 127
2, 652000, Note_off_c, 1, 79, 0
2, 652080, Note_on_c, 1, 47, 127
2, 652080, Note_off_c, 1, 59, 0
2, 652240, Note_off_c, 1, 78, 0
2, 652240, Note_on_c, 1, 83, 127
2, 652440, Note_on_c, 1, 40, 127
2, 652440, Note_off_c, 1, 47, 0
2, 652440, Note_on_c, 1, 80, 127
2, 652440, Note_off_c, 1, 83, 0
2, 652600, Note_off_c, 1, 80, 0
2, 652600, Note_on_c, 1, 81, 127
2, 652760, Note_off_c, 1, 40, 0
2, 652760, Note_on_c, 1, 42, 127
2, 652760, Note_on_c, 1, 80, 127
2, 652760, Note_off_c, 1, 81, 0
2, 652920, Note_off_c, 1, 42, 0
2, 652920, Note_on_c, 1, 44, 127
2, 652920, Note_on_c, 1, 78, 127
2, 652920, Note_off_c, 1, 80, 0
2, 653080, Note_off_c, 1, 44, 0
2, 653080, Note_on_c, 1, 45, 127
2, 653080, Note_on_c, 1, 76, 127
2, 653080, Note_off_c, 1, 78, 0
2, 653240, Note_off_c, 1, 45, 0
2, 653240, Note_on_c, 1, 47, 127
2, 653240, Note_on_c, 1, 74, 127
2, 653240, Note_off_c, 1, 76, 0
2, 653400, Note_on_c, 1, 45, 127
2, 653400, Note_off_c, 1, 47, 0
2, 653400, Note_on_c, 1, 73, 127
2, 653400, Note_off_c, 1, 74, 0
2, 653560, Note_off_c, 1, 45, 0
2, 653560, Note_on_c, 1, 47, 127
2, 653560, Note_on_c, 1, 71, 127
2, 653560, Note_off_c, 1, 73, 0
2, 653720, Note_off_c, 1, 47, 0
2, 653720, Note_on_c, 1, 49, 127
2, 653720, Note_on_c, 1, 69, 127
2, 653720, Note_off_c, 1, 71, 0
2, 653800, Note_off_c, 1, 49, 0
2, 653840, Note_on_c, 1, 47, 127
2, 653920, Note_off_c, 1, 47, 0
2, 653920, Note_on_c, 1, 49, 127
2, 653920, Note_off_c, 1, 69, 0
2, 653920, Note_on_c, 1, 71, 127
2, 654000, Note_on_c, 1, 47, 127
2, 654000, Note_off_c, 1, 49, 0
2, 654080, Note_off_c, 1, 47, 0
2, 654080, Note_on_c, 1, 49, 127
2, 654080, Note_off_c, 1, 71, 0
2, 654080, Note_on_c, 1, 73, 127
2, 654160, Note_off_c, 1, 49, 0
2, 654200, Note_on_c, 1, 47, 127
2, 654280, Note_on_c, 1, 45, 127
2, 654280, Note_off_c, 1, 47, 0
2, 654280, Note_off_c, 1, 73, 0
2, 654280, Note_on_c, 1, 74, 127
2, 654360, Note_off_c, 1, 45, 0
2, 654360, Note_on_c, 1, 47, 127
2, 654440, Note_off_c, 1, 47, 0
2, 654440, Note_on_c, 1, 49, 127
2, 654440, Note_off_c, 1, 74, 0
2, 654440, Note_on_c, 1, 76, 127
2, 654640, Note_on_c, 1, 45, 127
2, 654640, Note_off_c, 1, 49, 0
2, 654640, Note_on_c, 1, 74, 127
2, 654640, Note_off_c, 1, 76, 0
2, 654800, Note_off_c, 1, 45, 0
2, 654800, Note_on_c, 1, 47, 127
2, 654800, Note_on_c, 1, 73, 127
2, 654800, Note_off_c, 1, 74, 0
2, 654960, Note_off_c, 1, 47, 0
2, 654960, Note_on_c, 1, 49, 127
2, 654960, Note_on_c, 1, 71, 127
2, 654960, Note_off_c, 1, 73, 0
2, 655120, Note_off_c, 1, 49, 0
2, 655120, Note_on_c, 1, 50, 127
2, 655120, Note_on_c, 1, 69, 127
2, 655120, Note_off_c, 1, 71, 0
2, 655280, Note_off_c, 1, 50, 0
2, 655280, Note_on_c, 1, 52, 127
2, 655280, Note_on_c, 1, 67, 127
2, 655280, Note_off_c, 1, 69, 0
2, 655440, Note_on_c, 1, 50, 127
2, 655440, Note_off_c, 1, 52, 0
2, 655440, Note_on_c, 1, 66, 127
2, 655440, Note_off_c, 1, 67, 0
2, 655600, Note_off_c, 1, 50, 0
2, 655600, Note_on_c, 1, 52, 127
2, 655600, Note_on_c, 1, 64, 127
2, 655600, Note_off_c, 1, 66, 0
2, 655760, Note_off_c, 1, 52, 0
2, 655760, Note_on_c, 1, 54, 127
2, 655760, Note_on_c, 1, 62, 127
2, 655760, Note_off_c, 1, 64, 0
2, 655840, Note_on_c, 1, 52, 127
2, 655840, Note_off_c, 1, 54, 0
2, 655920, Note_off_c, 1, 52, 0
2, 655920, Note_on_c, 1, 54, 127
2, 655920, Note_off_c, 1, 62, 0
2, 655920, Note_on_c, 1, 64, 127
2, 655960, Note_off_c, 1, 54, 0
2, 656000, Note_on_c, 1, 52, 127
2, 656080, Note_off_c, 1, 52, 0
2, 656080, Note_on_c, 1, 54, 127
2, 656080, Note_off_c, 1, 64, 0
2, 656080, Note_on_c, 1, 66, 127
2, 656160, Note_on_c, 1, 52, 127
2, 656160, Note_off_c, 1, 54, 0
2, 656240, Note_on_c, 1, 50, 127
2, 656240, Note_off_c, 1, 52, 0
2, 656240, Note_off_c, 1, 66, 0
2, 656240, Note_on_c, 1, 67, 127
2, 656320, Note_off_c, 1, 50, 0
2, 656360, Note_on_c, 1, 52, 127
2, 656440, Note_off_c, 1, 52, 0
2, 656440, Note_on_c, 1, 54, 127
2, 656440, Note_off_c, 1, 67, 0
2, 656440, Note_on_c, 1, 69, 127
2, 656600, Note_on_c, 1, 62, 127
2, 656600, Note_off_c, 1, 69, 0
2, 656800, Note_off_c, 1, 62, 0
2, 656800, Note_on_c, 1, 74, 127
2, 656880, Note_off_c, 1, 54, 0
2, 656960, Note_on_c, 1, 50, 127
2, 657160, Note_on_c, 1, 47, 127
2, 657160, Note_off_c, 1, 50, 0
2, 657320, Note_off_c, 1, 47, 0
2, 657320, Note_on_c, 1, 50, 127
2, 657480, Note_off_c, 1, 50, 0
2, 657520, Note_on_c, 1, 44, 127
2, 657680, Note_on_c, 1, 71, 127
2, 657680, Note_off_c, 1, 74, 0
2, 657840, Note_off_c, 1, 71, 0
2, 657880, Note_on_c, 1, 68, 127
2, 657960, Note_off_c, 1, 44, 0
2, 658040, Note_on_c, 1, 52, 127
2, 658040, Note_off_c, 1, 68, 0
2, 658040, Note_on_c, 1, 71, 127
2, 658200, Note_off_c, 1, 52, 0
2, 658200, Note_on_c, 1, 56, 127
2, 658200, Note_on_c, 1, 64, 127
2, 658200, Note_off_c, 1, 71, 0
2, 658360, Note_on_c, 1, 52, 127
2, 658360, Note_off_c, 1, 56, 0
2, 658520, Note_off_c, 1, 52, 0
2, 658520, Note_on_c, 1, 57, 127
2, 658720, Note_off_c, 1, 64, 0
2, 658720, Note_on_c, 1, 69, 127
2, 658880, Note_off_c, 1, 69, 0
2, 658880, Note_on_c, 1, 73, 127
2, 658960, Note_off_c, 1, 57, 0
2, 659080, Note_on_c, 1, 52, 127
2, 659240, Note_on_c, 1, 45, 127
2, 659240, Note_off_c, 1, 52, 0
2, 659400, Note_off_c, 1, 45, 0
2, 659440, Note_on_c, 1, 49, 127
2, 659600, Note_on_c, 1, 38, 127
2, 659600, Note_off_c, 1, 49, 0
2, 659760, Note_off_c, 1, 73, 0
2, 659800, Note_on_c, 1, 69, 127
2, 659960, Note_on_c, 1, 66, 127
2, 659960, Note_off_c, 1, 69, 0
2, 660040, Note_off_c, 1, 38, 0
2, 660120, Note_on_c, 1, 42, 127
2, 660120, Note_off_c, 1, 66, 0
2, 660120, Note_on_c, 1, 69, 127
2, 660280, Note_off_c, 1, 42, 0
2, 660280, Note_on_c, 1, 44, 127
2, 660280, Note_on_c, 1, 62, 127
2, 660280, Note_off_c, 1, 69, 0
2, 660440, Note_off_c, 1, 62, 0
2, 660480, Note_on_c, 1, 73, 127
2, 660640, Note_on_c, 1, 71, 127
2, 660640, Note_off_c, 1, 73, 0
2, 660760, Note_off_c, 1, 44, 0
2, 660800, Note_on_c, 1, 47, 127
2, 660800, Note_on_c, 1, 68, 127
2, 660800, Note_off_c, 1, 71, 0
2, 661000, Note_off_c, 1, 47, 0
2, 661000, Note_on_c, 1, 49, 127
2, 661000, Note_on_c, 1, 64, 127
2, 661000, Note_off_c, 1, 68, 0
2, 661160, Note_off_c, 1, 64, 0
2, 661160, Note_on_c, 1, 68, 127
2, 661320, Note_off_c, 1, 68, 0
2, 661360, Note_on_c, 1, 61, 127
2, 661440, Note_off_c, 1, 49, 0
2, 661520, Note_on_c, 1, 52, 127
2, 661520, Note_off_c, 1, 61, 0
2, 661520, Note_on_c, 1, 71, 127
2, 661680, Note_off_c, 1, 52, 0
2, 661680, Note_on_c, 1, 54, 127
2, 661680, Note_on_c, 1, 69, 127
2, 661680, Note_off_c, 1, 71, 0
2, 661840, Note_off_c, 1, 54, 0
2, 661840, Note_on_c, 1, 57, 127
2, 661840, Note_on_c, 1, 66, 127
2, 661840, Note_off_c, 1, 69, 0
2, 662000, Note_off_c, 1, 57, 0
2, 662000, Note_on_c, 1, 59, 127
2, 662000, Note_on_c, 1, 62, 127
2, 662000, Note_off_c, 1, 66, 0
2, 662160, Note_on_c, 1, 54, 127
2, 662160, Note_off_c, 1, 59, 0
2, 662160, Note_off_c, 1, 62, 0
2, 662160, Note_on_c, 1, 66, 127
2, 662320, Note_on_c, 1, 50, 127
2, 662320, Note_off_c, 1, 54, 0
2, 662320, Note_on_c, 1, 59, 127
2, 662320, Note_off_c, 1, 66, 0
2, 662480, Note_on_c, 1, 47, 127
2, 662480, Note_off_c, 1, 50, 0
2, 662480, Note_off_c, 1, 59, 0
2, 662480, Note_on_c, 1, 69, 127
2, 662640, Note_off_c, 1, 47, 0
2, 662640, Note_on_c, 1, 52, 127
2, 662640, Note_on_c, 1, 68, 127
2, 662640, Note_off_c, 1, 69, 0
2, 662840, Note_off_c, 1, 52, 0
2, 662840, Note_on_c, 1, 57, 127
2, 662840, Note_on_c, 1, 64, 127
2, 662840, Note_off_c, 1, 68, 0
2, 663000, Note_on_c, 1, 56, 127
2, 663000, Note_off_c, 1, 57, 0
2, 663000, Note_off_c, 1, 64, 0
2, 663000, Note_on_c, 1, 66, 127
2, 663200, Note_on_c, 1, 54, 127
2, 663200, Note_off_c, 1, 56, 0
2, 663200, Note_off_c, 1, 66, 0
2, 663200, Note_on_c, 1, 68, 127
2, 663360, Note_on_c, 1, 52, 127
2, 663360, Note_off_c, 1, 54, 0
2, 663360, Note_off_c, 1, 68, 0
2, 663360, Note_on_c, 1, 69, 127
2, 663520, Note_on_c, 1, 50, 127
2, 663520, Note_off_c, 1, 52, 0
2, 663520, Note_off_c, 1, 69, 0
2, 663520, Note_on_c, 1, 71, 127
2, 663680, Note_on_c, 1, 49, 127
2, 663680, Note_off_c, 1, 50, 0
2, 663680, Note_on_c, 1, 69, 127
2, 663680, Note_off_c, 1, 71, 0
2, 663840, Note_off_c, 1, 49, 0
2, 663840, Note_on_c, 1, 50, 127
2, 663840, Note_off_c, 1, 69, 0
2, 663840, Note_on_c, 1, 71, 127
2, 664000, Note_off_c, 1, 50, 0
2, 664000, Note_on_c, 1, 52, 127
2, 664000, Note_off_c, 1, 71, 0
2, 664000, Note_on_c, 1, 73, 127
2, 664080, Note_on_c, 1, 71, 127
2, 664080, Note_off_c, 1, 73, 0
2, 664160, Note_on_c, 1, 50, 127
2, 664160, Note_off_c, 1, 52, 0
2, 664160, Note_off_c, 1, 71, 0
2, 664160, Note_on_c, 1, 73, 127
2, 664240, Note_on_c, 1, 71, 127
2, 664240, Note_off_c, 1, 73, 0
2, 664320, Note_on_c, 1, 49, 127
2, 664320, Note_off_c, 1, 50, 0
2, 664320, Note_off_c, 1, 71, 0
2, 664320, Note_on_c, 1, 73, 127
2, 664400, Note_on_c, 1, 71, 127
2, 664400, Note_off_c, 1, 73, 0
2, 664480, Note_on_c, 1, 47, 127
2, 664480, Note_off_c, 1, 49, 0
2, 664480, Note_on_c, 1, 69, 127
2, 664480, Note_off_c, 1, 71, 0
2, 664520, Note_off_c, 1, 69, 0
2, 664560, Note_on_c, 1, 71, 127
2, 664640, Note_on_c, 1, 45, 127
2, 664640, Note_off_c, 1, 47, 0
2, 664640, Note_off_c, 1, 71, 0
2, 664640, Note_on_c, 1, 73, 127
2, 664800, Note_off_c, 1, 45, 0
2, 664800, Note_on_c, 1, 50, 127
2, 664800, Note_on_c, 1, 69, 127
2, 664800, Note_off_c, 1, 73, 0
2, 665000, Note_on_c, 1, 49, 127
2, 665000, Note_off_c, 1, 50, 0
2, 665000, Note_off_c, 1, 69, 0
2, 665000, Note_on_c, 1, 71, 127
2, 665160, Note_on_c, 1, 47, 127
2, 665160, Note_off_c, 1, 49, 0
2, 665160, Note_off_c, 1, 71, 0
2, 665160, Note_on_c, 1, 73, 127
2, 665360, Note_on_c, 1, 45, 127
2, 665360, Note_off_c, 1, 47, 0
2, 665360, Note_off_c, 1, 73, 0
2, 665360, Note_on_c, 1, 74, 127
2, 665520, Note_on_c, 1, 43, 127
2, 665520, Note_off_c, 1, 45, 0
2, 665520, Note_off_c, 1, 74, 0
2, 665520, Note_on_c, 1, 76, 127
2, 665680, Note_on_c, 1, 42, 127
2, 665680, Note_off_c, 1, 43, 0
2, 665680, Note_on_c, 1, 74, 127
2, 665680, Note_off_c, 1, 76, 0
2, 665840, Note_off_c, 1, 42, 0
2, 665840, Note_on_c, 1, 43, 127
2, 665840, Note_off_c, 1, 74, 0
2, 665840, Note_on_c, 1, 76, 127
2, 666000, Note_off_c, 1, 43, 0
2, 666000, Note_on_c, 1, 45, 127
2, 666000, Note_off_c, 1, 76, 0
2, 666000, Note_on_c, 1, 78, 127
2, 666080, Note_on_c, 1, 76, 127
2, 666080, Note_off_c, 1, 78, 0
2, 666160, Note_on_c, 1, 43, 127
2, 666160, Note_off_c, 1, 45, 0
2, 666160, Note_off_c, 1, 76, 0
2, 666160, Note_on_c, 1, 78, 127
2, 666240, Note_on_c, 1, 76, 127
2, 666240, Note_off_c, 1, 78, 0
2, 666320, Note_on_c, 1, 42, 127
2, 666320, Note_off_c, 1, 43, 0
2, 666320, Note_off_c, 1, 76, 0
2, 666320, Note_on_c, 1, 78, 127
2, 666400, Note_on_c, 1, 76, 127
2, 666400, Note_off_c, 1, 78, 0
2, 666480, Note_on_c, 1, 40, 127
2, 666480, Note_off_c, 1, 42, 0
2, 666480, Note_on_c, 1, 74, 127
2, 666480, Note_off_c, 1, 76, 0
2, 666560, Note_off_c, 1, 74, 0
2, 666560, Note_on_c, 1, 76, 127
2, 666640, Note_on_c, 1, 38, 127
2, 666640, Note_off_c, 1, 40, 0
2, 666640, Note_off_c, 1, 76, 0
2, 666640, Note_on_c, 1, 78, 127
2, 666800, Note_off_c, 1, 38, 0
2, 666800, Note_on_c, 1, 42, 127
2, 666800, Note_on_c, 1, 74, 127
2, 666800, Note_off_c, 1, 78, 0
2, 666960, Note_off_c, 1, 42, 0
2, 666960, Note_on_c, 1, 43, 127
2, 666960, Note_off_c, 1, 74, 0
2, 666960, Note_on_c, 1, 76, 127
2, 667160, Note_off_c, 1, 43, 0
2, 667160, Note_on_c, 1, 45, 127
2, 667160, Note_off_c, 1, 76, 0
2, 667160, Note_on_c, 1, 78, 127
2, 667320, Note_off_c, 1, 45, 0
2, 667320, Note_on_c, 1, 47, 127
2, 667320, Note_off_c, 1, 78, 0
2, 667320, Note_on_c, 1, 79, 127
2, 667520, Note_off_c, 1, 47, 0
2, 667520, Note_on_c, 1, 49, 127
2, 667520, Note_off_c, 1, 79, 0
2, 667520, Note_on_c, 1, 81, 127
2, 667680, Note_off_c, 1, 49, 0
2, 667680, Note_on_c, 1, 50, 127
2, 667680, Note_on_c, 1, 80, 127
2, 667680, Note_off_c, 1, 81, 0
2, 667840, Note_off_c, 1, 50, 0
2, 667840, Note_on_c, 1, 52, 127
2, 667840, Note_off_c, 1, 80, 0
2, 667840, Note_on_c, 1, 81, 127
2, 668000, Note_on_c, 1, 50, 127
2, 668000, Note_off_c, 1, 52, 0
2, 668000, Note_off_c, 1, 81, 0
2, 668000, Note_on_c, 1, 83, 127
2, 668080, Note_on_c, 1, 81, 127
2, 668080, Note_off_c, 1, 83, 0
2, 668160, Note_on_c, 1, 49, 127
2, 668160, Note_off_c, 1, 50, 0
2, 668160, Note_off_c, 1, 81, 0
2, 668160, Note_on_c, 1, 83, 127
2, 668240, Note_on_c, 1, 81, 127
2, 668240, Note_off_c, 1, 83, 0
2, 668320, Note_on_c, 1, 47, 127
2, 668320, Note_off_c, 1, 49, 0
2, 668320, Note_off_c, 1, 81, 0
2, 668320, Note_on_c, 1, 83, 127
2, 668400, Note_on_c, 1, 81, 127
2, 668400, Note_off_c, 1, 83, 0
2, 668480, Note_on_c, 1, 45, 127
2, 668480, Note_off_c, 1, 47, 0
2, 668480, Note_on_c, 1, 80, 127
2, 668480, Note_off_c, 1, 81, 0
2, 668560, Note_off_c, 1, 80, 0
2, 668560, Note_on_c, 1, 81, 127
2, 668640, Note_on_c, 1, 44, 127
2, 668640, Note_off_c, 1, 45, 0
2, 668640, Note_off_c, 1, 81, 0
2, 668640, Note_on_c, 1, 83, 127
2, 668800, Note_on_c, 1, 40, 127
2, 668800, Note_off_c, 1, 44, 0
2, 668800, Note_on_c, 1, 81, 127
2, 668800, Note_off_c, 1, 83, 0
2, 668960, Note_off_c, 1, 40, 0
2, 668960, Note_on_c, 1, 42, 127
2, 668960, Note_on_c, 1, 80, 127
2, 668960, Note_off_c, 1, 81, 0
2, 669120, Note_off_c, 1, 42, 0
2, 669120, Note_on_c, 1, 44, 127
2, 669120, Note_on_c, 1, 78, 127
2, 669120, Note_off_c, 1, 80, 0
2, 669320, Note_off_c, 1, 44, 0
2, 669320, Note_on_c, 1, 45, 127
2, 669320, Note_on_c, 1, 76, 127
2, 669320, Note_off_c, 1, 78, 0
2, 669480, Note_off_c, 1, 45, 0
2, 669480, Note_on_c, 1, 47, 127
2, 669480, Note_on_c, 1, 74, 127
2, 669480, Note_off_c, 1, 76, 0
2, 669680, Note_on_c, 1, 45, 127
2, 669680, Note_off_c, 1, 47, 0
2, 669680, Note_on_c, 1, 73, 127
2, 669680, Note_off_c, 1, 74, 0
2, 669840, Note_off_c, 1, 45, 0
2, 669840, Note_on_c, 1, 47, 127
2, 669840, Note_on_c, 1, 71, 127
2, 669840, Note_off_c, 1, 73, 0
2, 670000, Note_off_c, 1, 47, 0
2, 670000, Note_on_c, 1, 49, 127
2, 670000, Note_on_c, 1, 69, 127
2, 670000, Note_off_c, 1, 71, 0
2, 670080, Note_on_c, 1, 47, 127
2, 670080, Note_off_c, 1, 49, 0
2, 670160, Note_off_c, 1, 47, 0
2, 670160, Note_on_c, 1, 49, 127
2, 670160, Note_off_c, 1, 69, 0
2, 670160, Note_on_c, 1, 71, 127
2, 670240, Note_on_c, 1, 47, 127
2, 670240, Note_off_c, 1, 49, 0
2, 670320, Note_off_c, 1, 47, 0
2, 670320, Note_on_c, 1, 49, 127
2, 670320, Note_off_c, 1, 71, 0
2, 670320, Note_on_c, 1, 73, 127
2, 670400, Note_on_c, 1, 47, 127
2, 670400, Note_off_c, 1, 49, 0
2, 670480, Note_on_c, 1, 45, 127
2, 670480, Note_off_c, 1, 47, 0
2, 670480, Note_off_c, 1, 73, 0
2, 670480, Note_on_c, 1, 74, 127
2, 670560, Note_off_c, 1, 45, 0
2, 670560, Note_on_c, 1, 47, 127
2, 670640, Note_off_c, 1, 47, 0
2, 670640, Note_on_c, 1, 49, 127
2, 670640, Note_off_c, 1, 74, 0
2, 670640, Note_on_c, 1, 76, 127
2, 670800, Note_on_c, 1, 47, 127
2, 670800, Note_off_c, 1, 49, 0
2, 670800, Note_on_c, 1, 74, 127
2, 670800, Note_off_c, 1, 76, 0
2, 670960, Note_on_c, 1, 45, 127
2, 670960, Note_off_c, 1, 47, 0
2, 670960, Note_on_c, 1, 73, 127
2, 670960, Note_off_c, 1, 74, 0
2, 671120, Note_off_c, 1, 45, 0
2, 671120, Note_on_c, 1, 47, 127
2, 671120, Note_on_c, 1, 71, 127
2, 671120, Note_off_c, 1, 73, 0
2, 671280, Note_off_c, 1, 47, 0
2, 671280, Note_on_c, 1, 49, 127
2, 671280, Note_on_c, 1, 69, 127
2, 671280, Note_off_c, 1, 71, 0
2, 671480, Note_on_c, 1, 45, 127
2, 671480, Note_off_c, 1, 49, 0
2, 671480, Note_on_c, 1, 67, 127
2, 671480, Note_off_c, 1, 69, 0
2, 671640, Note_off_c, 1, 45, 0
2, 671640, Note_on_c, 1, 50, 127
2, 671640, Note_on_c, 1, 66, 127
2, 671640, Note_off_c, 1, 67, 0
2, 671840, Note_on_c, 1, 49, 127
2, 671840, Note_off_c, 1, 50, 0
2, 671840, Note_off_c, 1, 66, 0
2, 671840, Note_on_c, 1, 76, 127
2, 672000, Note_on_c, 1, 47, 127
2, 672000, Note_off_c, 1, 49, 0
2, 672000, Note_on_c, 1, 74, 127
2, 672000, Note_off_c, 1, 76, 0
2, 672160, Note_off_c, 1, 47, 0
2, 672160, Note_on_c, 1, 49, 127
2, 672160, Note_on_c, 1, 73, 127
2, 672160, Note_off_c, 1, 74, 0
2, 672320, Note_off_c, 1, 49, 0
2, 672320, Note_on_c, 1, 50, 127
2, 672320, Note_on_c, 1, 71, 127
2, 672320, Note_off_c, 1, 73, 0
2, 672480, Note_on_c, 1, 47, 127
2, 672480, Note_off_c, 1, 50, 0
2, 672480, Note_on_c, 1, 69, 127
2, 672480, Note_off_c, 1, 71, 0
2, 672640, Note_off_c, 1, 47, 0
2, 672640, Note_on_c, 1, 52, 127
2, 672640, Note_on_c, 1, 68, 127
2, 672640, Note_off_c, 1, 69, 0
2, 672800, Note_off_c, 1, 52, 0
2, 672800, Note_on_c, 1, 54, 127
2, 672800, Note_on_c, 1, 64, 127
2, 672800, Note_off_c, 1, 68, 0
2, 672960, Note_on_c, 1, 52, 127
2, 672960, Note_off_c, 1, 54, 0
2, 672960, Note_off_c, 1, 64, 0
2, 672960, Note_on_c, 1, 66, 127
2, 673120, Note_on_c, 1, 50, 127
2, 673120, Note_off_c, 1, 52, 0
2, 673120, Note_off_c, 1, 66, 0
2, 673120, Note_on_c, 1, 68, 127
2, 673320, Note_on_c, 1, 49, 127
2, 673320, Note_off_c, 1, 50, 0
2, 673320, Note_off_c, 1, 68, 0
2, 673320, Note_on_c, 1, 69, 127
2, 673480, Note_on_c, 1, 47, 127
2, 673480, Note_off_c, 1, 49, 0
2, 673480, Note_on_c, 1, 68, 127
2, 673480, Note_off_c, 1, 69, 0
2, 673680, Note_off_c, 1, 47, 0
2, 673680, Note_on_c, 1, 49, 127
2, 673680, Note_off_c, 1, 68, 0
2, 673680, Note_on_c, 1, 69, 127
2, 673840, Note_off_c, 1, 49, 0
2, 673840, Note_on_c, 1, 50, 127
2, 673840, Note_off_c, 1, 69, 0
2, 673840, Note_on_c, 1, 71, 127
2, 674000, Note_off_c, 1, 50, 0
2, 674000, Note_on_c, 1, 52, 127
2, 674000, Note_on_c, 1, 69, 127
2, 674000, Note_off_c, 1, 71, 0
2, 674040, Note_on_c, 1, 68, 127
2, 674040, Note_off_c, 1, 69, 0
2, 674120, Note_off_c, 1, 68, 0
2, 674120, Note_on_c, 1, 69, 127
2, 674160, Note_on_c, 1, 68, 127
2, 674160, Note_off_c, 1, 69, 0
2, 674240, Note_off_c, 1, 68, 0
2, 674240, Note_on_c, 1, 69, 127
2, 674280, Note_on_c, 1, 68, 127
2, 674280, Note_off_c, 1, 69, 0
2, 674320, Note_off_c, 1, 52, 0
2, 674360, Note_on_c, 1, 40, 127
2, 674640, Note_off_c, 1, 68, 0
2, 674680, Note_off_c, 1, 40, 0
2, 674680, Note_on_c, 1, 45, 127
2, 674680, Note_on_c, 1, 69, 127
2, 674840, Note_off_c, 1, 69, 0
2, 674840, Note_on_c, 1, 71, 127
2, 675000, Note_off_c, 1, 45, 0
2, 675000, Note_on_c, 1, 57, 127
2, 675000, Note_off_c, 1, 71, 0
2, 675000, Note_on_c, 1, 73, 127
2, 675160, Note_on_c, 1, 56, 127
2, 675160, Note_off_c, 1, 57, 0
2, 675160, Note_off_c, 1, 73, 0
2, 675160, Note_on_c, 1, 74, 127
2, 675320, Note_on_c, 1, 54, 127
2, 675320, Note_off_c, 1, 56, 0
2, 675320, Note_off_c, 1, 74, 0
2, 675320, Note_on_c, 1, 76, 127
2, 675520, Note_on_c, 1, 52, 127
2, 675520, Note_off_c, 1, 54, 0
2, 675520, Note_on_c, 1, 73, 127
2, 675520, Note_off_c, 1, 76, 0
2, 675680, Note_on_c, 1, 50, 127
2, 675680, Note_off_c, 1, 52, 0
2, 675680, Note_off_c, 1, 73, 0
2, 675680, Note_on_c, 1, 78, 127
2, 675880, Note_on_c, 1, 76, 127
2, 675880, Note_off_c, 1, 78, 0
2, 676040, Note_off_c, 1, 50, 0
2, 676040, Note_on_c, 1, 52, 127
2, 676040, Note_on_c, 1, 74, 127
2, 676040, Note_off_c, 1, 76, 0
2, 676120, Note_off_c, 1, 52, 0
2, 676160, Note_on_c, 1, 50, 127
2, 676200, Note_off_c, 1, 50, 0
2, 676200, Note_on_c, 1, 52, 127
2, 676200, Note_on_c, 1, 73, 127
2, 676200, Note_off_c, 1, 74, 0
2, 676280, Note_on_c, 1, 50, 127
2, 676280, Note_off_c, 1, 52, 0
2, 676360, Note_off_c, 1, 50, 0
2, 676360, Note_on_c, 1, 52, 127
2, 676360, Note_on_c, 1, 71, 127
2, 676360, Note_off_c, 1, 73, 0
2, 676440, Note_on_c, 1, 50, 127
2, 676440, Note_off_c, 1, 52, 0
2, 676520, Note_on_c, 1, 49, 127
2, 676520, Note_off_c, 1, 50, 0
2, 676520, Note_on_c, 1, 69, 127
2, 676520, Note_off_c, 1, 71, 0
2, 676600, Note_off_c, 1, 49, 0
2, 676600, Note_on_c, 1, 50, 127
2, 676680, Note_off_c, 1, 50, 0
2, 676680, Note_on_c, 1, 52, 127
2, 676680, Note_on_c, 1, 68, 127
2, 676680, Note_off_c, 1, 69, 0
2, 676840, Note_off_c, 1, 52, 0
2, 676840, Note_on_c, 1, 54, 127
2, 676840, Note_off_c, 1, 68, 0
2, 676840, Note_on_c, 1, 69, 127
2, 677000, Note_off_c, 1, 54, 0
2, 677000, Note_on_c, 1, 56, 127
2, 677000, Note_off_c, 1, 69, 0
2, 677000, Note_on_c, 1, 71, 127
2, 677160, Note_on_c, 1, 54, 127
2, 677160, Note_off_c, 1, 56, 0
2, 677160, Note_off_c, 1, 71, 0
2, 677160, Note_on_c, 1, 73, 127
2, 677320, Note_on_c, 1, 52, 127
2, 677320, Note_off_c, 1, 54, 0
2, 677320, Note_off_c, 1, 73, 0
2, 677320, Note_on_c, 1, 74, 127
2, 677480, Note_on_c, 1, 50, 127
2, 677480, Note_off_c, 1, 52, 0
2, 677480, Note_on_c, 1, 71, 127
2, 677480, Note_off_c, 1, 74, 0
2, 677680, Note_on_c, 1, 49, 127
2, 677680, Note_off_c, 1, 50, 0
2, 677680, Note_off_c, 1, 71, 0
2, 677680, Note_on_c, 1, 76, 127
2, 677840, Note_on_c, 1, 74, 127
2, 677840, Note_off_c, 1, 76, 0
2, 678040, Note_off_c, 1, 49, 0
2, 678040, Note_on_c, 1, 50, 127
2, 678040, Note_on_c, 1, 73, 127
2, 678040, Note_off_c, 1, 74, 0
2, 678120, Note_on_c, 1, 49, 127
2, 678120, Note_off_c, 1, 50, 0
2, 678200, Note_off_c, 1, 49, 0
2, 678200, Note_on_c, 1, 50, 127
2, 678200, Note_on_c, 1, 71, 127
2, 678200, Note_off_c, 1, 73, 0
2, 678280, Note_off_c, 1, 50, 0
2, 678320, Note_on_c, 1, 49, 127
2, 678400, Note_off_c, 1, 49, 0
2, 678400, Note_on_c, 1, 50, 127
2, 678400, Note_on_c, 1, 69, 127
2, 678400, Note_off_c, 1, 71, 0
2, 678480, Note_on_c, 1, 49, 127
2, 678480, Note_off_c, 1, 50, 0
2, 678560, Note_on_c, 1, 47, 127
2, 678560, Note_off_c, 1, 49, 0
2, 678560, Note_on_c, 1, 68, 127
2, 678560, Note_off_c, 1, 69, 0
2, 678640, Note_off_c, 1, 47, 0
2, 678680, Note_on_c, 1, 49, 127
2, 678720, Note_off_c, 1, 49, 0
2, 678720, Note_on_c, 1, 50, 127
2, 678720, Note_on_c, 1, 66, 127
2, 678720, Note_off_c, 1, 68, 0
2, 678880, Note_off_c, 1, 50, 0
2, 678880, Note_on_c, 1, 52, 127
2, 678880, Note_off_c, 1, 66, 0
2, 678880, Note_on_c, 1, 68, 127
2, 679040, Note_off_c, 1, 52, 0
2, 679040, Note_on_c, 1, 54, 127
2, 679040, Note_off_c, 1, 68, 0
2, 679040, Note_on_c, 1, 69, 127
2, 679200, Note_on_c, 1, 52, 127
2, 679200, Note_off_c, 1, 54, 0
2, 679200, Note_off_c, 1, 69, 0
2, 679200, Note_on_c, 1, 71, 127
2, 679360, Note_on_c, 1, 50, 127
2, 679360, Note_off_c, 1, 52, 0
2, 679360, Note_off_c, 1, 71, 0
2, 679360, Note_on_c, 1, 73, 127
2, 679520, Note_on_c, 1, 49, 127
2, 679520, Note_off_c, 1, 50, 0
2, 679520, Note_on_c, 1, 69, 127
2, 679520, Note_off_c, 1, 73, 0
2, 679680, Note_on_c, 1, 47, 127
2, 679680, Note_off_c, 1, 49, 0
2, 679680, Note_off_c, 1, 69, 0
2, 679680, Note_on_c, 1, 74, 127
2, 679880, Note_off_c, 1, 47, 0
2, 679880, Note_on_c, 1, 49, 127
2, 679880, Note_on_c, 1, 73, 127
2, 679880, Note_off_c, 1, 74, 0
2, 680040, Note_off_c, 1, 49, 0
2, 680040, Note_on_c, 1, 50, 127
2, 680040, Note_on_c, 1, 71, 127
2, 680040, Note_off_c, 1, 73, 0
2, 680240, Note_on_c, 1, 49, 127
2, 680240, Note_off_c, 1, 50, 0
2, 680240, Note_on_c, 1, 69, 127
2, 680240, Note_off_c, 1, 71, 0
2, 680400, Note_on_c, 1, 47, 127
2, 680400, Note_off_c, 1, 49, 0
2, 680400, Note_on_c, 1, 68, 127
2, 680400, Note_off_c, 1, 69, 0
2, 680560, Note_on_c, 1, 45, 127
2, 680560, Note_off_c, 1, 47, 0
2, 680560, Note_on_c, 1, 66, 127
2, 680560, Note_off_c, 1, 68, 0
2, 680720, Note_on_c, 1, 44, 127
2, 680720, Note_off_c, 1, 45, 0
2, 680720, Note_on_c, 1, 64, 127
2, 680720, Note_off_c, 1, 66, 0
2, 680880, Note_off_c, 1, 64, 0
2, 680920, Note_on_c, 1, 74, 127
2, 681080, Note_off_c, 1, 44, 0
2, 681080, Note_on_c, 1, 52, 127
2, 681080, Note_on_c, 1, 73, 127
2, 681080, Note_off_c, 1, 74, 0
2, 681280, Note_on_c, 1, 71, 127
2, 681280, Note_off_c, 1, 73, 0
2, 681440, Note_off_c, 1, 52, 0
2, 681440, Note_on_c, 1, 54, 127
2, 681440, Note_on_c, 1, 69, 127
2, 681440, Note_off_c, 1, 71, 0
2, 681640, Note_on_c, 1, 68, 127
2, 681640, Note_off_c, 1, 69, 0
2, 681800, Note_on_c, 1, 50, 127
2, 681800, Note_off_c, 1, 54, 0
2, 681800, Note_off_c, 1, 68, 0
2, 681800, Note_on_c, 1, 69, 127
2, 682000, Note_off_c, 1, 69, 0
2, 682000, Note_on_c, 1, 71, 127
2, 682160, Note_off_c, 1, 50, 0
2, 682160, Note_on_c, 1, 52, 127
2, 682160, Note_off_c, 1, 71, 0
2, 682160, Note_on_c, 1, 73, 127
2, 682240, Note_on_c, 1, 71, 127
2, 682240, Note_off_c, 1, 73, 0
2, 682320, Note_off_c, 1, 71, 0
2, 682320, Note_on_c, 1, 73, 127
2, 682400, Note_on_c, 1, 71, 127
2, 682400, Note_off_c, 1, 73, 0
2, 682480, Note_off_c, 1, 71, 0
2, 682480, Note_on_c, 1, 73, 127
2, 682520, Note_off_c, 1, 52, 0
2, 682560, Note_on_c, 1, 40, 127
2, 682560, Note_on_c, 1, 71, 127
2, 682560, Note_off_c, 1, 73, 0
2, 682720, Note_on_c, 1, 69, 127
2, 682720, Note_off_c, 1, 71, 0
2, 682920, Note_on_c, 1, 33, 127
2, 682920, Note_off_c, 1, 40, 0
2, 683320, Note_on_c, 1, 37, 127
2, 683760, Note_off_c, 1, 37, 0
2, 683760, Note_on_c, 1, 40, 127
2, 684160, Note_off_c, 1, 40, 0
2, 684160, Note_on_c, 1, 45, 127
2, 687120, Note_off_c, 1, 33, 0
2, 687120, Note_off_c, 1, 45, 0
2, 687120, Note_off_c, 1, 69, 0
2, 687160, End_track
0, 0, End_of_file
